<?xml version="1.0" encoding="utf-8"?>
<!-- Generator: Adobe Illustrator 16.0.4, SVG Export Plug-In . SVG Version: 6.00 Build 0)  -->
<!DOCTYPE svg PUBLIC "-//W3C//DTD SVG 1.1//EN" "http://www.w3.org/Graphics/SVG/1.1/DTD/svg11.dtd">
<svg version="1.1" id="Layer_1" xmlns="http://www.w3.org/2000/svg" xmlns:xlink="http://www.w3.org/1999/xlink" x="0px" y="0px"
	 width="429.2px" height="106.4px" viewBox="0 0 429.2 106.4" style="enable-background:new 0 0 429.2 106.4;" xml:space="preserve"
	>
<style type="text/css">
<![CDATA[
	.st0{fill:none;stroke:#009444;stroke-width:8.2985;stroke-miterlimit:10;}
	.st1{fill:none;stroke:#E1871E;stroke-width:4.1406;stroke-miterlimit:10;}
	.st2{fill:none;stroke:#00AEEF;stroke-width:17.3271;stroke-miterlimit:10;}
	.st3{fill:none;stroke:#00AEEF;stroke-width:7.8639;stroke-miterlimit:10;}
	.st4{fill:#E0E0E0;}
	.st5{fill:#E1871E;}
	.st6{opacity:0.6;clip-path:url(#SVGID_18_);fill:url(#SVGID_19_);}
	.st7{fill:none;stroke:#00AEEF;stroke-width:4.1406;stroke-miterlimit:10;}
	.st8{fill:#ED1C24;}
	.st9{fill:none;stroke:#414042;stroke-width:13.892;stroke-miterlimit:10;}
	.st10{fill:none;stroke:#FFFFFF;stroke-width:0.6732;stroke-miterlimit:10;}
	.st11{opacity:0.8;fill:#FFFFFF;}
	.st12{fill:none;stroke:#E1871E;stroke-width:8.2985;stroke-miterlimit:10;}
	.st13{clip-path:url(#SVGID_18_);fill:none;stroke:#00AEEF;stroke-width:24.9644;stroke-miterlimit:10;}
	.st14{opacity:0.6;fill:url(#SVGID_3_);}
	.st15{opacity:0.6;fill:url(#SVGID_4_);}
	.st16{opacity:0.6;fill:url(#SVGID_7_);}
	.st17{opacity:0.6;fill:url(#SVGID_8_);}
	.st18{fill:#231F20;}
	.st19{fill:#00AEEF;stroke:#00AEEF;stroke-width:1.5728;stroke-linejoin:round;stroke-miterlimit:10;}
	.st20{opacity:0.9;fill:url(#SVGID_15_);stroke:url(#SVGID_16_);stroke-miterlimit:10;}
	.st21{fill:none;stroke:#00AEEF;stroke-width:8.2985;stroke-miterlimit:10;}
	.st22{fill:#00AEEF;stroke:#00AEEF;stroke-width:1.6597;stroke-linejoin:round;stroke-miterlimit:10;}
	.st23{clip-path:url(#SVGID_2_);}
	.st24{fill:url(#SVGID_5_);}
	.st25{fill:url(#SVGID_6_);}
	.st26{fill:url(#SVGID_9_);}
	.st27{fill:#2BB673;}
	.st28{clip-path:url(#SVGID_21_);fill:none;stroke:#00AEEF;stroke-width:24.9644;stroke-miterlimit:10;}
	.st29{opacity:0.8;}
	.st30{fill:#FFFFFF;}
	.st31{opacity:0.6;clip-path:url(#SVGID_21_);fill:url(#SVGID_22_);}
	.st32{fill:none;stroke:#00AEEF;stroke-width:18.2529;stroke-miterlimit:10;}
	.st33{opacity:0.6;fill:url(#SVGID_11_);}
	.st34{opacity:0.6;fill:url(#SVGID_12_);}
	.st35{opacity:0.6;fill:url(#SVGID_23_);}
	.st36{opacity:0.6;fill:url(#SVGID_24_);}
	.st37{opacity:0.6;fill:url(#SVGID_25_);}
	.st38{opacity:0.6;fill:url(#SVGID_26_);}
	.st39{opacity:0.6;fill:url(#SVGID_27_);}
	.st40{opacity:0.6;fill:url(#SVGID_28_);}
	.st41{opacity:0.6;fill:url(#SVGID_29_);}
	.st42{opacity:0.6;fill:url(#SVGID_30_);}
	.st43{fill:none;stroke:#ED1C24;stroke-width:7.8639;stroke-miterlimit:10;}
	.st44{fill:none;stroke:#009444;stroke-width:7.8639;stroke-miterlimit:10;}
	.st45{opacity:0.8;fill:#414042;}
	.st46{fill:none;stroke:#ED1C24;stroke-width:4.1406;stroke-miterlimit:10;}
	.st47{fill:none;stroke:#009444;stroke-width:4.1406;stroke-miterlimit:10;}
	.st48{fill:url(#SVGID_10_);}
	.st49{fill:url(#SVGID_13_);}
	.st50{fill:url(#SVGID_14_);}
	.st51{fill:none;stroke:#00AEEF;stroke-width:18.9435;stroke-miterlimit:10;}
	.st52{fill:#00AEEF;stroke:#00AEEF;stroke-width:0.8281;stroke-linejoin:round;stroke-miterlimit:10;}
	.st53{fill:#A7A9AC;}
	.st54{fill:none;stroke:#FFFFFF;stroke-width:2.0197;stroke-miterlimit:10;}
	.st55{fill:#414042;}
	.st56{fill:none;stroke:#E1871E;stroke-width:7.8639;stroke-miterlimit:10;}
	.st57{fill:none;stroke:#FFFFFF;stroke-width:0.7395;stroke-miterlimit:10;}
	.st58{fill:none;stroke:#ED1C24;stroke-width:8.2985;stroke-miterlimit:10;}
]]>
</style>
<g>
	<g>
		<path class="st55" d="M25.8,37.6c-0.6-0.6-1.3-0.9-2.1-0.9H3.1c-0.8,0-1.6,0.3-2.1,0.9C0.3,38.2,0,38.9,0,39.7v63.1
			c0,0.8,0.3,1.6,0.9,2.1c0.6,0.6,1.3,0.9,2.1,0.9h2.1c0.8,0,1.5-0.3,2.1-0.9c0.6-0.6,0.9-1.3,0.9-2.1V87.6
			c-5.6-5.8-5.7-12.7-5.7-23.4c0,0,2.3,0,5.7,0V46.3c0-0.4,0.2-0.8,0.5-1C9,45,9.3,44.9,9.8,44.9h13.9c0.8,0,1.5-0.3,2.1-0.9
			c0.6-0.6,0.9-1.3,0.9-2.1v-2.1C26.7,38.9,26.4,38.2,25.8,37.6z"/>
		<path class="st55" d="M8.2,94.3V75.8c0-0.4,0.2-0.8,0.5-1c0.3-0.3,0.7-0.4,1.1-0.4H15c0.8,0,1.5-0.3,2.1-0.9
			c0.6-0.6,0.9-1.3,0.9-2.1v-2.1c0-0.8-0.3-1.6-0.9-2.1c-0.6-0.6-1.3-0.9-2.1-0.9H9.8c-0.4,0-0.8-0.2-1.1-0.5
			c-0.3-0.3-0.5-0.7-0.5-1.1v-7.3c-3.3,0-5.6,0-5.6,0C2.6,68.1,0,72.9,8.2,94.3z"/>
		<path class="st55" d="M59.8,36.7c0.8,0,1.6,0.3,2.1,0.9c0.6,0.6,0.9,1.3,0.9,2.1v52.5c0,0.3-0.1,1.3-0.2,2.8
			c-0.1,1.5-0.7,3.1-1.6,4.7c-0.9,1.6-2.4,3.1-4.4,4.4c-2,1.3-4.8,1.9-8.4,1.9c-3.7,0-6.6-0.7-8.6-2c-2-1.3-3.5-2.8-4.4-4.4
			c-0.9-1.6-1.4-3.2-1.6-4.7c-0.1-1.5-0.2-2.4-0.2-2.7V39.7c0-0.8,0.3-1.5,0.9-2.1c0.6-0.6,1.3-0.9,2.1-0.9h2.2c0.8,0,1.4,0.3,2,0.9
			c0.6,0.6,0.9,1.3,0.9,2.1v52.5c0.1,1.3,0.4,2.3,0.8,3.2c0.4,0.8,1.1,1.6,1.9,2.3c0.9,0.7,2.1,1,3.8,1c1.7,0,2.9-0.3,3.8-1
			c0.9-0.7,1.5-1.4,1.9-2.3c0.5-0.9,0.8-2,0.8-3.2V39.6c0-0.8,0.3-1.4,0.9-2c0.6-0.6,1.3-0.9,2.2-0.9H59.8z"/>
		<path class="st55" d="M99.1,37.6c0.6,0.6,0.9,1.3,0.9,2.1v2.1c0,0.8-0.3,1.6-0.9,2.1c-0.6,0.6-1.3,0.9-2.1,0.9h-7.1
			c-0.5,0-0.7,0.2-0.7,0.7v57.2c0,0.8-0.3,1.6-0.9,2.1c-0.6,0.6-1.3,0.9-2.1,0.9H84c-0.8,0-1.5-0.3-2.1-0.9
			c-0.6-0.6-0.9-1.3-0.9-2.1V45.6c0-0.5-0.2-0.7-0.7-0.7h-7.1c-0.8,0-1.6-0.3-2.1-0.9c-0.6-0.6-0.9-1.3-0.9-2.1v-2.1
			c0-0.8,0.3-1.5,0.9-2.1c0.6-0.6,1.3-0.9,2.1-0.9H97C97.8,36.7,98.5,37,99.1,37.6z"/>
		<path class="st55" d="M134,36.7c0.8,0,1.6,0.3,2.1,0.9c0.6,0.6,0.9,1.3,0.9,2.1v52.5c0,0.3-0.1,1.3-0.2,2.8
			c-0.2,1.5-0.7,3.1-1.6,4.7c-1,1.6-2.4,3.1-4.4,4.4c-2,1.3-4.8,1.9-8.4,1.9c-3.7,0-6.6-0.7-8.6-2c-2-1.3-3.5-2.8-4.4-4.4
			c-0.9-1.6-1.4-3.2-1.6-4.7c-0.1-1.5-0.2-2.4-0.2-2.7V39.7c0-0.8,0.3-1.5,0.9-2.1c0.6-0.6,1.3-0.9,2.1-0.9h2.2c0.8,0,1.4,0.3,2,0.9
			c0.6,0.6,0.9,1.3,0.9,2.1v52.5c0.1,1.3,0.4,2.3,0.8,3.2c0.4,0.8,1,1.6,1.9,2.3c0.9,0.7,2.1,1,3.8,1c1.7,0,2.9-0.3,3.8-1
			c0.9-0.7,1.5-1.4,1.9-2.3c0.5-0.9,0.8-2,0.8-3.2V39.6c0-0.8,0.3-1.4,0.9-2c0.6-0.6,1.3-0.9,2.2-0.9H134z"/>
		<path class="st55" d="M154.4,102.8c0,0.8-0.3,1.6-0.9,2.1c-0.6,0.6-1.3,0.9-2.1,0.9h-2.1c-0.8,0-1.5-0.3-2.1-0.9
			c-0.6-0.6-0.9-1.3-0.9-2.1V39.7c0-0.8,0.3-1.5,0.9-2.1c0.6-0.6,1.3-0.9,2.1-0.9h11.7c2,0,3.8,0.3,5.6,1.1c1.8,0.7,3.3,1.7,4.7,2.9
			c1.4,1.2,2.4,2.7,3.2,4.4c0.8,1.7,1.2,3.6,1.2,5.6v11.8c0,2.4-0.4,4.1-1,5.2c-0.7,1.1-1.4,1.9-2.1,2.3c-0.3,0.1-0.4,0.4-0.4,0.7
			c0,0.3,0.2,0.5,0.4,0.7c0.7,0.4,1.4,1.2,2.1,2.2c0.7,1.1,1,2.8,1,5.1v24.2c0,0.8-0.3,1.6-0.9,2.1c-0.6,0.6-1.3,0.9-2.1,0.9h-2.2
			c-0.8,0-1.5-0.3-2.1-0.9c-0.6-0.6-0.9-1.3-0.9-2.1V79.7c0-0.4-0.1-0.9-0.3-1.6c-0.2-0.6-0.5-1.2-1-1.8c-0.5-0.6-1.2-1.1-2-1.5
			c-0.8-0.4-1.9-0.6-3.2-0.6h-5.9c-0.5,0-0.7,0.2-0.7,0.7V102.8z M154.4,65.4c0,0.5,0.2,0.7,0.7,0.7h5.9c1.3,0,2.4-0.2,3.2-0.6
			c0.8-0.4,1.5-0.9,2-1.4c0.5-0.6,0.8-1.2,1-1.8c0.2-0.6,0.3-1.2,0.3-1.7v-10c0-1.7-0.7-3.2-2-4.3c-1.3-1.1-2.8-1.7-4.5-1.7h-5.9
			c-0.5,0-0.7,0.2-0.7,0.7V65.4z"/>
		<path class="st55" d="M242.4,76.5c-0.6,0-0.8,0.2-0.8,0.7l0.1,25.6c0,0.8-0.3,1.6-0.9,2.1c-0.6,0.6-1.3,0.9-2.2,0.9h-2.1
			c-0.8,0-1.6-0.3-2.2-0.9c-0.6-0.6-0.9-1.3-0.9-2.1V39.7c0-0.8,0.3-1.5,0.9-2.1c0.6-0.6,1.3-0.9,2.1-0.9h11.7
			c2.2,0,4.1,0.3,5.9,1.1c1.8,0.7,3.3,1.7,4.6,2.9c1.3,1.2,2.3,2.7,3,4.4c0.7,1.7,1.1,3.6,1.1,5.6v13.3c0,1.9-0.4,3.6-1.1,5.1
			s-1.8,2.8-3.1,3.9c-1.3,1.1-2.9,1.9-4.6,2.6c-1.8,0.6-3.7,0.9-5.7,0.9H242.4z M241.6,67.5c0,0.6,0.3,0.8,0.8,0.8h5.6h0.2
			c1.3,0,2.4-0.2,3.2-0.6c0.8-0.4,1.5-0.9,2-1.5c0.5-0.6,0.8-1.2,1-1.8c0.2-0.6,0.3-1.2,0.3-1.6V50.6c0-1.7-0.7-3.2-2-4.3
			c-1.3-1.1-2.8-1.7-4.5-1.7h-5.8c-0.6,0-0.8,0.2-0.8,0.7V67.5z"/>
		<path class="st55" d="M280.1,102.8c0,0.8-0.3,1.6-0.9,2.1c-0.6,0.6-1.3,0.9-2.1,0.9H275c-0.8,0-1.5-0.3-2.1-0.9
			c-0.6-0.6-0.9-1.3-0.9-2.1V39.7c0-0.8,0.3-1.5,0.9-2.1c0.6-0.6,1.3-0.9,2.1-0.9h11.7c2,0,3.8,0.3,5.6,1.1c1.8,0.7,3.3,1.7,4.7,2.9
			c1.4,1.2,2.4,2.7,3.2,4.4c0.8,1.7,1.2,3.6,1.2,5.6v11.8c0,2.4-0.4,4.1-1,5.2c-0.7,1.1-1.4,1.9-2.1,2.3c-0.3,0.1-0.4,0.4-0.4,0.7
			c0,0.3,0.2,0.5,0.4,0.7c0.7,0.4,1.4,1.2,2.1,2.2c0.7,1.1,1,2.8,1,5.1v24.2c0,0.8-0.3,1.6-0.9,2.1c-0.6,0.6-1.3,0.9-2.1,0.9h-2.2
			c-0.8,0-1.5-0.3-2.1-0.9c-0.6-0.6-0.9-1.3-0.9-2.1V79.7c0-0.4-0.1-0.9-0.3-1.6c-0.2-0.6-0.5-1.2-1-1.8c-0.5-0.6-1.2-1.1-2-1.5
			c-0.8-0.4-1.9-0.6-3.2-0.6h-5.9c-0.5,0-0.7,0.2-0.7,0.7V102.8z M280.1,65.4c0,0.5,0.2,0.7,0.7,0.7h5.9c1.3,0,2.4-0.2,3.2-0.6
			c0.8-0.4,1.5-0.9,2-1.4c0.5-0.6,0.8-1.2,1-1.8c0.2-0.6,0.3-1.2,0.3-1.7v-10c0-1.7-0.7-3.2-2-4.3c-1.3-1.1-2.8-1.7-4.5-1.7h-5.9
			c-0.5,0-0.7,0.2-0.7,0.7V65.4z"/>
		<path class="st55" d="M325.1,36.4c3.6,0,6.4,0.6,8.4,1.9c2,1.3,3.5,2.8,4.4,4.4c0.9,1.6,1.5,3.2,1.6,4.7c0.1,1.5,0.2,2.4,0.2,2.8
			v42c0,0.3-0.1,1.3-0.2,2.8c-0.1,1.5-0.7,3.1-1.6,4.7c-0.9,1.6-2.4,3.1-4.4,4.4c-2,1.3-4.8,1.9-8.4,1.9c-3.7,0-6.6-0.7-8.6-2
			c-2-1.3-3.5-2.8-4.4-4.4c-0.9-1.6-1.4-3.2-1.6-4.7c-0.1-1.5-0.2-2.4-0.2-2.7v-42c0-0.3,0.1-1.2,0.2-2.7c0.1-1.5,0.7-3.1,1.6-4.7
			c0.9-1.6,2.4-3.1,4.4-4.4C318.6,37.1,321.4,36.4,325.1,36.4z M325.1,98.7c1.7,0,2.9-0.3,3.8-1c0.9-0.7,1.5-1.4,1.9-2.3
			c0.5-0.9,0.8-2,0.8-3.2v-42c-0.1-1.2-0.4-2.3-0.8-3.2c-0.4-0.8-1.1-1.5-1.9-2.2c-0.9-0.7-2.1-1-3.8-1c-1.7,0-2.9,0.3-3.8,1
			c-0.9,0.7-1.5,1.4-1.9,2.2c-0.5,1-0.8,2.1-0.8,3.2v42c0.1,1.3,0.3,2.3,0.8,3.2c0.4,0.8,1.1,1.6,1.9,2.3
			C322.1,98.4,323.4,98.7,325.1,98.7z"/>
		<path class="st55" d="M363.9,36.4c3.6,0,6.5,0.6,8.5,1.9c2,1.3,3.5,2.8,4.4,4.4c0.9,1.6,1.5,3.2,1.6,4.7c0.1,1.5,0.2,2.4,0.2,2.8
			v42c0,0.3-0.1,1.3-0.2,2.8c-0.2,1.5-0.7,3.1-1.6,4.7c-0.9,1.6-2.4,3.1-4.4,4.4c-2,1.3-4.8,1.9-8.5,1.9c-3.7,0-6.6-0.7-8.6-2
			c-2-1.3-3.5-2.8-4.4-4.4c-0.9-1.6-1.4-3.2-1.6-4.7c-0.1-1.5-0.2-2.4-0.2-2.7v-42c0-0.3,0.1-1.2,0.2-2.7c0.1-1.5,0.7-3.1,1.6-4.7
			c0.9-1.6,2.4-3.1,4.4-4.4C357.4,37.1,360.2,36.4,363.9,36.4z M363.9,98.7c1.7,0,2.9-0.3,3.8-1c0.9-0.7,1.5-1.4,1.9-2.3
			c0.5-0.9,0.8-2,0.8-3.2v-42c-0.1-1.2-0.4-2.3-0.8-3.2c-0.4-0.8-1.1-1.5-1.9-2.2s-2.1-1-3.8-1c-1.7,0-2.9,0.3-3.8,1
			c-0.9,0.7-1.5,1.4-1.9,2.2c-0.5,1-0.8,2.1-0.8,3.2v42c0.1,1.3,0.4,2.3,0.8,3.2c0.4,0.8,1.1,1.6,1.9,2.3
			C360.9,98.4,362.2,98.7,363.9,98.7z"/>
		<path class="st55" d="M416.7,99.8c0-3.9,2.6-6.6,6.3-6.6s6.2,2.7,6.2,6.6c0,3.8-2.4,6.6-6.3,6.6
			C419.2,106.4,416.7,103.6,416.7,99.8z"/>
		<path class="st55" d="M413.7,37.6c-0.6-0.6-1.3-0.9-2.1-0.9H391c-0.8,0-1.5,0.3-2.1,0.9c-0.6,0.6-0.9,1.3-0.9,2.1v63.1
			c0,0.8,0.3,1.6,0.9,2.1c0.6,0.6,1.3,0.9,2.1,0.9h2.1c0.8,0,1.6-0.3,2.1-0.9c0.6-0.6,0.9-1.3,0.9-2.1v-8.7c0,0,0,0.1,0.1,0.1V75.8
			c0-0.4,0.1-0.8,0.5-1c0.3-0.3,0.7-0.4,1.1-0.4h5.2c0.8,0,1.5-0.3,2.1-0.9c0.6-0.6,0.9-1.3,0.9-2.1v-2.1c0-0.8-0.3-1.6-0.9-2.1
			c-0.6-0.6-1.3-0.9-2.1-0.9h-5.2c-0.4,0-0.8-0.2-1.1-0.5c-0.3-0.3-0.5-0.7-0.5-1.1v-7.3h-0.1v-11c0-0.4,0.2-0.8,0.5-1
			c0.3-0.3,0.7-0.4,1.1-0.4h13.9c0.8,0,1.5-0.3,2.1-0.9c0.6-0.6,0.9-1.3,0.9-2.1v-2.1C414.6,38.9,414.3,38.2,413.7,37.6z"/>
		<path class="st55" d="M210.4,98.6c-0.6-0.6-1.3-0.9-2.1-0.9h-14c-1,0-1.5-0.5-1.5-1.5v-2v-7.7V75.8c0-0.4,0.2-0.8,0.5-1
			c0.3-0.3,0.7-0.4,1.1-0.4h5.2c0.8,0,1.5-0.3,2.1-0.9c0.6-0.6,0.9-1.3,0.9-2.1v-2.1c0-0.8-0.3-1.6-0.9-2.1
			c-0.6-0.6-1.3-0.9-2.1-0.9h-5.2c-0.4,0-0.8-0.2-1.1-0.5c-0.3-0.3-0.5-0.7-0.5-1.1v-7.3v-11c0-1,0.5-1.5,1.5-1.5h14
			c0.8,0,1.5-0.3,2.1-0.9c0.6-0.6,0.8-1.3,0.8-2.1v-2.1c0-0.8-0.3-1.5-0.8-2.1c-0.6-0.6-1.3-0.9-2.1-0.9h-20.6
			c-0.8,0-1.5,0.3-2.1,0.9c-0.6,0.6-0.9,1.3-0.9,2.1v63.1c0,0.8,0.3,1.6,0.9,2.1c0.6,0.6,1.3,0.9,2.1,0.9h20.6
			c0.8,0,1.5-0.3,2.1-0.9c0.6-0.6,0.9-1.3,0.9-2.1v-2.1C211.3,99.9,211,99.2,210.4,98.6z"/>
	</g>
	<g>
		<path class="st55" d="M11.2,0l0.2,0.2l2.9,10.3h0.2l2.2-10.3L17,0h2.2l0.2,0.2v2.2l-3.4,13l-0.2,0.2H13l-0.2-0.2L9.8,4.7H9.6
			L6.7,15.4l-0.2,0.2H3.6l-0.2-0.2L0,2.5V0.2L0.2,0h2.2l0.2,0.2l2.2,10.3h0.2L8.1,0.2L8.3,0H11.2z"/>
		<path class="st55" d="M28.6,15.7h-2.5l-0.2-0.2L25.7,15h-0.2c0,0-0.9,0.9-2.5,0.9c-2.5,0-4-1.3-4-3.6c0-3.3,3.1-3.8,4.9-3.8
			c0.9,0,1.6,0.2,1.6,0.2l0.2-0.2V8.3c0-1.1-0.2-1.3-1.6-1.3c-0.7,0-1.3,0-1.6,0.7l-0.2,0.2h-2.7l-0.2-0.2c0-1.3,1.1-3.4,4.7-3.4
			s4.7,1.8,4.7,5.1v6L28.6,15.7z M25.5,11c0,0-0.4-0.2-1.3-0.2c-1.3,0-2,0.5-2,1.3c0,0.7,0.4,1.1,1.6,1.1c1.1,0,2-0.7,2-1.6v-0.4
			L25.5,11z"/>
		<path class="st55" d="M36.5,15.4l-0.2,0.2h-2.5l-0.2-0.2l-3.8-8.5V4.7L30,4.5h2l0.2,0.2l2.7,6.9h0.2l2.7-6.9L38,4.5h2l0.2,0.2v2.2
			L36.5,15.4z"/>
		<path class="st55" d="M51.7,11l-0.2,0.2h-6.9l-0.2,0.2c0,0.5,0.4,1.8,2.2,1.8c0.7,0,1.3-0.2,1.6-0.7l0.2-0.2H51l0.2,0.2
			c-0.2,1.3-1.3,3.4-4.7,3.4c-3.8,0-5.6-2.7-5.6-5.8c0-3.1,1.8-5.8,5.4-5.8c3.6,0,5.4,2.7,5.4,5.8V11L51.7,11z M48.3,8.7
			c0-0.2-0.2-1.8-2-1.8c-1.8,0-2,1.6-2,1.8L44.5,9h3.6L48.3,8.7z"/>
		<path class="st55" d="M70,15.7h-2.7l-0.2-0.2V9c0-1.1-0.4-2-1.8-2c-1.3,0-2,0.9-2,2.5v6l-0.2,0.2h-2.7l-0.2-0.2V9
			c0-1.1-0.4-2-1.8-2c-1.3,0-2,0.9-2,2.5v6l-0.2,0.2h-2.7l-0.2-0.2V4.7l0.2-0.2h2.5l0.2,0.2l0.2,0.7h0.2c0,0,0.7-1.1,2.7-1.1
			c1.8,0,2.7,0.9,3.1,1.6h0.2c0,0,0.9-1.6,3.4-1.6c2.7,0,4.2,1.6,4.2,4.5v6.7L70,15.7z"/>
		<path class="st55" d="M81.2,15.7h-2.5l-0.2-0.2L78.3,15h-0.2c0,0-0.9,0.9-2.5,0.9c-2.5,0-4-1.3-4-3.6c0-3.4,3.1-3.8,4.9-3.8
			c0.9,0,1.6,0.2,1.6,0.2l0.2-0.2V8.3c0-1.1-0.2-1.3-1.6-1.3c-0.7,0-1.3,0-1.6,0.7l-0.2,0.2h-2.7L72,7.6c0-1.3,1.1-3.4,4.7-3.4
			c3.6,0,4.7,1.8,4.7,5.1v6L81.2,15.7z M78.1,11c0,0-0.4-0.2-1.3-0.2c-1.3,0-2,0.5-2,1.3c0,0.7,0.5,1.1,1.6,1.1c1.1,0,2-0.7,2-1.6
			v-0.4L78.1,11z"/>
		<path class="st55" d="M92.8,15.7h-1.3L91,15.4l-3.1-3.4h-0.2l-1.3,1.3l-0.2,0.5v1.6l-0.2,0.2h-2.7L83,15.4V0.2L83.2,0h2.7l0.2,0.2
			v9h0.2l4.5-4.5l0.4-0.2h1.3l0.2,0.2v2.2l-2.7,2.7v0.2l2.9,3.4v2.2L92.8,15.7z"/>
		<path class="st55" d="M104.5,11l-0.2,0.2h-6.9l-0.2,0.2c0,0.5,0.4,1.8,2.2,1.8c0.7,0,1.3-0.2,1.6-0.7l0.2-0.2h2.7l0.2,0.2
			c-0.2,1.3-1.3,3.4-4.7,3.4c-3.8,0-5.6-2.7-5.6-5.8c0-3.1,1.8-5.8,5.4-5.8c3.6,0,5.4,2.7,5.4,5.8V11z M101.1,8.7
			c0-0.2-0.2-1.8-2-1.8c-1.8,0-2,1.6-2,1.8L97.3,9h3.6L101.1,8.7z"/>
		<path class="st55" d="M113.2,7.2h-1.6c-1.8,0-2.5,0.9-2.5,2.9v5.4l-0.2,0.2h-2.7l-0.2-0.2V4.7l0.2-0.2h2.5l0.2,0.2l0.2,0.7h0.2
			c0,0,0.5-0.9,2.5-0.9h1.3l0.2,0.2v2.2L113.2,7.2z"/>
	</g>
</g>
</svg>
