<svg xmlns="http://www.w3.org/2000/svg" viewBox="0 0 266.83 200.04"><defs><style>.cls-1{opacity:0.37;}.cls-2{fill:#ddd;}</style></defs><g id="Layer_2" data-name="Layer 2"><g id="Layer_1-2" data-name="Layer 1"><g class="cls-1"><path class="cls-2" d="M144.11,199.38c1.08-1.29,1.33-5.76,1.8-7.24a31.67,31.67,0,0,1,4.14-8.61c3.3-4.7,8.49-8.32,14.23-8.66a27.09,27.09,0,0,1,8.18,1.1c13.6,3.49,26.32,9.72,39.62,14.24,17.08,5.82,34.58,7.82,52.41,9.45h1l.41-28.44c.18-12.63,1.59-25.91.55-38.51-.19-2.28.39-2.4-1.83-3.29-3.47-1.38-10.5,0-14.44-.42a139.58,139.58,0,0,1-29-6.79c-23.23-7.76-46.78-22.14-72-14.23-9.18,2.89-17.6,7.86-25.36,13.56a70.24,70.24,0,0,0-11.31,10,70.88,70.88,0,0,0-10.08,15.83,146.46,146.46,0,0,0-9.83,26.11c-2.33,8.58-2.76,17.92-5.07,26.23,10.29-.22,20.61,0,30.9,0h19.71c1.16,0,4.68.62,5.67-.08A1,1,0,0,0,144.11,199.38Z"/><path class="cls-2" d="M46.36,67.42c32-45,86.21-75.95,142.27-65.32,19.88,3.77,38.85,11.23,57.67,18.67,4.76,1.88,10.12,3.77,14.85,1.8,7.45-3.11,4.84,8.59,4.84,13.71V60c0,10.69-.22,21.44,0,32.12-32,.43-57.37-17.93-88.15-22.86-44.61-7.13-83.2,24.12-101.33,62.48C69.89,145.87,65.38,160.87,61.88,176c-1.15,5-1.32,18.85-4.63,22.51-1.81,2-6.48,1.39-9.08,1.44C44,200.07.35,197.71,0,199.18c9.85-41,15.82-81.37,37.75-118.49Q41.8,73.84,46.36,67.42Z"/></g></g></g></svg>