<svg xmlns="http://www.w3.org/2000/svg" viewBox="0 0 430.73 271.79"><defs><style>.cls-1{fill:#ddd;opacity:0.37;}</style></defs><g id="Layer_2" data-name="Layer 2"><g id="Layer_1-2" data-name="Layer 1"><path class="cls-1" d="M1.05,182.93a55.83,55.83,0,0,1,1.76-7c8.55-26.49,36.54-43.29,64.29-45.35,18.69-1.39,37.28,2.85,54.59,9.66,13.33,5.25,31.42,24.3,45,9.16,5.07-5.65,7-13.37,9-20.69C190.25,76.1,234,21.67,293.67,23.93c17.11.65,33.82,5.69,49.06,13.32,7.91,4,15.37,10.24,24.58,10.63,5,.21,10.13-1.47,13.47-5.14,3.17-3.48,4.39-8.24,6.15-12.6C393.49,13.93,411.63-.7,429.68,0c1.95,15,.69,30.29.13,45.31-7.41,3.47-10.74,11.92-14.64,19.11-8.47,15.6-23.75,28.49-41.45,29.8-23,1.71-42.84-15.5-65.08-21.73-35.3-9.89-70,11.18-85.19,42.82-14.21,29.52-22.81,86.45-65.88,85.5-12.2-.26-23.82-5.06-34.87-10.25s-22.07-10.89-34.06-13.18c-11-2.12-23.8-1.81-34.32,2.48-10,4.09-21.39,16.25-9.41,25.92a7.83,7.83,0,0,0,3.64,1.78c2.53.41,5-.92,7.29-2,28.65-13.68,54,8.84,80.3,17,34,10.53,67.62-7.83,84.05-37.77a160.2,160.2,0,0,0,11.95-29.23c4.41-14,7.3-27.1,16.58-39.23,7.89-10.32,19.07-18.52,31.84-21,19.57-3.71,36.37,7.08,53.59,14.44,18.87,8.06,38.05,11.89,58.09,5.06a71.23,71.23,0,0,0,37.51-30.09c-1.73,2.83.2,13.59.2,17.29q0,9.69,0,19.38c0,8.14.17,16.28-.32,24.4-.19,3.11-17.29,9.59-20.1,10.74a117.36,117.36,0,0,1-25,7.2c-31,5.26-55.24-8.08-82.9-19.45-7.07-2.91-16.32-4.93-21.44.75a19.83,19.83,0,0,0-3.49,6.79c-13.13,36.64-25.54,74-57.91,98.36-18.2,13.69-40.77,21.86-63.54,21.53-18.7-.27-37-6.14-53.7-14.51-6.21-3.11-12.32-6.6-19.05-8.28-9.55-2.39-16.22,1.83-25.17,3.62-12.6,2.51-26.08-1.66-36-9.84S4.88,222.71,1.89,210.21A65.88,65.88,0,0,1,1.05,182.93Z"/></g></g></svg>