<?xml version="1.0" encoding="utf-8"?>
<!-- Generator: Adobe Illustrator 19.0.0, SVG Export Plug-In . SVG Version: 6.00 Build 0)  -->
<svg version="1.1" id="e9b383de-0ed4-41c7-955a-d31167ca9f18"
	 xmlns="http://www.w3.org/2000/svg" xmlns:xlink="http://www.w3.org/1999/xlink" x="0px" y="0px" viewBox="-377 178.8 844.5 494.2"
	 style="enable-background:new -377 178.8 844.5 494.2;" xml:space="preserve">
<style type="text/css">
	.st0{fill:#6C63FF;}
	.st1{fill:#3F3D56;}
	.st2{opacity:0.2;enable-background:new    ;}
	.st3{fill:#D0CDE1;}
	.st4{fill:#2F2E41;}
	.st5{fill:#FFB9B9;}
</style>
<title>chat_bot</title>
<path class="st0" d="M-329.4,641.8c-1,0-2,0.4-2.8,1c-2.4-6.3-6.1-10.4-10.3-10.4c-4.2,0-7.9,4.1-10.3,10.4c-0.8-0.6-1.8-1-2.8-1
	c-4.7,0-8.6,8-8.6,17.9h43.4C-320.8,649.8-324.7,641.8-329.4,641.8z"/>
<rect x="-377" y="658.7" class="st1" width="220" height="2"/>
<path class="st0" d="M452.6,599.8c-1,0-2,0.4-2.8,1c-2.4-6.3-6.1-10.4-10.3-10.4s-7.9,4.1-10.3,10.4c-0.8-0.6-1.8-1-2.8-1
	c-4.7,0-8.6,8-8.6,17.9h43.4C461.2,607.8,457.3,599.8,452.6,599.8z"/>
<path class="st1" d="M359.2,270.6H149.7v-4.3h-95v4.3h-210.4c-7.8,0-14.2,6.3-14.2,14.2v0v286.9c0,7.8,6.3,14.2,14.2,14.2l0,0h514.8
	c7.8,0,14.2-6.3,14.2-14.2l0,0V284.8C373.4,277,367.1,270.6,359.2,270.6C359.2,270.6,359.2,270.6,359.2,270.6z"/>
<rect x="-150.8" y="295.6" class="st2" width="505.2" height="285"/>
<circle class="st0" cx="101.4" cy="282.7" r="5.2"/>
<rect x="-265.5" y="615.7" class="st1" width="733" height="2"/>
<path class="st0" d="M170.8,402.1V381c0-14.3-11.6-25.9-25.9-25.9h0h-21.1c0-2.8-9.1-5.2-20.8-5.4v-25.4c7.9-1,13.5-8.2,12.5-16.1
	c-1-7.9-8.2-13.5-16.1-12.5c-7.9,1-13.5,8.2-12.5,16.1c0.8,6.5,6,11.7,12.5,12.5v25.4c-11.6,0.2-20.8,2.6-20.8,5.4H54
	c-14.3,0-25.9,11.6-25.9,25.9c0,0,0,0,0,0v21.1c-3,0-5.4,10.1-5.4,22.6s2.4,22.6,5.4,22.6V472c0,14.3,11.6,25.9,25.9,25.9h0H145
	c14.3,0,25.9-11.6,25.9-25.9c0,0,0,0,0,0v-24.7c3,0,5.4-10.1,5.4-22.6S173.8,402.1,170.8,402.1z"/>
<path class="st1" d="M59.2,363.3h80.6c12.7,0,22.9,10.3,22.9,22.9l0,0v80.6c0,12.7-10.3,22.9-22.9,22.9l0,0H59.2
	c-12.7,0-22.9-10.3-22.9-22.9l0,0v-80.6C36.3,373.6,46.6,363.3,59.2,363.3z"/>
<path class="st0" d="M70.6,423.3c-9,0-16.2-7.3-16.3-16.3c0-0.5,0.4-0.9,0.9-0.9s0.9,0.4,0.9,0.9c0,8,6.5,14.5,14.4,14.5
	c8,0,14.5-6.5,14.5-14.4c0,0,0,0,0,0c0-0.5,0.4-0.9,0.9-0.9s0.9,0.4,0.9,0.9C86.8,416.1,79.6,423.3,70.6,423.3z"/>
<path class="st0" d="M99.5,454c-7,0-12.6-5.7-12.6-12.6c0-0.5,0.4-0.9,0.9-0.9s0.9,0.4,0.9,0.9c0,6,4.9,10.8,10.8,10.8
	s10.8-4.9,10.8-10.8c0-0.5,0.4-0.9,0.9-0.9c0.5,0,0.9,0.4,0.9,0.9c0,0,0,0,0,0C112.1,448.4,106.5,454,99.5,454z"/>
<path class="st0" d="M128.4,423.3c-9,0-16.2-7.3-16.3-16.3c0-0.5,0.4-0.9,0.9-0.9s0.9,0.4,0.9,0.9c0,8,6.5,14.5,14.4,14.5
	c8,0,14.5-6.5,14.5-14.4c0,0,0,0,0,0c0-0.5,0.4-0.9,0.9-0.9s0.9,0.4,0.9,0.9C144.6,416.1,137.4,423.3,128.4,423.3z"/>
<circle class="st0" cx="70.6" cy="408" r="8.1"/>
<circle class="st0" cx="128.4" cy="408" r="8.1"/>
<ellipse class="st0" cx="99.5" cy="445.9" rx="7.2" ry="3.6"/>
<path class="st1" d="M387.6,575.4h-49.3v-3.6c0-0.4-0.3-0.7-0.7-0.7h0h-16.9c-0.4,0-0.7,0.3-0.7,0.7v0v3.6h-10.6v-3.6
	c0-0.4-0.3-0.7-0.7-0.7h-16.9c-0.4,0-0.7,0.3-0.7,0.7l0,0v3.6h-10.6v-3.6c0-0.4-0.3-0.7-0.7-0.7h0h-16.9c-0.4,0-0.7,0.3-0.7,0.7v0
	v3.6h-10.6v-3.6c0-0.4-0.3-0.7-0.7-0.7l0,0H234c-0.4,0-0.7,0.3-0.7,0.7v0v3.6h-10.6v-3.6c0-0.4-0.3-0.7-0.7-0.7h0h-16.9
	c-0.4,0-0.7,0.3-0.7,0.7l0,0v3.6h-10.6v-3.6c0-0.4-0.3-0.7-0.7-0.7h0h-16.9c-0.4,0-0.7,0.3-0.7,0.7v0v3.6H165v-3.6
	c0-0.4-0.3-0.7-0.7-0.7l0,0H31.9c-0.4,0-0.7,0.3-0.7,0.7v0v3.6H20.6v-3.6c0-0.4-0.3-0.7-0.7-0.7l0,0H3c-0.4,0-0.7,0.3-0.7,0.7v3.6
	H-8.2v-3.6c0-0.4-0.3-0.7-0.7-0.7h0h-16.9c-0.4,0-0.7,0.3-0.7,0.7v0v3.6h-10.6v-3.6c0-0.4-0.3-0.7-0.7-0.7h0h-16.9
	c-0.4,0-0.7,0.3-0.7,0.7l0,0v3.6H-66v-3.6c0-0.4-0.3-0.7-0.7-0.7c0,0,0,0,0,0h-16.9c-0.4,0-0.7,0.3-0.7,0.7c0,0,0,0,0,0v3.6h-10.6
	v-3.6c0-0.4-0.3-0.7-0.7-0.7c0,0,0,0,0,0h-16.9c-0.4,0-0.7,0.3-0.7,0.7l0,0v3.6h-10.6v-3.6c0-0.4-0.3-0.7-0.7-0.7h0h-16.9
	c-0.4,0-0.7,0.3-0.7,0.7l0,0v3.6h-32.4c-9.3,0-16.9,7.6-16.9,16.9c0,0,0,0,0,0v7.6c0,9.3,7.6,16.9,16.9,16.9h562
	c9.3,0,16.9-7.6,16.9-16.9v-7.6C404.5,583,396.9,575.4,387.6,575.4L387.6,575.4z"/>
<rect x="-73.5" y="496.7" class="st0" width="337" height="2"/>
<path class="st3" d="M-49.5,495.7h-83c2.7-31.3,2.7-62.7,0-94h83C-54.1,433.9-54.3,465.3-49.5,495.7z"/>
<rect x="-120.5" y="420.7" class="st1" width="60" height="4"/>
<rect x="-120.5" y="433.7" class="st1" width="60" height="4"/>
<rect x="-120.5" y="446.7" class="st1" width="60" height="4"/>
<rect x="-120.5" y="459.7" class="st1" width="60" height="4"/>
<rect x="-120.5" y="472.7" class="st1" width="60" height="4"/>
<path class="st4" d="M-270.1,182c0,0-13-4.7-21.4,14s-21.4,39.1-21.4,39.1l7.5,1.9c0,0,1.9-13,6.5-14.9l-1.9,16.8
	c0,0,55.9,19.6,81-1.9l-0.9-6.5c0,0,3.7,0.9,3.7,6.5l2.8-2.8c0,0-2.8-5.6-11.2-13c-5.5-4.9-7.4-14.2-8-20c-0.5-4.9-2.4-9.5-5.6-13.2
	C-244.5,181.4-254.7,174.6-270.1,182z"/>
<polygon class="st5" points="-307.7,592.9 -303.7,615.9 -287.7,612.9 -284.7,592.9 "/>
<path class="st4" d="M-284.7,605.9l-22,2l1,18l-1,23c0,0-13,26,6,24s17-12,17-12l5-6l-3-15L-284.7,605.9z"/>
<polygon class="st5" points="-217.7,592.9 -221.7,615.9 -237.7,612.9 -240.7,592.9 "/>
<path class="st4" d="M-240.7,605.9l22,2l-1,18l1,23c0,0,13,26-6,24s-17-12-17-12l-5-6l3-15L-240.7,605.9z"/>
<circle class="st5" cx="-263.7" cy="220.9" r="23"/>
<path class="st5" d="M-278.7,232.9l3,36l28-1c0,0-8-23-3-32L-278.7,232.9z"/>
<path class="st4" d="M-262.7,261.9l11.5-7.2l12.5,6.2l20,9l-7,85c0,0,16,53,13,79s33,156,4,162s-50,12-51,2s-3-163-3-163
	s-3,162-15,164s-64,10-60-2s31-222,44-234l2-10l-17-81l31.9-15.9L-262.7,261.9z"/>
<path class="st5" d="M-322.7,385.9l-1,41c0,0-9.6,40.5,6.7,40.2s4.3-40.2,4.3-40.2l7-40L-322.7,385.9z"/>
<path class="st5" d="M-171.5,342.9l28.1,29.9c0,0,34.2,23.7,21.9,34.4s-30.1-27.1-30.1-27.1l-31.9-25.1L-171.5,342.9z"/>
<polygon class="st3" points="-293.2,360.4 -224.7,358.3 -225.6,353.6 -225.6,353.6 -291.8,352.4 "/>
<circle class="st4" cx="-279.2" cy="356.4" r="6"/>
<path class="st4" d="M-300.7,272.9l-6.5-1.5c0,0-8.5,3.5-10.5,14.5s-28,97-15,102s32,7,32,5s8-77,8-77L-300.7,272.9z"/>
<path class="st4" d="M-239.5,276.7l20.8-6.8c0,0,10,0,10,11c0,4.5,19.2,41.8,19.2,41.8s46,32.8,39,34c-12,2-19,23-19,23l-45-40
	L-239.5,276.7z"/>
<path class="st4" d="M-291.7,222.6c0,0,7.5-10.2,14-12.1s7.5-11.2,7.5-11.2s16.8,18.6,27,19.6s0.9-22.4,0.9-22.4l-18.6-4.7
	l-17.7,1.9l-14,9.3L-291.7,222.6z"/>
<ellipse class="st5" cx="-286.2" cy="217.4" rx="3" ry="4.5"/>
</svg>
