<?xml version="1.0" encoding="utf-8"?>
<!-- Generator: Adobe Illustrator 19.0.0, SVG Export Plug-In . SVG Version: 6.00 Build 0)  -->
<svg version="1.1" id="b878182f-c13f-4955-8361-14219c844ca9"
	 xmlns="http://www.w3.org/2000/svg" xmlns:xlink="http://www.w3.org/1999/xlink" x="0px" y="0px" viewBox="-495 32.9 608.2 787.1"
	 style="enable-background:new -495 32.9 608.2 787.1;" xml:space="preserve">
<style type="text/css">
	.st0{fill:#FFB8B8;}
	.st1{fill:#3F3D56;}
	.st2{fill:#6C63FF;}
	.st3{fill:#FFFFFF;}
	.st4{fill:#2F2E41;}
	.st5{opacity:0.2;enable-background:new    ;}
</style>
<title>sentiment_analysis</title>
<path class="st0" d="M113.2,540.9L4.3,461.6c0,0-62.4-105.7-72.9-173.4S-126.8,100-126.8,100V36.6c0,0-55-21.1-59.2,37
	s11.6,133.2,11.6,133.2s15.9,95.1-20.1,119.5l-131.1,214.6c0,0,125.8,115.2,224.1,130L113.2,820V540.9z"/>
<path class="st0" d="M-453,236.9h-3.6c-32.3,0-50.5,38.2-29.3,62.6c6.8,7.8,17.2,13.3,32.9,13.6V236.9z"/>
<path class="st0" d="M-453,313.1h-3.6c-32.3,0-50.5,38.2-29.3,62.6c6.8,7.8,17.2,13.3,32.9,13.6V313.1z"/>
<path class="st0" d="M-453,389.2h-3.6c-32.3,0-50.5,38.2-29.3,62.6c6.8,7.8,17.2,13.3,32.9,13.6V389.2z"/>
<path class="st0" d="M-453,465.3h-3.6c-32.3,0-50.5,38.2-29.3,62.6c6.8,7.8,17.2,13.3,32.9,13.6V465.3z"/>
<path class="st1" d="M-172.3,218.8h-3.1v-86.2c0-27.6-22.3-49.9-49.9-49.9c0,0,0,0,0,0h-182.6c-27.6,0-49.9,22.3-49.9,49.9
	c0,0,0,0,0,0v472.9c0,27.6,22.3,49.9,49.9,49.9c0,0,0,0,0,0h182.6c27.6,0,49.9-22.3,49.9-49.9c0,0,0,0,0,0V280.1h3.1V218.8z"/>
<path class="st2" d="M-186.1,132.9v472.2c0,11.2-5,21.8-13.7,28.9c-0.9,0.8-1.9,1.5-2.9,2.2c-6.1,4.1-13.3,6.2-20.6,6.2h-183.5
	c-3,0-5.9-0.3-8.8-1.1c-16.7-4.1-28.4-19-28.4-36.2V132.9c0-20.6,16.7-37.3,37.3-37.3h22.3c-3.7,9,0.7,19.4,9.7,23.1
	c2.1,0.9,4.4,1.3,6.7,1.3h104.6c9.8,0,17.7-8,17.7-17.7c0-2.3-0.4-4.5-1.3-6.6h23.8C-202.7,95.7-186.1,112.4-186.1,132.9z"/>
<path class="st0" d="M-353.6,451.5c0,0,18,50,4,78.1c-14,28,22,60,22,60s94.1-48,82.1-72c-12-24-32-56-28-76L-353.6,451.5z"/>
<circle class="st0" cx="-318.5" cy="406.5" r="64"/>
<path class="st3" d="M-194,631.2c-1.7,2.1-3.6,4.1-5.7,5.8c-0.9,0.8-1.9,1.5-2.9,2.2c-5.9,3.9-13,5.2-20.6,5.2h-162.1l2.8-77.8
	l18-40c4,3.2,8.4,6,12.9,8.3c1.1,0.6,2.2,1.2,3.4,1.7c16.9,8.2,44.5,15.3,71.2-4.6c8.4-6.3,16.7-15.3,24.6-27.7l49.9,28.3l2.6,30.7
	L-194,631.2z"/>
<path class="st4" d="M-344.4,496.6l-2.5,26.2l-1.3,13.8l-2,20.6l-8.4,88.2h-48.2c-3,0-5.9-0.3-8.8-1.1l-19-87.8l0.5-0.4
	L-344.4,496.6z"/>
<path class="st4" d="M-186.1,514.6v93.6c0,11.2-5,21.8-13.7,28.9c-0.9,0.8-1.9,1.5-2.9,2.2c-6.1,4.1-13.3,6.2-20.6,6.2h-64.4
	c1.4-29.6,3.9-58.4,6.8-83.6c1.2-10.7,2.6-20.7,3.9-29.9c4.4-29.4,9-49.4,12.4-52.1l22.2,14.6L-186.1,514.6z"/>
<path class="st4" d="M-388.6,628.6l-2.3,16.8h-15.9c-3,0-5.9-0.3-8.8-1.1c-16.7-4.1-28.4-19-28.4-36.2v-3.4l7.4-48.2l2.5-0.4
	l11.5-1.6L-388.6,628.6z"/>
<path class="st4" d="M-186.1,526.8v81.4c0,11.2-5,21.8-13.7,28.9c-0.9,0.8-1.9,1.5-2.9,2.2l-9.8-42.6l12.6-33.4L-186.1,526.8z"/>
<path class="st4" d="M-257.5,348.5c-9.7-15.7-24.8-27.3-42.6-32.5l-13,10.4l5.1-12.1c-4.3-0.6-8.6-0.9-12.9-0.7l-11.7,15.1l4.8-14.5
	c-20.2,2.6-39.5,13.6-51.1,30.4c-14.9,21.5-17.4,51.4-2.8,73c4-12.4,8.9-24,12.9-36.3c0.9,0.4,4.4,0.4,9.5,0l4.9-11.4l1.4,10.9
	c15.2-1.3,37.7-4.2,52.1-6.9l-1.4-8.4l8.4,7c4.4-1,7-1.9,6.8-2.6c10.7,17.2,21.3,28.3,32,45.5C-251,390.9-243.8,370.7-257.5,348.5z"
	/>
<ellipse class="st0" cx="-261" cy="404.4" rx="4.3" ry="8.7"/>
<ellipse class="st0" cx="-120" cy="452.1" rx="79.8" ry="178.7"/>
<path class="st5" d="M-407,229c-11.7,0-21.1-9.5-21.1-21.1c0-11.7,9.5-21.1,21.1-21.1s21.1,9.5,21.1,21.1c0,0,0,0,0,0
	C-385.9,219.5-395.4,229-407,229z M-407,188.8c-10.5,0-19,8.5-19,19s8.5,19,19,19s19-8.5,19-19C-388,197.4-396.5,188.9-407,188.8z"
	/>
<circle class="st5" cx="-415.5" cy="202.6" r="3.2"/>
<circle class="st5" cx="-399.6" cy="202.6" r="3.2"/>
<path class="st5" d="M-399.6,215.3h-15.9c-0.6,0-1.1-0.5-1.1-1.1c0-0.6,0.5-1.1,1.1-1.1h15.9c0.6,0,1.1,0.5,1.1,1.1
	C-398.6,214.8-399,215.3-399.6,215.3L-399.6,215.3L-399.6,215.3z"/>
<path class="st5" d="M-223.1,229c-11.7,0-21.1-9.5-21.1-21.1s9.5-21.1,21.1-21.1s21.1,9.5,21.1,21.1c0,0,0,0,0,0
	C-201.9,219.5-211.4,229-223.1,229z M-223.1,188.8c-10.5,0-19,8.5-19,19c0,10.5,8.5,19,19,19c10.5,0,19-8.5,19-19
	C-204.1,197.4-212.6,188.9-223.1,188.8z"/>
<circle class="st5" cx="-231.5" cy="202.6" r="3.2"/>
<circle class="st5" cx="-215.7" cy="202.6" r="3.2"/>
<path class="st5" d="M-215.7,217.4c-0.2,0-0.4,0-0.5-0.1c-4.5-2.9-10.3-2.9-14.8,0c-0.5,0.3-1.2,0.1-1.4-0.4
	c-0.3-0.5-0.1-1.2,0.4-1.4c0,0,0,0,0,0c5.2-3.2,11.7-3.2,16.9,0c0.5,0.3,0.7,0.9,0.4,1.4C-214.9,217.2-215.3,217.4-215.7,217.4z"/>
<path class="st3" d="M-314,250.8c-23.7,0-42.9-19.2-42.9-42.9c0-23.7,19.2-42.9,42.9-42.9c23.7,0,42.9,19.2,42.9,42.9v0
	C-271.1,231.6-290.3,250.8-314,250.8z M-314,169.2c-21.3,0-38.6,17.3-38.6,38.6c0,21.3,17.3,38.6,38.6,38.6
	c21.3,0,38.6-17.3,38.6-38.6v0C-275.4,186.5-292.7,169.3-314,169.2L-314,169.2z"/>
<circle class="st3" cx="-331.2" cy="197.1" r="6.4"/>
<circle class="st3" cx="-299" cy="197.1" r="6.4"/>
<path class="st3" d="M-314,228.8c-5.8,0-11.9-2.1-18.4-6.3c-1-0.6-1.3-2-0.6-3c0.6-1,2-1.3,3-0.6c11.4,7.4,21.1,7.4,29.6,0.2
	c0.9-0.8,2.3-0.7,3,0.3c0.8,0.9,0.7,2.3-0.2,3C-302.6,226.7-308.1,228.8-314,228.8z"/>
<polygon class="st3" points="-243.2,278.7 -271.1,278.7 -271.1,274.4 -247.5,274.4 -247.5,250.8 -243.2,250.8 "/>
<polygon class="st3" points="-380.5,164.9 -384.8,164.9 -384.8,137 -356.9,137 -356.9,141.3 -380.5,141.3 "/>
</svg>
