<?xml version="1.0" encoding="utf-8"?>
<!-- Generator: Adobe Illustrator 19.0.0, SVG Export Plug-In . SVG Version: 6.00 Build 0)  -->
<svg version="1.1" id="ce0caf1d-b686-4c5f-8a14-7ab48d3ff308"
	 xmlns="http://www.w3.org/2000/svg" xmlns:xlink="http://www.w3.org/1999/xlink" x="0px" y="0px"
	 viewBox="-280 142.5 1038.7 566.5" style="enable-background:new -280 142.5 1038.7 566.5;" xml:space="preserve">
<style type="text/css">
	.st0{opacity:0.1;fill:#6C63FF;enable-background:new    ;}
	.st1{fill:#DC9BA3;}
	.st2{opacity:5.000000e-002;enable-background:new    ;}
	.st3{fill:#6C63FF;}
	.st4{opacity:0.1;enable-background:new    ;}
	.st5{fill:#FFD2D9;}
	.st6{fill:#E9E9EF;}
	.st7{fill:#CEDAD5;}
	.st8{fill:#FFD037;}
	.st9{fill:#A8A8A8;}
	.st10{opacity:0.2;enable-background:new    ;}
	.st11{fill:#844F6E;}
	.st12{opacity:5.000000e-002;}
	.st13{opacity:0.2;fill:#FFFFFF;enable-background:new    ;}
	.st14{opacity:5.000000e-002;fill:#00FF00;enable-background:new    ;}
	.st15{fill:#7679B4;}
	.st16{fill:#565388;}
	.st17{opacity:0.2;fill:#6C63FF;enable-background:new    ;}
	.st18{opacity:0.2;}
	.st19{opacity:0.1;fill:#252223;enable-background:new    ;}
	.st20{opacity:0.3;fill:#6C63FF;enable-background:new    ;}
	.st21{fill:url(#SVGID_1_);}
	.st22{fill:#535461;}
	.st23{fill:url(#SVGID_2_);}
	.st24{fill:#F9D5C6;}
	.st25{fill:#353535;}
	.st26{fill:#409CD6;}
	.st27{fill:#2F302F;}
	.st28{fill:none;stroke:#535461;stroke-miterlimit:10;}
	.st29{fill:none;stroke:#535461;stroke-width:2;stroke-miterlimit:10;}
	.st30{opacity:0.25;enable-background:new    ;}
</style>
<title>virtual_reality</title>
<path class="st0" d="M22.5,419.2C-2,430.5-24.6,446-50.1,454.8c-31.1,10.6-64.6,10.5-97.4,10.3l-132.5-0.9
	c26.8,48.2,74.2,84.5,127.8,97.8c21,5.2,43.4,7.3,61.9,18.5c23.1,14,36.8,40.3,60.2,53.7c25.9,14.7,58,10.7,86.8,18
	c37.6,9.4,69,37.8,107.3,43.4c37.1,5.4,73.2-11.3,109.1-21.9c128.3-37.8,266.9,2.6,399.3-16.1c5.1-0.7,10.5-1.7,14.2-5.3
	c4.7-4.6,5.1-12,4.2-18.6c-4.7-32.7-34.2-56.8-65-68.7c-65.8-25.3-139.7-9.4-209.6-18.5c-48-6.3-93.7-24.3-138.7-42.2
	c-47.2-18.7-95.1-37.1-139.7-61.3C92.4,418.3,77.6,393.7,22.5,419.2z"/>
<path class="st1" d="M437.2,593c0,0,2,30-2,35c0,0,88,16,99,11s6-13,0-16s-36-14-40-35c0,0,13-6-29,2S437.2,593,437.2,593z"/>
<path class="st2" d="M437.2,593c0,0,2,30-2,35c0,0,88,16,99,11s6-13,0-16s-36-14-40-35c0,0,13-6-29,2S437.2,593,437.2,593z"/>
<path class="st3" d="M94,175.2l-0.4,0.2c-18.2,8.6-33.9,21.4-46,37.5c-6.8,9-15.2,17.6-23.2,19C6.8,235-123.4,370.3-92.1,496.3
	s213.5,131.2,213.5,131.2s38.8,6.6,61,19.7c10.5,6.2,23.2,7.4,34.8,3.3c26.5-9.4,70-23.1,89.6-18.9c29.2,6.3,279-97.9,279-97.9
	s-104.1-100-257.2-97.9c0,0-241.5-168.7-233.2-238.4L94,175.2z"/>
<path class="st4" d="M94,175.2l-0.4,0.2c-18.2,8.6-33.9,21.4-46,37.5c-6.8,9-15.2,17.6-23.2,19C6.8,235-123.4,370.3-92.1,496.3
	s213.5,131.2,213.5,131.2s38.8,6.6,61,19.7c10.5,6.2,23.2,7.4,34.8,3.3c26.5-9.4,70-23.1,89.6-18.9c29.2,6.3,279-97.9,279-97.9
	s-104.1-100-257.2-97.9c0,0-241.5-168.7-233.2-238.4L94,175.2z"/>
<path class="st3" d="M94.2,175l-25,24c0,0-19,37-36,40s-142,133-112,254s205,126,205,126s36.4,6.2,57.8,18.5
	c10.5,6.2,23.2,7.4,34.7,3.4c25.5-9,66.8-21.9,85.4-17.9c28,6,268-94,268-94s-100-96-247-94c0,0-232-162-224-229L94.2,175z"/>
<ellipse transform="matrix(-0.7071 -0.7071 0.7071 -0.7071 -50.2231 893.7552)" class="st4" cx="160" cy="457.3" rx="143.6" ry="78.9"/>
<path class="st5" d="M94.2,302c0,0,11,18,4,53s18,35,18,35h50l17-44l-24,2c0,0-16-4-9-41L94.2,302z"/>
<path class="st5" d="M244.2,260c-7.7,24.3-17.2,54-22.4,69.8l-3.6,11.2l-33-34c0,0,1.5-3.4,3.6-8.1c4.8-10.5,13.2-27.5,17.4-28.9
	c0,0-46-3-60,8s-10-30-10-30s27-2,37-8s64-12,64-12S255.2,225,244.2,260z"/>
<path class="st4" d="M63.2,562c0,0,85-39,115-33"/>
<path class="st4" d="M-23.8,470c0,0,103-4,159,32"/>
<path class="st4" d="M27.2,511c0,0,81-20,124-13"/>
<path class="st5" d="M544.2,554l-7,51l-18-2c0,0-1.1-1-2.9-2.7c-4.8-4.3-14.9-12.6-24.6-17.2c-3.3-1.7-6.8-2.7-10.5-3.1l20-30
	c4.9,1.8,9.9,3.3,14.9,4.4c5.3,1.2,10.7,1.9,16.1,1.9C536.3,556.4,540.4,555.6,544.2,554z"/>
<path class="st6" d="M494.2,590c-9,8-50-9-57,17l-6.4-24.7l-19.8-75.9l-2.7-10.5l-16.5-0.7l-189.6-8.1l-10.8-0.4l-5.7-0.2l7.5-3.7
	l50-24.8c0,0,18-1.3,42.8-4.7l0,0c37.7-5.2,91-15.3,121.1-33.3c50-30,69,71,69,71s7.6,25.6,13.4,50.9c2.8,12,5.1,24,6,33.1
	C496.4,582.6,496.2,588.3,494.2,590z"/>
<path class="st2" d="M494.2,590c-9,8-50-9-57,17l-6.4-24.7l-19.8-75.9l-2.7-10.5l-17-1L208,483.7l-11.3-0.7l-3.5-0.2l-4.5-0.3
	l54.5-24.5c0,0,18-1.3,42.8-4.7l0,0c37.7-5.2,91-15.3,121.1-33.3c50-30,69,71,69,71s7.6,25.6,13.4,50.9c2.8,12,5.1,24,6,33.1
	C496.4,582.6,496.2,588.3,494.2,590z"/>
<path class="st4" d="M516.1,554.4l-17.5,20.5l-7,8.2c-3.3-1.7-6.8-2.7-10.5-3.1l20-30C506.1,551.8,511.1,553.3,516.1,554.4z"/>
<path class="st6" d="M515.2,552l-19.6,22.9l-9.4,11.1v3c-11.5,2.7-47.5-4.9-55.4-6.7c-1-0.2-1.6-0.3-1.6-0.3c-23,1-108-49-108-49
	s-93,16-138,12c-25.1-2.2-32.2-11.3-33.5-18.9c-0.6-3.8-0.1-7.6,1.5-11.1l40.1-28.2l5.3-3.8l8.5-6c0,0,14.8-3.4,33.6-7.5l0,0
	c29.3-6.5,68.5-14.9,76.4-15.5c13-1,46,10,65,32c3.3,3.5,7,6.5,11,9l0.5,0.3c5.3,3.5,11.9,7.3,19.3,11.2
	c24.2,12.8,56.5,26.4,78.7,35.4C504.8,548,515.2,552,515.2,552z"/>
<path class="st4" d="M544.2,554l-7,51l-18-2c0,0-1.1-1-2.9-2.7c4,0.1,10.6-1.1,11.9-9.3c0,0-6.9-24.3,4-34.7
	C536.3,556.4,540.4,555.6,544.2,554z"/>
<path class="st1" d="M530.2,591c0,0-10-35,13-39l38,15l44,3c0,0,11.5,18.8-6.9,39.8c-10.2,11.5-24.6,18.4-40,19l-48.1,2.3l-15-31
	C515.2,600,528.2,603,530.2,591z"/>
<path class="st4" d="M286.1,453.3c-5,1.5-25.9,7.7-47.2,16.2l0,0c-10.6,4.1-20.8,8.8-30.8,14.2c-2.1,1.2-4,2.3-5.9,3.5
	c-5.6,3.6-10.1,7.2-12.9,10.8c-12.3,16-30.5,24.6-39.5,28.1c-0.6-3.8-0.1-7.6,1.5-11.1l40.1-28.2l-5.7-0.2l7.5-3.7l-4.5-0.3
	l54.5-24.5C243.2,458,261.2,456.7,286.1,453.3z"/>
<path class="st4" d="M221.9,329.8l-3.6,11.2l-33-34c0,0,1.5-3.4,3.6-8.1C193,307.7,212.9,323.2,221.9,329.8z"/>
<path class="st7" d="M102.8,346.4c-1.2-3.4-2-6.9-2.6-10.4l-43,15c0,0-29.5,22.5-26.5,71.5c0,0,36.5-13.5,52.5,2.5l0.3,2.8
	c3.4,28,15.8,54.1,35.3,74.4c8,8.3,15.5,17.8,19.4,26.8c0,0,28-8,45-30s98-45,98-45s-43,1-49-14s-26-47-19-72s11-33,11-33
	s-41-29-38-38l-26,30l-12,4c0.9,2.3,1.4,4.8,1.4,7.3C150.3,365.5,111.9,372,102.8,346.4z"/>
<path class="st3" d="M-136.2,471.7c0,0,8.4,11-3.9,27.5s-22.4,30.5-18.3,40.8c0,0,18.5-30.7,33.5-31.2S-119.6,490.3-136.2,471.7z"/>
<path class="st4" d="M-136.2,471.7c0.7,1.1,1.3,2.2,1.7,3.4c14.7,17.2,22.5,33.3,8.4,33.7c-13.1,0.4-28.9,23.9-32.7,29.8
	c0.1,0.5,0.3,0.9,0.4,1.3c0,0,18.5-30.7,33.5-31.2S-119.6,490.3-136.2,471.7z"/>
<path class="st8" d="M-120.6,485.7c0,3.9-0.4,7-1,7s-1-3.1-1-7s0.5-2,1.1-2S-120.6,481.9-120.6,485.7z"/>
<path class="st8" d="M-115.3,490.3c-3.4,1.8-6.3,3-6.6,2.5s2.3-2.3,5.7-4.2s2.1-0.5,2.3,0S-111.9,488.5-115.3,490.3z"/>
<path class="st3" d="M-180.5,471.7c0,0-8.4,11,3.9,27.5s22.4,30.5,18.3,40.8c0,0-18.5-30.7-33.5-31.2S-197,490.3-180.5,471.7z"/>
<path class="st4" d="M-180.5,471.7c-0.7,1.1-1.3,2.2-1.7,3.4c-14.7,17.2-22.5,33.3-8.4,33.7c13.1,0.4,28.9,23.9,32.7,29.8
	c-0.1,0.5-0.3,0.9-0.4,1.3c0,0-18.5-30.7-33.5-31.2S-197,490.3-180.5,471.7z"/>
<path class="st8" d="M-196,485.7c0,3.9,0.4,7,1,7s1-3.1,1-7s-0.5-2-1.1-2S-196,481.9-196,485.7z"/>
<path class="st8" d="M-201.4,490.3c3.4,1.8,6.3,3,6.6,2.5s-2.3-2.3-5.7-4.2s-2.1-0.5-2.3,0S-204.8,488.5-201.4,490.3z"/>
<path class="st9" d="M-193.4,538.7c0,0,23.4-0.7,30.5-5.8s36-11,37.8-3s35.2,40.1,8.8,40.3s-61.5-4.1-68.5-8.4
	S-193.4,538.7-193.4,538.7z"/>
<path class="st10" d="M-115.9,567.5c-26.4,0.2-61.5-4.1-68.5-8.4c-5.4-3.3-7.5-15-8.2-20.4h-0.8c0,0,1.5,18.9,8.5,23.2
	s42.1,8.6,68.5,8.4c7.6-0.1,10.3-2.8,10.1-6.8C-107.3,565.9-110.2,567.4-115.9,567.5z"/>
<path class="st3" d="M-6.1,670.9c1.8-1.5,3.2-3.5,3.8-5.8c0.5-2.3-0.5-5-2.7-5.9c-2.5-0.9-5.1,0.8-7.1,2.5s-4.3,3.7-6.9,3.3
	c2.7-2.5,4-6.2,3.2-9.8c-0.1-0.7-0.4-1.4-0.9-2c-1.4-1.5-3.8-0.8-5.5,0.3c-5.2,3.7-6.6,10.7-6.7,17.1c-0.5-2.3-0.1-4.7-0.1-7
	s-0.7-5-2.6-6.2c-1.2-0.7-2.6-1-4-1c-2.3-0.1-4.9,0.2-6.5,1.9c-2,2.1-1.5,5.7,0.3,8s4.4,3.8,6.8,5.4c1.9,1.2,3.6,2.7,4.8,4.6
	c0.1,0.3,0.3,0.5,0.4,0.8h14.6C-11.9,675.5-8.8,673.4-6.1,670.9z"/>
<path class="st3" d="M58.9,702.7c1.8-1.5,3.2-3.5,3.8-5.8c0.5-2.3-0.5-5-2.7-5.9c-2.5-0.9-5.1,0.8-7.1,2.5s-4.3,3.7-6.9,3.3
	c2.7-2.5,4-6.2,3.2-9.8c-0.1-0.7-0.4-1.4-0.9-2c-1.4-1.5-3.8-0.8-5.5,0.3c-5.2,3.7-6.6,10.7-6.7,17.1c-0.5-2.3-0.1-4.7-0.1-7
	s-0.7-5-2.6-6.2c-1.2-0.7-2.6-1-4-1c-2.3-0.1-4.9,0.2-6.5,1.9c-2,2.1-1.5,5.7,0.3,8s4.4,3.8,6.8,5.4c1.9,1.2,3.6,2.7,4.8,4.6
	c0.1,0.3,0.3,0.5,0.4,0.8h14.6C53.1,707.3,56.2,705.2,58.9,702.7z"/>
<path class="st3" d="M138.7,551.5c0,0,97-40,176-2l-19,40l-91,2L138.7,551.5z"/>
<path class="st4" d="M148.7,320.1c0.3-3.7,0.8-7.5,1.5-11.1l-56-5c0,0,3.9,3.3,5.6,15.8c6.6,3.9,14.2,9.2,22.4,9.2
	C131.8,329,141.1,325.9,148.7,320.1z"/>
<circle class="st5" cx="122.7" cy="283.5" r="44"/>
<path class="st11" d="M90.2,295h6v-17l6-18c0,0,30-14,44-11l11,10c0,0,3-24-15-33s-50-5-58,2s-21,19-11,52l3,8
	C76.2,288,88.2,284,90.2,295z"/>
<g class="st12">
	<path d="M167.9,318.1l3.3-1.1l15.1-17.4c-0.3-0.8-0.3-1.7-0.1-2.6L167.9,318.1z"/>
	<path d="M146.9,350.3c7.9-3.5,14-11.1,13.7-22c0-0.6,0-1.1-0.1-1.7l-0.3,0.4l-12,4c0.9,2.3,1.4,4.8,1.4,7.3
		C149.8,342.5,148.8,346.6,146.9,350.3z"/>
	<path d="M263.5,453.2c-25.1,8.7-59,22.5-69.3,35.8c-0.3,0.3-0.5,0.6-0.8,1c27.5-18.8,87.8-36,87.8-36
		C275.3,454,269.4,453.8,263.5,453.2z"/>
	<path d="M149.2,519c-4-9-11.5-18.5-19.4-26.8c-19.5-20.3-31.9-46.4-35.3-74.4l-0.3-2.8c-16-16-52.5-2.5-52.5-2.5
		c-1.9-31.1,9.3-51.5,17.7-62.3l-2.2,0.8c0,0-29.5,22.5-26.5,71.5c0,0,36.5-13.5,52.5,2.5l0.3,2.8c3.4,28,15.8,54.1,35.3,74.4
		c8,8.3,15.5,17.8,19.4,26.8c0,0,24.4-7,41.4-25.8C170.5,510.1,160.2,515.5,149.2,519z"/>
</g>
<path class="st5" d="M138.2,402c0,0-48,69-73,89s-32-9-32-9v-64l44-5l0.5,6.1l0.5,6.9l41-44c0,0,41-37,49-15S138.2,402,138.2,402z"
	/>
<path class="st4" d="M77.7,419c-6,3.5-12.4,6.3-19,8.4c-9.5,2.9-20.3-0.2-25.5-2V418l44-5L77.7,419z"/>
<path class="st7" d="M32.7,411.5l-2.6,10.7c0,0,15.6,7.3,28.6,3.3s23-11,25-12s-8-12-8-12L32.7,411.5z"/>
<path class="st4" d="M320.7,533.5c6.7-5.1,14.1-9.2,22-12c7.5-2.6,14.6-6.3,21-11"/>
<path class="st13" d="M625.2,570l-1.6-0.1c2.4,6,5.8,20.8-8.3,36.9c-10.2,11.5-24.6,18.4-40,19l-46.6,2.2l1.5,3.1l48.1-2.3
	c15.4-0.6,29.8-7.5,40-19C636.7,588.7,625.2,570,625.2,570z"/>
<path class="st14" d="M398.5,621.5h-0.2c0.1,2.4,0.4,7.2,0.4,12.6C398.8,629.4,398.6,624.7,398.5,621.5z"/>
<path class="st14" d="M455.4,612.8c0.1,0.6,0.3,1.2,0.5,1.8C456.9,614.1,458.3,613,455.4,612.8z"/>
<path class="st13" d="M534.2,636c-10.3,4.7-87.3-8.9-97.8-10.8c-0.2,1-0.6,1.9-1.2,2.8c0,0,88,16,99,11c5.7-2.6,7.1-5.9,6.3-9
	C540,632.1,538.1,634.2,534.2,636z"/>
<path class="st14" d="M398.3,621.5c0-1-0.1-1.5-0.1-1.5S393.1,621.8,398.3,621.5z"/>
<path class="st4" d="M100.8,261.5h60.8c2.3,0,4.1,1.8,4.1,4.1v25.8c0,2.3-1.8,4.1-4.1,4.1h-60.8c-2.3,0-4.1-1.8-4.1-4.1v-25.8
	C96.7,263.3,98.5,261.5,100.8,261.5z"/>
<path class="st4" d="M73.2,272.5h24.1c1.3,0,2.4,1.1,2.4,2.4v8.1c0,1.3-1.1,2.4-2.4,2.4H73.2c-1.3,0-2.4-1.1-2.4-2.4v-8.1
	C70.7,273.6,71.8,272.5,73.2,272.5z"/>
<path class="st15" d="M100.8,260.5h60.8c2.3,0,4.1,1.8,4.1,4.1v25.8c0,2.3-1.8,4.1-4.1,4.1h-60.8c-2.3,0-4.1-1.8-4.1-4.1v-25.8
	C96.7,262.3,98.5,260.5,100.8,260.5z"/>
<path class="st16" d="M108.8,262.5h52.7c2.3,0,4.1,1.8,4.1,4.1v21.8c0,2.3-1.8,4.1-4.1,4.1h-52.7c-2.3,0-4.1-1.8-4.1-4.1v-21.8
	C104.8,264.3,106.6,262.5,108.8,262.5z"/>
<path class="st16" d="M73.2,271.5h24.1c1.3,0,2.4,1.1,2.4,2.4v8.1c0,1.3-1.1,2.4-2.4,2.4H73.2c-1.3,0-2.4-1.1-2.4-2.4v-8.1
	C70.7,272.6,71.8,271.5,73.2,271.5z"/>
<path class="st4" d="M150.7,262.5c10.8-6.5,19.6-16,25.4-27.2c0.7-1.3,1.3-2.8,0.9-4.2c-0.7-2.7-4.3-3.2-6.8-4.4
	c-4.8-2.2-6.8-7.7-9.9-11.9c-5.5-7.2-14.5-10.6-23.3-9c-4.6,0.9-8.8,3.2-13.4,3.9c-9.9,1.4-20.7-4.6-29.6,0c-4.1,2.1-6.8,6-9.2,9.9
	c-6.1,9.7-13.7,20-8.2,31.4c3.2,6.5,8.2,11.9,15.3,13.8c7.1,1.9,15.3,0.3,22.6-0.5c6-0.6,12.2-2,18.2-1.4
	C139.6,263.6,144,266.5,150.7,262.5z"/>
<path class="st11" d="M150.7,260.5c10.8-6.5,19.6-16,25.4-27.2c0.7-1.3,1.3-2.8,0.9-4.2c-0.7-2.7-4.3-3.2-6.8-4.4
	c-4.8-2.2-6.8-7.7-9.9-11.9c-5.5-7.2-14.5-10.6-23.3-9c-4.6,0.9-8.8,3.2-13.4,3.9c-9.9,1.4-20.7-4.6-29.6,0c-4.1,2.1-6.8,6-9.2,9.9
	c-6.1,9.7-13.7,20-8.2,31.4c3.2,6.5,8.2,11.9,15.3,13.8c7.1,1.9,15.3,0.3,22.6-0.5c6-0.6,12.2-2,18.2-1.4
	C139.6,261.6,144,264.5,150.7,260.5z"/>
<polygon class="st17" points="758.7,375.7 323.7,453.5 323.7,220.2 758.7,142.5 "/>
<polygon class="st17" points="668.6,169.4 749,155.5 750.2,191.6 667.6,205.4 "/>
<g class="st18">
	<path class="st19" d="M512.1,370.7c2.7-0.6,5.5-0.8,8.3-0.7c16.5,0.3,33.5,1.9,49.7-3c8.6-2.6,16.3-6.8,25.1-8.7
		c15-3.1,30,1.4,44.8-2.3c3-0.8,6.7-1.8,8.8-0.7c2.5,1.3,0.7,4.8,3.7,5.7c1,0.1,1.9,0.3,2.8,0.6c1.1,0.6,0.4,2-0.7,2.9
		c-6.7,5.4-20.3,1.8-28.7,6.2c-1.9,1-3.3,2.3-5,3.3c-2.8,1.4-5.7,2.5-8.7,3.2l-46.5,13c-11.1,3.1-22.4,6.3-34,7.6
		s-23.5,0.8-31.9-3.1c-1.8-0.8-3.5-1.9-4.2-3.3C492.4,384.8,500.5,373.7,512.1,370.7z"/>
	<polygon class="st20" points="471.1,278.5 510,309.3 548.9,340.1 485,352.2 421,364.3 446,321.4 	"/>
	<polygon class="st20" points="511.5,271.4 550.5,302.2 589.4,333 525.5,345 461.5,357.1 486.5,314.3 	"/>
	<polygon class="st3" points="571.8,207.4 496.6,350.5 639.1,322.8 691.8,312.8 	"/>
	<polygon class="st4" points="691.8,312.8 639.1,322.8 571.8,207.4 	"/>
	
		<linearGradient id="SVGID_1_" gradientUnits="userSpaceOnUse" x1="600.4129" y1="255.6877" x2="600.4129" y2="369.7032" gradientTransform="matrix(0.9826 -0.1857 -0.1857 -0.9826 28.9346 742.3618)">
		<stop  offset="0" style="stop-color:#808080;stop-opacity:0.25"/>
		<stop  offset="0.54" style="stop-color:#808080;stop-opacity:0.12"/>
		<stop  offset="1" style="stop-color:#808080;stop-opacity:0.1"/>
	</linearGradient>
	<path class="st21" d="M611.4,273.7c-0.5-1.9-2.4-3.2-4.3-3c0,0,1-7.9-15.2-4.7c-1-2-3.5-2.9-5.5-1.9c-0.3,0.2-0.6,0.4-0.9,0.6
		l-0.7-3.7c0,0-8.9,5.1,0.5,12.4l1.1,6c0,0.2,0.1,0.3,0.1,0.4c0.1,0.1,0.1,0.2,0.1,0.3c0.4,1.8,3.6,15.6-3.6,20.4
		c-7.7,5.1-12.1-10.7-12.1-10.7c-5-20.7-14.5-20.7-16.8-20.3c-0.3,0-0.5,0.1-0.8,0.1c-1.1,0.1-4.3,1.2-5.6,13.2
		c-1.5,14.3-7,10.8-7,10.8c-12.3-6.7-21-0.8-21-0.8c-21.4,12.6-3.2,36.1,0.5,40.6c-1.4,7.1-4.3,19.6-7,20.2
		c-3.9,0.7-11.1,14.3,8.5,35.5l5.2-1c0,0-16.2-21.1-3.4-31.6c-0.3,0.8-0.6,1.5-1,2.3c-7.1,12.2,17.1,26.9,17.1,26.9l5.8-1.1
		l-13.4-16.9c-5.3-7,4.6-12.7,4.6-12.7c11.8-9.9,5.7-21.8,5.7-21.8l27.5-5.2c-3.4,7.5-8.4,26,8.2,50.3l3.9-0.7l-3.2-29.5
		c0,0,1-6.4,7.7-15.9c2.7,12,8.4,32.7,16.9,41.4l5.6-1.1c0,0-6.8-19.7-7-27c-0.1-3-0.2-6-0.5-8.9l-1.4-15.5c4.6-2.9,7-8.5,5.9-13.9
		l-5.2-26.9c-0.3-1.5,0.7-3,2.2-3.3c0.1,0,0.1,0,0.2,0l6.6-0.9c0.9-0.2,1.5-1,1.3-1.9C611.4,273.9,611.4,273.8,611.4,273.7z"/>
	<path class="st22" d="M584.4,323.1c0,0,6.2,37.1,18.4,49.3l5.5-1c0,0-6.7-19.3-6.9-26.5c-0.1-2.9-0.2-5.8-0.5-8.8l-2.3-25
		L584.4,323.1z"/>
	<path class="st2" d="M584.4,323.1c0,0,6.2,37.1,18.4,49.3l5.5-1c0,0-6.7-19.3-6.9-26.5c-0.1-2.9-0.2-5.8-0.5-8.8l-2.3-25
		L584.4,323.1z"/>
	<path class="st22" d="M521.9,328.4c0,0-4,23.8-7.8,24.5c-3.8,0.7-10.9,14.1,8.4,34.9l5.1-1c0,0-17.8-23.2-0.9-32.8
		C526.7,354.1,529.7,334.2,521.9,328.4z"/>
	<path class="st2" d="M521.9,328.4c0,0-4,23.8-7.8,24.5c-3.8,0.7-10.9,14.1,8.4,34.9l5.1-1c0,0-17.8-23.2-0.9-32.8
		C526.7,354.1,529.7,334.2,521.9,328.4z"/>
	<path class="st22" d="M585.9,280.3l-1.1-5.9c-9.2-7.1-0.5-12.1-0.5-12.1l1.2,6.3c21.9-6.3,20.7,3.2,20.7,3.2c1.9-0.2,3.7,1,4.3,2.9
		c0.3,0.8-0.1,1.8-1,2.1c-0.1,0-0.2,0.1-0.3,0.1l-6.5,0.9c-1.5,0.2-2.6,1.6-2.4,3.1c0,0.1,0,0.1,0,0.2l5.1,26.4
		c0.7,3.8-0.2,7.8-2.7,10.8c-1.9,2.3-4.9,4.4-9.7,5.1l-50.2,9.5c0,0,6,11.7-5.6,21.4c0,0-9.8,5.6-4.5,12.5l13.2,16.6l-5.7,1.1
		c0,0-23.8-14.4-16.8-26.4c3.9-7.7,3.3-17-1.6-24.1c0,0-24.4-26.9-1.2-40.6c0,0,8.6-5.8,20.7,0.8c0,0,5.4,3.5,6.9-10.6
		c1.2-11.7,4.5-12.9,5.5-13c0.3,0,0.5,0,0.8-0.1c2.2-0.3,11.6-0.4,16.5,20c0,0,4.3,15.5,11.8,10.6c7-4.7,4-18.3,3.5-20
		c0-0.1-0.1-0.2-0.1-0.3l0,0C585.9,280.6,585.9,280.4,585.9,280.3z"/>
	<path class="st22" d="M571.7,324.1c0,0-15.5,21.5,6.1,53l3.8-0.7l-3.1-29c0,0,1.8-12.2,18.5-28.1L571.7,324.1z"/>
	<circle class="st22" cx="587.6" cy="269" r="4.1"/>
	
		<linearGradient id="SVGID_2_" gradientUnits="userSpaceOnUse" x1="589.2772" y1="310.531" x2="589.2772" y2="401.9925" gradientTransform="matrix(0.9826 -0.1857 -0.1857 -0.9826 28.9346 742.3618)">
		<stop  offset="0" style="stop-color:#808080;stop-opacity:0.25"/>
		<stop  offset="0.54" style="stop-color:#808080;stop-opacity:0.12"/>
		<stop  offset="1" style="stop-color:#808080;stop-opacity:0.1"/>
	</linearGradient>
	<path class="st23" d="M570.5,295.7c4.7-7.2,1.9-7.6,0.1-9.5c-1.2-1.3-11.7-1.8-18.2-2c-0.1-0.5-0.4-1.3-0.6-2.4
		c0,0-0.5-1.9-0.8-3.2l0,0h0.4l-0.1-0.4l8-0.4c6.8-0.3,7.2-3,7.2-3c0.2-4.7-7.5-0.2-7.5-0.2c-1.5,0.8-5.6,0.2-8.8-0.4
		c-0.1-0.7-0.1-1.3-0.2-2c0-1,0-2.1-0.2-3.1c-0.1-0.9-0.5-1.7-1-2.4c-2.3-2.8-5.1-5.3-8.1-7.4c-0.2-1.8,0-3.5,0.5-5.3
		c2.5-1.3,3.9-4,3.4-6.8c-0.1-0.6-0.3-1.2-0.6-1.8c1.4-1.9,0.8-5.1-1.2-6.9c-0.2-0.2-0.4-0.4-0.7-0.5c-1.3-0.9-2.8-1.2-4.4-1
		c-1.7,0.3-3.3,0.9-4.7,1.9c-1.7,1.1-3.3,2.5-5.3,2.8c-1.5,0.2-3-0.3-4.4,0.1c-1.8,0.6-2.7,2.5-3.3,4.3s-1.1,3.7-2.7,4.8
		c-1.4,0.9-3.1,0.9-4.8,1.3c-2.3,0.5-4.2,2.1-5,4.2c-0.7,2,0.1,4.1,1.8,5.3c0.3,0.2,0.6,0.4,0.9,0.5c0.3,0.1,0.7,0.2,1,0.4
		c0.2,0.1,0.3,0.3,0.3,0.5c0,0.3-0.1,0.5-0.2,0.8c-0.4,1.1-0.3,2.3,0.3,3.4c0.2,0.4,0.5,0.7,0.8,0.9c0.1,0.1,0.2,0.2,0.3,0.2
		c1.2,0.5,2.6-0.6,3.8-0.1h0.1c0.5,0.5,0.8,1,1.2,1.6c0.3,0.3,0.6,0.6,1,0.8c1,0.7,2.2,0.9,3.5,0.7c1.5-0.3,3-0.9,4.3-1.7
		c1.8-1,3.7-2.4,3.8-4.4c0.1-1.2-0.5-2.4-0.4-3.6c0.1-0.6,0.3-1.1,0.7-1.6c-0.2,1-0.3,2-0.2,3.1c0,0.8,0.1,1.7,0.3,2.5
		c0.4,2.1,1.2,4.2,2.3,6.1c1.5,2.4,2.6,5.1,3.3,7.9c0.2,1.2,0.3,2.5,0.1,3.7c-0.6,3.6-0.6,5.1-0.4,5.8c0.1,0.9,0.4,0.9,0.4,0.9h0.1
		c0.1,1.2,0.6,2.4,1.6,3.2c9,3.7,27.5-1.6,27.5-1.6c-3.7,1.3-6.4,11.5-6.4,11.5c-0.4,2.2-1.3,4.3-2.7,6.1l0,0
		c-2-0.3-4.4,1.9-6.1,3.3l-0.2,0.1c-0.7,0.5-0.8,1.4-0.4,2c0,0.1,0.1,0.1,0.1,0.2l7.1,7.8c4.1,2.9,6.4,3.1,7.1,2.3
		c0.4-0.5,0.1-1.5-0.9-2.4c-2.4-2.3-2.1-9.5-2-10.2C562.2,309.9,566.5,301.7,570.5,295.7z"/>
	<path class="st24" d="M541.8,253.2c0,0-2.1,4.7-0.7,8.8l-7.7-4.1c0,0,2.4-0.7,1.9-6.5L541.8,253.2z"/>
	<path class="st25" d="M547,284.5c0,0,20.3,0.3,22.1,2.1c1.7,1.8,4.4,2.3,0,9.3s-9.2,16.9-9.2,16.9l-5.2-2.4c1.9-2,3.1-4.5,3.6-7.2
		c0,0,2.5-9.9,6-11.2c0,0-17.4,5.1-26,1.4c0,0-2.3-1.7-1.2-5.5S547,284.5,547,284.5z"/>
	<path class="st4" d="M535.7,258.1c0,0-5.1-1.3-4.7,6.5c0.1,2.8,1,5.6,2.4,8c1.7,2.8,4,7.7,3.3,11.7c-1,6.1,0,6.1,0,6.1l2.6-1.6
		c3.5-2.1,7.5-3.3,11.6-3.3h1.2c0,0-2.4-8.8-2.5-12.6c0-1.8,0-3.5-1.1-5C545.1,263.4,538.1,258.1,535.7,258.1z"/>
	<path class="st26" d="M535.6,257.7c0,0-5.1-1.3-4.7,6.5c0.1,2.8,1,5.6,2.4,8c1.7,2.8,4,7.7,3.3,11.7c-1,6.1,0,6.1,0,6.1l2.6-1.6
		c3.5-2.1,7.5-3.3,11.6-3.3h1.2c0,0-2.4-8.8-2.5-12.6c0-1.8,0-3.5-1.1-5C545,263.1,538,257.7,535.6,257.7z"/>
	<path class="st4" d="M533.7,264c0.7-1.9,2.8-2.9,4.7-2.2c0.5,0.2,0.9,0.5,1.3,0.8c0.8,0.8,1.4,1.8,1.8,2.8c2.4,5.5,4.2,8.9,4.2,8.9
		c1.5,0.2,3.1,0.6,4.6,1.1c0.2,1.9,0.5,3.8,0.5,3.8l-6.5,0.3l-8.9-10.5C535.5,269,532.8,266.7,533.7,264z"/>
	<path class="st24" d="M533.6,263.6c0.7-1.9,2.8-2.9,4.7-2.2c0.5,0.2,0.9,0.5,1.3,0.8c0.8,0.8,1.4,1.8,1.8,2.8
		c2.4,5.5,4.2,8.9,4.2,8.9s9.8,2.7,12.3,1.4c0,0,7.3-4.3,7.1,0.2c0,0-0.3,2.6-6.8,2.8l-14.1,0.7l-8.9-10.5
		C535.5,268.6,532.7,266.3,533.6,263.6z"/>
	<path class="st4" d="M534.8,254c0.2-0.9,0.6-0.6,0.5-2.2l6.4,1.7c-0.3,0.7-0.5,1.3-0.7,2c-0.6,0.2-1.3,0.3-2,0.4
		C537.6,256.3,536,254.7,534.8,254z"/>
	<circle class="st24" cx="538.2" cy="249.8" r="6.2"/>
	<path class="st4" d="M540.8,248.3c-1.1,0.1-2.3-0.3-3.2,0.3s-1.2,2.2-1,3.4s0.7,2.5,0.4,3.7c-0.4,1.6-2,2.6-3.4,3.4
		c-1.4,0.9-3,2-3.2,3.6c-0.1,1.2,0.5,2.3,0.4,3.5c-0.1,1.9-1.9,3.3-3.6,4.2c-1.2,0.8-2.6,1.4-4,1.7c-1.5,0.3-3-0.3-3.9-1.4
		c-0.5-0.6-0.7-1.5-1.4-1.8c-1.1-0.5-2.5,0.6-3.6,0.1c-0.4-0.2-0.7-0.5-0.9-0.9c-0.5-1-0.6-2.2-0.3-3.3c0.1-0.2,0.2-0.5,0.2-0.8
		c-0.1-0.6-0.9-0.8-1.5-1.1c-2-1-3-3.3-2.3-5.5c0.8-2.1,2.6-3.6,4.8-4.1c1.5-0.4,3.2-0.4,4.5-1.2c1.5-1,2-2.9,2.5-4.6
		s1.4-3.6,3.1-4.1c1.3-0.4,2.8,0.1,4.1-0.1c1.9-0.2,3.5-1.6,5-2.7c1.3-1,2.9-1.6,4.5-1.9c1.6-0.3,3.3,0.2,4.6,1.3
		C545.2,242.6,545.4,248,540.8,248.3z"/>
	<path class="st27" d="M540.5,248.1c-1.1,0.1-2.3-0.3-3.2,0.3s-1.2,2.2-1,3.4s0.7,2.5,0.4,3.7c-0.4,1.6-2,2.6-3.4,3.5
		c-1.4,0.8-3,2-3.2,3.6c-0.1,1.2,0.5,2.3,0.4,3.5c-0.1,1.9-1.9,3.3-3.6,4.2c-1.2,0.8-2.6,1.4-4,1.6c-1.5,0.3-3-0.3-3.9-1.4
		c-0.5-0.6-0.7-1.5-1.4-1.8c-1.1-0.5-2.5,0.6-3.6,0.1c-0.4-0.2-0.7-0.5-0.9-0.9c-0.5-1-0.6-2.2-0.3-3.3c0.1-0.2,0.2-0.5,0.2-0.8
		c-0.1-0.6-0.9-0.8-1.5-1.1c-2-1-3-3.3-2.3-5.5c0.8-2.1,2.6-3.6,4.8-4.1c1.5-0.4,3.2-0.4,4.5-1.2c1.5-1,2-2.9,2.5-4.6
		s1.4-3.6,3.1-4.1c1.3-0.4,2.8,0.1,4.1-0.1c1.9-0.2,3.5-1.6,5-2.7c1.3-1,2.9-1.6,4.5-1.9c1.6-0.3,3.3,0.2,4.6,1.3
		C545,242.5,545.2,247.9,540.5,248.1z"/>
	<path class="st4" d="M542.4,263.8c0,0-8,0.5-7.3,6.1c0.7,5.6-2.8-6.4-2.8-6.4l3.1-3.3l4.4,0.5L542.4,263.8z"/>
	<path class="st26" d="M542.1,263.7c0,0-8,0.5-7.3,6.1c0.7,5.6-2.8-6.4-2.8-6.4l3.1-3.4l4.4,0.5L542.1,263.7z"/>
	<path class="st26" d="M549.5,314.6l6.7,7.6c3.9,2.8,6.1,3,6.7,2.3c0.4-0.5,0.1-1.5-0.8-2.4c-2.4-2.3-2-10-2-10
		c-2,0.1-3.7-1.1-4.5-2.9c-1.9-0.3-4.1,1.9-5.8,3.1l-0.1,0.1c-0.7,0.5-0.8,1.4-0.3,2C549.4,314.5,549.5,314.5,549.5,314.6z"/>
	<path class="st4" d="M560.2,312.1c0,0-3.8,0.5-4.5-2.9C556.5,311,558.2,312.1,560.2,312.1z"/>
	<path class="st4" d="M549.5,314.6l6.7,7.6c3.9,2.8,6.1,3,6.7,2.3c-1.9-0.6-7.4-3-13.1-12.1l-0.1,0.1c-0.7,0.5-0.8,1.4-0.3,2
		C549.5,314.5,549.5,314.6,549.5,314.6z"/>
	<path class="st3" d="M439.2,374.1c0,0-17.8,15.9,22.8,27.6c0,0,5.3-16.7-6.1-27.4c-4.6-4.3-11.6-4.5-16.5-0.5L439.2,374.1z"/>
	<path class="st28" d="M439.4,373.8c0,0,19.7,9.9,22.6,27.9"/>
	<path class="st29" d="M460.9,401.9c0,0-10.3-20.2-5.8-37.4c1.9-7.2,1.5-14.9-1.3-21.8c-1.3-3.3-3-6.4-4.9-9.4"/>
	<path class="st3" d="M451.6,322.6c0.5,2.6-2.8,11.1-2.8,11.1s-6.2-6.7-6.7-9.3c-0.5-2.6,1.2-5.2,3.8-5.6
		C448.6,318.2,451.1,319.9,451.6,322.6L451.6,322.6z"/>
	<path class="st3" d="M462.2,335.6c-1,2.5-8.4,7.8-8.4,7.8s-1.5-9-0.5-11.5c1-2.5,3.8-3.7,6.3-2.7S463.3,333.1,462.2,335.6
		L462.2,335.6z"/>
	<path class="st3" d="M466.6,360.5c-2.1,1.6-11.2,2.5-11.2,2.5s3.2-8.5,5.3-10.2c2.1-1.6,5.2-1.2,6.8,0.9
		C469.1,355.9,468.7,358.9,466.6,360.5L466.6,360.5z"/>
	<path class="st3" d="M465.6,380.1c-1.8,2-10.6,4.4-10.6,4.4s1.7-9,3.5-10.9c1.8-2,4.9-2.1,6.8-0.3S467.5,378.1,465.6,380.1
		L465.6,380.1z"/>
	<path class="st3" d="M444,345.8c2.2,1.5,11.3,1.7,11.3,1.7s-3.8-8.3-6-9.8c-2.2-1.5-5.2-0.9-6.7,1.4
		C441.1,341.3,441.7,344.3,444,345.8L444,345.8L444,345.8z"/>
	<path class="st3" d="M443.1,368.7c2.6,0.7,11.3-1.8,11.3-1.8s-6.1-6.8-8.7-7.5c-2.6-0.7-5.2,0.7-6,3.3S440.6,368,443.1,368.7
		L443.1,368.7L443.1,368.7z"/>
	<path class="st3" d="M445.4,391.1c2.4,1.2,11.5,0.2,11.5,0.2s-4.9-7.7-7.3-8.9c-2.4-1.2-5.3-0.2-6.5,2.3
		C441.9,387.1,443,390,445.4,391.1L445.4,391.1z"/>
	<path class="st30" d="M451.6,322.6c0.5,2.6-2.8,11.1-2.8,11.1s-6.2-6.7-6.7-9.3c-0.5-2.6,1.2-5.2,3.8-5.6
		C448.6,318.2,451.1,319.9,451.6,322.6L451.6,322.6z"/>
	<path class="st30" d="M462.2,335.6c-1,2.5-8.4,7.8-8.4,7.8s-1.5-9-0.5-11.5c1-2.5,3.8-3.7,6.3-2.7S463.3,333.1,462.2,335.6
		L462.2,335.6z"/>
	<path class="st30" d="M466.6,360.5c-2.1,1.6-11.2,2.5-11.2,2.5s3.2-8.5,5.3-10.2c2.1-1.6,5.2-1.2,6.8,0.9
		C469.1,355.9,468.7,358.9,466.6,360.5L466.6,360.5z"/>
	<path class="st30" d="M465.6,380.1c-1.8,2-10.6,4.4-10.6,4.4s1.7-9,3.5-10.9c1.8-2,4.9-2.1,6.8-0.3S467.5,378.1,465.6,380.1
		L465.6,380.1z"/>
	<path class="st30" d="M444,345.8c2.2,1.5,11.3,1.7,11.3,1.7s-3.8-8.3-6-9.8c-2.2-1.5-5.2-0.9-6.7,1.4
		C441.1,341.3,441.7,344.3,444,345.8L444,345.8L444,345.8z"/>
	<path class="st30" d="M443.1,368.7c2.6,0.7,11.3-1.8,11.3-1.8s-6.1-6.8-8.7-7.5c-2.6-0.7-5.2,0.7-6,3.3S440.6,368,443.1,368.7
		L443.1,368.7L443.1,368.7z"/>
	<path class="st30" d="M445.4,391.1c2.4,1.2,11.5,0.2,11.5,0.2s-4.9-7.7-7.3-8.9c-2.4-1.2-5.3-0.2-6.5,2.3
		C441.9,387.1,443,390,445.4,391.1L445.4,391.1z"/>
	<path class="st29" d="M480.4,405.7c0,0-10.3-20.2-5.8-37.4c1.9-7.2,1.5-14.8-1.3-21.7c-1.3-3.3-3-6.4-4.9-9.4"/>
	<path class="st3" d="M471.2,326.4c0.5,2.6-2.8,11.1-2.8,11.1s-6.2-6.7-6.7-9.3c-0.5-2.6,1.2-5.2,3.8-5.6
		C468.1,322,470.7,323.8,471.2,326.4L471.2,326.4z"/>
	<path class="st3" d="M481.8,339.4c-1,2.5-8.4,7.8-8.4,7.8s-1.5-9-0.5-11.5c1-2.5,3.8-3.7,6.3-2.7S482.8,336.9,481.8,339.4
		L481.8,339.4z"/>
	<path class="st3" d="M486.1,364.3c-2.1,1.6-11.2,2.5-11.2,2.5s3.2-8.5,5.3-10.2c2.1-1.6,5.2-1.2,6.8,0.9
		C488.6,359.7,488.2,362.7,486.1,364.3L486.1,364.3L486.1,364.3z"/>
	<path class="st3" d="M485.2,383.9c-1.8,2-10.6,4.4-10.6,4.4s1.7-9,3.5-10.9c1.8-2,4.9-2.1,6.8-0.3S487,382,485.2,383.9L485.2,383.9
		L485.2,383.9z"/>
	<path class="st3" d="M463.5,349.6c2.2,1.5,11.3,1.7,11.3,1.7s-3.8-8.3-6-9.8c-2.2-1.5-5.2-0.9-6.7,1.4
		C460.7,345.2,461.3,348.2,463.5,349.6L463.5,349.6z"/>
	<path class="st3" d="M462.7,372.5c2.6,0.7,11.3-1.8,11.3-1.8s-6.1-6.8-8.7-7.5c-2.6-0.7-5.2,0.7-6,3.3S460.1,371.8,462.7,372.5
		L462.7,372.5L462.7,372.5z"/>
	<path class="st3" d="M464.9,394.9c2.4,1.2,11.5,0.2,11.5,0.2s-4.9-7.7-7.3-8.9c-2.4-1.2-5.3-0.2-6.5,2.3
		C461.5,390.9,462.5,393.8,464.9,394.9L464.9,394.9L464.9,394.9z"/>
	<path class="st19" d="M521.7,220.9l-1.8,0.3c0.7-0.1,1.1-0.8,1-1.5c-0.1-0.7-0.8-1.1-1.5-1l0,0l-14.3,2.7c-0.7,0.1-1.1,0.8-1,1.5
		c0.1,0.7,0.8,1.1,1.5,1l0,0l1.8-0.3c-0.7,0.1-1.1,0.8-1,1.5c0.1,0.7,0.8,1.1,1.5,1l-2.5,0.5c-0.7,0.1-1.1,0.8-1,1.5
		c0.1,0.7,0.8,1.1,1.5,1l0,0l14.3-2.7c0.7-0.1,1.1-0.8,1-1.5c-0.1-0.7-0.8-1.1-1.5-1l2.5-0.5c0.7-0.1,1.1-0.8,1-1.5
		C523,221.3,522.4,220.8,521.7,220.9z"/>
	<path class="st19" d="M495.9,245.4l-1.8,0.3c0.7-0.1,1.1-0.8,1-1.5c-0.1-0.7-0.8-1.1-1.5-1l-14.3,2.7c-0.7,0.1-1.1,0.8-1,1.5
		c0.1,0.7,0.8,1.1,1.5,1l1.8-0.3c-0.7,0.1-1.1,0.8-1,1.5c0.1,0.7,0.8,1.1,1.5,1l0,0l-2.5,0.5c-0.7,0.1-1.1,0.8-1,1.5
		c0.1,0.7,0.8,1.1,1.5,1l14.3-2.7c0.7-0.1,1.1-0.8,1-1.5c-0.1-0.7-0.8-1.1-1.5-1l0,0l2.5-0.5c0.7-0.1,1.1-0.8,1-1.5
		C497.2,245.7,496.6,245.3,495.9,245.4L495.9,245.4L495.9,245.4z"/>
	<path class="st19" d="M641.6,214.1l-1.8,0.3c0.7-0.1,1.1-0.8,1-1.5c-0.1-0.7-0.8-1.1-1.5-1l0,0l-14.2,2.7c-0.7,0.1-1.1,0.8-1,1.5
		c0.1,0.7,0.8,1.1,1.5,1l1.8-0.3c-0.7,0.1-1.1,0.8-1,1.5c0.1,0.7,0.8,1.1,1.5,1l0,0l-2.5,0.4c-0.7,0.1-1.1,0.8-1,1.5
		c0.1,0.7,0.8,1.1,1.5,1l14.3-2.7c0.7-0.1,1.1-0.8,1-1.5c-0.1-0.7-0.8-1.1-1.5-1l2.5-0.5c0.7-0.1,1.1-0.8,1-1.5
		C642.9,214.4,642.3,214,641.6,214.1L641.6,214.1z"/>
	<circle class="st20" cx="451.3" cy="245.3" r="13.3"/>
	<path class="st2" d="M530.5,313.9c0,0,6.7,5.9,9.8,11.1s2.1,7,2.1,7"/>
</g>
</svg>
