<?xml version="1.0" encoding="utf-8"?>
<!-- Generator: Adobe Illustrator 19.0.0, SVG Export Plug-In . SVG Version: 6.00 Build 0)  -->
<svg version="1.1" id="ab398683-79ae-42aa-8342-363f843f88d7"
	 xmlns="http://www.w3.org/2000/svg" xmlns:xlink="http://www.w3.org/1999/xlink" x="0px" y="0px" viewBox="-304 64.3 991 723.7"
	 style="enable-background:new -304 64.3 991 723.7;" xml:space="preserve">
<style type="text/css">
	.st0{fill:#F2F2F2;}
	.st1{fill:#2F2E41;}
	.st2{fill:#3F3D56;}
	.st3{fill:#6C63FF;}
	.st4{opacity:0.1;enable-background:new    ;}
	.st5{opacity:0.4;fill:#6C63FF;enable-background:new    ;}
	.st6{fill:#575A89;}
	.st7{fill:#FFB9B9;}
</style>
<title>augmented reality</title>
<path class="st0" d="M687,336v147.7h-800V378.5c14.8-56.9,41.4-110,78.2-156l558.4-89.9c16.9,11.1,32.9,23.3,48.1,36.6l-331,126.3
	L607,204.4c15,16.8,28.7,34.8,40.8,53.7l-74.8,55.9l84.5-40c7.8,13.5,14.9,27.4,21.2,41.7C681.7,322.4,684.4,329.2,687,336z"/>
<path class="st0" d="M477.8,106.6c-57.3-28-120.3-42.4-184.1-42.4c-129.8,0-245.9,58.9-323,151.3
	C102.8,186.7,332.6,136.6,477.8,106.6z"/>
<path class="st1" d="M687,341.1v255.6h-793.8c-3.8-2.2-6.2-6.3-6.2-10.7V373.9c0-32.1,26-58.1,58.1-58.1c0,0,0,0,0,0h716.5
	C675.6,315.8,687,327.1,687,341.1z"/>
<path class="st2" d="M608.5,586c0-10.2-5.2-18.4-11.5-18.4c-4,0-7.5,3.3-9.6,8.2c-0.7-0.3-1.4-0.4-2.2-0.4c-2,0.1-3.9,1.1-5.2,2.7
	c-1.9-6.2-5.8-10.4-10.4-10.4c-4.3,0-8,3.7-10,9.2c-1.1-0.9-2.5-1.5-3.9-1.5c-4.9,0-8.8,6.3-8.8,14.1c0,2.6,0.5,5.2,1.4,7.6h57.9
	C607.8,593.6,608.6,589.8,608.5,586z"/>
<path class="st2" d="M22,580.9c0-14.5-5.2-26.3-11.5-26.3c-4,0-7.5,4.7-9.6,11.7c-0.7-0.4-1.4-0.6-2.2-0.6c-1.9,0-3.7,1.4-5.2,3.8
	c-1.9-8.8-5.8-14.9-10.4-14.9c-4.3,0-8,5.3-10,13.2c-0.9-1.2-2.4-2-3.9-2.1c-4.9,0-8.8,9-8.8,20.2c0,3.7,0.4,7.3,1.4,10.9h57.9
	C21.3,591.6,22.1,586.3,22,580.9z"/>
<path class="st2" d="M-47.2,438.1h5.9c5.6,0,10.1,4.5,10.1,10.1v64.1c0,9.8,7.9,17.7,17.7,17.7l0,0c9.8,0,17.7-7.9,17.7-17.7V357.1
	c0-5.6,4.5-10.1,10.1-10.1h5.9c5.6,0,10.1,4.5,10.1,10.1v155.3c0,9.8,7.9,17.7,17.7,17.7l0,0l0,0c9.8,0,17.7-7.9,17.7-17.7l0,0
	v-94.5c0-5.6,4.5-10.1,10.1-10.1h5.9c5.6,0,10.1,4.5,10.1,10.1v94.5c0,9.8,7.9,17.7,17.7,17.7l0,0l0,0c9.8,0,17.7-7.9,17.7-17.7
	v-28.7c0-5.6,4.5-10.1,10.1-10.1h5.9c5.6,0,10.1,4.5,10.1,10.1v28.7c0,9.8,7.9,17.7,17.7,17.7l0,0l0,0c9.8,0,17.7-7.9,17.7-17.7l0,0
	V412c0-5.6,4.5-10.1,10.1-10.1h5.9c5.6,0,10.1,4.5,10.1,10.1v100.4c0,9.8,7.9,17.7,17.7,17.7l0,0c9.8,0,17.7-7.9,17.7-17.7V385
	c0-5.6,4.5-10.1,10.1-10.1h5.9c5.6,0,10.1,4.5,10.1,10.1v127.4c0,9.8,7.9,17.7,17.7,17.7l0,0l0,0c9.8,0,17.7-7.9,17.7-17.7v-64.1
	c0-5.6,4.5-10.1,10.1-10.1h5.9c5.6,0,10.1,4.5,10.1,10.1v64.1c0,9.8,7.9,17.7,17.7,17.7l0,0c9.8,0,17.7-7.9,17.7-17.7v-94.5
	c0-5.6,4.5-10.1,10.1-10.1h5.9c5.6,0,10.1,4.5,10.1,10.1v94.5c0,9.8,7.9,17.7,17.7,17.7h7.9c4.8-0.1,9.5-2,12.8-5.5
	c1.9-1.9,4.4-2.9,7.1-2.9h5.9c2.7,0,5.2,1.1,7.1,2.9c3.4,3.5,8,5.4,12.8,5.5h7.9c9.8,0,17.7-7.9,17.7-17.7l0,0v-9.3
	c0-5.6,4.5-10.1,10.1-10.1h5.9c5.6,0,10.1,4.5,10.1,10.1v9.3c0,9.8,7.9,17.7,17.7,17.7l0,0c9.8,0,17.7-7.9,17.7-17.7V412
	c0-5.6,4.5-10.1,10.1-10.1h5.9c5.6,0,10.1,4.5,10.1,10.1v100.4c0,9.8,7.9,17.7,17.7,17.7l0,0l0,0c9.8,0,17.7-7.9,17.7-17.7v0v-64.1
	c0-5.6,4.5-10.1,10.1-10.1h5.9c2.9,0,5.7,1.3,7.6,3.5v-97.8c0-19.7-15.9-35.6-35.6-35.6h-635c-17,0-30.7,13.7-30.7,30.7v109.4
	C-57.3,442.7-52.8,438.1-47.2,438.1z"/>
<rect x="442.9" y="327.1" class="st1" width="5" height="195.8"/>
<path class="st3" d="M493.7,352.1c0.3,59.9-36.5,110-45.8,121.6c-1.3,1.7-2.1,2.6-2.1,2.6s-1.1-1.2-2.9-3.5
	c-9.7-12.2-41-55.2-45.6-108.2c0-0.4-0.1-0.7-0.1-1.1c-0.3-3.6-0.4-7.3-0.5-11c0-9.1,0.8-18.2,2.3-27.1c0.1-0.5,0.2-1,0.3-1.5
	c10-54.7,45.3-95.6,45.3-95.6c7.4,8.9,14.1,18.3,19.9,28.3c0.2,0.3,0.3,0.5,0.4,0.8c4.5,7.6,8.6,15.5,12.2,23.6
	c0.1,0.3,0.3,0.6,0.4,0.8C486.4,301.8,493.5,326,493.7,352.1z"/>
<rect x="138.3" y="290" class="st1" width="5" height="195.8"/>
<path class="st3" d="M189,314.9c0.3,68.5-47.9,124.2-47.9,124.2s-48.7-55.3-49-123.8S140,191.2,140,191.2S188.7,246.5,189,314.9z"/>
<path class="st4" d="M55.1,366.3c-1.4,2.2-3.1,2.1-4.7,1.1s-2.4-2.6-1.1-4.8s6-3.1,6-3.1S56.5,364.1,55.1,366.3z"/>
<path class="st4" d="M379.1,392.5c-1.4,2.2-3.1,2.1-4.7,1.1s-2.4-2.6-1.1-4.8s6-3.1,6-3.1S380.5,390.3,379.1,392.5z"/>
<path class="st4" d="M201.6,379.1c0.6,2.5-0.7,3.7-2.6,4.2s-3.5-0.1-4.1-2.6s2-6.5,2-6.5S201,376.6,201.6,379.1z"/>
<path class="st4" d="M491,470.2c0.6,2.5-0.7,3.7-2.6,4.2s-3.5-0.1-4.1-2.6s2-6.5,2-6.5S490.4,467.7,491,470.2z"/>
<path class="st4" d="M177.2,419.9c1,4.3-1.2,6.4-4.4,7.1s-6.1-0.2-7.1-4.5s3.5-11.1,3.5-11.1S176.2,415.5,177.2,419.9z"/>
<path class="st4" d="M300.1,441.5c-2.1,3.9-5.1,4-8,2.5s-4.5-4.1-2.4-8s9.9-6.1,9.9-6.1S302.2,437.5,300.1,441.5z"/>
<path class="st4" d="M422.9,486.1c-0.6,4.4-3.4,5.6-6.6,5.2s-5.6-2.3-5.1-6.7s7.1-9.2,7.1-9.2S423.5,481.7,422.9,486.1z"/>
<rect x="73.8" y="294.1" transform="matrix(-0.6963 0.7178 -0.7178 -0.6963 438.5343 403.4743)" class="st2" width="120.3" height="0.8"/>
<rect x="82.2" y="322.8" transform="matrix(-0.6963 0.7178 -0.7178 -0.6963 473.4431 446.0869)" class="st2" width="120.3" height="0.8"/>
<path class="st2" d="M465,257.4l-65.9,68c0.1-0.5,0.2-1,0.3-1.5l65.2-67.3C464.7,256.9,464.8,257.1,465,257.4z"/>
<rect x="382.6" y="348.1" transform="matrix(-0.6958 0.7182 -0.7182 -0.6958 1001.1638 273.0182)" class="st2" width="120.3" height="0.8"/>
<path class="st2" d="M477.6,281.8l-80.2,82.8l-1.2,1.2l-0.6-0.6l1.7-1.8l79.9-82.5C477.3,281.3,477.5,281.5,477.6,281.8z"/>
<path class="st1" d="M133.9,267h-10.6v-10.6h10.6V267z M124.2,266.1h8.9v-8.9h-8.9V266.1z"/>
<path class="st1" d="M447.8,407h-10.6v-10.6h10.6V407z M438.1,406.2h8.9v-8.9h-8.9V406.2z"/>
<circle class="st5" cx="14.5" cy="160.7" r="12.6"/>
<circle class="st5" cx="-8.8" cy="166.7" r="8.8"/>
<circle class="st5" cx="563.6" cy="128.4" r="26.4"/>
<circle class="st5" cx="526" cy="162" r="18.5"/>
<path class="st1" d="M38,540.1l-0.8,0c0.3-8.9,1.3-17.8,2.8-26.6c3.5-18.8,9.2-31.1,17.1-36.7l0.5,0.7C39.2,490.5,38,539.7,38,540.1
	z"/>
<path class="st1" d="M48,540l-0.8,0c0-0.9,0.5-21.8,8.8-27.6l0.5,0.7C48.5,518.6,48,539.7,48,540z"/>
<circle class="st3" cx="62.2" cy="473.6" r="4"/>
<circle class="st3" cx="60.2" cy="508.1" r="4"/>
<path class="st1" d="M46.2,480c0.4,3.1,0,6.2-1.2,9.1c-4.3-4.8-5.3-11.6-2.7-17.4C44.2,474.1,45.6,477,46.2,480z"/>
<path class="st1" d="M59.3,491.7c-3,0.9-6.1,1.1-9.2,0.4c3.9-5,10.5-7.3,16.7-5.7C64.8,488.8,62.2,490.6,59.3,491.7z"/>
<path class="st1" d="M59.4,522.2c-2.1,0.7-4.3,0.8-6.4,0.3c2.8-3.5,7.3-5.1,11.7-4C63.3,520.2,61.4,521.5,59.4,522.2z"/>
<polygon class="st1" points="40,788 -304,788 -304,786 39,786 "/>
<path class="st1" d="M-230.5,758.1c0,0-6,25.2-0.5,26.3s32.4,0.7,39,1.8s20.3-0.7,20.3-5.7s-14.3-8.2-14.3-8.2s-20.3-11-20.8-11.5
	S-230.5,758.1-230.5,758.1z"/>
<path class="st6" d="M-225.6,609.4c0,0,1.6,18.7,1.6,20.3s-1.6,27.4,0,28.5s-1.1,8.8-1.1,11.5s-8.8,48.3-6.6,65.8
	s-3.3,15.9-1.6,17.6s1.6,1.6,1.6,4.9s17.6,6,17.6,6l19.2-121.2l-9.9-36.2L-225.6,609.4z"/>
<path class="st4" d="M-225.6,609.4c0,0,1.6,18.7,1.6,20.3s-1.6,27.4,0,28.5s-1.1,8.8-1.1,11.5s-8.8,48.3-6.6,65.8
	s-3.3,15.9-1.6,17.6s1.6,1.6,1.6,4.9s17.6,6,17.6,6l19.2-121.2l-9.9-36.2L-225.6,609.4z"/>
<path class="st1" d="M-222.8,765.7c0,0-5.5,19.8,0,20.8s32.4-1.3,39-0.2s20.3,1.3,20.3-3.7s-14.3-8.2-14.3-8.2s-20.3-11-20.8-11.5
	S-222.8,765.7-222.8,765.7z"/>
<path class="st6" d="M-230.5,587.4c0,0-6.6,15.9,1.1,24.1s16.5,24.7,16.5,25.8s-15.4,110.3-13.2,117.4s1.6,11.5,1.1,12.6
	s5.5,7.1,12.1,7.1s16.5-4.9,17.6-9.3s-1.6-42.2-1.1-49.4s3.3-17.6,4.4-19.8s7.1-4.4,8.2-11s9.9-90.5,7.1-93.3
	S-230.5,587.4-230.5,587.4z"/>
<circle class="st7" cx="-188.8" cy="442.6" r="18.7"/>
<path class="st7" d="M-200.3,451.9c0,0,3.8,20.3,1.1,22.5s20.8,5.5,20.8,5.5s2.7-26.9,3.3-29.6S-200.3,451.9-200.3,451.9z"/>
<path class="st3" d="M-175.1,478.3c0,0-6.6-19.2-33.5-13.7c0,0-4.9,1.6-3.3,3.3s3.3,1.6,1.1,3.3s-4.9,0-3.3,1.6
	s-14.8,11.5-13.7,30.2c1.1,18.7-3.8,45,0,49.4s-2.7,23.6-1.6,27.4s-6.6,8.8-3.3,10.4s62.5,11.5,64.2,0s0.5-3.3,2.2-6
	s2.2-7.7,1.1-13.7s-3.8-20.8-2.7-26.3s0-51.6-3.3-57.1S-175.1,478.3-175.1,478.3z"/>
<path class="st7" d="M-186.6,612.1c0,0-8.2,31.3,2.2,31.3s9.9-32.4,9.9-32.4L-186.6,612.1z"/>
<path class="st1" d="M-180.6,442.6c0,1.6-2.3,2.6-5.9,2.8h0c-1.5,0.1-3,0.1-4.5-0.1c-2.3-0.2-3.2,1.9-3.6,4.8
	c-0.6,4.7,0.3,11.2-0.8,12.2c-1.4,1.4-11.7,0-15-3.2c-0.5-0.5-0.8-1.1-0.9-1.7c-0.3-2-1.3-3.8-2.8-5.1c-1.9-2.1-4.6-4.4-7.7-8
	c-5.5-6.6,0-7.1,1.6-12.1s4.4-6.6,4.4-9.9s12.6-6,23-5.5s8.2,13.7,8.2,13.7s0.6,1.6,1.4,3.6c1,2.6,1.8,5.2,2.4,7.9
	C-180.6,442.3-180.6,442.4-180.6,442.6z"/>
<polygon class="st6" points="-165.8,420.7 -165.8,415.7 -180.6,416.8 -182.6,425 -178.5,430.3 -168.5,424 "/>
<polygon class="st4" points="-165.8,420.7 -165.8,415.7 -180.6,416.8 -182.6,425 -178.5,430.3 -168.5,424 "/>
<path class="st6" d="M-157,431.1l-9.9,2.7l-9.9,6l-3.9,2.2l-5.8,3.3h0l-8.2,4.7l-15.7,9c-0.5-0.5-0.8-1.1-0.9-1.7
	c-0.3-2-1.3-3.8-2.8-5.1l31-18.1l2.5-1.4l14.8-17L-157,431.1z"/>
<path class="st4" d="M-182.8,486.5c0,0-18.7-1.1-20.3,26.3s-1.1,53.2-1.1,53.8s7.7,52.7,14.8,52.7s12.6-1.1,14.3-3.8
	s-4.4-42.2-4.4-42.2s-2.7-41.7,1.6-54.9S-172.9,488.1-182.8,486.5z"/>
<path class="st3" d="M-180,483.8c0,0-18.7-1.1-20.3,26.3c-1.6,27.4-1.1,53.2-1.1,53.8s7.7,52.7,14.8,52.7s12.6-1.1,14.3-3.8
	s-4.4-42.2-4.4-42.2s-2.7-41.7,1.6-54.9S-170.2,485.4-180,483.8z"/>
</svg>
