<?xml version="1.0" encoding="utf-8"?>
<!-- Generator: Adobe Illustrator 19.0.0, SVG Export Plug-In . SVG Version: 6.00 Build 0)  -->
<svg version="1.1" id="b326ab2b-d71b-40ff-978b-a3c211b51f5c"
	 xmlns="http://www.w3.org/2000/svg" xmlns:xlink="http://www.w3.org/1999/xlink" x="0px" y="0px" viewBox="-286 5.1 1026.8 841.9"
	 style="enable-background:new -286 5.1 1026.8 841.9;" xml:space="preserve">
<style type="text/css">
	.st0{fill:#3F3D56;}
	.st1{fill:#6C63FF;}
	.st2{fill:#FFFFFF;}
	.st3{fill:#FFB8B8;}
	.st4{fill:#2F2E41;}
	.st5{fill:#D0CDE1;}
	.st6{opacity:0.1;enable-background:new    ;}
</style>
<title>apps</title>
<path class="st0" d="M-214.4,706.6l-1.1-0.4c-0.2-0.1-23.7-9.1-34.7-29.5c-11-20.4-5.6-44.9-5.6-45.2l0.3-1.1l1.1,0.4
	c0.2,0.1,23.7,9.1,34.7,29.5c11,20.4,5.6,44.9,5.6,45.2L-214.4,706.6z M-248.5,675.7c9.3,17.2,27.8,26.1,32.5,28.1
	c0.9-5,3.7-25.4-5.6-42.6c-9.3-17.2-27.8-26.1-32.5-28.1C-254.9,638.2-257.7,658.5-248.5,675.7z"/>
<path class="st1" d="M-241.8,670.5c19.8,11.9,27.4,35.5,27.4,35.5s-24.4,4.3-44.2-7.5S-286,663-286,663S-261.6,658.7-241.8,670.5z"
	/>
<rect x="-118.7" y="33.3" class="st0" width="605" height="646"/>
<path class="st0" d="M503.8,707.6h-640c-5,0-9-4-9-9V14.1c0-5,4-9,9-9h640c5,0,9,4,9,9v684.5C512.8,703.5,508.7,707.6,503.8,707.6z
	 M-136.2,7.1c-3.9,0-7,3.1-7,7v684.5c0,3.9,3.1,7,7,7h640c3.9,0,7-3.1,7-7V14.1c0-3.9-3.1-7-7-7H-136.2z"/>
<path class="st2" d="M404.3,664.1h-440c-5,0-9-4-9-9v-72c0-5,4-9,9-9h440c5,0,9,4,9,9v72C413.3,660,409.2,664.1,404.3,664.1z
	 M-35.7,576.1c-3.9,0-7,3.1-7,7v72c0,3.9,3.1,7,7,7h440c3.9,0,7-3.1,7-7v-72c0-3.9-3.1-7-7-7H-35.7z"/>
<path class="st2" d="M64.3,652.1h-54c-3.3,0-6-2.7-6-6v-54c0-3.3,2.7-6,6-6h54c3.3,0,6,2.7,6,6v54C70.3,649.4,67.6,652.1,64.3,652.1
	z M10.3,588.1c-2.2,0-4,1.8-4,4v54c0,2.2,1.8,4,4,4h54c2.2,0,4-1.8,4-4v-54c0-2.2-1.8-4-4-4H10.3z"/>
<path class="st2" d="M162.3,652.1h-54c-3.3,0-6-2.7-6-6v-54c0-3.3,2.7-6,6-6h54c3.3,0,6,2.7,6,6v54
	C168.3,649.4,165.6,652.1,162.3,652.1z M108.3,588.1c-2.2,0-4,1.8-4,4v54c0,2.2,1.8,4,4,4h54c2.2,0,4-1.8,4-4v-54c0-2.2-1.8-4-4-4
	H108.3z"/>
<path class="st2" d="M260.3,652.1h-54c-3.3,0-6-2.7-6-6v-54c0-3.3,2.7-6,6-6h54c3.3,0,6,2.7,6,6v54
	C266.3,649.4,263.6,652.1,260.3,652.1z M206.3,588.1c-2.2,0-4,1.8-4,4v54c0,2.2,1.8,4,4,4h54c2.2,0,4-1.8,4-4v-54c0-2.2-1.8-4-4-4
	H206.3z"/>
<path class="st2" d="M358.3,652.1h-54c-3.3,0-6-2.7-6-6v-54c0-3.3,2.7-6,6-6h54c3.3,0,6,2.7,6,6v54
	C364.3,649.4,361.6,652.1,358.3,652.1z M304.3,588.1c-2.2,0-4,1.8-4,4v54c0,2.2,1.8,4,4,4h54c2.2,0,4-1.8,4-4v-54c0-2.2-1.8-4-4-4
	H304.3z"/>
<path class="st2" d="M-39.2,114.1h54c2.8,0,5,2.2,5,5v54c0,2.8-2.2,5-5,5h-54c-2.8,0-5-2.2-5-5v-54C-44.2,116.3-42,114.1-39.2,114.1
	z"/>
<path class="st2" d="M58.8,114.1h54c2.8,0,5,2.2,5,5v54c0,2.8-2.2,5-5,5h-54c-2.8,0-5-2.2-5-5v-54C53.8,116.3,56,114.1,58.8,114.1z"
	/>
<path class="st2" d="M156.8,114.1h54c2.8,0,5,2.2,5,5v54c0,2.8-2.2,5-5,5h-54c-2.8,0-5-2.2-5-5v-54
	C151.8,116.3,154,114.1,156.8,114.1z"/>
<path class="st2" d="M254.8,114.1h54c2.8,0,5,2.2,5,5v54c0,2.8-2.2,5-5,5h-54c-2.8,0-5-2.2-5-5v-54
	C249.8,116.3,252,114.1,254.8,114.1z"/>
<path class="st2" d="M352.8,114.1h54c2.8,0,5,2.2,5,5v54c0,2.8-2.2,5-5,5h-54c-2.8,0-5-2.2-5-5v-54
	C347.8,116.3,350,114.1,352.8,114.1z"/>
<path class="st2" d="M-38.7,246.1h54c2.8,0,5,2.2,5,5v54c0,2.8-2.2,5-5,5h-54c-2.8,0-5-2.2-5-5v-54
	C-43.7,248.3-41.5,246.1-38.7,246.1z"/>
<path class="st2" d="M59.3,246.1h54c2.8,0,5,2.2,5,5v54c0,2.8-2.2,5-5,5h-54c-2.8,0-5-2.2-5-5v-54C54.3,248.3,56.5,246.1,59.3,246.1
	z"/>
<path class="st2" d="M157.3,246.1h54c2.8,0,5,2.2,5,5v54c0,2.8-2.2,5-5,5h-54c-2.8,0-5-2.2-5-5v-54
	C152.3,248.3,154.5,246.1,157.3,246.1z"/>
<path class="st2" d="M255.3,246.1h54c2.8,0,5,2.2,5,5v54c0,2.8-2.2,5-5,5h-54c-2.8,0-5-2.2-5-5v-54
	C250.3,248.3,252.5,246.1,255.3,246.1z"/>
<path class="st2" d="M353.3,246.1h54c2.8,0,5,2.2,5,5v54c0,2.8-2.2,5-5,5h-54c-2.8,0-5-2.2-5-5v-54
	C348.3,248.3,350.5,246.1,353.3,246.1z"/>
<path class="st2" d="M-38.2,378.1h54c2.8,0,5,2.2,5,5v54c0,2.8-2.2,5-5,5h-54c-2.8,0-5-2.2-5-5v-54C-43.2,380.3-41,378.1-38.2,378.1
	z"/>
<path class="st2" d="M59.8,378.1h54c2.8,0,5,2.2,5,5v54c0,2.8-2.2,5-5,5h-54c-2.8,0-5-2.2-5-5v-54C54.8,380.3,57,378.1,59.8,378.1z"
	/>
<path class="st2" d="M157.8,378.1h54c2.8,0,5,2.2,5,5v54c0,2.8-2.2,5-5,5h-54c-2.8,0-5-2.2-5-5v-54
	C152.8,380.3,155,378.1,157.8,378.1z"/>
<path class="st2" d="M255.8,378.1h54c2.8,0,5,2.2,5,5v54c0,2.8-2.2,5-5,5h-54c-2.8,0-5-2.2-5-5v-54
	C250.8,380.3,253,378.1,255.8,378.1z"/>
<path class="st2" d="M353.8,378.1h54c2.8,0,5,2.2,5,5v54c0,2.8-2.2,5-5,5h-54c-2.8,0-5-2.2-5-5v-54
	C348.8,380.3,351,378.1,353.8,378.1z"/>
<rect x="-100.7" y="46.1" class="st2" width="62" height="5"/>
<rect x="328.3" y="46.1" class="st2" width="62" height="5"/>
<rect x="404.3" y="46.1" class="st2" width="62" height="5"/>
<circle class="st2" cx="154.8" cy="547.1" r="8.5"/>
<circle class="st2" cx="184.3" cy="547.1" r="8.5"/>
<circle class="st2" cx="213.7" cy="547.1" r="8.5"/>
<path class="st1" d="M-33.7,118.1h54c2.8,0,5,2.2,5,5v54c0,2.8-2.2,5-5,5h-54c-2.8,0-5-2.2-5-5v-54
	C-38.7,120.3-36.5,118.1-33.7,118.1z"/>
<path class="st1" d="M64.3,118.1h54c2.8,0,5,2.2,5,5v54c0,2.8-2.2,5-5,5h-54c-2.8,0-5-2.2-5-5v-54C59.3,120.3,61.5,118.1,64.3,118.1
	z"/>
<path class="st1" d="M162.3,118.1h54c2.8,0,5,2.2,5,5v54c0,2.8-2.2,5-5,5h-54c-2.8,0-5-2.2-5-5v-54
	C157.3,120.3,159.5,118.1,162.3,118.1z"/>
<path class="st1" d="M260.3,118.1h54c2.8,0,5,2.2,5,5v54c0,2.8-2.2,5-5,5h-54c-2.8,0-5-2.2-5-5v-54
	C255.3,120.3,257.5,118.1,260.3,118.1z"/>
<path class="st1" d="M358.3,118.1h54c2.8,0,5,2.2,5,5v54c0,2.8-2.2,5-5,5h-54c-2.8,0-5-2.2-5-5v-54
	C353.3,120.3,355.5,118.1,358.3,118.1z"/>
<path class="st1" d="M-33.7,250.1h54c2.8,0,5,2.2,5,5v54c0,2.8-2.2,5-5,5h-54c-2.8,0-5-2.2-5-5v-54
	C-38.7,252.3-36.5,250.1-33.7,250.1z"/>
<path class="st1" d="M64.3,250.1h54c2.8,0,5,2.2,5,5v54c0,2.8-2.2,5-5,5h-54c-2.8,0-5-2.2-5-5v-54C59.3,252.3,61.5,250.1,64.3,250.1
	z"/>
<path class="st1" d="M162.3,250.1h54c2.8,0,5,2.2,5,5v54c0,2.8-2.2,5-5,5h-54c-2.8,0-5-2.2-5-5v-54
	C157.3,252.3,159.5,250.1,162.3,250.1z"/>
<path class="st1" d="M260.3,250.1h54c2.8,0,5,2.2,5,5v54c0,2.8-2.2,5-5,5h-54c-2.8,0-5-2.2-5-5v-54
	C255.3,252.3,257.5,250.1,260.3,250.1z"/>
<path class="st1" d="M358.3,250.1h54c2.8,0,5,2.2,5,5v54c0,2.8-2.2,5-5,5h-54c-2.8,0-5-2.2-5-5v-54
	C353.3,252.3,355.5,250.1,358.3,250.1z"/>
<path class="st1" d="M-33.7,382.1h54c2.8,0,5,2.2,5,5v54c0,2.8-2.2,5-5,5h-54c-2.8,0-5-2.2-5-5v-54
	C-38.7,384.3-36.5,382.1-33.7,382.1z"/>
<path class="st1" d="M162.3,382.1h54c2.8,0,5,2.2,5,5v54c0,2.8-2.2,5-5,5h-54c-2.8,0-5-2.2-5-5v-54
	C157.3,384.3,159.5,382.1,162.3,382.1z"/>
<path class="st1" d="M260.3,382.1h54c2.8,0,5,2.2,5,5v54c0,2.8-2.2,5-5,5h-54c-2.8,0-5-2.2-5-5v-54
	C255.3,384.3,257.5,382.1,260.3,382.1z"/>
<path class="st1" d="M358.3,382.1h54c2.8,0,5,2.2,5,5v54c0,2.8-2.2,5-5,5h-54c-2.8,0-5-2.2-5-5v-54
	C353.3,384.3,355.5,382.1,358.3,382.1z"/>
<path class="st3" d="M78.2,721.8c0,0,19,36.8,29.7,45.1s-17.2,18.4-17.2,18.4l-32.6-51L78.2,721.8z"/>
<path class="st4" d="M-37,632.1c0,0,88.4,23.1,96.1,38.6s31.5,52.8,31.5,52.8l-35,27.9l-34.4-51.6l-95-42.7L-37,632.1z"/>
<path class="st4" d="M87.7,770.4c0,0-8.3-7.1-10.7-2.4s-9.5,29.1-9.5,29.1s10.1,9.5,30.9,3.6c0,0,5.3-4.2,13.7,0s39.2-4.2,38-17.8
	s-32.6-12.5-32.6-12.5s-13.2-14.8-14.9-9.2s0.7,6.2,0.7,6.2S92.4,778.7,87.7,770.4z"/>
<path class="st3" d="M-13.8,758l-5.9,49.9H9.3c0,0-2.4-38.6-1.8-43.3S-13.8,758-13.8,758z"/>
<path class="st3" d="M2.8,648.2c0,0,16,23.7,6.5,25.5s-17.2-25.5-17.2-25.5H2.8z"/>
<path class="st4" d="M-118.3,645.8c0,0-11.9,35,35,44.5s61.1,17.2,61.1,17.2l5.9,60.5l41,2.4c0,0,19.6-92-5.9-103.9
	S-60.7,641-60.7,641L-118.3,645.8z"/>
<path class="st4" d="M-16.2,800.1c0,0,8.3-4.2,9.5-4.2c0,0,5.2-12,14.8-10.8l20.8,30.3c0,0,31.5,22.6,9.5,28.5s-39.2,1.2-39.2,1.2
	l-8.9-6.5c0,0,1.2-6.5-6.5-5.3c0,0-16-6.5-15.4-11.3s13.2-25.4,13.2-25.4L-16.2,800.1z"/>
<circle class="st3" cx="-11.1" cy="506.6" r="23.7"/>
<path class="st3" d="M-30.4,499.2c0,0-21.4,15.4-25.5,16s19.6,29.7,19.6,29.7s11.3-18.4,18.4-20.8S-30.4,499.2-30.4,499.2z"/>
<path class="st5" d="M-25.7,551.1L-25.7,551.1l20.2,70.4l14.8,33.8c0,0-16-5.5-17.2,1.1L-31.6,622L-25.7,551.1z"/>
<path class="st6" d="M-25.7,551.1L-25.7,551.1l20.2,70.4l14.8,33.8c0,0-16-5.5-17.2,1.1L-31.6,622L-25.7,551.1z"/>
<path class="st4" d="M-16.5,487.1l12.9,1.6c-0.2,2.6-0.2,5.9,2.2,7.1c1.1,0.6,2.5,0.6,3.5,1.3c2.3,1.9,0.1,5.9,1.4,8.5l3.8,1
	c1.9,3.6,6.3,4.9,9.9,3c0,0,0,0,0,0c2.5-1.5,3.8-4.4,5-7.2c1.4-3.3,2.8-6.8,2.1-10.2c-0.7-3.7-3.8-6.8-3.9-10.6
	c-0.1-1.7,0.3-3.8-1.1-4.7c-0.7-0.3-1.4-0.5-2.1-0.6c-3.3-0.7-5.1-4.1-7.6-6.4c-5.2-4.8-13.1-4.7-20.1-4.3c-2,0-4,0.4-5.9,1
	c-2.1,1.1-4.1,2.6-5.6,4.4c-3.8,4-7.5,8.3-10,13.2c-2.5,4.9-3.7,10.7-2.4,16.1c-0.1-0.5,4.4-3.9,4.9-4.4c1.8-1.7,1.9-2.5,2.9-4.5
	C-24.5,487-21.5,486.5-16.5,487.1z"/>
<path class="st5" d="M-46.4,518.8c0,0-8.9-11.9-14.2-11.9s-36.9,9.4-41,49.2S-120,661.2-120,661.2s-3.6-17.2,36.2-10.1
	c0,0,47.5-10.1,55.8-10.1s3.3-86,3.3-86l-5-19.8C-29.7,535.2-35.8,546.7-46.4,518.8z"/>
<path class="st1" d="M-18.7,600.1h54c2.8,0,5,2.2,5,5v54c0,2.8-2.2,5-5,5h-54c-2.8,0-5-2.2-5-5v-54
	C-23.7,602.3-21.5,600.1-18.7,600.1z"/>
<polygon class="st6" points="-54.5,563.6 -52.7,605.1 -26.3,636.1 -50.3,601.6 "/>
<polygon class="st6" points="-101.9,574.9 -81.2,622.9 -54.5,644.9 -82.9,625.3 "/>
<path class="st3" d="M-14.5,642.6c0,0,23.5,16.3,15.3,21.4s-25.3-17.5-25.3-17.5L-14.5,642.6z"/>
<path class="st5" d="M-84.4,521.7c0,0-17.2,49.9-14.5,56.8c8.5,21.8,18.1,42.3,18.1,42.3l26.8,24.3l36.1,10.2l4.2-3.6
	c0,0,1.2-11.3-4.2-12.5s-13.7-5.9-13.7-5.9L-53,601.9C-53,601.9-53.6,523.5-84.4,521.7z"/>
<path class="st1" d="M716.6,621.6c0,63-37.4,85.1-83.6,85.1c-1.1,0-2.1,0-3.2,0c-2.1,0-4.3-0.1-6.4-0.3
	c-41.7-2.9-74.1-26.1-74.2-84.7c0-60.7,77.5-137.3,83.3-142.9c0,0,0,0,0,0c0.2-0.2,0.3-0.3,0.3-0.3S716.5,558.6,716.6,621.6z"/>
<path class="st0" d="M629.9,697l30.6-42.8l-30.7,47.5l-0.1,4.9c-2.1,0-4.3-0.1-6.4-0.3l3.3-63.1l0-0.5l0.1-0.1l0.3-6l-30.8-47.6
	l30.9,43.1l0.1,1.3l2.5-47.6l-26.4-49.2l26.7,40.8l2.5-98.8l0-0.3l0,0.3l-0.4,77.9l26.2-30.9L632,563.3l-0.7,42.7l24.5-41
	l-24.6,47.2l-0.4,23.7l35.5-57l-35.6,65.3L629.9,697z"/>
<rect x="549.3" y="705.7" class="st0" width="158.4" height="1.9"/>
<rect x="-261.8" y="705.7" class="st0" width="77.5" height="1.9"/>
<path class="st0" d="M581,356.3c-6.2,0-11.2-5-11.2-11.2s5-11.2,11.2-11.2s11.2,5,11.2,11.2C592.2,351.2,587.2,356.3,581,356.3z
	 M581,335.7c-5.2,0-9.4,4.2-9.4,9.4c0,5.2,4.2,9.4,9.4,9.4c5.2,0,9.4-4.2,9.4-9.4C590.4,339.9,586.2,335.7,581,335.7L581,335.7z"/>
<path class="st0" d="M740.8,314.1h-24.4v-24.4h24.4V314.1z M718.3,312.2h20.6v-20.6h-20.6V312.2z"/>
</svg>
