<?xml version="1.0" encoding="utf-8"?>
<!-- Generator: Adobe Illustrator 19.0.0, SVG Export Plug-In . SVG Version: 6.00 Build 0)  -->
<svg version="1.1" id="f7bb3db6-0aca-42e3-bcc4-5e9b3a55e19d"
	 xmlns="http://www.w3.org/2000/svg" xmlns:xlink="http://www.w3.org/1999/xlink" x="0px" y="0px" viewBox="-359 135.6 879.5 581.4"
	 style="enable-background:new -359 135.6 879.5 581.4;" xml:space="preserve">
<style type="text/css">
	.st0{fill:#3F3D56;}
	.st1{fill:#E6E8EC;}
	.st2{fill:#6C63FF;}
	.st3{opacity:0.3;fill:#FFFFFF;enable-background:new    ;}
	.st4{fill:#FFFFFF;}
	.st5{fill:#FFB8B8;}
	.st6{fill:#2F2E41;}
	.st7{fill:#F2F2F2;}
</style>
<title>Mobile_application</title>
<path class="st0" d="M284,717c-24.3-3.8-47.7-7-70.1-9.7l8.6-17.3c-3-1-16,9-16,9l11-50c-15,2-22,53-22,53l-17-17l8.4,19.2
	c-68.7-7.2-127.9-9.5-177.8-9l7.4-14.8c-3-1-16,9-16,9l11-50c-15,2-22,53-22,53l-17-17l8.9,20.4c-34.1,1-68.2,3.7-102,8.2
	c7.4-23,33.2-45.1,33.2-45.1c-19.8,6.2-30.1,16.2-35.5,25.5c-1.1-47.2,6.2-94.3,21.5-139c0,0-40,90-34,150l0.8,10.7
	C-169.5,711.6-187,717-187,717H284z"/>
<path class="st0" d="M375.7,593.1c-6.6,0-12-5.4-12-12s5.4-12,12-12s12,5.4,12,12C387.7,587.8,382.3,593.1,375.7,593.1z
	 M375.7,571.1c-5.5,0-10,4.5-10,10s4.5,10,10,10s10-4.5,10-10C385.7,575.6,381.2,571.1,375.7,571.1z"/>
<path class="st0" d="M471.5,715.4h-19.7v-19.7h19.7V715.4z M453.3,713.9H470v-16.7h-16.7V713.9z"/>
<path class="st0" d="M-196.9,716.5l-13.5-14.4l14.4-13.5l13.5,14.4L-196.9,716.5z M-208.2,702.1l11.4,12.2l12.2-11.4l-11.4-12.2
	L-208.2,702.1z"/>
<rect x="-337.3" y="714.3" class="st0" width="857.8" height="2"/>
<path class="st0" d="M194.5,269.4v65.7c0,1.3-1,2.3-2.3,2.3h-1.6v342.2c0,19.7-16,35.7-35.7,35.7H-58.9c-19.7,0-35.7-16-35.7-35.7
	c0,0,0,0,0,0V349.4h-1.2c-0.9,0-1.6-0.7-1.6-1.6v-37.4c0-0.9,0.7-1.6,1.6-1.6c0,0,0,0,0,0h1.2v-14.1h-1.2c-0.9,0-1.7-0.8-1.7-1.7
	v-36.9c0-0.9,0.8-1.7,1.7-1.7h1.2v-19.2h-1.2c-0.8,0-1.5-0.7-1.5-1.5c0,0,0,0,0,0v-20.1c0-0.8,0.7-1.5,1.5-1.5h1.2v-40.7
	c0-19.7,16-35.7,35.7-35.7h213.8c19.7,0,35.7,16,35.7,35.7v95.8h1.6C193.4,267.1,194.5,268.1,194.5,269.4z"/>
<path class="st1" d="M23.5,154h34.7c1.4,0,2.5,1.1,2.5,2.5v3c0,1.4-1.1,2.5-2.5,2.5H23.5c-1.4,0-2.5-1.1-2.5-2.5v-3
	C21,155.1,22.1,154,23.5,154z"/>
<circle class="st1" cx="71.4" cy="158" r="4.6"/>
<path class="st2" d="M173.5,178.4v504.1c0,6.6-2.9,12.9-8,17.2c-4.1,3.5-9.3,5.4-14.7,5.4H-53.8c-3.6,0-7.2-0.9-10.5-2.5
	c-0.8-0.4-1.5-0.8-2.2-1.3c-6.2-4.2-10-11.3-10-18.8V178.4c0-12.5,10.1-22.6,22.6-22.6c0,0,0,0,0,0h30.6v3.9
	c0,10.3,8.3,18.6,18.6,18.6H99.5c10.3,0,18.6-8.3,18.7-18.6v-3.9h32.6C163.3,155.7,173.5,165.9,173.5,178.4
	C173.5,178.4,173.5,178.4,173.5,178.4z"/>
<path class="st3" d="M173.5,610.3v72.2c0,6.6-2.9,12.9-8,17.2c-4.1,3.5-9.3,5.4-14.7,5.4H-53.8c-3.6,0-7.2-0.9-10.5-2.5
	c-0.8-0.4-1.5-0.8-2.2-1.3c-6.2-4.2-10-11.3-10-18.8v-72.1C-5.4,546.5,102.4,546.5,173.5,610.3z"/>
<path class="st3" d="M161.3,702.6c-3.2,1.7-6.8,2.6-10.5,2.6H-53.8c-3.6,0-7.2-0.9-10.5-2.5c25.9-62.3,97.4-91.8,159.7-65.9
	C125.2,649.1,148.9,672.8,161.3,702.6L161.3,702.6z"/>
<path class="st3" d="M116.8,703.8c-2,1-4.1,1.6-6.3,1.6H-13.4c-2.2,0-4.4-0.5-6.3-1.5c15.7-37.7,58.9-55.6,96.6-39.9
	C94.9,671.4,109.2,685.7,116.8,703.8z"/>
<path class="st4" d="M100.5,350.9c-20.5,0-43.1-3.9-60.6-17.1c-24.5-18.4-54.7-17.4-75.7-13.3c-13.9,2.7-27.5,7.2-40.3,13.4
	l-0.9-1.8c12.9-6.3,26.6-10.8,40.8-13.6c21.4-4.1,52.2-5.1,77.3,13.7c47,35.2,131.2,3.6,132,3.3l0.7,1.9
	c-15.8,5.6-32.1,9.6-48.7,11.9C117,350.3,108.8,350.9,100.5,350.9z"/>
<path class="st3" d="M-76.5,333c0,0,69-16.7,117,6.2c48,22.9,133-0.2,133-0.2"/>
<path class="st3" d="M-11.4,359c-8.3,0-16.6-0.9-24.8-2.5c-14.1-2.8-27.8-7.3-40.8-13.6l0.9-1.8c12.8,6.2,26.3,10.7,40.3,13.4
	c21,4.1,51.2,5,75.7-13.3c25.1-18.8,60.2-18.7,85.2-15.4c16.6,2.3,32.9,6.2,48.7,11.9l-0.7,1.9c-0.8-0.3-85-32-132,3.3
	C24.6,355.1,5.7,359-11.4,359z"/>
<path class="st3" d="M-11,350.9c-34.6,0-65.4-12.4-65.9-12.6l0.8-1.8c0.7,0.3,69.1,27.9,116.1,0.1c47.8-28.3,132.9-3,133.8-2.8
	l-0.6,1.9c-0.8-0.3-85.1-25.3-132.2,2.6C24.9,347.7,6.5,350.9-11,350.9z"/>
<path class="st3" d="M-76.5,335.8c0,0,69,22.9,117,0c48-22.9,133-2.2,133-2.2"/>
<path class="st5" d="M191.3,397v29.2c0,0,2.3,32.7,15.2,49c0,0,21,29.7,23.9,23.3l-3.6-21.1l-12.2-11.5l-6.4-36.1l-1.7-32.7H191.3z"
	/>
<polygon class="st5" points="320.1,660.6 320.1,682.2 302.6,688.6 302.6,663.5 "/>
<polygon class="st5" points="284.6,658.3 296.2,684.5 279.9,691.5 276.4,665.8 "/>
<path class="st6" d="M313.7,457.1c0,0,23.3,210.5,14.6,211.1s-25.7,11.7-25.7,4.1s-13.4-106.1-13.4-106.1l-12.8-50.7v70l13.4,79.3
	c0,0-12.8,16.9-22.2,7l-19.8-77.5c0,0-26.2-117.8-25.1-127.1C222.8,467,282.8,415.7,313.7,457.1z"/>
<path class="st6" d="M309,683.3c0,0,4.7-9.9,15.2-3.5l8.7,10.5c0,0,22.5,18.7,6.5,22.7c-16.5,4.1-26.4-0.3-26.4-0.3
	s-2.9-1.7-5.2-1.7s-7.6-4.1-7.6-5.2s1.7-21.8,1.7-21.8c1.4-0.7,3-0.4,4.1,0.6C307.9,686.2,309,683.3,309,683.3z"/>
<path class="st6" d="M274.6,679.8c0,0,11.1-8.7,16.3,1.2c0,0,3.3,1.2,3.7,0s3.3-1.7,3.3,4.7s3.2,22.4,0.3,23s-5.8,2.3-5.2,4.7
	s-3.2,2.7-16.6,2.1s-14-5.8-14-5.8s0-7.6,3.5-11.7S274.6,679.8,274.6,679.8z"/>
<path class="st5" d="M253.1,297.9c0,0-2.9,21.6,15.7,29.2c18.7,7.6-41.4,32.7-47.2,18.1c-5.8-14.6,1.2-19.2,1.2-19.2
	s5.8-5.8,0.6-21.6L253.1,297.9z"/>
<circle class="st5" cx="234.4" cy="287.4" r="25.7"/>
<path class="st7" d="M264.2,334.1c0,0-17.5,9.3-34.4,2.3s-16.3,23.3-16.3,23.3l8.7,22.7l60.6-5.8l-4.1-35L264.2,334.1z"/>
<path class="st0" d="M255.5,314.1c6.3,1.3,11.6,5.5,14.5,11.2l28,8.7l7,9.9l-8.2,71.7c0,0,15.2,14.6,15.2,22.7s18.7,36.1,9.3,32.7
	c-9.3-3.5-26.2-15.7-26.2-15.7s-42.6,1.7-56,13.4c-13.4,11.7-18.7,8.2-18.7,8.2s-14-60.6-14.6-70s-16.9-65.3-16.9-65.3l29.2-16.3
	l7.4-8.4l20.6,32.9l18.7-22.7C264.7,327.1,255.5,319.8,255.5,314.1z"/>
<path class="st5" d="M313.7,388.9l3.5,18.7c0,0,15.7,58.3,13.4,78.1c0,0,1.7,44.3-8.2,39.1s-4.7-37.3-4.7-37.3l-14-57.7l-7.6-33.8
	L313.7,388.9z"/>
<path class="st0" d="M299.1,340.5l5.8,3.5c0,0,22.2,46.1,16.9,49.6c-5.2,3.5-28,11.1-28,11.1L299.1,340.5z"/>
<polygon class="st0" points="202.9,341.7 189.2,341.4 186,346.9 190.1,403.5 211.1,408.1 "/>
<path class="st6" d="M255.3,265.7l4.6-1.7c0,0-9.7-9.7-23.1-8.8l3.8-3.8c0,0-9.2-3.4-17.7,5.5c-4.4,4.6-9.5,10.1-12.7,16.2h-5
	l2.1,4.1l-7.2,4.1l7.4-0.7c-0.7,3.6-0.5,7.3,0.7,10.7l1.7,4.6c0,0,6.7-13.5,6.7-15.1v4.2c0,0,4.6-3.8,4.6-6.3l2.5,2.9l1.3-4.6
	l15.6,4.6l-2.5-3.8l9.7,1.3l-3.8-4.6c0,0,10.9,5.5,11.4,10.1s3.3,10.7,3.3,10.7l3.5-4.1C262.1,291.2,267.5,272,255.3,265.7z"/>
<ellipse class="st5" cx="256" cy="287.7" rx="2" ry="5.2"/>
<path class="st0" d="M-317.4,682.7c12.4,23,38.8,32.9,38.8,32.9s6.2-27.5-6.2-50.5s-38.8-32.9-38.8-32.9S-329.8,659.6-317.4,682.7z"
	/>
<path class="st2" d="M-308.8,675.1c22.4,13.5,31.1,40.3,31.1,40.3s-27.7,4.9-50.2-8.6s-31.1-40.3-31.1-40.3
	S-331.3,661.6-308.8,675.1z"/>
<path class="st3" d="M-76.5,333c0,0,69-36,117,0s133,3.4,133,3.4"/>
<circle class="st4" cx="48.8" cy="688.3" r="11"/>
</svg>
