<?xml version="1.0" encoding="utf-8"?>
<!-- Generator: Adobe Illustrator 19.0.0, SVG Export Plug-In . SVG Version: 6.00 Build 0)  -->
<svg version="1.1" id="_x39_6306a94-3bea-4326-87c9-b4488db4c6c8"
	 xmlns="http://www.w3.org/2000/svg" xmlns:xlink="http://www.w3.org/1999/xlink" x="0px" y="0px" viewBox="-250 22.1 1097.1 807.9"
	 style="enable-background:new -250 22.1 1097.1 807.9;" xml:space="preserve">
<style type="text/css">
	.st0{opacity:0.1;fill:#6C63FF;enable-background:new    ;}
	.st1{opacity:0.1;}
	.st2{fill:none;stroke:#535461;stroke-width:2;stroke-miterlimit:10;}
	.st3{fill:#6C63FF;}
	.st4{opacity:0.25;enable-background:new    ;}
	.st5{fill:#535461;}
	.st6{fill:#EAEAF3;}
	.st7{fill:#FFFFFF;}
</style>
<title>android</title>
<path class="st0" d="M-238.1,452c17.4,74.2,54.1,138.3,112.2,169.4c120.7,64.6,392.9,31.3,596.1-7
	c102.7-19.3,195.8-72.6,264.5-151.2L-238.1,452z"/>
<path class="st0" d="M827.2,102.8H715.7c-5.3,0-9.6-4.3-9.6-9.6c0-5.3,4.3-9.6,9.6-9.6H735c-5.3,0-9.6-4.3-9.6-9.6
	c0-5.3,4.3-9.6,9.6-9.6h-13.8c-5.3,0-9.6-4.3-9.6-9.6s4.3-9.6,9.6-9.6h58.2c-12.9-6-28-10.3-45.4-12.5
	c-158.6-20.4-215.3-6.9-235.3,7c-24.7,17.1-52.2,29.7-81.5,35.7c-97.9,20.2-280.9,44.5-446.8-7.8c-82.5-26-143.8,17.9-180.5,91.3
	H846.5c-1.4-21.3-5.5-41-13.1-58.2C831.7,102,829.5,102.8,827.2,102.8z"/>
<path class="st0" d="M-247.6,297.2c-4.3,43.2-2.8,86.7,4.3,129.5l978.7,35.8c27.2-31.3,50.1-66.2,68-103.7L-247.6,297.2z
	 M139.5,389.5h-19.3c5.3,0,9.6,4.3,9.6,9.6c0,5.3-4.3,9.6-9.6,9.6H8.7c-5.3,0-9.6-4.3-9.6-9.6c0-5.3,4.3-9.6,9.6-9.6H28
	c-5.3,0-9.6-4.3-9.6-9.6c0-5.3,4.3-9.6,9.6-9.6l0,0H14.2c-5.3,0-9.6-4.3-9.6-9.6c0-5.3,4.3-9.6,9.6-9.6l0,0h111.5
	c5.3,0,9.6,4.3,9.6,9.6c0,5.3-4.3,9.6-9.6,9.6h13.8c5.3,0,9.6,4.3,9.6,9.6C149.1,385.2,144.8,389.5,139.5,389.5z"/>
<path class="st0" d="M846.6,159.4l-1068.5,26c-13,33.4-21.6,71.2-25.6,110.3H827.9c7-23,12.2-46.5,15.5-70.3
	C846.6,202.4,847.9,180.1,846.6,159.4z M-30.5,244.5h-19.3c5.3,0,9.6,4.3,9.6,9.6c0,5.3-4.3,9.6-9.6,9.6h-111.5
	c-5.3,0-9.6-4.3-9.6-9.6c0-5.3,4.3-9.6,9.6-9.6h19.3c-5.3,0-9.6-4.3-9.6-9.6s4.3-9.6,9.6-9.6h-13.8c-5.3,0-9.6-4.3-9.6-9.6
	c0-5.3,4.3-9.6,9.6-9.6h111.5c5.3,0,9.6,4.3,9.6,9.6c0,5.3-4.3,9.6-9.6,9.6h13.8c5.3,0,9.6,4.3,9.6,9.6S-25.2,244.5-30.5,244.5z"/>
<g class="st1">
	<path class="st2" d="M427.5,645.4c0,0,28.2-69.5,80.9-95.3c22.2-10.7,40.3-28.2,51.6-50.1c5.3-10.4,9.6-21.3,12.9-32.5"/>
	<path class="st3" d="M606,451.1c-5.5,6.9-33.9,17-33.9,17s3.4-30,8.9-36.9c5.9-6.6,16-7.1,22.6-1.2
		C609.7,435.5,610.7,444.5,606,451.1L606,451.1z"/>
	<path class="st3" d="M596.3,505.8c-8.4,2.8-37.7-4.2-37.7-4.2s19.2-23.3,27.5-26.1c8.5-2.3,17.3,2.8,19.6,11.4
		C607.7,494.6,603.7,502.7,596.3,505.8z"/>
	<path class="st3" d="M543.4,570.4c-8.6-1.8-30.4-22.6-30.4-22.6s28.3-10.4,36.9-8.6c8.5,2.4,13.5,11.2,11.1,19.7
		C558.9,566.5,551.4,571.5,543.4,570.4L543.4,570.4z"/>
	<path class="st3" d="M492.4,610.2c-8.8-0.3-33.8-17.2-33.8-17.2s26.1-15,34.9-14.8c8.8-0.3,16.2,6.7,16.5,15.5
		c0.3,8.8-6.7,16.2-15.5,16.5C493.8,610.3,493.1,610.3,492.4,610.2z"/>
	<path class="st3" d="M531.3,482c1.1,8.8,20.2,32.1,20.2,32.1s12.6-27.4,11.5-36.1c-1.7-8.7-10.1-14.3-18.8-12.6
		C536.3,466.9,530.8,474,531.3,482z"/>
	<path class="st3" d="M472.3,529.4c3.7,8,28.9,24.5,28.9,24.5s3.8-29.9,0.1-37.9c-3.2-8.2-12.4-12.4-20.7-9.2
		c-8.2,3.2-12.4,12.4-9.2,20.7C471.6,528.2,471.9,528.8,472.3,529.4L472.3,529.4z"/>
	<path class="st3" d="M421.2,583.4c2.3,8.5,24.3,29.1,24.3,29.1s8.8-28.8,6.5-37.3c-2.8-8.4-11.9-12.8-20.3-10
		C424.1,567.7,419.6,575.5,421.2,583.4L421.2,583.4z"/>
	<path class="st4" d="M606,451.1c-5.5,6.9-33.9,17-33.9,17s3.4-30,8.9-36.9c5.9-6.6,16-7.1,22.6-1.2
		C609.7,435.5,610.7,444.5,606,451.1L606,451.1z"/>
	<path class="st4" d="M596.3,505.8c-8.4,2.8-37.7-4.2-37.7-4.2s19.2-23.3,27.5-26.1c8.5-2.3,17.3,2.8,19.6,11.4
		C607.7,494.6,603.7,502.7,596.3,505.8z"/>
	<path class="st4" d="M543.4,570.4c-8.6-1.8-30.4-22.6-30.4-22.6s28.3-10.4,36.9-8.6c8.5,2.4,13.5,11.2,11.1,19.7
		C558.9,566.5,551.4,571.5,543.4,570.4L543.4,570.4z"/>
	<path class="st4" d="M492.4,610.2c-8.8-0.3-33.8-17.2-33.8-17.2s26.1-15,34.9-14.8c8.8-0.3,16.2,6.7,16.5,15.5
		c0.3,8.8-6.7,16.2-15.5,16.5C493.8,610.3,493.1,610.3,492.4,610.2z"/>
	<path class="st4" d="M531.3,482c1.1,8.8,20.2,32.1,20.2,32.1s12.6-27.4,11.5-36.1c-1.7-8.7-10.1-14.3-18.8-12.6
		C536.3,466.9,530.8,474,531.3,482z"/>
	<path class="st4" d="M472.3,529.4c3.7,8,28.9,24.5,28.9,24.5s3.8-29.9,0.1-37.9c-3.2-8.2-12.4-12.4-20.7-9.2
		c-8.2,3.2-12.4,12.4-9.2,20.7C471.6,528.2,471.9,528.8,472.3,529.4L472.3,529.4z"/>
	<path class="st4" d="M421.2,583.4c2.3,8.5,24.3,29.1,24.3,29.1s8.8-28.8,6.5-37.3c-2.8-8.4-11.9-12.8-20.3-10
		C424.1,567.7,419.6,575.5,421.2,583.4L421.2,583.4z"/>
</g>
<g class="st1">
	<path class="st2" d="M407.5,543.8c0,0,3.6-74.9,44.7-116.7c17.3-17.4,28.6-40,32-64.4c1.5-11.6,2-23.3,1.4-34.9"/>
	<path class="st3" d="M511.5,301.3c-2.9,8.3-26.3,27.3-26.3,27.3s-6.7-29.4-3.8-37.7c2.3-8.5,11.1-13.6,19.6-11.3
		c8.5,2.3,13.6,11.1,11.3,19.6C512.1,299.9,511.8,300.6,511.5,301.3z"/>
	<path class="st3" d="M520.4,356c-7,5.4-36.9,8.6-36.9,8.6s10.3-28.3,17.3-33.7c6.6-5.9,16.7-5.3,22.6,1.3
		c5.9,6.6,5.3,16.7-1.3,22.6C521.5,355.2,521,355.7,520.4,356z"/>
	<path class="st3" d="M492,434.6c-8.7,1.2-36.2-11.3-36.2-11.3s23.2-19.2,32-20.4c8.7-1.7,17.1,3.9,18.8,12.5
		c1.7,8.7-3.9,17.1-12.5,18.8C493.4,434.4,492.7,434.5,492,434.6L492,434.6z"/>
	<path class="st3" d="M457.1,489.1c-8.4,2.6-37.6-5-37.6-5s19.6-22.9,28.1-25.5c8.6-2.1,17.2,3.2,19.3,11.8
		C468.8,478.2,464.6,486.2,457.1,489.1L457.1,489.1z"/>
	<path class="st3" d="M451.3,355.3c4,7.9,29.7,23.5,29.7,23.5s2.8-30-1.2-37.9c-4.5-7.6-14.3-10.2-21.9-5.7
		C450.9,339.3,448.1,347.9,451.3,355.3L451.3,355.3z"/>
	<path class="st3" d="M411.3,419.6c6.1,6.3,35.4,13.6,35.4,13.6s-6.3-29.5-12.5-35.8c-6.5-5.9-16.7-5.5-22.6,1.1
		C406.2,404.4,406,413.5,411.3,419.6L411.3,419.6z"/>
	<path class="st3" d="M381,487.4c5,7.3,32.6,19.4,32.6,19.4s-1.3-30.1-6.2-37.4c-5.5-6.9-15.6-8-22.5-2.5
		C378.6,471.8,377,480.5,381,487.4L381,487.4z"/>
</g>
<path class="st0" d="M49.7,797.9c39.3,13.2,87.3,5.2,131.9,6.1c6.1,0.1,12.6,0.5,17.5,2.8s7.3,6,10.7,9.2
	c12.5,11.8,38.1,15.6,60.5,13.6s42.9-8.6,64-13.7c36.5-8.7,78.3-12.7,114.3-3.2c3.3,0.9,6.8,1.9,10.3,1.5
	c7.9-0.8,10.3-7.1,15.8-10.7c10-6.5,31.6-4.8,36-13.3c2.6-5-3.3-10.2-9.8-13.6c-24.6-13.2-59.8-15.3-92.1-13.3s-63.9,7.6-96.3,7.7
	c-40.3,0-79.3-8.6-119.3-12.1c-27.7-2.4-57.9-2.1-83.8,5C81.4,771.5,75.2,789,49.7,797.9z"/>
<rect x="115.5" y="207" class="st5" width="7" height="99"/>
<rect x="115.5" y="340" class="st5" width="7" height="56"/>
<path class="st5" d="M167.6,110h220.8c26,0,47.1,21.1,47.1,47.1v589.8c0,26-21.1,47.1-47.1,47.1H167.6c-26,0-47.1-21.1-47.1-47.1
	V157.1C120.5,131.1,141.6,110,167.6,110z"/>
<path class="st3" d="M167.6,142h220.8c26,0,47.1,21.1,47.1,47.1v528.8c0,26-21.1,47.1-47.1,47.1H167.6c-26,0-47.1-21.1-47.1-47.1
	V189.1C120.5,163.1,141.6,142,167.6,142z"/>
<path class="st6" d="M256,125h45c1.9,0,3.5,1.6,3.5,3.5l0,0c0,1.9-1.6,3.5-3.5,3.5h-45c-1.9,0-3.5-1.6-3.5-3.5l0,0
	C252.5,126.6,254.1,125,256,125z"/>
<circle class="st6" cx="322.5" cy="129" r="5"/>
<path class="st7" d="M196.3,418.2v73c0.1,9.5-7.5,17.4-17.1,17.5c-0.1,0-0.2,0-0.3,0c-9.6,0-19-7.8-19-17.5v-73
	c0-9.5,9.3-17.3,19-17.3C188.5,400.9,196.3,408.6,196.3,418.2z M203.1,517.1c0,10.3,8.3,18.6,18.6,18.7c0,0,0.1,0,0.1,0h12.5
	l0.2,38.5c0,23.3,34.8,23.1,34.8,0v-38.5h23.4v38.5c0,23.1,35,23.2,35,0v-38.5h12.7c10.3,0,18.6-8.4,18.5-18.6c0,0,0,0,0,0V404
	H203.1V517.1z M359.4,398h-157c0-27,16.1-50.4,40.1-62.6l-12-22.3c-1.8-3.1,2.7-5,4.2-2.4l12.2,22.4c21.8-9.5,46.5-9.5,68.2,0
	l12.2-22.4c1.6-2.7,6-0.7,4.2,2.4l-12,22.2C343.3,347.5,359.4,371,359.4,398z M251.8,363c0-3.7-3-6.6-6.6-6.6
	c-3.7,0.1-6.5,3.2-6.4,6.9c0.1,3.5,2.9,6.2,6.4,6.4C248.9,369.6,251.8,366.6,251.8,363L251.8,363z M323.3,363
	c-0.1-3.6-3-6.5-6.6-6.4c-3.6,0.1-6.5,3-6.4,6.6c0.1,3.6,3,6.5,6.6,6.4C320.5,369.5,323.3,366.6,323.3,363L323.3,363z M383,400.9
	c-9.5,0-17.3,7.7-17.3,17.2c0,0,0,0.1,0,0.1v73c0,9.6,7.7,17.4,17.3,17.5c0,0,0,0,0,0c9.7,0,19-7.8,19-17.5v-73
	C402,408.5,392.7,400.9,383,400.9L383,400.9z"/>
<rect x="204" y="591.6" class="st5" width="65" height="3"/>
<rect x="293" y="591.6" class="st5" width="43" height="3"/>
<rect x="147" y="591.6" class="st5" width="43" height="3"/>
<rect x="361" y="591.6" class="st5" width="43" height="3"/>
</svg>
