<?xml version="1.0" encoding="utf-8"?>
<!-- Generator: Adobe Illustrator 19.0.0, SVG Export Plug-In . SVG Version: 6.00 Build 0)  -->
<svg version="1.1" id="e4e5ac1e-f7c3-49db-bea6-73c2d2e1dfe0"
	 xmlns="http://www.w3.org/2000/svg" xmlns:xlink="http://www.w3.org/1999/xlink" x="0px" y="0px" viewBox="-355 135.3 888 580.7"
	 style="enable-background:new -355 135.3 888 580.7;" xml:space="preserve">
<style type="text/css">
	.st0{fill:#FFB8B8;}
	.st1{fill:#2F2E41;}
	.st2{fill:#D0CDE1;}
	.st3{fill:#6C63FF;}
	.st4{fill:#3F3D56;}
	.st5{fill:#FFFFFF;}
	.st6{opacity:0.1;enable-background:new    ;}
	.st7{fill:#E6E8EC;}
	.st8{fill:#E6E6E6;}
</style>
<title>mobile_development</title>
<path class="st0" d="M-206.4,515.4c0,0,10.8,17.1,6.9,21.8s28.9,4.8,28.9,4.8s-4.9-24.9-3.5-30.7L-206.4,515.4z"/>
<circle class="st1" cx="-189.2" cy="487.7" r="33.9"/>
<polygon class="st0" points="-109.5,671.3 -109.5,691.4 -89.4,687.2 -91.1,673 "/>
<path class="st0" d="M-38.4,674.7l56.1,9.2L3.5,704.8c0,0-39.3-13.4-49.4-13.4S-38.4,674.7-38.4,674.7z"/>
<path class="st2" d="M-165.6,634.5c0,0,41.8-48.5,55.2-46s19.2,17.6,19.2,17.6l7.5,74.5c0,0-26.8,2.5-26.8,0s-5-56.1-5-56.1
	s-39.3,87-60.3,29.3L-165.6,634.5z"/>
<path class="st2" d="M-233.3,667.1c0,0,0.8,43.8,25.9,46.4s52.7-18.7,52.7-18.7l45.2-21.6c0,0,53.6,28.3,69.5,20.8
	c0,0,16.7-17.6,5.9-22.6s-0.8,0-0.8,0l-64.4-33.5c0,0-12.6-3.3-34.3,5.9s-51,13.4-51,13.4L-233.3,667.1z"/>
<circle class="st0" cx="-191.5" cy="498.9" r="25.1"/>
<path class="st3" d="M-155.5,569.2l-1.7,35.1c0,0,0.8,46-6.7,49.4c-3.8,1.7-11.5,5.1-18.5,8.8c-5.3,2.8-10.3,5.7-13.1,8.3
	c-0.7,0.6-1.4,1.4-1.9,2.2c-3.3,5.9-25.1,5-30.1,0.8s-1.7,5-5.9,6.7c-4.1,1.6-9.7-11.6-6.2-31.5c0.1-0.7,0.2-1.3,0.4-2
	c3.8-19.2-2.2-65.2-1.3-83c0.1-1.4,0.2-2.7,0.4-4.1c2.5-13.4,34.5-40.6,40.5-29c7.4,14.3,24.3,1.2,27.2-5.3
	c16.7-0.8,22.6,19.2,22.6,19.2L-155.5,569.2z"/>
<path class="st1" d="M-87.7,683.9c0,0-13.4,5-17.6,4.2s-8.4,2.5-8.4,7.5s-5,16.7,2.5,17.6s38.5-0.8,45.2,1.7c0,0,30.1,0.8,27.6-11.7
	s-15.1-11.7-15.1-11.7S-87.7,689.7-87.7,683.9z"/>
<path class="st1" d="M10.2,686.4c0,0,1.7-5,4.2-5s22.6,3.3,25.1,2.5s31.8-2.5,26.8,11.7s-21.8,15.9-21.8,15.9s-30.1-3.3-34.3-2.5
	s-19.2,0-16.7-4.2S11.9,693.1,10.2,686.4z"/>
<path class="st4" d="M-66,566.2l4.6,18.9c0.1,0.2,0,0.4,0,0.6l-20.8,65.1c-0.2,0.6-0.9,1-1.5,0.8c-0.4-0.1-0.8-0.5-0.8-1l-2.9-25.4
	c0-0.2,0-0.3,0.1-0.5l19.1-58.7c0.2-0.6,0.9-1,1.5-0.8C-66.4,565.5-66.1,565.8-66,566.2z"/>
<polygon class="st5" points="-67.7,567.8 -63.4,584 -81.8,643.4 -86.1,625 "/>
<path class="st4" d="M-160.2,656.1c0.7,2.1,73.5-0.7,74.2-1.4c0.6-0.9,1.1-1.8,1.6-2.8c0.7-1.4,1.3-2.8,1.3-2.8l-2.8-22.9l-72.1-2.6
	c0,0-1.8,19.4-2.2,28.3C-160.4,653.3-160.4,654.7-160.2,656.1z"/>
<polygon class="st6" points="-95.2,629.3 -93.8,649 -125.6,649 -125.6,629.3 "/>
<polygon class="st6" points="-136.2,635.6 -136,635.6 -136.9,644.1 -154.6,644.1 -154.6,635.6 "/>
<path class="st6" d="M-160.2,656.1c0.7,2.1,73.5-0.7,74.2-1.4c0.6-0.9,1.1-1.8,1.6-2.8h-75.8C-160.4,653.3-160.4,654.7-160.2,656.1z
	"/>
<circle class="st1" cx="-183.6" cy="450.7" r="9.4"/>
<path class="st1" d="M-186.4,460.9c0,0-9.6,16-32.1,22.1c-22.4,6-0.2,39.7-0.2,39.7s-8.1-12.3,3.6-25.2S-184.6,475.6-186.4,460.9z"
	/>
<path class="st6" d="M-182.4,662.6c-2.1,3.9-4.5,8-4.9,9.6c-0.3,1.1-3.3,0.5-8.2-1.3c-9.7-3.7-26.4-12-42.1-20.4
	c-0.7-0.4-1.4-0.8-2-1.3c0.1-0.7,0.2-1.3,0.4-2c3.8-19.2-2.2-65.2-1.3-83l7.1-2.4l14.2,13.4V632c0,0,36.8,20.1,39.3,21.8
	C-178.5,654.6-180.3,658.5-182.4,662.6z"/>
<path class="st0" d="M-151.3,616.9l22.6,11.7c0,0,13.4-14.2,21.8-3.3s-24.3,14.2-24.3,14.2s-28.5-6.7-29.3-15.9
	S-151.3,616.9-151.3,616.9z"/>
<path class="st0" d="M-189,647.9l13.4,3.3c0,0,15.1-18.4,31-11.7s-20.1,20.1-20.1,20.1s-19.2,10-26.8,1.7S-189,647.9-189,647.9z"/>
<path class="st3" d="M-159.7,537.4c0.8,0.8,10,7.5,10,7.5s2.5,31.8-0.8,38.5s-5.9,6.7-3.3,10s5.9,0.8,2.5,6.7s-6.7,5-4.2,7.5
	s1.7,3.3,1.7,3.3l10,8.4c0,0-6.2,9.8-14,9.1s-14.5-38.4-14.5-38.4L-159.7,537.4z"/>
<path class="st3" d="M-233.3,557.5l-7.5,2.5c0,0-20.1,73.6,3.3,86.2s49.4,25.1,50.2,21.8s10-16.7,7.5-18.4s-39.3-21.8-39.3-21.8
	v-56.9L-233.3,557.5z"/>
<polygon class="st6" points="-222,588.1 -223.7,628.2 -179.4,649.2 -220.4,628.2 "/>
<path class="st4" d="M423.4,269v65.7c0,1.3-1,2.3-2.3,2.3h-1.6v342.2c0,19.7-16,35.7-35.7,35.7H170c-19.7,0-35.7-16-35.7-35.7
	c0,0,0,0,0,0V349h-1.2c-0.9,0-1.6-0.7-1.6-1.6V310c0-0.9,0.7-1.6,1.6-1.6c0,0,0,0,0,0h1.2v-14.1h-1.2c-0.9,0-1.7-0.8-1.7-1.7v-36.9
	c0-0.9,0.8-1.7,1.7-1.7h1.2v-19.2h-1.2c-0.8,0-1.5-0.7-1.5-1.5c0,0,0,0,0,0v-20.1c0-0.8,0.7-1.5,1.5-1.5h1.2V171
	c0-19.7,16-35.7,35.7-35.7h213.8c19.7,0,35.7,16,35.7,35.7v95.8h1.6C422.4,266.8,423.4,267.8,423.4,269z"/>
<path class="st7" d="M252.4,153.6h34.7c1.4,0,2.5,1.1,2.5,2.5v3c0,1.4-1.1,2.5-2.5,2.5h-34.7c-1.4,0-2.5-1.1-2.5-2.5v-3
	C249.9,154.7,251,153.6,252.4,153.6z"/>
<circle class="st7" cx="300.3" cy="157.6" r="4.6"/>
<path class="st5" d="M402.4,178v504.1c0,12.5-10.1,22.6-22.7,22.6H175.1c-12.5,0-22.6-10.1-22.7-22.6c0,0,0,0,0-0.1V178
	c0-12.5,10.1-22.6,22.6-22.6c0,0,0,0,0,0h30.6v3.9c0,10.3,8.3,18.6,18.7,18.6h104.1c10.3,0,18.6-8.3,18.7-18.6v-3.9h32.6
	C392.2,155.4,402.4,165.5,402.4,178C402.4,178,402.4,178,402.4,178z"/>
<rect x="173.8" y="487.2" class="st8" width="208" height="27"/>
<rect x="173.8" y="535.2" class="st8" width="208" height="27"/>
<rect x="173.8" y="583.2" class="st8" width="208" height="27"/>
<circle class="st3" cx="358.8" cy="226.2" r="20"/>
<rect x="173.4" y="293.2" class="st8" width="208" height="138"/>
<path class="st4" d="M256.2,370.8c6.1,22.5,26.9,36.4,26.9,36.4s11-22.5,4.9-44.9s-26.9-36.4-26.9-36.4S250.2,348.4,256.2,370.8z"/>
<path class="st3" d="M265.2,366c16.7,16.2,18.7,41.2,18.7,41.2s-25-1.4-41.6-17.6c-16.7-16.2-18.7-41.2-18.7-41.2
	S248.5,349.8,265.2,366z"/>
<path class="st4" d="M311.5,370.8c-6.1,22.5-26.9,36.4-26.9,36.4s-11-22.5-4.9-44.9s26.9-36.4,26.9-36.4S317.6,348.4,311.5,370.8z"
	/>
<path class="st3" d="M302.6,366c-16.7,16.2-18.7,41.2-18.7,41.2s25-1.4,41.6-17.6c16.7-16.2,18.7-41.2,18.7-41.2
	S319.2,349.8,302.6,366z"/>
<rect x="-355" y="713.8" class="st4" width="888" height="2.2"/>
</svg>
