<?xml version="1.0" encoding="utf-8"?>
<!-- Generator: Adobe Illustrator 19.0.0, SVG Export Plug-In . SVG Version: 6.00 Build 0)  -->
<svg version="1.1" id="a594ac37-6d44-4297-8862-1cbd9c01c0b7"
	 xmlns="http://www.w3.org/2000/svg" xmlns:xlink="http://www.w3.org/1999/xlink" x="0px" y="0px" viewBox="-236 -2 1126.2 855"
	 style="enable-background:new -236 -2 1126.2 855;" xml:space="preserve">
<style type="text/css">
	.st0{fill:#F2F2F2;}
	.st1{fill:#3F3D56;}
	.st2{opacity:0.1;enable-background:new    ;}
	.st3{fill:#6C63FF;}
	.st4{fill:#2F2E41;}
	.st5{fill:#FBBEBE;}
</style>
<title>code review</title>
<path class="st0" d="M308.9,753.9C66.5,735.5-222.6,547.7-207.9,354.3c14.7-193.4,294.7-373.4,537.1-355s381.9,379.9,367.2,573.3
	C681.7,765.9,551.3,772.4,308.9,753.9z"/>
<ellipse class="st1" cx="329.2" cy="754" rx="506" ry="31"/>
<ellipse class="st2" cx="329.2" cy="753.5" rx="431" ry="20.5"/>
<ellipse class="st1" cx="-23.8" cy="834.5" rx="212.2" ry="18.5"/>
<ellipse class="st2" cx="-23.8" cy="834.2" rx="180.7" ry="12.2"/>
<rect x="-39.8" y="160" class="st1" width="752" height="590"/>
<path class="st0" d="M327.6,240.6H142.1c-1.2,0-2.3-1-2.3-2.2s1-2.3,2.2-2.3c0,0,0,0,0,0h185.5c1.2,0,2.2,1,2.2,2.3
	C329.9,239.6,328.9,240.6,327.6,240.6z"/>
<path class="st0" d="M530.7,265.4H238.9c-1.2,0-2.3-1-2.3-2.3s1-2.3,2.3-2.3l0,0h291.8c1.2,0,2.3,1,2.3,2.3S532,265.4,530.7,265.4z"
	/>
<path class="st0" d="M328.5,290.2H143c-1.2,0-2.3-1-2.3-2.3s1-2.3,2.3-2.3h185.5c1.2,0,2.3,1,2.3,2.3S329.8,290.2,328.5,290.2z"/>
<path class="st0" d="M530.7,290.6H345.2c-1.2,0-2.3-1-2.3-2.3s1-2.3,2.3-2.3h185.5c1.2,0,2.3,1,2.3,2.3S532,290.6,530.7,290.6z"/>
<path class="st0" d="M329,314.9H143.5c-1.2,0-2.3-1-2.3-2.3s1-2.3,2.3-2.3H329c1.2,0,2.3,1,2.3,2.3S330.2,314.9,329,314.9z"/>
<path class="st0" d="M329.4,339.7H143.9c-1.2,0-2.3-1-2.3-2.3s1-2.3,2.3-2.3h185.5c1.2,0,2.3,1,2.3,2.3S330.7,339.7,329.4,339.7z"/>
<path class="st0" d="M413.6,241.1h-53.1c-1.2,0-2.3-1-2.3-2.3s1-2.3,2.3-2.3l0,0h53.1c1.2,0,2.3,1,2.3,2.3S414.9,241.1,413.6,241.1z
	"/>
<path class="st0" d="M413.6,314.9h-53.1c-1.2,0-2.3-1-2.3-2.3s1-2.3,2.3-2.3l0,0h53.1c1.2,0,2.3,1,2.3,2.3S414.9,314.9,413.6,314.9z
	"/>
<path class="st0" d="M413.6,339.2h-53.1c-1.2,0-2.3-1-2.3-2.2c0-1.2,1-2.3,2.2-2.3c0,0,0,0,0,0h53.1c1.2,0,2.3,1,2.3,2.2
	C415.9,338.2,414.9,339.2,413.6,339.2C413.7,339.2,413.6,339.2,413.6,339.2z"/>
<path class="st0" d="M502.8,339.2h-53.1c-1.2,0-2.2-1-2.2-2.3c0-1.2,1-2.2,2.2-2.2h53.1c1.2,0,2.3,1,2.3,2.2
	C505.1,338.2,504.1,339.2,502.8,339.2C502.8,339.2,502.8,339.2,502.8,339.2z"/>
<path class="st0" d="M194.8,265.4h-53.1c-1.2,0-2.3-1-2.3-2.3s1-2.3,2.3-2.3l0,0h53.1c1.2,0,2.3,1,2.3,2.3S196,265.4,194.8,265.4z"
	/>
<path class="st0" d="M327.9,605.4H142.3c-1.2,0-2.3-1-2.3-2.3c0-1.2,1-2.3,2.3-2.3l0,0h185.5c1.2,0,2.3,1,2.3,2.3
	C330.1,604.4,329.1,605.4,327.9,605.4z"/>
<path class="st0" d="M327,654.9H141.4c-1.2,0-2.3-1-2.3-2.3c0-1.2,1-2.3,2.3-2.3l0,0H327c1.2,0,2.3,1,2.3,2.3
	C329.2,653.9,328.2,654.9,327,654.9z"/>
<path class="st0" d="M327.4,679.7H141.9c-1.2,0-2.3-1-2.3-2.3c0-1.2,1-2.3,2.3-2.3l0,0h185.5c1.2,0,2.3,1,2.3,2.3
	C329.7,678.6,328.7,679.7,327.4,679.7z"/>
<path class="st0" d="M406.7,655.3h-53.1c-1.2,0-2.3-1-2.3-2.3c0-1.2,1-2.3,2.3-2.3h53.1c1.2,0,2.3,1,2.3,2.3
	C408.9,654.3,407.9,655.3,406.7,655.3L406.7,655.3z"/>
<path class="st0" d="M406.7,679.7h-53.1c-1.2,0-2.3-1-2.3-2.3c0-1.2,1-2.3,2.3-2.3h53.1c1.2,0,2.3,1,2.3,2.3
	C408.9,678.6,407.9,679.7,406.7,679.7L406.7,679.7z"/>
<path class="st0" d="M495.8,655.3h-53.1c-1.2,0-2.3-1-2.3-2.3c0-1.2,1-2.3,2.3-2.3h53.1c1.2,0,2.3,1,2.3,2.3
	C498.1,654.3,497.1,655.3,495.8,655.3z"/>
<path class="st0" d="M530.9,630.1H239.2c-1.2,0-2.3-1-2.3-2.3c0-1.2,1-2.3,2.3-2.3h291.8c1.2,0,2.3,1,2.3,2.3
	C533.2,629.1,532.2,630.1,530.9,630.1z"/>
<path class="st0" d="M195,630.1h-53.1c-1.2,0-2.3-1-2.3-2.3c0-1.2,1-2.3,2.3-2.3l0,0H195c1.2,0,2.3,1,2.3,2.3
	C197.3,629.1,196.3,630.1,195,630.1z"/>
<path class="st0" d="M530.9,704.9H239.2c-1.2,0-2.3-1-2.3-2.3c0-1.2,1-2.3,2.3-2.3h291.8c1.2,0,2.3,1,2.3,2.3
	C533.2,703.9,532.2,704.9,530.9,704.9L530.9,704.9z"/>
<path class="st0" d="M195,704.9h-53.1c-1.2,0-2.3-1-2.3-2.3c0-1.2,1-2.3,2.3-2.3l0,0H195c1.2,0,2.3,1,2.3,2.3
	C197.3,703.9,196.3,704.9,195,704.9z"/>
<polygon class="st3" points="283.1,399.1 211,470.3 283.1,541.4 299.3,525.2 244.8,470.7 299.7,415.8 "/>
<polygon class="st3" points="389.3,399.1 461.4,470.3 389.3,541.4 373.1,525.2 427.6,470.7 372.7,415.8 "/>
<circle class="st3" cx="-19.8" cy="175" r="9"/>
<circle class="st3" cx="4.2" cy="175" r="9"/>
<circle class="st3" cx="28.2" cy="175" r="9"/>
<rect x="-39.8" y="190" class="st2" width="752" height="3"/>
<path class="st0" d="M890.2,605.5c0,63.8-37.9,86-84.7,86s-84.7-22.3-84.7-86s84.7-144.9,84.7-144.9S890.2,541.7,890.2,605.5z"/>
<polygon class="st1" points="802.4,681.7 803.3,628.4 839.4,562.3 803.4,620 803.8,596 828.7,548.2 803.9,589.6 803.9,589.6 
	804.6,546.5 831.3,508.5 804.7,539.7 805.2,460.6 802.4,565.3 802.7,561 775.6,519.6 802.2,569.3 799.7,617.5 799.6,616.2 
	768.4,572.6 799.5,620.7 799.2,626.8 799.2,626.9 799.2,627.4 792.8,749.7 801.3,749.7 802.4,686.5 833.4,638.5 "/>
<path class="st4" d="M-113.4,749.1c-2.6,1.4-5.3,2.6-8.2,3.5c-5.1,1.4-10.5,0.9-15.6,2.1c-2.1,0.5-4.4,1.5-5.1,3.5
	c-0.5,1.5,0,3.1,0.6,4.6c5.7,16.6,9.1,34.3,18.1,49.3c3.8,6.3,8.5,12,14,17c2.1,1.9,4.4,3.7,7.1,4c4,0.4,7.5-2.5,8-6.4
	c0.1-1.3-0.1-2.6-0.6-3.7c-0.8-1.8-2.3-3.2-3.3-4.9c-1.1-2.2-1.7-4.6-1.8-7c-0.9-7.1-1.8-14.5,0.7-21.3c1.7-4.5,4.7-8.4,7.2-12.4
	s4.6-8.8,4.1-13.5c-0.4-3.3-2-6.2-3.6-9.1c-1.7-2.8-5-10.4-8.4-11.4C-103.7,742.4-110.3,747.5-113.4,749.1z"/>
<path class="st4" d="M-20.9,806.5c0.1,1.6-0.2,3.2-0.7,4.7c-1.1,2.8-3.7,4.7-5,7.4c-1.9,3.7-1,8.2,0.2,12.1c0.8,2.5,1.8,5.1,3.9,6.6
	c1.8,1.1,3.8,1.8,6,1.9c18,2.5,36.4,1.1,54.6,1.6c3.3,0.1,6.8,0.2,9.7-1.4s4.7-5.7,2.7-8.4c-1.8-2.4-5.3-2.4-8.2-2.5
	c-7.8-0.4-15.1-3.4-20.9-8.6c-1.1-1-2.1-2.1-2.9-3.4c-0.6-1.1-1.1-2.3-1.5-3.5c-2.6-6.9-5.6-13.6-9.1-20.1c-1-1.8-2.1-3.7-3.9-4.7
	c-1.3-0.6-2.8-0.9-4.2-0.9c-4.5-0.3-16.3-1.8-19.8,1.7C-23.4,792.3-20.9,802.4-20.9,806.5z"/>
<circle class="st5" cx="7" cy="374.7" r="29"/>
<path class="st5" d="M-19.2,398.6c-1.7,4.6-4.6,8.9-8.9,11.4l40.1,8.2c-1.5-5.8-1.6-11.9-0.6-17.9c0.4-1.4,0.5-2.9,0.2-4.4
	c-0.8-2.9-4-4.3-7-5c-7.3-1.7-13.8-2.6-20.6-5.8C-18,388.8-17.7,394.5-19.2,398.6z"/>
<path class="st4" d="M-28.4,399.2c8.7-4,18.8-3.7,27.3,0.7c5.1,2.7,9.4,6.8,13.6,10.8c3.9,3.7,8,8,8.2,13.3c0.1,2.6-0.7,5.1-1.1,7.7
	c-1.5,10.9,4,21.5,13.8,26.5c3.2,5.3,3.8,11.7,3.9,17.9c0.2,23.4-7.2,47.2-1.9,70c1.2,5.4,3.2,10.6,4.2,16c1.4,7,1.3,14.2,2,21.3
	c0.8,7.7,2.5,15.2,5.1,22.5c-1.7,2.8-5.4,3.8-8.6,3.6s-6.3-1.6-9.2-3.1c-14.1-7.2-27.1-16.8-41.7-22.9c-9.7-4.1-20-6.6-29.4-11.3
	s-18.1-12.1-21-22.2c-1.2-4.4-1.3-9-1.4-13.5c-0.3-19.1-0.6-38.4,3.6-57.1c3.7-16.5,10.7-32.2,12.3-49c0.5-5.5,0.5-11.3,3.6-15.9
	C-40.8,408-31.5,406.4-28.4,399.2z"/>
<path class="st4" d="M-9.5,375.1c1.7-2.2,5-2.5,7.7-1.9s5.2,2.1,8,2.6c1.3,0.4,2.6,0.2,3.7-0.5c1-0.9,1.5-2.2,1.6-3.6
	c1-5.7,1.2-11.6,0.7-17.4c-0.1-0.8-0.1-1.6,0.2-2.4c0.7-1.6,2.8-2,4.5-2.6c5.8-1.9,9.5-7.6,9-13.6c0-1.4-0.6-2.8-1.7-3.7
	c-1.2-1-2.8-1-4.3-1c-7.8-0.1-15.6-0.1-23.4,0c-2.9,0-5.9,0.1-8.4,1.5c-1.8,1.1-3.2,2.8-4.9,4.1c-4.3,3.5-10.2,4.2-15.4,6
	c-2.6,0.7-4.9,2.1-6.8,4c-1.8,2-2.6,5-1.5,7.4c0.6,1,1.2,2,1.9,2.9c3.1,5,1,11.4,1.5,17.2c0.6,7.3,11.4,19.1,18.7,20.8
	C-6.6,397.8-13.4,379.9-9.5,375.1z"/>
<path class="st4" d="M-25.9,694.7c0.7,5.3,1.7,10.7,1.4,16c-0.4,7.5-3.1,14.7-3.6,22.2c-0.4,5.6,0.5,11.2-0.3,16.8
	c-0.5,3.6-1.7,7-2.4,10.5c-2.3,11.6,0.2,23.6,7,33.3c0.5,0.8,1.2,1.5,2,2c0.8,0.3,1.7,0.4,2.5,0.3c8.4-0.2,16.8-0.9,25.2-2.3
	c0.6,0,1.2-0.3,1.6-0.7c0.2-0.3,0.3-0.6,0.4-1c1.5-7.9-2-15.9-2.9-23.9c-1-8.6,1.1-17.2,3.1-25.6c0.9-4.1,2.1-8.2,3.5-12.2
	c1-2.7,2.2-5.3,3-8.1c1.2-4.3,2-8.7,2.2-13.2c0.6-7.1,0.9-14.1,0.9-21.2c0.2-6.7-0.4-13.4-1.7-20c-1.9-8.3-5.7-16.1-9.5-23.7
	c-2,0.5-4,1.4-5.6,2.7c-4.9,3.2-10,6-15.4,8.5c-3.6,1.7-10.5,2.8-12.8,6.3c-2.2,3.4-0.8,10.4-0.6,14.1
	C-27.4,681.9-26.8,688.3-25.9,694.7z"/>
<path class="st2" d="M-25.9,694.7c0.7,5.3,1.7,10.7,1.4,16c-0.4,7.5-3.1,14.7-3.6,22.2c-0.4,5.6,0.5,11.2-0.3,16.8
	c-0.5,3.6-1.7,7-2.4,10.5c-2.3,11.6,0.2,23.6,7,33.3c0.5,0.8,1.2,1.5,2,2c0.8,0.3,1.7,0.4,2.5,0.3c8.4-0.2,16.8-0.9,25.2-2.3
	c0.6,0,1.2-0.3,1.6-0.7c0.2-0.3,0.3-0.6,0.4-1c1.5-7.9-2-15.9-2.9-23.9c-1-8.6,1.1-17.2,3.1-25.6c0.9-4.1,2.1-8.2,3.5-12.2
	c1-2.7,2.2-5.3,3-8.1c1.2-4.3,2-8.7,2.2-13.2c0.6-7.1,0.9-14.1,0.9-21.2c0.2-6.7-0.4-13.4-1.7-20c-1.9-8.3-5.7-16.1-9.5-23.7
	c-2,0.5-4,1.4-5.6,2.7c-4.9,3.2-10,6-15.4,8.5c-3.6,1.7-10.5,2.8-12.8,6.3c-2.2,3.4-0.8,10.4-0.6,14.1
	C-27.4,681.9-26.8,688.3-25.9,694.7z"/>
<path class="st4" d="M-65,581c-3.8,10.4,1.8,21.6,6.7,31.5c12.1,24.4,20.5,50.4,28.9,76.3c0.6,1.9,1.3,4.1,0.6,6
	c-0.6,1.4-1.6,2.5-2.8,3.3c-5.8,4.4-13.1,5.9-20,8.2c-6.6,2.2-13,5.2-18.9,8.9c-5,3.1-9.6,6.6-14.3,10.2l-14.8,11.3
	c-1,0.6-1.8,1.5-2.5,2.4c-1.4,2.2-0.8,5.2-0.1,7.7c1.9,6.8,4.3,13.4,7.3,19.8c0.5,1.4,1.4,2.6,2.6,3.4c2.3,1.2,5.1-0.4,6.9-2.3
	s3.3-4.4,5.8-5.2c2.5-0.8,5.2,0.2,7.8-0.2c4.2-0.6,7-4.5,10-7.4c12.4-12.1,33-11.3,46.6-22c2-1.8,4-3.4,6.2-4.9
	c2.3-1.4,4.9-2.1,7.3-3.3c7.3-3.7,11.8-11.2,14.3-19s3.1-15.9,4.9-23.9c0.9-4.1,2.1-8.2,2.5-12.3c0.3-3.9,0.2-7.8-0.3-11.7
	l-4.9-60.7c-0.4-4.9-0.8-9.9-1.6-14.8c-14.6,0.5-29.1,1.1-43.7,1.3C-42.2,583.9-54,584.7-65,581z"/>
<path class="st4" d="M-70.4,595.2c2,3.2,6.8,3.1,10.1,1.4s5.9-4.7,9.2-6.4c4.5-2.3,9.7-2.2,14.8-2.1c8,0.2,16,0.5,23.7,2.6
	c7.9,2.3,15.6,6.6,23.8,5.7c1.4-0.2,3-0.6,3.8-1.8c0.5-0.9,0.7-1.9,0.6-2.8l0.3-7.2c0.2-1.2,0-2.5-0.6-3.6c-0.7-0.9-1.6-1.7-2.7-2.1
	c-11.7-5.6-25-6.7-37.9-7.1c-6.6-0.2-13.2-0.3-19.8-0.3c-5.6,0-12.3-0.8-17.7,0.7C-70.1,574.3-74.1,589.3-70.4,595.2z"/>
<path class="st3" d="M2.8,407.7c-15.3-0.1-29.1-10.2-44.4-10.5c-1.8-0.1-3.7,0.2-5.4,0.9c-2.1,1.1-3.5,3.1-5.1,4.9
	c-4.5,4.9-11.1,7.5-15.7,12.3c-4.4,4.5-6.8,11.1-5.1,17.2s8.2,10.6,14.3,9.2c2.4-7.9,7.5-14.8,14.3-19.5c3.6-2.3,7.3-4.2,11.2-5.9
	c6.9-3.1,14.5-6.3,21.7-4c2.6,1,5.1,2.4,7.4,4l12,8C6.6,418.9,5.4,412.8,2.8,407.7z"/>
<path class="st3" d="M-60.4,436.4c-2,2.5,0.9,6.2,0.4,9.4c-0.3,2.1-2.1,3.8-2.8,5.8c-0.8,2.1-0.4,4.4-0.6,6.6
	c-0.3,1.6-0.7,3.2-1.3,4.7c-1.3,4.6-2.2,9.3-2.7,14l-2.7,20c-0.5,3-0.7,6-0.8,9.1c0.1,2.3,0,4.6-0.5,6.8c-0.6,2.2-1.9,4.1-2.8,6.2
	s-1.3,4.6-0.1,6.5c-4,3.3-5.2,9.9-2.4,14.2c0.5,0.7,0.9,1.4,1.2,2.3c0.2,1.1,0,2.3-0.5,3.3l-2.7,7.2c-0.7,1.8-0.9,4.7,1,5.1
	c-1.6,1.7-2.8,3.6-3.7,5.8c-0.8,2.2-0.4,4.6,1,6.5c0.7,0.6,1.2,1.3,1.7,2.1c0.3,1.1,0.2,2.2-0.2,3.2c-0.8,3.2-0.3,6.6,1.5,9.3
	c1.8,2.8,5.1,4.2,8.4,3.6c5.4-1.2,10.3-3.1,15.7-2.1c11.7,2.2,23.5,4.3,34.9,8c13,4.1,25.6,10.2,39.1,11.5c0.9,0.2,1.8,0,2.6-0.4
	c0.7-0.7,1.1-1.5,1.2-2.5c1.4-6.6,2.8-13.1,4.2-19.7c1.7-7.3,3-14.6,3.9-22c0.5-4.8,0.6-9.6,0.7-14.4l1.1-38.2
	c0.5-5.6-0.2-11.3-2.2-16.6l-6.2-19.8c-3.5-11.3-11.7-21.4-14.6-32.9c-1.8-7.3-3.2-15.1-8.1-20.8c-7-8.1-19.1-9.4-29.8-8
	c-4.8,0.6-9.6,1.7-13.8,4.2c-4.8,2.9-8.3,7.4-11.8,11.8C-54.6,429.8-57.5,432.8-60.4,436.4z"/>
<path class="st5" d="M-35.6,548.8c0.9,3.8,2.7,7.3,3.8,11c1.9,6.2,1.7,12.9,3.6,19.1c0.8,2.6,1.9,5.1,2.5,7.8
	c1.3,6.2-0.6,12.6-3,18.5s-5.3,11.7-6.1,18c-0.5,4.4,0.2,9.5,3.7,12.3c3.6,3,8.7,2.8,13.3,2.4c1.7,0,3.3-0.4,4.8-1
	c3.5-1.7,5-5.9,5.9-9.7c2.8-12.8,2-26.1,1.2-39.2l-2.1-34.2c-0.4-6.6-0.8-13.3-2.9-19.6c-0.7-2.3-2-7-4.1-8.4
	c-2.1-1.5-8-1.5-10.6-1.6C-37.7,523.5-37.5,540.4-35.6,548.8z"/>
<path class="st4" d="M-22.2,422.4c-2.5-1.3-5.6-0.7-8,0.7c-2.3,1.6-4.3,3.5-6,5.8c-5.3,6.5-11,14-10.2,22.4c0.3,3.1,1.5,6.1,2.3,9.2
	c3.6,13.4-0.4,27.5,0.1,41.4c0.3,8,2,15.9,3.7,23.7c0.4,1.6,0.9,3.4,2.5,4c1.2,0.4,2.4-0.1,3.6-0.6c8.7-3.2,18.4-2,26,3.3
	c2.9-1.5,1.8-6.4,1.1-9.5c-1.9-9.5,0.7-19.2,3.8-28.3s6.9-18.2,7.4-27.9c0.6-10.9-3-21.6-6.6-31.9c-0.8-2.3-1.6-4.6-3.4-6.2
	c-1.5-1.2-3.3-2-5.2-2.4C-14.8,424.9-18.6,424.3-22.2,422.4z"/>
</svg>
