<?xml version="1.0" encoding="utf-8"?>
<!-- Generator: Adobe Illustrator 19.0.0, SVG Export Plug-In . SVG Version: 6.00 Build 0)  -->
<svg version="1.1" id="a6ee8617-cc99-4eb9-a93b-e1a7e83c9724"
	 xmlns="http://www.w3.org/2000/svg" xmlns:xlink="http://www.w3.org/1999/xlink" x="0px" y="0px" viewBox="-255 12.7 1088 826.3"
	 style="enable-background:new -255 12.7 1088 826.3;" xml:space="preserve">
<style type="text/css">
	.st0{fill:#F2F2F2;}
	.st1{opacity:0.1;enable-background:new    ;}
	.st2{fill:#3F3D56;}
	.st3{fill:#6C63FF;}
	.st4{fill:#A8A8A8;}
	.st5{opacity:0.2;enable-background:new    ;}
	.st6{fill:#FFB9B9;}
	.st7{fill:#D0CDE1;}
	.st8{fill:#2F2E41;}
	.st9{fill:#A0616A;}
	.st10{fill:#575A89;}
</style>
<title>code typing</title>
<path class="st0" d="M680,342.1c-47.8-188-213.1-323.8-407-329.2C170.5,10,62.6,44-16,163C-156.4,375.7-7.4,522.7,96.5,592.6
	c50.2,33.8,95.4,74.5,134.4,120.8C301.1,796.7,436.2,900.2,597,738C713.6,620.5,711.8,467.3,680,342.1z"/>
<polygon class="st1" points="464.6,520.1 563,422 464.6,323.9 494.6,294 623,422 494.6,550 464.6,520.1 "/>
<path class="st1" d="M183.6,429h40v-40h-40L183.6,429z M384.4,389h-40v40h40V389z M264,429h40v-40h-40V429z"/>
<polygon class="st1" points="129.4,519.1 30.9,421 129.3,322.9 99.3,293 -29,421 99.4,549 "/>
<path class="st2" d="M833,765c0,16.6-243.6,74-544,74s-544-57.4-544-74s243.6,14,544,14S833,748.4,833,765z"/>
<path class="st1" d="M833,765c0,16.6-243.6,74-544,74s-544-57.4-544-74s243.6,14,544,14S833,748.4,833,765z"/>
<ellipse class="st2" cx="289" cy="765" rx="544" ry="30"/>
<path class="st2" d="M377.7,620.7c0,64,40.2,115.8,89.8,115.8"/>
<path class="st3" d="M467.5,736.5c0-64.7,44.8-117.1,100.2-117.1"/>
<path class="st3" d="M410.2,626.5c0,60.8,25.6,110,57.3,110"/>
<path class="st2" d="M467.5,736.5c0-82.7,51.8-149.7,115.8-149.7"/>
<path class="st4" d="M448.6,737.3c0,0,12.7-0.4,16.6-3.1s19.6-6,20.5-1.6s19.1,21.8,4.8,21.9s-33.4-2.2-37.2-4.6
	S448.6,737.3,448.6,737.3z"/>
<path class="st5" d="M490.7,752.9c-14.4,0.1-33.4-2.2-37.2-4.6c-2.9-1.8-4.1-8.2-4.5-11.1c-0.3,0-0.4,0-0.4,0s0.8,10.3,4.6,12.6
	s22.9,4.7,37.2,4.6c4.1,0,5.6-1.5,5.5-3.7C495.4,752.1,493.8,752.9,490.7,752.9z"/>
<path class="st6" d="M610.5,395.6c0,0-30.8-23.4-33.1-14.8s22.6,28,22.6,28L610.5,395.6z"/>
<path class="st1" d="M610.5,395.6c0,0-30.8-23.4-33.1-14.8s22.6,28,22.6,28L610.5,395.6z"/>
<path class="st7" d="M712.2,321.5c0,0-36.6,65.4-37.4,74.8s-0.8,10.1-3.9,9.3s-46-5.5-49.9-3.9s-11.7-9.3-11.7-9.3
	s-14.8,14.8-11.7,17.9s12.5,4.7,14,8.6s3.9,7.8,10.9,7s54.5,12.5,60.8,10.1s7.8-6.2,10.9-6.2s9.3-3.1,9.3-3.9s21.8-42.1,21.8-42.1
	S751.1,327.8,712.2,321.5z"/>
<path class="st1" d="M712.2,321.5c0,0-36.6,65.4-37.4,74.8s-0.8,10.1-3.9,9.3s-46-5.5-49.9-3.9s-11.7-9.3-11.7-9.3
	s-14.8,14.8-11.7,17.9s12.5,4.7,14,8.6s3.9,7.8,10.9,7s54.5,12.5,60.8,10.1s7.8-6.2,10.9-6.2s9.3-3.1,9.3-3.9s21.8-42.1,21.8-42.1
	S751.1,327.8,712.2,321.5z"/>
<path class="st8" d="M659.1,278.4c-0.3,4.1-0.3,8.3,0.2,12.4c1.2,8.9,5.3,18.3,1.4,26.6c-1.4,3-3.8,5.7-5.1,8.7
	c-2.8,6.5-0.3,13.7-0.6,20.6c-0.5,8.9-6.2,17.5-14.8,22.4c14.8,0.5,28.8-6.8,38.1-16.8s14.5-22.3,18.3-34.6c2-5.8,3.3-11.8,3.8-17.9
	c0.3-3.5-0.1-7-1.2-10.4c-1.4-3.3-3.2-6.3-5.3-9.1c-2.3-3.3-4.7-6.6-8.1-9c-4.2-3-12.4-6-18-5.6
	C660.8,266.3,659.3,273.6,659.1,278.4z"/>
<path class="st6" d="M681.8,302.9c0,0,8.6,30.4,1.6,38.9s42.1-3.9,42.1-3.9s-24.1-24.1-12.5-39.7L681.8,302.9z"/>
<path class="st1" d="M681.8,302.9c0,0,8.6,30.4,1.6,38.9s42.1-3.9,42.1-3.9s-24.1-24.1-12.5-39.7L681.8,302.9z"/>
<polygon class="st3" points="464.6,501.1 563,403 464.6,304.9 494.6,275 623,403 494.6,531 464.6,501.1 "/>
<polygon class="st6" points="653.7,707.9 653.7,730.5 665.4,744.5 675.6,739.9 672.4,707.1 "/>
<path class="st8" d="M658.4,729c0,0-3.1-10.9-8.6-3.1s-10.9,24.9-14,25.7s-24.9,24.9-3.1,24.9s28.8-10.1,28.8-10.1
	s21.8-8.6,21.8-10.1s-3.1-30.4-4.7-30.4s-2.3,5.5-6.2,5.5S658.4,729,658.4,729z"/>
<polygon class="st6" points="705.9,711.8 705.2,732.9 723.9,740.6 723.9,710.3 "/>
<path class="st8" d="M726.2,732.9c0,0-10.1-10.9-15.6-8.6c-2.7,1.1-5.3,2.4-7.8,3.9c0,0-3.1,10.1-4.7,18.7s-2.3,12.5-3.9,15.6
	s-3.1,14.8,12.5,16.4c15.6,1.6,20.3-7,20.3-7l3.9-20.3C730.9,751.6,729.3,732.9,726.2,732.9z"/>
<path class="st8" d="M663.9,487.5c0,0-22.6,50.6-19.5,96.6c0,0-7.8,17.9-3.1,46s10.9,84.1,10.9,84.1s21,2.3,22.6-1.6
	c0,0,1.6-38.9,3.1-40.5s-0.8-37.4-3.1-44.4s21.8-76.3,21.8-76.3l-6.2-86.5L663.9,487.5z"/>
<path class="st1" d="M663.9,487.5c0,0-22.6,50.6-19.5,96.6c0,0-7.8,17.9-3.1,46s10.9,84.1,10.9,84.1s21,2.3,22.6-1.6
	c0,0,1.6-38.9,3.1-40.5s-0.8-37.4-3.1-44.4s21.8-76.3,21.8-76.3l-6.2-86.5L663.9,487.5z"/>
<path class="st8" d="M657.6,484.4l14.8,31.9c0,0,7,72.4,10.9,81.8c0,0,1.6,26.5,8.6,35.1s12.5,84.1,12.5,84.1s19.5,5.5,21,0
	s6.2-42.8,6.2-42.8s1.6-31.9-7-53s10.1-96.6,10.1-96.6s19.5-36.6-8.6-66.2L657.6,484.4z"/>
<circle class="st6" cx="698.9" cy="280.3" r="31.9"/>
<path class="st7" d="M728.5,328.6c0,0-33.5,0-38.2,3.9c-2.4,2.3-6.2,2.3-8.6,0c0,0-11.7,0.8-14.8,10.1s-12.5,21.8-12.5,21.8
	s-14,10.1-6.2,36.6s1.6,69.3,1.6,69.3s-6.2,9.3,0,13.2s8.6,5.5,7.8,8.6s70.9-25.7,70.9-31.2s-1.6-10.1,0-12.5s3.1-6.2,1.6-10.1
	s1.6-4.7,0.8-8.6s3.9-32.7,7-45.2S740.2,329.3,728.5,328.6z"/>
<path class="st6" d="M610.5,404.9c0,0-30.8-23.4-33.1-14.8s22.6,28,22.6,28L610.5,404.9z"/>
<path class="st7" d="M712.2,332.5c0,0-36.6,65.4-37.4,74.8s-0.8,10.1-3.9,9.3s-46-5.5-49.9-3.9s-11.7-9.3-11.7-9.3
	s-14.8,14.8-11.7,17.9s12.5,4.7,14,8.6s3.9,7.8,10.9,7s54.5,12.5,60.8,10.1s7.8-6.2,10.9-6.2s9.3-3.1,9.3-3.9s21.8-42.1,21.8-42.1
	S751.1,338.7,712.2,332.5z"/>
<path class="st8" d="M683.1,300.7c-0.4-3.2-2.1-6-2.9-9.1c-1.3-5-0.5-10.3,2.2-14.7c4.6-7.4,13.6-10.7,19.8-16.7
	c0.1,3.1,2.3,5.7,4.6,7.7s5.1,3.6,7.1,5.9c1.9,2.5,3.3,5.3,4.1,8.3c1.2,3.5,1.8,7.2,1.6,10.9c-0.2,3.7-1.9,7.3-4.7,9.7
	c-2.3,1.8-5.6,2.9-6.7,5.7c-0.4,1.4-0.6,2.8-0.4,4.3c0.5,8.6,1,17.3-1,25.6s-7,16.4-14.7,20.1c6.4,0.5,12.9,0.9,19-0.7
	c6.2-1.6,12.1-5.7,14.2-11.7c1.1-3,1.2-6.3,2.6-9c3.8-7,14.2-7.3,19.3-13.4c2.1-2.4,3-5.6,3.8-8.7c4.3-18.3,1.3-37.7-5.3-55.2
	c-2.3-6.1-5.1-12.2-10-16.4c-4.1-3.6-9.4-5.6-14.7-7.3c-7.6-2.5-15.5-4.5-23.5-4.8c-3.5-0.2-7,0.2-10.3,1.2
	c-3.3,1.2-6.4,2.9-9.1,5.2c-12.6,9.8-21.1,25.4-20,41.3c0.7,9.6,4.8,18.7,10,26.8c1.8,2.8,6.2,8.9,10.2,7.1
	C682,311,683.6,304.1,683.1,300.7z"/>
<path class="st3" d="M183.6,410h40v-40h-40L183.6,410z M384.4,370h-40v40h40V370z M264,410h40v-40h-40V410z"/>
<ellipse class="st8" cx="-48.8" cy="224.5" rx="33.7" ry="26.3"/>
<path class="st9" d="M-43.1,405.3c0,0,30.3,2,35.7-2s28.3,5.4,30.3,10.8s-32.3,6.1-37.7,6.1s-31,8.1-31,8.1L-43.1,405.3z"/>
<path class="st8" d="M-105.4,718.8c0,0-14.1,35.6-6.8,39.9s84.7,1.2,84.7,1.2s12.9-8-1.8-13.5c0,0-12.3-0.6-20.3-5.5
	s-17.2-14.1-17.2-14.1s-0.6-13.5-5.5-10.4c-3,2-5,5.1-5.5,8.6L-105.4,718.8z"/>
<path class="st1" d="M-105.4,718.8c0,0-14.1,35.6-6.8,39.9s84.7,1.2,84.7,1.2s12.9-8-1.8-13.5c0,0-12.3-0.6-20.3-5.5
	s-17.2-14.1-17.2-14.1s-0.6-13.5-5.5-10.4c-3,2-5,5.1-5.5,8.6L-105.4,718.8z"/>
<polygon class="st3" points="129.4,500.1 30.9,402 129.3,303.9 99.3,274 -29,402 99.4,530 "/>
<path class="st8" d="M-127.2,729.7c0,0-15.5,39-7.4,43.8s92.9,1.3,92.9,1.3s14.1-8.8-2-14.8c0,0-13.5-0.7-22.2-6.1
	s-18.8-15.5-18.8-15.5s-0.7-14.8-6.1-11.4c-3.3,2.1-5.5,5.6-6.1,9.4L-127.2,729.7z"/>
<path class="st8" d="M-47.8,482l-9.4,84.8c0,0-3.4,40.4-13.5,49.1c0,0,0,12.8-3.4,16.8l-4.7,53.2c0,0,6.7,19.5,6.1,22.9
	s2.7,14.1,2,15.5s-32.3,0-32.3,0l6.7-108.4l20.9-150.8L-47.8,482z"/>
<path class="st1" d="M-47.8,482l-9.4,84.8c0,0-3.4,40.4-13.5,49.1c0,0,0,12.8-3.4,16.8l-4.7,53.2c0,0,6.7,19.5,6.1,22.9
	s2.7,14.1,2,15.5s-32.3,0-32.3,0l6.7-108.4l20.9-150.8L-47.8,482z"/>
<path class="st8" d="M-64.6,479.3c0,0-7.4,69.3-10.8,84.1c-2.1,9.8-3.5,19.7-4,29.6c0,0-0.7,21.5-6.7,27.6
	c-3.6,3.5-5.5,8.4-5.4,13.5c0,0-6.1,68-2.7,76.1s6.7,14.8,3.4,20.2s-40.4,5.4-40.4,1.3s0-7.4-2-9.4s0-14.8,0-14.8
	s-8.1-59.9-0.7-77.4s10.8-65.3,10.8-65.3s-5.4-54.5-12.1-63.3s1.3-39.7,1.3-39.7L-64.6,479.3z"/>
<path class="st9" d="M-83.6,264c0.8,1.8,2.7,2.8,4.4,3.7c9.9,5.4,18.2,13.3,26.3,21.1c-2-6.9-1.6-14.3,1.2-20.9c1-2.3,2.2-4.7,1.6-7
	c-0.5-1.7-2-3-3.4-4.1c-3.3-2.6-6.8-4.9-10.4-7.1c-2.5-1.5-7.7-5.5-10.6-5.1c-0.2,3.9-0.2,7.4-1.9,11.1
	C-76.9,256.6-83.3,264.7-83.6,264z"/>
<circle class="st9" cx="-49.1" cy="245.1" r="27.6"/>
<path class="st10" d="M-47.8,310.4c0,0,4.7-23.6-8.8-31.6s-28.9-17.5-28.9-17.5s-4.7-0.7-6.7,9.4c0,0-38.4,7.4-42.4,43.8
	s2.7,89.5,2.7,89.5s-6.1,46.4-13.5,71.4c0,0-6.1,5.4,20.9-2.7s74,22.9,74,22.9s4.7-4.7,4.7-8.1s5.4-22.9,5.4-22.9s4.7-82.8,6.7-92.2
	S-41.7,311.7-47.8,310.4z"/>
<path class="st8" d="M-55.6,247.9c1.7-0.9,3.5-1.4,5.4-1.4c1.9,0,3.8-0.6,5.4-1.6c2.6-2,2.8-5.9,4.7-8.5c2.8-3.9,8.3-4.3,13-4.1
	c2.9,0.1,6,0.3,8.5-1.3c2.5-1.6,3.7-4.7,4.5-7.5c1-3.4,1.7-7.5-0.8-10c-1.7-1.7-4.4-2.1-6.4-3.6c-2-1.6-2.8-4.2-3.9-6.5
	c-1.2-2.8-3.2-5.2-5.6-7.1c-3.6-2.5-8.2-3.1-12.6-3s-8.8,0.6-13.2,0.1c-3.6-0.4-7.1-1.6-10.7-1.1c-4.5,0.7-8.3,4.1-10.5,8.1
	s-3.2,8.6-4.1,13.1l-2.5,12.2c-0.8,3.8-1.6,7.7-1,11.5c1.3,7.9,8.3,14.2,8.8,22.3c0.9-4.5,4.1-8.2,8.3-9.9c0.5-0.3,1.1-0.3,1.7-0.2
	c0.7,0.2,1.1,0.9,1.5,1.5c1.2,1.5,4.8,3.9,6.8,2.8C-56.6,252.5-57.9,249.5-55.6,247.9z"/>
<path class="st9" d="M-125.2,373.6c0,0-4.7,29.6,14.8,26.9c0,0,10.1-1.3,11.4,0s51.2-7.4,57.9-14.8c0,0,8.1-2.7,12.1,1.3
	s44.4,8.1,32.3-4s-31-14.8-31-14.8l-25.6,1.3c0,0-13.5,4-21.5,0s-31-2.7-31-2.7L-125.2,373.6z"/>
<path class="st10" d="M-97.6,280.1c0,0-30.3,3.4-30.3,47.1v55.9c0,0,16.8-7.4,20.2-6.7s16.8-8.8,16.8-8.8s15.5-36.3,14.1-46.4
	S-77.4,281.4-97.6,280.1z"/>
<ellipse class="st8" cx="-49.1" cy="227.9" rx="25.9" ry="13.5"/>
<ellipse class="st8" cx="-73.4" cy="230.3" rx="9.1" ry="22.6"/>
</svg>
