<?xml version="1.0" encoding="utf-8"?>
<!-- Generator: Adobe Illustrator 19.0.0, SVG Export Plug-In . SVG Version: 6.00 Build 0)  -->
<svg version="1.1" id="a8ebc32a-e748-45d9-a61d-aeebf59cfff3"
	 xmlns="http://www.w3.org/2000/svg" xmlns:xlink="http://www.w3.org/1999/xlink" x="0px" y="0px" viewBox="-239 122 1121 608"
	 style="enable-background:new -239 122 1121 608;" xml:space="preserve">
<style type="text/css">
	.st0{fill:#3F3D56;}
	.st1{fill:#FFB8B8;}
	.st2{fill:#2F2E41;}
	.st3{fill:#D0CDE1;}
	.st4{fill:#575A89;}
	.st5{fill:#6C63FF;}
</style>
<title>source_code</title>
<path class="st0" d="M-72.4,520.7c9.5-7.6,20.4-13.3,32-16.7c32.7-9.3,66.4-0.3,99.1,8.4c17.6,4.7,35.9,9.6,53.9,11.6
	c28.8,3.2,55.7-1.3,77.7-13c24.7-13.2,42.5-35.9,47.6-60.7c0.6-3.1,1.1-6.3,1.3-9.5c-2.4,1.5-4.9,3-7.3,4.4
	c-25.8,15.3-62.1,29.7-88.3,10.9c-10.1-7.2-16.6-19.3-17.9-33c-1.4-14.8,3.3-29.5,12.7-39.4c1.5-1.6,3.2-3.1,4.9-4.5
	c19-15.2,49-16,70.1-1c17.8,12.7,28.4,35.7,28.1,58.9c15.2-9.6,30-19.9,44.2-31l1.2,1.6c-14.6,11.4-29.8,22-45.5,31.8
	c-0.2,3.8-0.6,7.5-1.4,11.2c-5.2,25.4-23.4,48.6-48.7,62.1c-22.4,11.9-49.6,16.5-78.9,13.2c-18.1-2-36.5-6.9-54.2-11.7
	c-33.9-9.1-65.9-17.6-98-8.5c-32.3,9.2-58.4,37.6-64.9,70.5c-6.5,32.9,6.8,69.1,33.1,90l-1.2,1.6c-26.9-21.3-40.5-58.3-33.8-91.9
	C-102.3,554.3-89.7,534.5-72.4,520.7z M239.4,438.5c0.8-23.1-9.5-46-27.2-58.6c-22.2-15.8-54.7-13.5-72.4,5.2
	c-9,9.5-13.5,23.6-12.2,37.8c1.3,13.2,7.5,24.7,17.1,31.6c25.4,18.1,60.8,4,86.1-11C233.8,441.9,236.6,440.2,239.4,438.5
	L239.4,438.5z"/>
<ellipse class="st0" cx="39.5" cy="678" rx="278.5" ry="13"/>
<ellipse class="st0" cx="29" cy="717" rx="99" ry="13"/>
<path class="st1" d="M-53.5,405.5v8c0,0-9,41.8,5,40c23-3,6-37,6-37v-7L-53.5,405.5z"/>
<polygon class="st1" points="58.5,630.5 67.5,655.5 89.5,647.5 79.5,624.5 "/>
<polygon class="st1" points="3.5,655.5 -2.5,677.5 20.5,684.5 21.5,661.5 "/>
<path class="st2" d="M-16.5,403.5l-2,11c0,0-1,8,0,13s73,212,73,212l31-12l-40-131l-5-101L-16.5,403.5z"/>
<path class="st2" d="M22.5,401.5l-4,148c0,0-9,10-7,17s-5,65-5,65l-6,29l26,8c0,0,5-26,9-29s27-93,27-99s17-139,17-139l-42-17
	L22.5,401.5z"/>
<path class="st2" d="M69.5,639.5c0,0-11-12-17,0c-4.5,8.6-9.5,17-15,25c0,0-32,19,0,24c0,0,18,1,27-5s33-15,33-17s-6-31.4-12-28.2
	S69.5,639.5,69.5,639.5z"/>
<path class="st2" d="M14.5,672.5c0,0-9-13-17-4s-18,35-18,35s-18,27,10,26s30-11,30-11s4-26,4-27s-2-11.3-2-11.3L14.5,672.5z"/>
<circle class="st1" cx="8" cy="168" r="28"/>
<path class="st1" d="M-6.5,185.5l4,32l12,30l26-31v-15c0,0-8-12-6-22L-6.5,185.5z"/>
<path class="st3" d="M7.5,224.5l-14-6l-15,177l3,11c0,0,8,5,33,1s66-1,66-1l3-91l-49-107L7.5,224.5z"/>
<path class="st4" d="M-17.5,399.5c0,0,19-165,18-168s-18-11.1-18-11.1s-29,19.1-28,26.1s19,155,19,155L-17.5,399.5z"/>
<path class="st4" d="M58.5,387.5c0,0-30-117-31-143s-1-29-1-29s46-16,62,0l3,84c0,0,5,36,3,47c-1.4,7.2-3.4,14.2-6,21
	c0,0,11,11,1,14s-17-2-21,3S58.5,387.5,58.5,387.5z"/>
<path class="st4" d="M-38.5,240.5c0,0-12,0-11,14c1,14,0,79,0,79s-9,55-6,59s-1,17-1,17l18,4c0,0,2-14,6-15s10-30,10-30L-38.5,240.5
	z"/>
<path class="st1" d="M96.5,363.5l-4.6,8.3c0,0-31.5,25.1-16,34.4s30.5-24.7,30.5-24.7l5-9L96.5,363.5z"/>
<path class="st4" d="M74.5,213.5l14,2c0,0,16,11,17,17c1,6,33,61,33,61c1.9,4.1,2.9,8.5,3,13c0,7-11,60-17,61s-10,11-10,11l-21-13
	c0.1-3,0.4-6,1-9c1-5,5-15,5-15l6-21c-1.9-1.4-3-3.6-3-6c0-4-17-25-17-25L74.5,213.5z"/>
<path class="st3" d="M4.4,234.7c0,0-25.9-7.2-23.9-12.2s4-6,4-6s3-8,6-8s5.6-2.5,5.6-2.5l11.4,18.5L4.4,234.7z"/>
<path class="st3" d="M32.5,196c0,0,10-2.5,14,0.5s7,3,8,5s14,4,10,7s-57,16-57,16l25-18L32.5,196z"/>
<path class="st2" d="M35.6,138.2c-4.5-7.3-11.5-12.6-19.6-15l-6,4.8l2.3-5.6c-2-0.3-3.9-0.4-5.9-0.3L1,129l2.2-6.7
	c-9.5,1.2-18,6.3-23.6,14c-6.9,9.9-6.4,23.7,0.3,33.7c1.9-5.7,2.5-11,4.3-16.8c1.5,0.2,2.9,0.2,4.4,0L-9,148l0.6,5
	c7-0.6,17.4-1.9,24-3.2L15,146l3.9,3.2c2-0.5,3.2-0.9,3.1-1.2c4.9,8,9.8,13,14.8,21C38.6,157.8,41.9,148.4,35.6,138.2z"/>
<ellipse class="st1" cx="34" cy="164" rx="2" ry="4"/>
<path class="st0" d="M-134.8,677.7l-1.1-0.4c-0.2-0.1-23.7-9.1-34.7-29.5c-11-20.4-5.6-44.9-5.6-45.2l0.3-1.1l1.1,0.4
	c0.2,0.1,23.7,9.1,34.7,29.5c11,20.4,5.6,44.9,5.6,45.2L-134.8,677.7z M-168.8,646.9c9.3,17.2,27.8,26.1,32.5,28.1
	c0.9-5,3.7-25.4-5.6-42.6c-9.3-17.2-27.8-26.1-32.5-28.1C-175.3,609.3-178.1,629.7-168.8,646.9z"/>
<path class="st5" d="M-162.2,640.7c19.8,11.9,27.4,35.5,27.4,35.5s-24.4,4.3-44.2-7.5s-27.4-35.5-27.4-35.5
	S-181.9,628.8-162.2,640.7z"/>
<path class="st0" d="M268,418.8h457.2c86.6,0,156.8-49.4,156.8-136v0c0-86.6-70.2-122.7-156.8-122.7H581.6
	C408.4,160.2,268,245.6,268,418.8L268,418.8z"/>
<path class="st5" d="M699.7,397.9H319.2v-1c0-68,26.5-124.1,76.6-162.1c46.3-35.1,110.2-53.6,184.7-53.6h119.2
	c38,0,70,8.4,92.6,24.1c25.6,17.9,38.6,44.4,38.6,78.7c0,34.5-13.3,63.6-38.5,84.2C768.9,387.3,736,397.9,699.7,397.9z M321.2,395.9
	h378.5c77.3,0,129.2-45,129.2-111.9c0-64.1-47.1-100.9-129.2-100.9H580.5C455.4,183.1,321.7,239.1,321.2,395.9z"/>
<rect x="462" y="248" class="st5" width="54" height="13"/>
<rect x="684" y="248" class="st5" width="19" height="13"/>
<rect x="722" y="248" class="st5" width="19" height="13"/>
<rect x="535" y="248" class="st5" width="129" height="13"/>
<rect x="394" y="332" class="st5" width="54" height="13"/>
<rect x="616" y="332" class="st5" width="19" height="13"/>
<rect x="654" y="332" class="st5" width="19" height="13"/>
<rect x="467" y="332" class="st5" width="129" height="13"/>
<rect x="617" y="277" class="st5" width="54" height="13"/>
<rect x="690" y="277" class="st5" width="54" height="13"/>
<rect x="763" y="277" class="st5" width="19" height="13"/>
<rect x="394" y="277" class="st5" width="19" height="13"/>
<rect x="432" y="277" class="st5" width="19" height="13"/>
<rect x="470" y="277" class="st5" width="129" height="13"/>
<rect x="505" y="305" class="st5" width="54" height="13"/>
<rect x="432" y="305" class="st5" width="54" height="13"/>
<rect x="394" y="305" class="st5" width="19" height="13"/>
<rect x="763" y="305" class="st5" width="19" height="13"/>
<rect x="725" y="305" class="st5" width="19" height="13"/>
<rect x="577" y="305" class="st5" width="129" height="13"/>
<rect x="-87" y="659" class="st5" width="19" height="15"/>
<rect x="70" y="703" class="st5" width="19" height="15"/>
</svg>
