<?xml version="1.0" encoding="utf-8"?>
<!-- Generator: Adobe Illustrator 19.0.0, SVG Export Plug-In . SVG Version: 6.00 Build 0)  -->
<svg version="1.1" id="edf42a59-8f3e-4eb3-b190-2130b730b091"
	 xmlns="http://www.w3.org/2000/svg" xmlns:xlink="http://www.w3.org/1999/xlink" x="0px" y="0px"
	 viewBox="-278 139.8 1041.3 572.2" style="enable-background:new -278 139.8 1041.3 572.2;" xml:space="preserve">
<style type="text/css">
	.st0{fill:#F2F2F2;}
	.st1{fill:#3F3D56;}
	.st2{fill:#192534;}
	.st3{fill:#202F42;}
	.st4{opacity:0.1;enable-background:new    ;}
	.st5{fill:#FBBEBE;}
	.st6{fill:#6C63FF;}
	.st7{fill:#01E7C0;}
	.st8{fill:#464A5F;}
</style>
<title>gamer</title>
<path class="st0" d="M79.9,496.7c1.1-2.2,2.9-3.8,4.3-5.8c-0.2,0.2-0.4,0.3-0.7,0.5c-1.1,0.5-2.1,1.1-3,1.9
	c-0.5,0.8-0.9,1.6-1.1,2.5l-2.5,9.9c0.5-0.6,1-1.3,1.5-1.9C78.4,501.4,78.9,498.9,79.9,496.7z"/>
<path class="st0" d="M320.7,503.4c-0.2,1.1-0.5,2.2-1,3.2c0,4.2-0.5,8.4-1.7,12.4c-0.5,1.7-0.8,3.4-1,5.2c-2.4,16.1-4.6,33-0.6,48.6
	c0.3-0.9,0.8-1.8,1.5-2.5c2.7-3.3,3.7-7.5,4.5-11.7c4.2-21.8,3-44.1,2-66.3c-0.6-0.7-1.4-1.2-2.2-1.6c0,1,0,1.9-0.1,2.9
	C321.8,496.9,321.3,500.1,320.7,503.4z"/>
<path class="st0" d="M180.4,496.7c0-1.3-0.3-2.6-0.8-3.8c-0.5-1-1.2-1.9-1.9-2.7l-2.2-2.5c-1.1,26.1-3.4,52.3,1.4,77.9
	c0.8,4.1,1.8,8.4,4.5,11.7c0.7,0.7,1.2,1.6,1.5,2.5c4-15.6,1.8-32.5-0.6-48.6c-0.2-1.8-0.6-3.5-1-5.2c-1.8-6.5-2.2-13.4-1.2-20.1
	C180.5,502.9,180.6,499.8,180.4,496.7z"/>
<path class="st0" d="M192.8,441.6c2.9,4.8,4.7,10.4,6.3,15.8l0.7,2.3c-0.3-7.9-0.5-15.8-0.5-23.7c-1.6,1.4-3.1,2.8-4.7,4.1
	L192.8,441.6z"/>
<path class="st0" d="M216.1,708.1c0.4-5.5,0-11.1-1.3-16.5c-0.9-3.4-2.2-6.8-2.4-10.3c0-2.4,0.3-4.7,0.9-7
	c4.1-20.9,5.9-42.9-0.3-63.3c-1.7-5.5-3.9-10.7-5.6-16.2c-0.8,2-1.7,4-2.8,5.9c-0.5-1.8-1.7-3.2-3.4-4c0,1,0,1.9-0.1,2.9
	c-0.3,3.3-0.8,6.5-1.4,9.7c-0.2,1.3-0.6,2.5-1.2,3.7c-0.8,1.1-1.9,2.1-3.2,2.7c0.6,1.3,1.2,2.6,1.7,4l-4.2,1.2
	c2.7,6,0.5,12.8-1,19.2c-5.2,22.2-0.5,45.9-3,68.3L216.1,708.1z"/>
<path class="st0" d="M200.9,390.7c1.1-2.1,2.8-3.9,4.3-5.8c-0.2,0.2-0.4,0.3-0.7,0.5c-1.1,0.5-2.1,1.1-3,1.9
	c-0.5,0.8-0.9,1.6-1.1,2.5l-2.5,9.9c0.5-0.6,1-1.3,1.5-1.9C199.4,395.4,199.9,392.9,200.9,390.7z"/>
<path class="st0" d="M301.4,390.7c0-1.3-0.3-2.6-0.8-3.8c-0.5-1-1.2-1.9-1.9-2.7l-2.2-2.5c-1.1,25.7-3.4,51.5,1.2,76.7
	c0.8-2.7,1.6-5.5,2.4-8.2c1.2-4.5,2.8-8.9,4.8-13.1c-0.5-4-1-8.1-1.6-12c-0.2-1.8-0.6-3.5-1-5.2c-1.8-6.5-2.2-13.4-1.2-20.1
	C301.5,396.9,301.6,393.8,301.4,390.7z"/>
<path class="st0" d="M257.8,587.3l-3.4,120.4l9-0.1c-1.6-14.7-2.3-29.4-2.2-44.1c0-4.3,0.2-8.6-0.7-12.8c-0.6-2.9-1.7-5.7-2.3-8.7
	c-0.6-3.5-0.8-7.1-0.7-10.7L257.8,587.3z"/>
<path class="st0" d="M180.5,587.3c0.1-0.3,0.3-0.7,0.4-1c0.5-1.2,0.9-2.4,1.3-3.7l-0.1,0.1c-0.8,1.3-1.7,2.5-2.5,3.8
	C179.9,586.8,180.2,587.1,180.5,587.3z"/>
<path class="st0" d="M-91.6,452.7c0-1.3-0.3-2.6-0.8-3.8c-0.5-1-1.2-1.9-1.9-2.7l-2.2-2.5c-1.1,26.1-3.4,52.3,1.4,77.9
	c0.8,4.1,1.8,8.4,4.5,11.7c0.7,0.7,1.2,1.6,1.5,2.5c4-15.6,1.8-32.5-0.6-48.6c-0.2-1.8-0.5-3.5-1-5.2c-1.8-6.5-2.2-13.4-1.3-20.1
	C-91.5,458.9-91.4,455.8-91.6,452.7z"/>
<path class="st0" d="M-91.5,543.3c0.1-0.3,0.3-0.7,0.4-1c0.5-1.2,0.9-2.4,1.3-3.7l-0.1,0.1c-0.8,1.3-1.6,2.5-2.5,3.8
	C-92.1,542.8-91.8,543.1-91.5,543.3z"/>
<path class="st0" d="M-135.2,649.3c-0.6,20.9-1.2,41.8-1.8,62.7l4.3,0c-0.6-2.7-1.6-5.3-2.1-7.9c-0.6-3.5-0.8-7.1-0.7-10.7
	L-135.2,649.3z"/>
<path class="st0" d="M-70.9,709.7c-1.3-0.6-2.4-1.5-3.2-2.7c-0.6-1.1-1.1-2.4-1.2-3.7c-0.6-3.2-1.1-6.5-1.4-9.7
	c-0.1-1-0.1-1.9-0.1-2.9c-1.7,0.8-2.9,2.2-3.4,4c-2.9-5.2-4.8-10.9-5.6-16.8c-0.3,1-0.6,2.1-1,3.2c-2.1,6.2-5.1,12.2-5.7,18.7
	c-0.3,3.9,0,7.9,1,11.7l19.9-0.2L-70.9,709.7z"/>
<path class="st0" d="M-57.9,676.7c0.4,1.2,0.8,2.5,1.3,3.7c0.1,0.3,0.3,0.7,0.4,1c0.3-0.3,0.6-0.5,0.9-0.8c-0.9-1.2-1.8-2.5-2.5-3.8
	L-57.9,676.7z"/>
<path class="st0" d="M85.4,697.4c-1.4-6-2.4-12-2.9-18.1c-1.6-14.7-3.2-29.3-4.8-44c0-0.4-0.1-0.8-0.1-1.2c-0.1,0.2-0.1,0.4-0.2,0.6
	c-1.2,3.6-3.6,6.6-6,9.5c-2.4,2.9-5.4,5.9-8.9,5.1c-1.4-0.5-2.7-1.3-3.8-2.4l-8-6.9c-1.6-1.3-3.1-2.7-4.7-4.1
	c-0.1,9.7-0.3,19.3-0.8,28.9c-0.2,3-0.4,6.2-1.9,8.9c3,9.2,4.6,18.7,4.9,28.3c0.1,2.6,0,5.2-0.1,7.8l23.4-0.3h0.1l17.6-0.2
	C88,705.5,86.5,701.6,85.4,697.4z"/>
<path class="st0" d="M45.8,597.9c0.5,0.6,1,1.2,1.5,1.9l-2.6-9.9c-0.2-0.9-0.5-1.8-1.1-2.6c-0.9-0.8-1.9-1.4-3-1.9
	c-0.2-0.2-0.5-0.3-0.7-0.5c1.5,1.9,3.3,3.6,4.3,5.8C45.3,593,45.8,595.4,45.8,597.9z"/>
<path class="st0" d="M74.8,554c0.6,6.9,1,13.9,1.4,20.9c0.4,7,0.7,13.8,1.1,20.6c0.8-5.3,2.1-10.6,3.7-15.7
	c-1.4-2.7-1.7-5.8-1.9-8.9c-0.5-9.6-0.7-19.3-0.8-28.9c-1.5,1.4-3.1,2.7-4.6,4C74.2,548.6,74.6,551.3,74.8,554z"/>
<path class="st0" d="M-58,625.2c-2.4,16.1-4.6,33-0.6,48.6c0.3-0.9,0.8-1.8,1.5-2.5c2.7-3.3,3.7-7.5,4.5-11.7
	c4.9-25.6,2.5-51.8,1.4-77.9l-2.1,2.5c-0.8,0.8-1.5,1.7-2,2.6c-0.5,1.2-0.8,2.5-0.8,3.8c-0.2,3.1-0.1,6.1,0.3,9.2
	c1,6.7,0.6,13.6-1.2,20.2C-57.5,621.7-57.8,623.5-58,625.2z"/>
<path class="st0" d="M303.6,707.2l7.8-0.1c-4.2-24.1,1.8-49.9-3.8-74c-0.9-3.8-2-7.7-2.3-11.5c-2,5.3-4.3,10.6-4.8,16.2
	c-0.9,9.7,3.7,19.1,5.4,28.7c2.3,13.3-0.8,26.8-2.2,40.2C303.6,706.9,303.6,707,303.6,707.2z"/>
<path class="st0" d="M573.1,695.1c-9.1-27.1,0-57.2-6.6-85c-1.5-6.4-3.8-13.3-1-19.2l-4.2-1.3c0.6-1.3,1.2-2.6,1.7-4
	c-0.8-0.4-1.6-0.9-2.2-1.5l-3.1,28.2c-0.5,6.1-1.5,12.2-2.9,18.1c-1.7,6.7-4.5,13-6.5,19.5c-5.4,17.6-4.8,36.3-1.9,54.6l30-0.3
	C575.4,701.2,574.2,698.2,573.1,695.1z"/>
<path class="st0" d="M559.1,427.6l0.1-0.3l0.4-1.2c-0.9-0.7-1.8-1.3-2.8-1.8c-0.2-0.2-0.5-0.3-0.7-0.5
	C557.1,425.2,558.2,426.4,559.1,427.6z"/>
<path class="st0" d="M458.1,515.7c0.4,1.2,0.8,2.5,1.3,3.7c0.1,0.3,0.3,0.7,0.4,1c0.3-0.3,0.6-0.5,0.9-0.8c-0.9-1.2-1.8-2.5-2.5-3.8
	L458.1,515.7z"/>
<path class="st0" d="M581.4,535.7c3.1-16.1,3.3-32.5,2.7-48.9c-1.5,1.4-3.5,1.9-5.5,1.6l-0.2,0c-0.2,2.6-0.7,5.2-1.5,7.7
	c-0.5,1.7-0.8,3.4-1,5.2c-2.4,16.1-4.6,33-0.6,48.6c0.3-0.9,0.8-1.8,1.5-2.5C579.5,544.1,580.6,539.8,581.4,535.7z"/>
<path class="st0" d="M136.7,709c0-5.2,0-10.5,0.1-15.7c-0.2,5.3-0.3,10.5-0.4,15.7L136.7,709z"/>
<path class="st0" d="M759.9,275.2c-0.7-3.8-1.5-7.5-2.4-11.1c-9.7-39.2-32.4-70.5-74-87.5c-3.6-1.4-7.3-2.8-11.1-4
	c-8.8-2.8-17.7-4.9-26.8-6.4c-87.2-14.6-160.6-7.6-226.7,5.5c-3.7,0.7-7.4,1.5-11.1,2.3c-92.7,19.6-171.6,49.9-255.9,47.3
	c-3.7-0.1-7.4-0.3-11.1-0.5c-36.7-2.4-74.6-11.4-115.2-30.6c-48-22.6-96.7-15-140.7,11.9c-24.8,15.2-48.1,36.5-68.9,62l-0.1,0.1
	c-2.9,3.6-5.8,7.3-8.6,11c-67.7,89.9-105.2,224.3-74.4,328.4c1.1,3.8,2.3,7.5,3.6,11.1c8.9,25.4,22.1,48.7,40.3,68.9
	c10.5,11.7,24.1,20.2,39.1,24.8c2.6,0.8,5.2,1.4,7.9,2c0.8-12.6-0.1-25.3-3.8-37.4c-2-6.6-4.8-12.9-6.6-19.6c-1.4-6-2.4-12-2.9-18.1
	c-1.6-14.7-3.2-29.3-4.8-44c-1-9.1-2-18.2-1.7-27.3c0.3-9.6,1.9-19.2,4.9-28.3c-1.4-2.7-1.7-5.8-1.9-8.9c-0.5-9.6-0.7-19.3-0.8-28.9
	c-1.6,1.4-3.1,2.8-4.7,4.1l-8.1,6.9c-1.1,1.1-2.4,1.9-3.8,2.4c-3.5,0.9-6.6-2.3-8.9-5.1s-4.8-5.9-6-9.5c-0.9-3.3-1.3-6.7-1.1-10.2
	c0.1-4.4,0.3-8.8,0.5-13.1l1.9-36.5c0.4-7,0.7-13.9,1.4-20.9c0.4-5,1.1-10.1,3.7-14.4c4.8-8,15.2-10.8,24.6-10.1
	c-0.5-0.9-0.5-2-0.1-3c0.6-0.9,1.4-1.6,2.4-2l13.9-7.4c1-0.6,2.1-1,3.3-1.1c0.6,0,1.2,0.1,1.8,0.4l2.7-1.9c0.6-0.5,1.3-0.8,2-1.1
	c0.9-0.2,1.9-0.2,2.7,0.1c0.7-1.3,1.1-2.8,1.1-4.3c-0.1-1.9-0.5-3.7-1.2-5.5c-6.5-4.9-10.4-12.6-10.5-20.8c-3-1.7-6.9-2.6-8.1-6.2
	c-0.8-2.4,0.2-5.1-0.2-7.6c-0.7-0.7-1.2-1.5-1.5-2.3c-0.9-2.5,0.3-5.3-0.2-7.9c-0.3-1.4-1-2.8-0.7-4.3c0.3-1,0.8-1.9,1.6-2.7
	l9.8-11.6c2.2-2.6,4.4-5.2,7.4-6.7c7.1-3.7,15.7,0,23.7,0c2.7,0,5.5-0.4,8,0.5c1.8,0.7,3.5,1.8,4.9,3.1l11,9c3.7,3,7.7,6.6,8.1,11.3
	c0.1,1.4-0.1,2.9-0.6,4.2c1.3,1.6,2.1,3.6,2.3,5.7c0.3,3.3-1.4,6.5-3.2,9.2c-2.8,4.1-6.1,7.8-10,10.9c-0.9,4.7-3.1,9.1-6.3,12.7
	c0.7,3.5,1.7,6.9,2.8,10.3c0,0.1,0.1,0.1,0.1,0.2c0.9,0.1,1.8,0.4,2.6,0.9c0.8,0.6,1.5,1.3,2.2,2c0.3-0.6,0.9-1,1.5-1.2
	c1.5-0.6,3.1,0.1,4.6,0.7c4.4,2,8.9,4.1,12.5,7.3c1.3,1.2,2.4,2.6,3.3,4.1c5-0.7,10.2,0.4,14.4,3.2c7.6,5.2,10.7,14.6,13.3,23.4
	L-67,433c2.6,8.6,5.2,17.3,5.8,26.3c0.5,8.2-0.6,16.4-1.7,24.5c-1.5,11.2,2.1,23.5,2.1,34.9c0,2.9,0,5.8-0.1,8.8
	c4.1-2.5,8.9-3.6,13.6-2.9c0.8-1.6,1.9-3,3.3-4.1c3.6-3.3,8.1-5.3,12.5-7.3c1.5-0.7,3.1-1.3,4.6-0.7c0.6,0.2,1.1,0.7,1.5,1.2
	c0.6-0.7,1.4-1.4,2.2-2c0.8-0.5,1.7-0.9,2.6-0.9c0-0.1,0-0.1,0.1-0.2c1.2-3.4,2.1-6.8,2.8-10.3c-3.2-3.6-5.4-8-6.3-12.7
	c-3.9-3.1-7.2-6.7-10-10.9c-1.8-2.8-3.4-5.9-3.2-9.2c0.2-2.1,1-4,2.3-5.7c-0.5-1.4-0.7-2.8-0.6-4.2c0.4-4.8,4.4-8.3,8-11.3l11-9
	c1.4-1.3,3.1-2.4,4.9-3.1c2.5-0.9,5.3-0.5,8-0.5c8,0,16.6-3.6,23.7,0c3,1.5,5.2,4.2,7.4,6.7l9.8,11.6c0.7,0.7,1.3,1.7,1.6,2.7
	c0.3,1.4-0.5,2.8-0.7,4.3c-0.5,2.6,0.7,5.4-0.2,7.9c-0.3,0.9-0.8,1.7-1.5,2.3c-0.3,2.5,0.6,5.2-0.2,7.6c-1.2,3.5-5.1,4.5-8.1,6.2
	c-0.1,8.1-4,15.8-10.5,20.7c-0.7,1.7-1.1,3.6-1.2,5.5c0.1,1.5,0.5,3,1.1,4.3c0.9-0.3,1.8-0.4,2.7-0.1c0.7,0.3,1.4,0.6,2,1.1l2.7,1.9
	c0.6-0.3,1.2-0.4,1.8-0.4c1.2,0.1,2.3,0.5,3.3,1.2l13.9,7.4c0.6,0.3,1.2,0.7,1.7,1.1c0.1-2.7,0.2-5.4,0.4-8.1l2-36.5
	c0.4-7,0.7-13.9,1.4-20.9c0.5-5,1.1-10.1,3.7-14.4c4.8-8,15.2-10.8,24.6-10.1c-0.5-0.9-0.5-2-0.1-3c0.6-0.9,1.4-1.6,2.4-2l13.9-7.4
	c1-0.6,2.1-1,3.3-1.1c0.6,0,1.2,0.1,1.8,0.4l2.7-1.9c0.6-0.5,1.3-0.8,2-1.1c0.9-0.2,1.9-0.2,2.7,0.1c0.7-1.3,1.1-2.8,1.1-4.3
	c-0.1-1.9-0.5-3.7-1.2-5.5c-6.5-4.9-10.4-12.6-10.5-20.8c-3-1.7-6.9-2.6-8.1-6.2c-0.8-2.4,0.2-5.1-0.2-7.6c-0.7-0.7-1.2-1.5-1.5-2.3
	c-0.9-2.5,0.3-5.3-0.2-7.9c-0.3-1.1-0.6-2.3-0.8-3.4c-1.1,2.1-1.9,4.2-2.5,6.5c-1.4,5.7-1.2,11.6-2,17.4c-0.3,2-0.9,4.1-2.6,5.2
	c-1.3,0.8-3,0.8-4.4,1.3c-2.4,1-3.7,3.6-4,6.1s0.1,5.1,0.1,7.7c0,6.7-3.2,13.6-9,16.9c-7.7,4.3-17.2,1.5-25.5-1.5
	c3.7-1.3,7-3.6,9.5-6.6l-9.1-1.9c5.3-2.5,10.2-5.7,14.6-9.7c1.6-1.3,2.9-3,3.7-4.9c1-2.8,0.1-6,1-8.8c1.5-4.8,7.4-6.6,10.4-10.7
	c2.6-3.5,2.7-8.3,2.7-12.7l0-16.8c0-4.8,0.3-10.4,4.2-13.3c4.3-3.3,10.4-1.4,15.8-1.4c5.7,0,11.1-2.4,16.8-3
	c5.3-0.6,14.3,3.1,14.1,7.4c3,0.5,6,0.8,9,0.9c2.7,0,5.5-0.4,8,0.5c1.8,0.7,3.5,1.8,4.9,3.1l11,9c3.7,3,7.7,6.6,8,11.3
	c0.1,1.4-0.1,2.9-0.6,4.2c1.3,1.6,2.1,3.6,2.3,5.7c0.3,3.3-1.3,6.5-3.2,9.2c-2.8,4.1-6.1,7.8-10,10.9c-0.9,4.7-3.1,9.1-6.3,12.7
	c0.7,3.5,1.7,6.9,2.8,10.3c0,0.1,0.1,0.1,0.1,0.2c0.9,0.1,1.8,0.4,2.6,0.9c0.8,0.6,1.5,1.3,2.2,2c0.3-0.6,0.9-1,1.5-1.2
	c1.5-0.6,3.1,0.1,4.6,0.7c3.9,1.6,7.6,3.7,11,6.1c0-0.2,0-0.4,0-0.6c0.1-4.4,0.3-8.8,0.5-13.1l2-36.6c0.4-7,0.7-13.9,1.3-20.9
	c0.5-5,1.1-10.1,3.7-14.4c4.8-8,15.2-10.8,24.6-10.1c-0.5-0.9-0.5-2-0.1-3c0.6-0.9,1.4-1.6,2.4-2l13.9-7.4c1-0.6,2.1-1,3.3-1.1
	c0.6,0,1.2,0.1,1.8,0.4l2.7-1.9c0.6-0.5,1.3-0.8,2-1.1c0.9-0.2,1.9-0.2,2.7,0.1c0.7-1.3,1.1-2.8,1.2-4.3c-0.1-1.9-0.5-3.7-1.2-5.5
	c-6.5-4.9-10.4-12.6-10.5-20.8c-3-1.7-6.9-2.6-8.1-6.2c-0.8-2.4,0.2-5.1-0.2-7.6c-0.7-0.7-1.2-1.5-1.5-2.3c-0.9-2.5,0.3-5.3-0.2-7.9
	c-0.3-1.4-1-2.8-0.7-4.3c0.3-1,0.8-1.9,1.6-2.7l9.8-11.6c2.2-2.6,4.4-5.2,7.4-6.7c7.1-3.7,15.7,0,23.7,0c2.7,0,5.5-0.4,8,0.5
	c1.8,0.7,3.5,1.8,4.9,3.1l11,9c3.7,3,7.7,6.6,8,11.3c0.1,1.4-0.1,2.9-0.6,4.2c1.3,1.6,2.1,3.6,2.3,5.7c0.3,3.3-1.3,6.5-3.2,9.2
	c-2.8,4.1-6.1,7.8-10,10.9c-0.9,4.7-3.1,9.1-6.3,12.7c0.7,3.5,1.7,6.9,2.8,10.3c0,0.1,0.1,0.1,0.1,0.2c0.9,0.1,1.8,0.4,2.6,0.9
	c0.8,0.6,1.5,1.3,2.2,2c0.3-0.6,0.9-1,1.5-1.2c1.5-0.6,3.1,0.1,4.6,0.7c4.4,2,8.9,4.1,12.5,7.3c1.3,1.2,2.4,2.6,3.3,4.1
	c5.1-0.8,10.2,0.4,14.5,3.2c7.6,5.2,10.7,14.6,13.3,23.4L326,371c2.6,8.6,5.2,17.3,5.8,26.3c0.5,7.6-0.4,15.3-1.5,22.9
	c0.3-0.3,0.5-0.5,0.8-0.8c3.6-3.3,8.1-5.3,12.5-7.3c1.5-0.7,3.1-1.3,4.6-0.7c0.6,0.2,1.1,0.7,1.5,1.2c0.6-0.7,1.4-1.4,2.2-2
	c0.8-0.5,1.7-0.9,2.6-0.9c0-0.1,0-0.1,0.1-0.2c1.2-3.4,2.1-6.8,2.8-10.3c-3.2-3.6-5.4-8-6.3-12.7c-3.9-3.1-7.2-6.7-10-10.9
	c-1.8-2.8-3.4-5.9-3.2-9.2c0.2-2.1,1-4,2.3-5.7c-0.5-1.4-0.7-2.8-0.6-4.2c0.4-4.8,4.3-8.3,8-11.3l11-9c1.4-1.3,3.1-2.4,4.9-3.1
	c2.5-0.9,5.3-0.5,8-0.5c3-0.1,6-0.4,9-0.9c-0.2-4.2,8.8-8,14.1-7.4c5.7,0.6,11.1,3,16.8,3c5.4,0,11.5-1.8,15.8,1.4
	c3.8,2.9,4.2,8.5,4.2,13.3l0,16.8c0,4.4,0.1,9.1,2.7,12.7c2.9,3.9,8.3,5.7,10.2,10c2.3-5.8,5.3-11.2,10.4-14.7
	c4.2-2.8,9.3-4,14.3-3.3c0.8-1.6,1.9-3,3.3-4.1c3.6-3.3,8.1-5.3,12.5-7.3c1.5-0.7,3.1-1.3,4.6-0.7c0.6,0.2,1.1,0.7,1.5,1.2
	c0.6-0.7,1.4-1.4,2.2-2c0.8-0.5,1.7-0.9,2.6-0.9c0-0.1,0-0.1,0.1-0.2c1.2-3.4,2.1-6.8,2.8-10.3c-3.2-3.6-5.4-8-6.3-12.7
	c-3.9-3.1-7.2-6.7-10-10.9c-1.8-2.8-3.4-5.9-3.2-9.2c0.2-2.1,1-4,2.3-5.7c-0.5-1.4-0.7-2.8-0.6-4.2c0.4-4.8,4.3-8.3,8-11.3l11-9
	c1.4-1.3,3.1-2.4,4.9-3.1c2.5-0.9,5.3-0.5,8-0.5c3-0.1,6-0.4,9-0.9c-0.2-4.2,8.8-8,14.1-7.4c5.7,0.6,11.1,3,16.8,3
	c5.4,0,11.5-1.8,15.8,1.4c3.8,2.9,4.2,8.5,4.2,13.3l0,16.8c0,4.4,0.1,9.1,2.7,12.7c3,4.1,8.9,5.9,10.4,10.7c0.9,2.8,0,6,1,8.8
	c0.8,1.9,2.1,3.6,3.7,4.9c2.2,2,4.6,3.9,7.2,5.5c0.4-1.3,1.1-2.6,1.9-3.7c-0.5-1.4-0.7-2.8-0.6-4.2c0.4-4.8,4.3-8.3,8-11.3l11-9
	c1.4-1.3,3.1-2.4,4.9-3.1c2.5-0.9,5.3-0.5,8-0.5c8,0,16.6-3.6,23.7,0c3,1.5,5.2,4.2,7.4,6.7l9.8,11.6c0.7,0.7,1.3,1.7,1.6,2.7
	c0.3,1.4-0.4,2.8-0.7,4.3c-0.5,2.6,0.7,5.4-0.2,7.9c-0.3,0.9-0.8,1.7-1.5,2.3c-0.3,2.5,0.7,5.2-0.2,7.6c-1.2,3.5-5.1,4.5-8.1,6.2
	c-0.1,8.1-4,15.8-10.4,20.7c-0.7,1.7-1.1,3.6-1.2,5.5c0.1,1.5,0.5,3,1.2,4.3c0.9-0.3,1.8-0.4,2.7-0.1c0.7,0.3,1.4,0.6,2,1.1l2.7,1.9
	c0.6-0.3,1.2-0.4,1.8-0.4c1.2,0.1,2.3,0.5,3.3,1.1l13.9,7.4c1,0.4,1.8,1.1,2.4,2c0.4,1,0.4,2.1-0.1,3c9.4-0.7,19.8,2.1,24.6,10.1
	c2.6,4.3,3.2,9.4,3.7,14.4c0.6,6.9,1,13.9,1.3,20.9l1.9,36.6c0.2,4.4,0.4,8.8,0.5,13.2c0.2,3.4-0.1,6.9-1.1,10.2
	c-1.2,3.5-3.6,6.5-6,9.5c-2.4,2.9-5.4,5.9-8.9,5.1c-1.4-0.5-2.7-1.3-3.8-2.4l-8.1-6.9c-1.6-1.3-3.1-2.7-4.7-4.1
	c-0.1,9.7-0.3,19.3-0.8,28.9c-0.2,3-0.4,6.2-1.8,8.9c3,9.2,4.6,18.7,4.9,28.3c0.1,7.9-0.4,15.7-1.3,23.5c0.8-1.8,1.7-3.6,2.5-5.4
	C726.8,503.3,777,369.5,759.9,275.2z"/>
<path class="st0" d="M-192.4,451.9l-2.6,9.9c0.5-0.6,1-1.3,1.5-1.9c0-2.5,0.4-4.9,1.4-7.2c1.1-2.1,2.9-3.9,4.3-5.8
	c-0.2,0.2-0.4,0.3-0.7,0.5c-1.1,0.5-2.1,1.1-3,1.9C-191.9,450.1-192.3,451-192.4,451.9z"/>
<path class="st0" d="M420.8,496.9c0.5,0.6,1,1.2,1.5,1.9l-2.6-9.9c-0.2-0.9-0.5-1.8-1.1-2.5c-0.9-0.8-1.9-1.4-3-1.9
	c-0.2-0.2-0.5-0.3-0.7-0.5c1.5,1.9,3.3,3.6,4.3,5.8C420.3,492,420.8,494.4,420.8,496.9z"/>
<path class="st0" d="M577.8,557.3c0.3-0.3,0.6-0.5,0.9-0.8c-0.9-1.2-1.8-2.5-2.5-3.8l-0.1-0.1c0.4,1.2,0.8,2.5,1.3,3.7
	C577.6,556.7,577.7,557,577.8,557.3z"/>
<path class="st0" d="M317.1,575.7c0.4,1.2,0.8,2.5,1.3,3.7c0.1,0.3,0.3,0.7,0.4,1c0.3-0.3,0.6-0.5,0.9-0.8c-0.9-1.2-1.8-2.5-2.5-3.8
	L317.1,575.7z"/>
<path class="st0" d="M403.4,381.9c-0.1,8.1-4,15.8-10.5,20.7c-0.7,1.7-1.1,3.6-1.2,5.5c0.1,1.5,0.5,3,1.2,4.3
	c0.9-0.3,1.8-0.4,2.7-0.1c0.7,0.3,1.4,0.6,2,1.1l2.7,1.9c0.6-0.3,1.2-0.4,1.8-0.4c1.2,0.1,2.3,0.5,3.3,1.1l13.9,7.4
	c1,0.4,1.8,1.1,2.4,2c0.4,1,0.4,2.1-0.1,3c3-0.2,6-0.1,8.9,0.4c1.1-5.6,2.5-11.1,4.2-16.5c-3.3-3.8-5.1-8.7-5.1-13.7
	c0-2.6,0.4-5.1,0.1-7.7s-1.7-5.1-4-6.1c-1.4-0.6-3.1-0.5-4.4-1.3c-1.7-1-2.3-3.2-2.6-5.2c-0.9-5.8-0.6-11.7-2-17.4
	c-0.6-2.3-1.4-4.4-2.5-6.5c-0.2,1.2-0.4,2.3-0.8,3.4c-0.5,2.6,0.7,5.4-0.2,7.9c-0.3,0.9-0.8,1.7-1.5,2.3c-0.3,2.5,0.7,5.2-0.2,7.6
	C410.2,379.3,406.4,380.2,403.4,381.9z"/>
<path class="st0" d="M457.9,464.2c-2.4,16.1-4.6,33-0.6,48.6c0.3-0.9,0.8-1.8,1.5-2.5c2.7-3.3,3.7-7.5,4.5-11.7
	c4.9-25.6,2.5-51.8,1.4-77.9l-2.1,2.5c-0.8,0.8-1.5,1.7-2,2.6c-0.5,1.2-0.8,2.5-0.8,3.8c-0.2,3.1-0.1,6.1,0.3,9.2
	c1,6.7,0.6,13.6-1.2,20.1C458.5,460.7,458.2,462.5,457.9,464.2z"/>
<path class="st0" d="M442.7,547c-1.4,1.2-3.3,1.7-5.1,1.3c-1.4-0.5-2.7-1.3-3.8-2.4l-8-6.9c-1.6-1.3-3.2-2.7-4.7-4.1
	c-0.1,9.7-0.3,19.3-0.8,28.9c-0.2,3-0.4,6.2-1.8,8.9c3,9.2,4.6,18.7,4.9,28.3c0.2,9.1-0.7,18.2-1.7,27.3c-1.6,14.7-3.2,29.3-4.8,44
	c-0.5,6.1-1.5,12.2-2.9,18.1c-1.4,5.3-3.5,10.4-5.3,15.6l10.2-0.1l13-0.1h1.6l22-0.2c0,0,0,0,0-0.1c1.7-9.6,6.3-18.9,5.4-28.7
	c-0.6-6.5-3.6-12.5-5.7-18.7c-9.1-27.1,0-57.2-6.6-85c-1.5-6.4-3.8-13.3-1-19.2l-4.2-1.3c0.6-1.3,1.2-2.6,1.7-4
	C444.3,548.3,443.5,547.7,442.7,547z"/>
<path class="st0" d="M362.5,686.3c0,6.8,0.1,13.5,0.1,20.3h0.4L362.5,686.3z"/>
<path class="st0" d="M621.5,663.3c0.1,10.2,0.1,20.4,0.2,30.6l0.7-0.4C622.1,683.4,621.8,673.3,621.5,663.3z"/>
<path class="st0" d="M597.3,347.1l-1.7,0.3c0.9,1.1,2,2.1,3.1,3C598.1,349.4,597.6,348.3,597.3,347.1z"/>
<path class="st0" d="M503.5,626.3l0.3,44.1c0.1,3.6-0.1,7.1-0.7,10.7c-0.6,2.9-1.7,5.8-2.3,8.7c-0.9,4.2-0.8,8.5-0.7,12.8
	c0,0.9,0,1.7,0,2.6l5.7-0.1C505,678.8,504.2,652.5,503.5,626.3z"/>
<path class="st0" d="M679.8,473.9c0.5,0.6,1,1.2,1.5,1.9l-2.6-9.9c-0.2-0.9-0.5-1.8-1.1-2.5c-0.9-0.8-1.9-1.4-3-1.9
	c-0.2-0.2-0.5-0.3-0.7-0.5c1.5,1.9,3.3,3.6,4.3,5.8C679.3,468.9,679.8,471.4,679.8,473.9z"/>
<path class="st0" d="M544.4,321.9c-0.1,8.1-4,15.8-10.4,20.7c-0.7,1.7-1.1,3.6-1.2,5.5c0.1,1.5,0.5,3,1.2,4.3
	c0.9-0.3,1.8-0.4,2.7-0.1c0.7,0.3,1.4,0.6,2,1.1l2.7,1.9c0.6-0.3,1.2-0.4,1.8-0.4c1.2,0.1,2.3,0.5,3.3,1.1l13.9,7.4
	c1,0.4,1.8,1.1,2.4,2c0.4,1,0.4,2.1-0.1,3c9.4-0.7,19.8,2.1,24.6,10.1c2.6,4.3,3.2,9.4,3.7,14.4c0.1,0.9,0.2,1.8,0.2,2.7
	c3.4-2.8,7.5-4.7,11.6-6.6c1.4-0.7,3.1-1.3,4.6-0.7c0.6,0.2,1.1,0.7,1.5,1.2c0.6-0.7,1.4-1.4,2.2-2c0.8-0.5,1.7-0.9,2.6-0.9
	c0-0.1,0-0.1,0.1-0.2c1.2-3.4,2.1-6.8,2.8-10.3c-3.2-3.6-5.4-8-6.3-12.7c-3-2.4-5.8-5.2-8.1-8.3c-7.5,2.4-15.6,4.1-22.3,0.4
	c-5.8-3.3-9-10.2-9-16.9c0-2.6,0.4-5.1,0.1-7.7s-1.7-5.1-4-6.1c-1.4-0.6-3.1-0.5-4.4-1.3c-1.7-1-2.3-3.2-2.6-5.2
	c-0.9-5.8-0.6-11.7-2-17.4c-0.6-2.3-1.4-4.4-2.5-6.5c-0.2,1.2-0.4,2.3-0.8,3.4c-0.5,2.6,0.7,5.4-0.2,7.9c-0.3,0.9-0.8,1.7-1.5,2.3
	c-0.3,2.5,0.7,5.2-0.2,7.6C551.2,319.3,547.4,320.2,544.4,321.9z"/>
<path class="st1" d="M382.7,688v24h-515v-24c0-3.9,3.1-7,7-7h501C379.5,681,382.7,684.2,382.7,688z"/>
<path class="st2" d="M187.4,331.3c3.8,3.9,7.5,8.5,8.2,13.9c-8.1,2.1-16.5-1.9-24.1-5.4c-23.5-11.1-48.4-19.1-74-23.9
	c-2-0.4-4.1-0.8-5.6-2.2c-2.9-2.6-2.3-9.2,0.3-11.9c2.9-2.9,8.1-2.5,12-2.7C135.3,297.6,165.5,309.3,187.4,331.3L187.4,331.3z"/>
<path class="st3" d="M357,712H152.5c-2.7-6.2-4.9-12.7-6.4-19.3c-0.5-2.1-1-4.1-1.5-6.2c-0.4-1.8-0.8-3.7-1.2-5.5
	c-1.2-5.5-2.2-11-3-16.5c-0.8-5.2-1.5-10.4-2-15.7c-0.5-5-0.9-10-1.2-15.1c0-0.1,0-0.3,0-0.4c-0.1-2.4,0-5,1.6-6.7
	c1.4-1.5,3.6-1.8,5.7-1.9c17-1.2,33.5,5,50.5,4.1c4.6-0.3,8.3-1,12.6-0.1c0.7,0.1,1.3,0.3,2,0.5c1,0.3,1.9,0.6,2.9,1
	c6.5,2.3,12.6,5.3,19.6,6.6c11.9,2.3,24.2,1.8,36.3,2.7c1,0.1,2,0.1,3,0.2c1.2,0.1,2.5,0.2,3.7,0.4c10.4,1.4,20.5,3.9,30.3,7.6
	c5.3,1.9,10.5,4.1,15.6,6.4c1.5,0.7,2.9,1.3,4.4,2c2.6,1.2,5.2,2.5,7.8,3.9c1,0.5,2,1.1,2.9,1.6c7.8,4.5,14.8,10.1,18.9,17.7
	c0.3,0.6,0.6,1.1,0.9,1.7c0.3,0.6,0.5,1.1,0.7,1.6C360,691.9,358.8,701.9,357,712z"/>
<path class="st4" d="M357,712H152.5c-2.7-6.2-4.9-12.7-6.4-19.3c-0.5-2.1-1-4.1-1.5-6.2c-0.4-1.8-0.8-3.7-1.2-5.5
	c-1.2-5.5-2.2-11-3-16.5c-0.8-5.2-1.5-10.4-2-15.7c-0.5-5-0.9-10-1.2-15.1c0-0.1,0-0.3,0-0.4c-0.1-2.4,0-5,1.6-6.7
	c1.4-1.5,3.6-1.8,5.7-1.9c17-1.2,33.5,5,50.5,4.1c4.6-0.3,8.3-1,12.6-0.1c0.7,0.1,1.3,0.3,2,0.5c1,0.3,1.9,0.6,2.9,1
	c6.5,2.3,12.6,5.3,19.6,6.6c11.9,2.3,24.2,1.8,36.3,2.7c1,0.1,2,0.1,3,0.2c1.2,0.1,2.5,0.2,3.7,0.4c10.4,1.4,20.5,3.9,30.3,7.6
	c5.3,1.9,10.5,4.1,15.6,6.4c1.5,0.7,2.9,1.3,4.4,2c2.6,1.2,5.2,2.5,7.8,3.9c1,0.5,2,1.1,2.9,1.6c7.8,4.5,14.8,10.1,18.9,17.7
	c0.3,0.6,0.6,1.1,0.9,1.7c0.3,0.6,0.5,1.1,0.7,1.6C360,691.9,358.8,701.9,357,712z"/>
<path class="st3" d="M170.3,712H-60.2c-5.2-5.7-8.6-13.1-7.7-20.7c0.3-3.1,0.8-6.3,1.6-9.3c0.1-0.3,0.2-0.7,0.3-1
	c1.5-5.8,5.1-10.8,10.2-14c9.1-5.8,20-8.1,30-11.9c5.4-2,10.5-4.5,15.9-6.5c7.7-2.8,15.7-4.8,23.8-6.1c0.9-0.2,1.8-0.3,2.7-0.4
	s1.9-0.3,2.8-0.4c5-0.7,10-1.3,15-1.9c11-1.3,22.2-2.6,33.2-1.6c8.8,0.9,17.6,2.9,25.9,5.8c6.3,2.1,12.6,4.6,18.8,7
	c9.7,3.8,19.4,7.7,28,13.5c0.8,0.5,1.5,1,2.2,1.5c5.7,4.2,10.8,9.2,14.9,15c2.4,3.3,4.5,6.8,6.3,10.5
	C167,697.9,169.2,704.8,170.3,712z"/>
<path class="st5" d="M104.6,308.8c-3.8,8.3-10.2,15.8-18.8,18.9c-4.6,1.6-9.5,1.9-14.2,3.2s-9.4,4.1-11,8.6c-0.6,2-0.9,4.1-0.9,6.1
	c-0.7,19.5-1.3,39.9,6.5,57.8c6.8,15.5,19.1,27.7,31.3,39.4c14.3,13.6,29.4,27.5,48.3,33.6c11,3.5,23.9,3.9,33.1-3.1
	c3.7-2.9,6.5-6.8,9.3-10.7c6-8.5,12.1-17.2,15.9-27c7.8-20,5.1-42.3,2.4-63.5c0-1.3-0.5-2.5-1.3-3.4c-1.1-0.9-2.6-0.8-4-0.7
	c-9.7,0.6-20.3-4.4-23.6-13.6c-1.4-4-1.4-8.3-1.3-12.5l0.4-24.2c0-2.6,0.1-5.3-0.9-7.7c-1.7-4.2-6-6.7-10.1-8.7
	c-13.3-6.6-27.1-12.1-41.3-16.3c-6.2-1.8-11-4.9-13.7,1.8C107.7,293.7,107.8,301.8,104.6,308.8z"/>
<path class="st4" d="M104.6,308.8c-3.8,8.3-10.2,15.8-18.8,18.9c-4.6,1.6-9.5,1.9-14.2,3.2s-9.4,4.1-11,8.6c-0.6,2-0.9,4.1-0.9,6.1
	c-0.7,19.5-1.3,39.9,6.5,57.8c6.8,15.5,19.1,27.7,31.3,39.4c14.3,13.6,29.4,27.5,48.3,33.6c11,3.5,23.9,3.9,33.1-3.1
	c3.7-2.9,6.5-6.8,9.3-10.7c6-8.5,12.1-17.2,15.9-27c7.8-20,5.1-42.3,2.4-63.5c0-1.3-0.5-2.5-1.3-3.4c-1.1-0.9-2.6-0.8-4-0.7
	c-9.7,0.6-20.3-4.4-23.6-13.6c-1.4-4-1.4-8.3-1.3-12.5l0.4-24.2c0-2.6,0.1-5.3-0.9-7.7c-1.7-4.2-6-6.7-10.1-8.7
	c-13.3-6.6-27.1-12.1-41.3-16.3c-6.2-1.8-11-4.9-13.7,1.8C107.7,293.7,107.8,301.8,104.6,308.8z"/>
<circle class="st5" cx="170.2" cy="254.5" r="74"/>
<path class="st6" d="M177.2,370.5l-8.3,20.5c-1.9,4.6-3.8,9.3-6.7,13.4c-7.9,11.3-23.6,16.4-36.7,12.1c-12.3-4.1-23.3-15.6-36-12.8
	c-6.6,1.4-11.9,6.7-14.8,12.8s-3.9,12.9-4.5,19.6c-2.9,31.1,0.1,62.5,8.8,92.6c0.9,3.1,2,6.3,4.4,8.5c2.9,2.6,7.1,2.9,11,3.2
	c18,1.1,36,1.7,54.1,1.9c11.1,0.1,22.2,0.1,33.2-1.6c11-1.7,21.5-5,32.3-7.2c10.1-2,20.5-2.9,30.3-5.8c1.6-0.5,3.3-1.1,4.3-2.4
	c0.8-1.3,1.1-2.8,1-4.3c0-5.8-1.8-11.4-3.7-16.8c-5-13.8-10.8-27.4-13.6-41.9c-3.8-19.9-1.6-40.3-2-60.5c-0.1-7.2-0.6-14.6-3.1-21.4
	s-7.2-13.1-13.8-16C201.9,359.3,182.7,357.1,177.2,370.5z"/>
<path class="st2" d="M139.2,467.7c-5.3-4.5-5-12.5-5.6-19.4c-1.1-12.9-6.8-25-12.3-36.8l-16.5-35.2c-6.9-14.7-14-31.4-8.3-46.5
	c1.9-5.1,5.2-9.7,6.9-14.9s1.3-11.7-2.9-15.1c-5.4-4.4-13.4-1.4-19.6,1.9c-11.3,6.1-22.1,12.9-32.5,20.5c-2.8,2-5.8,4.4-6.7,7.7
	c-0.6,2.1-0.3,4.4-1.1,6.4c-1.6,4-6.4,5.2-10.6,6.1c-34.6,8-64.3,29.8-82.3,60.4c-2.9,4.9-5.3,10.2-7,15.6c-2,7-2.5,14.3-3,21.5
	c-1.3,18.6-2.5,37.2-3.7,55.8c-0.5,8.2-1,16.7,1.2,24.6c1.5,5.1,4,9.9,5.1,15.1c2.2,10.8-2.4,21.8-8.2,31.3s-12.9,18.2-16.5,28.6
	c-2.1,6.6-3.2,13.5-3.2,20.4c-0.5,23.4,6,46.4,18.6,66.1c12.3,1.8,21.5-10.4,32.8-15.6c16.5-7.6,37.5-1.5,53-10.9
	c3.8-2.3,7.1-5.4,11.1-7.3c3.6-1.7,7.7-2.3,11.7-2.9c14.7-2.1,29.7-4.1,44.5-2.5c21,2.3,42.7,11.6,62.5,4.1
	c4.9-1.9,9.3-4.7,14.2-6.5c18-6.7,38,1.3,57.2-0.2c-3-0.2-4.3-3.6-4.9-6.6c-1.3-6.6-2.4-13.3-3.3-20c-0.8-5.8-1.6-11.8-0.3-17.5
	c1.2-5.3,4.1-10,6.6-14.9c7.7-15.3,11-32.5,17.6-48.3c3.2-7.5,7-14.7,10.7-22c15.1-29.8,26.9-61.2,35.1-93.6
	c-8.7-15.7-16.6-32-25.4-47.7c-2.5-4.5-5.1-9.2-9-12.7c-5.5-5.1-13-7.3-20.3-9.3c-6.2-1.8-12.5-3.5-19-3.6s-24.8-6.8-29.1-2.1
	c-4.5,4.9,5.7,20.6,5.4,27.3s0.5,13.4-0.6,19.9c-1.6,9.6-7,18.1-9.5,27.5c-1,4.4-1.7,8.9-2.2,13.4c-1.6,10.1-4.3,20-7.9,29.6
	c-0.7,2-1.6,3.9-2.9,5.6C154.1,471.1,146.5,468.9,139.2,467.7z"/>
<path class="st5" d="M286.1,573c1.9,2.3,4.5,3.9,6.8,5.8c9.3,7.3,14.7,18.3,22.9,26.7c4.1,4.3,8.9,7.8,13.3,11.8
	c10.2,9.3,18.1,20.8,25.9,32.2c2,2.9,4,5.9,5,9.2c1.8,5.8,0.3,12.2-2.9,17.3c-3.2,5.1-8,9-13.2,12.1c-2.7,1.6-5.5,3-8.5,4.2
	c-6,2.4-11.7-4.2-8.3-9.7c2.1-3.5,4.1-7,5.9-10.7c1.1-2,1.8-4.3,1.9-6.6c-0.1-4.1-3.3-7.5-7-9.3c-3.7-1.7-7.9-2-11.9-2.5
	c-22.9-2.8-44.7-11.4-63.2-25.2c-10.5-7.8-20.6-19.2-19-32.2c1.2-9.7,8.9-17.4,17.3-22.3c6.8-4,14.3-6.7,22.2-8
	c2.2-0.4,7.7-1.9,9.7-0.3C284.8,566.8,284.4,571,286.1,573z"/>
<path class="st4" d="M286.1,573c1.9,2.3,4.5,3.9,6.8,5.8c9.3,7.3,14.7,18.3,22.9,26.7c4.1,4.3,8.9,7.8,13.3,11.8
	c10.2,9.3,18.1,20.8,25.9,32.2c2,2.9,4,5.9,5,9.2c1.8,5.8,0.3,12.2-2.9,17.3c-3.2,5.1-8,9-13.2,12.1c-2.7,1.6-5.5,3-8.5,4.2
	c-6,2.4-11.7-4.2-8.3-9.7c2.1-3.5,4.1-7,5.9-10.7c1.1-2,1.8-4.3,1.9-6.6c-0.1-4.1-3.3-7.5-7-9.3c-3.7-1.7-7.9-2-11.9-2.5
	c-22.9-2.8-44.7-11.4-63.2-25.2c-10.5-7.8-20.6-19.2-19-32.2c1.2-9.7,8.9-17.4,17.3-22.3c6.8-4,14.3-6.7,22.2-8
	c2.2-0.4,7.7-1.9,9.7-0.3C284.8,566.8,284.4,571,286.1,573z"/>
<path class="st7" d="M202.7,212.7c-10,10.2-26.1,10.7-40.4,10.4l0.5-5.6l-20.1,7.2c5.2-3.9,9.7-8.7,13.2-14.1
	c-2.6-2.3-6.7-2.2-9.8-0.6s-5.4,4.4-7.3,7.3c-11.6,17.3-14.3,39.1-7.3,58.8c-4,2.2-9.1,1.6-12.9-0.9s-6.5-6.4-8.3-10.5
	c-1.2-2.7-2.4-5.9-5.3-6.8c-2.4-0.7-5,0.7-6.3,2.9c-1.2,2.2-1.7,4.7-1.4,7.2c0.4,5.8,4.6,11.3,5.5,17.1s9.5,10.2,5,14
	c-1.3,1.1-14.4,4.1-16.1,3.8c-2.3-0.4-3.7-2.5-4.7-4.6c-4.5-9.8-2.9-21.3-5.5-31.8c-2.1-8.4-6.9-15.9-11.7-23.2
	c-1.3-2.1-2.8-4.1-4.5-5.9c-1.6-1.5-3.5-2.9-4.3-4.9s0.6-5,2.8-4.7c-3.5-3.4-7.3-6.5-11.3-9.3c4-5,7.8-10.1,11.6-15.2
	c1.3-1.8,2.6-4,1.7-6c-0.6-0.9-1.3-1.7-2.3-2.2l-10.3-7c-0.2-4.8,9.4-3,10.9-7.5c0.3-1.2,0.2-2.4-0.3-3.6l-3.5-12.8l13.4,6.1
	c1.6,0.7,3.4,1.5,5.1,1.2c3.5-0.5,5.2-4.7,5.4-8.3s-0.4-7.4,1.4-10.5c6.1-0.2,12.1-0.2,18.1,0.1c0.4-3-0.4-6.1-2.3-8.6l44.7-2.5
	c7.6-0.4,15.5-0.8,22.7,1.6c2.5,0.8,4.9,2,7.5,1.7s5.2-2.7,4.4-5.1c6.7,3.8,12.8,8.5,18.2,14c1.4,1.7,3.2,3.2,5.2,4.3
	c2,0.9,4.7,0.9,6.3-0.8c1.2-1.3,1.8-3.6,3.6-3.7c1.1,0,2,0.9,2.7,1.8c2.6,3.3,4.6,6.9,6.2,10.7c3.2-0.4,6.3-1.3,9.3-2.5
	c-3.1,2.6-3.2,7.5-1.7,11.3s4.2,7,6,10.6c1.8,3.9,3,8.1,3.6,12.3c0.9,5.3,0.9,12.1-3.8,14.7c-4.1,2.3-9.2-0.1-13-3
	C213.1,201.8,211.1,204.1,202.7,212.7z"/>
<path class="st8" d="M255,685.2l69.3-6.3c5.8-0.5,10.1-5.5,9.8-11.3l0-1c-0.2-4.6-3.3-8.5-7.7-9.8l-11.2-3.4c-1-0.3-2.1-0.5-3.1-0.5
	h-25.4c-0.7,0-1.4,0.1-2.1,0.2c-5.4,1.1-30.1,5.9-31,6.8c-0.5,0.5-3.4,2.7-6.3,4.8c-3.5,2.6-5.1,7-4.1,11.2l0.2,0.9
	C244.7,682.1,249.6,685.7,255,685.2z"/>
<path class="st6" d="M221.2,663.5l28-8l52-7c0,0,33-9,36,19l-2.8,4.7c0,0,2.8-17.7-31.2-12.7c0,0-61.1-2-58.6,22
	C244.6,681.5,223.2,677.5,221.2,663.5z"/>
<ellipse class="st6" cx="259.2" cy="645.5" rx="7" ry="1"/>
<rect x="316.7" y="646" class="st6" width="5" height="9"/>
<rect x="256.7" y="646" class="st6" width="5" height="9"/>
<ellipse transform="matrix(-0.9338 -0.3577 0.3577 -0.9338 384.876 1359.1019)" class="st6" cx="318.1" cy="644" rx="8" ry="2.5"/>
<path class="st5" d="M35.2,662c2.1,2.2,4.3,4.5,7.1,5.9c2.7,1.2,5.6,2,8.6,2.3c30.3,4.7,60.5,9.9,90.6,15.7c8.5,1.6,17,3.3,25,6.6
	c4.1,1.7,8,3.8,12,5.6c23,10.1,49,9.4,74.1,8.6c4.9-0.2,10-0.4,14.4-2.4c3.3-1.5,6.3-4.4,6.6-8c0.5-6.3-6.6-10-12.3-12.7
	c-13.6-6.4-25.5-16.9-32.7-30.2c-1.3-2.3-2.3-5.5-0.5-7.5c1.3-1.5,3.6-1.5,5.7-1.4c8.4,0.3,16.8,0.2,25.2-0.3
	c4.3-0.3,10.1-2.3,9.4-6.6c-0.3-1.8-1.8-3.2-3.3-4.4c-7.6-6.4-16.2-12.9-26-12.7c-5.2,0.1-10.1,2.1-15,3.8
	c-26.2,8.9-54.4,9.4-82,9.2c-6.8,0-13.6-0.1-20.2-1.5c-5.4-1.3-10.8-3-15.9-5.1C89.1,620.4,72.3,614,56.7,605
	c-6.2-3.6-13-7.7-19.9-5.8c-3.1,1-5.9,2.7-8.2,5c-8.2,7.4-15.1,16.5-12.8,27.8C18.2,643.9,27.1,653.5,35.2,662z"/>
<path class="st2" d="M30.7,468.9c2.6,8.4,4.1,17.2,8.5,24.7c4.7,8,12.5,14.2,15.3,23.1c1.9,6.3,1,13,1,19.6c0,7.5,1.4,15.2,5.5,21.4
	c2.1,3.1,4.8,5.8,7.2,8.7c10.5,13,13.8,30.4,15.1,47c-10-5.7-21.7-11.5-32.5-7.6c-4.4,1.6-8.1,4.6-11.5,7.8
	c-6.7,6.1-12.8,12.8-18.2,20c-2.9,3.8-5.7,8.4-4.4,12.9c-5.9-8.6-11.9-17.3-16.5-26.7c-3.3-6.8-5.8-13.9-9.7-20.3
	c-4.9-8.1-11.9-14.7-17.7-22.1c-13.1-16.7-20.4-37.4-24-58.3c-3.6-20.9-3.7-42.3-3.6-63.5c0-7,0.1-14.3,3.1-20.6
	c1.8-3.8,4.4-7.1,7.1-10.3c3.4-4.1,6.8-8.3,11.4-11c14.5-8.6,30.1,5.6,39.9,15.3C17.7,440.1,26,453.8,30.7,468.9z"/>
<path class="st2" d="M281.4,420.9c1.3,1.2,2.4,2.7,3.2,4.4c0.8,2,0.6,4.2,0.4,6.3c-0.9,12.7,0,25.4,2.7,37.9
	c1.6,7.5,3.7,16.2-1.1,22.2c-0.7,0.8-1.4,1.6-2,2.5c-2.2,4.2,1.9,8.7,5,12.3c9.5,11,11,28.2,3.7,40.8c-1.4,2.4-3.1,4.7-3.9,7.3
	c-0.5,2.2-0.7,4.4-0.6,6.6l0,16.7c-10.5-1.4-22.3-2.5-30.7,3.9c-7.1,5.4-10,14.8-16,21.3c-5.9,6.3-15,10.4-17.3,18.7l0.1-34.6
	c0.1-4.6-0.1-9.2-0.7-13.7c-1.2-7.2-4.3-13.8-6.1-20.9c-2.4-9.2-2.5-18.8-2.7-28.3c-0.2-15.7-0.5-31.5,2.8-46.8
	c1.3-6.2,3.2-12.4,4.7-18.6c2.7-11.2,4-22.9,8.7-33.4s13.8-20.1,25.2-21.2C268.8,403.2,273.9,413.1,281.4,420.9z"/>
<ellipse transform="matrix(-0.5 -0.866 0.866 -0.5 -69.5725 1227.8176)" class="st5" cx="319.7" cy="634" rx="13" ry="7"/>
<ellipse transform="matrix(-0.5 -0.866 0.866 -0.5 -69.5725 1227.8176)" class="st4" cx="319.7" cy="634" rx="13" ry="7"/>
</svg>
