<?xml version="1.0" encoding="utf-8"?>
<!-- Generator: Adobe Illustrator 19.0.0, SVG Export Plug-In . SVG Version: 6.00 Build 0)  -->
<svg version="1.1" id="d73490ac-7a9f-41f3-9c2f-a04fe0e68190"
	 xmlns="http://www.w3.org/2000/svg" xmlns:xlink="http://www.w3.org/1999/xlink" x="0px" y="0px" viewBox="-311 5.7 976.7 840.3"
	 style="enable-background:new -311 5.7 976.7 840.3;" xml:space="preserve">
<style type="text/css">
	.st0{opacity:0.1;fill:#6C63FF;enable-background:new    ;}
	.st1{fill:none;stroke:#535461;stroke-width:2;stroke-miterlimit:10;}
	.st2{fill:#6C63FF;}
	.st3{fill:#FC6681;}
	.st4{fill:url(#SVGID_1_);}
	.st5{fill:#555388;}
	.st6{fill:#603556;}
	.st7{opacity:0.1;enable-background:new    ;}
	.st8{fill:url(#SVGID_2_);}
	.st9{fill:#535461;}
	.st10{fill:#E2E2EC;}
	.st11{opacity:0.1;fill:none;stroke:#000000;stroke-width:2;stroke-miterlimit:10;enable-background:new    ;}
	.st12{fill:none;stroke:#E2E2EC;stroke-width:2;stroke-miterlimit:10;}
	.st13{fill:#C87486;}
	.st14{fill:none;}
	.st15{fill:#DFE5EE;}
	.st16{fill:#603456;}
</style>
<title>gaming</title>
<path class="st0" d="M579.3,461.7c-37.9,64.7-32.8,151.7-18,220.1c4.9,22.9,10.7,47,5.6,72.9c-6.3,31.6-27.3,56.8-48.4,71.3
	c-38.4,26.5-81.7,26.7-112.7,0.5c-26.8-22.7-43.9-62.8-71.3-84.3c-45.8-35.8-110.1-12.2-166.2,23.4c-39.7,25.2-83.5,57-119.4,40.3
	c-25.3-11.8-40.5-46.1-47.2-83.7c-3.2-18.1-5-38-13-51.7c-4.7-8.2-11.3-13.5-18.2-17.9c-62.8-40-149.5-3.6-209.9-49.1
	c-40.8-30.7-63.1-95.4-69.4-165s1.4-144.3,10.9-218c6.7-52.3,15.5-108.4,41.7-151.4c27.8-45.5,70.6-66.5,107.4-63s68.3,28,95.4,58.2
	C-19.6,102,10.6,150.4,55,161.9c30.3,7.8,63.7-2.7,96.1-8.9c54.2-10.4,107.4-8.9,160.2-6.5c50.6,2.3,101.4,5.3,148.2,23.6
	c33.1,12.9,58.2,40.6,89,58.4c20.1,11.6,43,12.6,61.6,28.2c22.9,19.2,42.4,55.1,32.1,101.3C632.4,401.9,599.5,427.3,579.3,461.7z"/>
<path class="st1" d="M-148.3,665.7c0,0-66.7-110.5-48-209.7c7.9-41.6,2.8-84.7-15.9-122.7c-8.9-18-19.4-35.2-31.4-51.3"/>
<path class="st2" d="M-232.1,219.5c3.9,14.7-11.6,64.2-11.6,64.2s-37.7-35.6-41.6-50.3c-3.9-14.7,4.9-29.7,19.6-33.6
	C-251,196-235.9,204.7-232.1,219.5L-232.1,219.5L-232.1,219.5z"/>
<path class="st2" d="M-166.8,289.2c-4.7,14.4-44.6,47.6-44.6,47.6s-12.4-50.4-7.6-64.8c4.5-14.5,20-22.5,34.4-18
	c14.5,4.5,22.5,20,18,34.4C-166.6,288.7-166.7,289-166.8,289.2L-166.8,289.2z"/>
<path class="st2" d="M-132.2,428.7c-11.4,10-62.6,18.6-62.6,18.6s14.8-49.7,26.1-59.8c11.5-9.9,28.9-8.6,38.8,2.9
	C-120.2,401.7-121.2,418.7-132.2,428.7L-132.2,428.7z"/>
<path class="st2" d="M-129.8,540.1c-9.5,11.8-58.5,28.9-58.5,28.9s6.2-51.5,15.7-63.3c9.6-11.8,26.9-13.6,38.7-4
	C-122.3,511.2-120.5,528.3-129.8,540.1z"/>
<path class="st2" d="M-266.4,354.4c13.2,7.5,65,5.2,65,5.2s-24.8-45.6-38-53c-13-7.8-29.9-3.6-37.7,9.5c-7.8,13-3.6,29.9,9.5,37.7
	C-267.3,353.9-266.9,354.2-266.4,354.4L-266.4,354.4z"/>
<path class="st2" d="M-262,484.6c14.8,3.2,63.6-14.5,63.6-14.5s-37.3-36.1-52.1-39.2c-14.8-3.2-29.4,6.3-32.6,21.1
	C-286.3,466.8-276.8,481.4-262,484.6L-262,484.6z"/>
<path class="st2" d="M-240.3,610.6c14.1,5.6,65.2-3.6,65.2-3.6s-30.7-41.8-44.8-47.5c-14.3-5.1-30,2.3-35.1,16.6
	C-259.9,589.7-253.5,604.7-240.3,610.6L-240.3,610.6z"/>
<path class="st2" d="M-232.1,219.5c3.9,14.7-11.6,64.2-11.6,64.2s-37.7-35.6-41.6-50.3c-3.9-14.7,4.9-29.7,19.6-33.6
	C-251,196-235.9,204.7-232.1,219.5L-232.1,219.5L-232.1,219.5z"/>
<path class="st2" d="M-166.8,289.2c-4.7,14.4-44.6,47.6-44.6,47.6s-12.4-50.4-7.6-64.8c4.5-14.5,20-22.5,34.4-18
	c14.5,4.5,22.5,20,18,34.4C-166.6,288.7-166.7,289-166.8,289.2L-166.8,289.2z"/>
<path class="st3" d="M-132.2,428.7c-11.4,10-62.6,18.6-62.6,18.6s14.8-49.7,26.1-59.8c11.5-9.9,28.9-8.6,38.8,2.9
	C-120.2,401.7-121.2,418.7-132.2,428.7L-132.2,428.7z"/>
<path class="st3" d="M-129.8,540.1c-9.5,11.8-58.5,28.9-58.5,28.9s6.2-51.5,15.7-63.3c9.6-11.8,26.9-13.6,38.7-4
	C-122.3,511.2-120.5,528.3-129.8,540.1z"/>
<path class="st2" d="M-266.4,354.4c13.2,7.5,65,5.2,65,5.2s-24.8-45.6-38-53c-13-7.8-29.9-3.6-37.7,9.5c-7.8,13-3.6,29.9,9.5,37.7
	C-267.3,353.9-266.9,354.2-266.4,354.4L-266.4,354.4z"/>
<path class="st2" d="M-262,484.6c14.8,3.2,63.6-14.5,63.6-14.5s-37.3-36.1-52.1-39.2c-14.8-3.2-29.4,6.3-32.6,21.1
	C-286.3,466.8-276.8,481.4-262,484.6L-262,484.6z"/>
<path class="st2" d="M-240.3,610.6c14.1,5.6,65.2-3.6,65.2-3.6s-30.7-41.8-44.8-47.5c-14.3-5.1-30,2.3-35.1,16.6
	C-259.9,589.7-253.5,604.7-240.3,610.6L-240.3,610.6z"/>
<ellipse class="st0" cx="185.2" cy="678.3" rx="480.5" ry="33"/>
<linearGradient id="SVGID_1_" gradientUnits="userSpaceOnUse" x1="604.7963" y1="140.7156" x2="604.7963" y2="595.4" gradientTransform="matrix(1 0 0 -1 -111.66 823.55)">
	<stop  offset="0" style="stop-color:#808080;stop-opacity:0.25"/>
	<stop  offset="0.54" style="stop-color:#808080;stop-opacity:0.12"/>
	<stop  offset="1" style="stop-color:#808080;stop-opacity:0.1"/>
</linearGradient>
<path class="st4" d="M598.7,650c0,0-0.8-1.1-1.9-2.3l0.3-0.1c0,0-14.3-35.7-11.1-50.8s-12.7-51.5-12.7-51.5s-23.4-47.9-12.3-86.2
	c1.3-4.5,2.2-9.1,2.9-13.7c3.3-22.7,2.1-27.3-3.4-35.6l-0.6-0.9c0.7-0.7,1.2-1.5,1.6-2.4c4.8-12.7-22.2-35.7-15-57.1
	c6.6-19.9-10.6-60.8-13.2-66.7l0,0l-0.3-0.7l-0.9,0.3c0.1-5.1,2.2-10,5.7-13.7l0.2-0.2c2.4-2.2,5.3-3.8,7.5-6.1l0.1-0.1
	c0.2-0.2,0.5-0.4,0.7-0.6c2.2-2.3,3.7-5.8,2.5-8.7c-1.1-2.7-4.2-4.4-4.9-7.2c-0.2-1.3-0.3-2.6-0.3-3.9c-0.6-4-4.5-6.5-8-8.5
	c-4.4-2.5-9-5-14.1-5.1c-6.9,0-13,4.6-19.8,5.2c-2.3,0.2-4.7-0.1-6.9,0.7c-1.7,0.7-3.2,1.7-4.5,2.9c-0.8,0.6-1.5,1.3-2.2,2
	c-1.5,1.4-2.8,3.1-2.8,5.2c0.1,1.5,0.8,2.9,1.9,3.9c-8.3,11.3-5.9,27.2,5.4,35.5c1.2,0.9,2.5,1.6,3.8,2.3c0.1,0.5,0.2,1.1,0.2,1.7
	c1,7.5,1.6,18.1-1.1,26.5c-11.4,5.9-29.1,15.4-32.3,19.7c-0.5,0.7-0.7,1.6-0.4,2.5c-0.1,0.4-0.1,0.8-0.1,1.2c-2.5,0.6-5.8,0-9.8-3.7
	c-9.5-8.7-39.7-34.9-39.7-34.9s-13.5-33.3-23-27s11.1,37.3,11.1,37.3l45.1,48.4c0,0,1.6,10.3,18.2,4.8c5.5-1.8,10.5-3.6,14.7-5.1
	l1,0.9c-3.8,21.9-5.7,51.2,8.1,59.8c1.1,1.4,1.9,3.1,2.3,4.8c-0.1,0.3-0.1,0.5-0.2,0.8c-1.1,4.4-1.7,8.8-2,13.3
	c-2.6,6-3.8,12.4-3.5,18.9l-5.3,75.5c0,0-0.8,16.7,4.8,29.3s23,76.1,11.1,80.9l1.1,0.2c-3.4,3.5-9.2,8.8-13.5,9.9
	c-6.6,1.6-4.8,11.8,9.9,13.5s16.5,1.6,26.8-7.1c9.1-7.6,10.6-11,10.8-11.7l0.5,0.1c0,0-5.5-20.6,0-29.3c5.6-8.7-12.7-61.9-12.7-61.9
	c-0.2-6.8,0.1-13.6,0.8-20.3c2.8,7.3,4.8,12.4,4.8,12.4s4.8,23,10.3,27c5.5,4,34.9,58.7,30.1,82.5l-0.6,2.8l1.3-0.4h0.1
	c-1.8,4.5-5.2,11.7-8.8,14.3c-5.5,4,0,12.7,14.3,8.7s15.9-4.8,22.2-16.7C599.5,653.3,598.7,650,598.7,650z"/>
<path class="st5" d="M493.6,438.3l-3.5-4.3c-3.6,6.6-5.3,14.1-4.9,21.6l-5.2,73.8c0,0-0.8,16.3,4.7,28.7s22.5,74.4,10.9,79.1
	l34.8,4.7c0,0-5.4-20.2,0-28.7c5.4-8.5-12.4-60.5-12.4-60.5s-1.6-43.4,13.2-53.5S493.6,438.3,493.6,438.3z"/>
<path class="st6" d="M499.4,634.2c0,0-9.6,11.2-16,12.7s-4.7,11.5,9.7,13.2s16.1,1.5,26.2-6.9c10.1-8.4,10.6-11.6,10.6-11.6
	s-2-7.5-4.4-7.7C523.1,633.8,499.4,634.2,499.4,634.2z"/>
<path class="st7" d="M495.9,440.6l-5.8-6.6c-3.6,6.6-5.3,14.1-4.9,21.6l-5.2,73.8c0,0-0.8,16.3,4.7,28.7s22.5,74.4,10.9,79.1
	l34.8,4.7c0,0-5.4-20.2,0-28.7c5.4-8.5-12.4-60.5-12.4-60.5s-1.6-43.4,13.2-53.5S495.9,440.6,495.9,440.6z"/>
<linearGradient id="SVGID_2_" gradientUnits="userSpaceOnUse" x1="271.9595" y1="140.9869" x2="271.9595" y2="626.51" gradientTransform="matrix(1 0 0 -1 -111.66 823.55)">
	<stop  offset="0" style="stop-color:#808080;stop-opacity:0.25"/>
	<stop  offset="0.54" style="stop-color:#808080;stop-opacity:0.12"/>
	<stop  offset="1" style="stop-color:#808080;stop-opacity:0.1"/>
</linearGradient>
<path class="st8" d="M530.4,541.8c0,0-9.7-190.2-49.5-257.5c0,0-29.2-53.3-53.5-68.8v-6.1c-39.8-27.5-88.7,0-88.7,0v2.7l-10.2,8.5
	l-45.9-0.2c-4.2-5.1-10.5-8-17-8H55.9c-6.2,0-12.1,2.6-16.3,7.1H-8.1c0,0-2.8-3.3-10.2-6.6v-3.6c-39.8-27.5-88.7,0-88.7,0v7.4
	c-1.2,0.8-2.2,1.7-3.1,2.8c0,0-40.3,27-49.5,60.7c0,0-49.5,148.4-50.5,264.7s43.9,132.6,67.3,135.7s65.3-1,106.1-104l17.3-60.2
	c0,0,3.1-35.7,39.8-13.3c36.7,22.4,69.3-12.2,69.3-12.2h137.7c0,0,45.8,28.5,87.7,6c0,0,16.3-21.4,31.6,51
	c0,0,46.9,148.9,119.3,133.6S530.4,541.8,530.4,541.8z"/>
<path class="st9" d="M-101.8,224.8v-11c0,0,48-27,87,0v10L-101.8,224.8z"/>
<path class="st9" d="M335.2,224.8v-11c0,0,48-27,87,0v10L335.2,224.8z"/>
<path class="st7" d="M-101.8,224.8v-11c0,0,48-27,87,0v10L-101.8,224.8z"/>
<path class="st7" d="M335.2,224.8v-11c0,0,48-27,87,0v10L335.2,224.8z"/>
<path class="st9" d="M42.2,223.8h-47c0,0-12-14-52-13s-48,13-48,13s-39.5,26.5-48.5,59.5c0,0-48.5,145.5-49.5,259.5s43,130,66,133
	s64-1,104-102l17-59c0,0,3-35,39-13c36,22,68-12,68-12h135c0,0,45,28,86,6c0,0,16-21,31,50c0,0,46,146,117,131s63-137,63-137
	s-9.5-186.5-48.5-252.5c0,0-37.5-68.5-62.5-71.5c0,0-54-10-75-1l-12,10L42.2,223.8z"/>
<circle class="st10" cx="-66.8" cy="321.8" r="87"/>
<circle class="st10" cx="387.2" cy="321.8" r="87"/>
<path class="st9" d="M-51.7,302.4l-11.6,10.3c-2,1.8-5.1,1.8-7.1,0L-82,302.4c-1.1-1-1.8-2.5-1.8-4v-28.2c0-3,2.4-5.4,5.4-5.4h23.3
	c3,0,5.4,2.4,5.4,5.4c0,0,0,0,0,0v28.2C-49.8,299.9-50.5,301.4-51.7,302.4z"/>
<path class="st9" d="M-51.7,341.2l-11.6-10.3c-2-1.8-5.1-1.8-7.1,0L-82,341.2c-1.1,1-1.8,2.5-1.8,4v28.2c0,3,2.4,5.4,5.4,5.4
	c0,0,0,0,0,0h23.3c3,0,5.4-2.4,5.4-5.4c0,0,0,0,0,0v-28.2C-49.8,343.6-50.5,342.2-51.7,341.2z"/>
<path class="st9" d="M-86.2,337l10.3-11.6c1.8-2,1.8-5.1,0-7.1l-10.3-11.6c-1-1.1-2.5-1.8-4-1.8h-28.2c-3,0-5.4,2.4-5.4,5.4v23.3
	c0,3,2.4,5.4,5.4,5.4c0,0,0,0,0,0h28.2C-88.7,338.8-87.2,338.1-86.2,337z"/>
<path class="st9" d="M-47.4,337l-10.2-11.6c-1.8-2-1.8-5.1,0-7.1l10.3-11.6c1-1.1,2.5-1.8,4-1.8h28.2c3,0,5.4,2.4,5.4,5.4
	c0,0,0,0,0,0v23.3c0,3-2.4,5.4-5.4,5.4c0,0,0,0,0,0h-28.2C-44.9,338.8-46.4,338.1-47.4,337z"/>
<polygon class="st1" points="-81.8,257.8 -51.8,257.8 -66.8,244.8 "/>
<polygon class="st1" points="-81.8,385.8 -51.8,385.8 -66.8,398.8 "/>
<polygon class="st1" points="-130.8,306.8 -130.8,336.8 -143.8,321.8 "/>
<polygon class="st1" points="-2.8,306.8 -2.8,336.8 10.2,321.8 "/>
<circle class="st10" cx="51.2" cy="416.8" r="63"/>
<circle class="st9" cx="49.2" cy="406.8" r="42"/>
<circle class="st10" cx="269.2" cy="416.8" r="63"/>
<circle class="st9" cx="267.2" cy="406.8" r="42"/>
<circle class="st11" cx="49.2" cy="406.8" r="28"/>
<circle class="st11" cx="267.2" cy="406.8" r="28"/>
<circle class="st10" cx="162.2" cy="423.8" r="18"/>
<circle class="st10" cx="134.7" cy="363.7" r="3.9"/>
<circle class="st10" cx="149.4" cy="363.7" r="3.9"/>
<circle class="st10" cx="147.4" cy="382.4" r="3.9"/>
<circle class="st10" cx="161.2" cy="382.8" r="4"/>
<circle class="st10" cx="174.9" cy="382.4" r="3.9"/>
<circle class="st10" cx="141.5" cy="373.5" r="3.9"/>
<circle class="st10" cx="154.2" cy="373.8" r="4"/>
<circle class="st10" cx="167.2" cy="373.8" r="4"/>
<circle class="st10" cx="180.8" cy="373.5" r="3.9"/>
<circle class="st10" cx="161.2" cy="363.8" r="4"/>
<circle class="st10" cx="175.2" cy="363.8" r="4"/>
<circle class="st10" cx="186.7" cy="363.7" r="3.9"/>
<path class="st10" d="M12.7,230.8h5c4.7,0,8.5,3.8,8.5,8.5v21c0,4.7-3.8,8.5-8.5,8.5h-5c-4.7,0-8.5-3.8-8.5-8.5v-21
	C4.2,234.6,8,230.8,12.7,230.8z"/>
<path class="st10" d="M304.7,230.8h5c4.7,0,8.5,3.8,8.5,8.5v21c0,4.7-3.8,8.5-8.5,8.5h-5c-4.7,0-8.5-3.8-8.5-8.5v-21
	C296.2,234.6,300,230.8,304.7,230.8z"/>
<circle class="st9" cx="388.2" cy="268.8" r="24"/>
<circle class="st9" cx="337.2" cy="319.8" r="24"/>
<circle class="st9" cx="441.2" cy="316.8" r="24"/>
<circle class="st9" cx="392.2" cy="369.8" r="24"/>
<path class="st10" d="M57.9,216.8h205.5c12,0,21.8,9.7,21.8,21.8V328c0,12-9.7,21.8-21.8,21.8H57.9c-12,0-21.8-9.7-21.8-21.8v-89.5
	C36.2,226.5,45.9,216.8,57.9,216.8z"/>
<polygon class="st12" points="373.7,278.8 387.7,254.8 402.7,278.8 "/>
<rect x="324.7" y="308.8" class="st12" width="25" height="22"/>
<circle class="st12" cx="441.2" cy="316.8" r="14"/>
<line class="st12" x1="380.7" y1="358.5" x2="403.2" y2="381"/>
<line class="st12" x1="403.7" y1="358.5" x2="380.7" y2="380.5"/>
<path class="st2" d="M33,670.3c3-2.3,5.9-5,6.7-8.3c0.9-3.6-1.1-7.3-4.7-8.4c-4.3-1.3-8.9,1.1-12.4,3.5s-7.5,5.3-12.1,4.8
	c4.7-3.4,7-9,5.7-14c-0.2-1.1-0.8-2.1-1.6-2.8c-2.4-2.1-6.7-1.2-9.6,0.5C-4,650.8-6.6,660.9-6.6,670c-0.9-3.3-0.1-6.7-0.2-10.1
	s-1.1-7.1-4.6-8.9c-2.2-1-4.6-1.4-7.1-1.3c-4.1-0.1-8.7,0.2-11.5,2.7c-3.5,3-2.6,8.1,0.5,11.5s7.6,5.4,11.9,7.8
	c3.2,1.8,6.5,3.8,8.5,6.6c0.3,0.4,0.5,0.8,0.6,1.2h25.7C22.8,677,28.1,674,33,670.3z"/>
<path class="st6" d="M565.3,650.3c0,0-4.7,14-10.1,17.8c-5.4,3.8,0,12.4,14,8.5s15.5-4.7,21.7-16.3c6.2-11.6,5.4-14.7,5.4-14.7
	s-4.7-6.2-7-5.4S565.3,650.3,565.3,650.3z"/>
<path class="st13" d="M536.6,302.2c0,0-62.8,34.9-48.1,24.8c9.9-6.8,9.3-24.7,7.8-35.8c-0.5-3.5-1-6.2-1.3-7.8
	c-0.2-0.9-0.3-1.4-0.3-1.4s30.5-18.3,28.7-7.3l0,0c0,0.1,0,0.2,0,0.3c-0.1,0.7-0.2,1.5-0.2,2.2C523,288.5,536.6,302.2,536.6,302.2z"
	/>
<path class="st13" d="M468.3,336.3c0,0-5.4,8.5-14.7,0s-38.8-34.1-38.8-34.1s-13.2-32.6-22.5-26.4s10.9,36.5,10.9,36.5l44.2,47.3
	c0,0,1.5,10.1,17.8,4.6s27.9-10.1,27.9-10.1L468.3,336.3z"/>
<path class="st14" d="M493.2,415.4"/>
<path class="st5" d="M594.8,643.4l-31,10.9l-1.3,0.4l0.5-2.7c4.7-23.3-24-76.8-29.5-80.7s-10.1-26.4-10.1-26.4s-10.2-51.2-11.7-62
	c-0.4-2.7-1.8-4.9-3.5-7.9c-2.6-4.5-4.6-9.3-6-14.4c-3.4-12-11.4-33.3-8.4-45.4c0.6-2.5-1.8,3.8-1,1.4l0.5-1.3l62.8-8.5
	c1,1.3,2,2.6,2.9,4c4.8,7,4.4,7,5.4,20.4c-0.4,8.1-1.6,16.1-3.4,24c-8.5,37.6,10.6,88,10.6,88s15.5,35.7,12.4,50.4
	C580.8,608.4,594.8,643.4,594.8,643.4z"/>
<path class="st7" d="M558.9,410.8c-9.3,11.6-68.8,20.7-68.1,17c0.2-1.3,0.1-2.6-0.3-3.8c0.6-2.5,1.3-4.9,2.1-7.3l0.5-1.3l62.8-8.5
	C557,408.1,558,409.4,558.9,410.8z"/>
<path class="st15" d="M531.9,285.9c0,0-25.6,7.8-32.6,25.6s5.3,18.8,5.3,18.8s-22,58-16.2,88.2c0,0,3.1,3.9,2.3,7.8
	s64.4-6.2,69-18.6s-21.7-34.9-14.7-55.8C552.1,330.9,531.9,285.9,531.9,285.9z"/>
<path class="st7" d="M523.4,276.6c0,0.2-0.1,0.5-0.2,0.7c-1.1,2-4.4-0.2-3.3,2.8c-4.5,4.5-5.9,13.6-12.8,13.6
	c-3.7,0-7.4-0.8-10.8-2.5c-0.5-3.5-1-6.2-1.3-7.8c3-1.8,27-15.7,28.4-8.7l0,0C523.6,275.3,523.5,276,523.4,276.6z"/>
<circle class="st13" cx="507.1" cy="267.3" r="24.8"/>
<path class="st7" d="M531.9,346.4l-43.4,20.2c0,0-29.5-22.5-24.8-28.7s41.1-24,41.1-24S542,321.6,531.9,346.4z"/>
<path class="st15" d="M531.9,344.9L488.5,365c0,0-29.5-22.5-24.8-28.7s41.1-24,41.1-24S542,320,531.9,344.9z"/>
<path class="st7" d="M500,256.6c-3.8-0.4-7.7-0.8-11-2.7c-1.9-1.1-3.7-2.9-3.7-5.1c-0.1-2.6,2.1-4.6,4.1-6.3
	c1.3-1.2,2.8-2.2,4.5-2.9c2.2-0.8,4.5-0.5,6.8-0.7c6.7-0.6,12.7-5.1,19.4-5.1c4.9,0,9.5,2.5,13.8,5c3.4,1.9,7.2,4.4,7.8,8.3
	c0,1.3,0.1,2.5,0.3,3.8c0.7,2.8,3.7,4.4,4.8,7.1c1.2,2.9-0.3,6.3-2.5,8.5c-2.2,2.3-5,3.8-7.3,6c-4.3,4-6.6,9.5-6.5,15.3
	c0.1,0.4,0,0.8-0.2,1.1c-0.3,0.4-0.9,0.7-1.4,0.7c-2.5,0.5-5.5,0.7-7-1.3s-0.3-5.4-2-7.5c-2.2-2.6-6.7-0.5-9.6-2.2
	c-1-0.6-1.7-1.6-2.2-2.6c-2.4-5.2,0.4-9.2,1.4-14.2C510.5,256.1,504,257.1,500,256.6z"/>
<path class="st16" d="M500.7,255.9c-3.8-0.4-7.7-0.8-11-2.7c-1.9-1.1-3.7-2.9-3.7-5.1c-0.1-2.6,2.1-4.6,4.1-6.3
	c1.3-1.2,2.8-2.2,4.5-2.9c2.2-0.8,4.5-0.5,6.8-0.7c6.7-0.6,12.7-5.1,19.4-5.1c4.9,0,9.5,2.5,13.8,5c3.4,1.9,7.2,4.4,7.8,8.3
	c0,1.3,0.1,2.5,0.3,3.8c0.7,2.8,3.7,4.4,4.8,7.1c1.2,2.9-0.3,6.3-2.5,8.5c-2.2,2.3-5,3.8-7.3,6c-4.3,4-6.7,9.6-6.5,15.4
	c0.1,0.4,0,0.8-0.2,1.1c-0.3,0.4-0.9,0.7-1.4,0.7c-2.5,0.5-5.5,0.7-7-1.3s-0.3-5.4-2-7.5c-2.2-2.6-6.7-0.5-9.6-2.2
	c-1-0.6-1.7-1.6-2.2-2.6c-2.4-5.2,0.3-9.3,1.3-14.3C511.3,255.3,504.8,256.3,500.7,255.9z"/>
</svg>
