<?xml version="1.0" encoding="utf-8"?>
<!-- Generator: Adobe Illustrator 19.0.0, SVG Export Plug-In . SVG Version: 6.00 Build 0)  -->
<svg version="1.1" id="a58ef234-55dd-4456-b368-278f056cc5c7"
	 xmlns="http://www.w3.org/2000/svg" xmlns:xlink="http://www.w3.org/1999/xlink" x="0px" y="0px" viewBox="-285 126 1028 599"
	 style="enable-background:new -285 126 1028 599;" xml:space="preserve">
<style type="text/css">
	.st0{fill:#F2F2F2;}
	.st1{fill:#3F3D56;}
	.st2{opacity:0.1;enable-background:new    ;}
	.st3{fill:#6C63FF;}
	.st4{fill:#8A8B8C;}
	.st5{fill:#2F2E41;}
	.st6{fill:#A0616A;}
	.st7{fill:#D0CDE1;}
	.st8{fill:#FFB9B9;}
	.st9{fill:#FF6584;}
	.st10{opacity:5.000000e-002;enable-background:new    ;}
</style>
<title>open source</title>
<circle class="st0" cx="47" cy="418" r="292"/>
<path class="st1" d="M743,644c0,0.7-0.1,1.4-0.2,2.1C735.7,689.9,508.4,725,229,725s-506.7-35.1-513.8-78.9
	c-0.1-0.7-0.2-1.4-0.2-2.1c0-0.2,0-0.4,0-0.6c0-0.1,0-0.2,0-0.3c0,0,0-0.1,0-0.1c0-0.5,0.1-0.9,0.2-1.3
	c3.3-17.9,43.4-34.3,108.7-47.5c53.5-10.8,123.9-19.4,204.9-24.8C90.4,565.3,158,563,229,563c57.1,0,112.1,1.5,163.4,4.2h0
	c10.7,0.6,21.3,1.2,31.7,1.9c71.3,4.6,134.6,11.7,185.6,20.5c31.4,5.5,58.1,11.6,79.2,18.2h0c32.5,10.2,51.6,21.7,53.8,33.8
	c0.1,0.4,0.1,0.9,0.2,1.3c0,0,0,0.1,0,0.1c0,0.1,0,0.2,0,0.3C743,643.6,743,643.8,743,644z"/>
<ellipse class="st2" cx="216" cy="698" rx="165" ry="24"/>
<path class="st2" d="M689,607.8c-5.8,1.7-12.3,3.2-19.4,4.6c-29.4,5.8-69.4,9.3-113.5,9.3c-49.3,0-93.5-4.4-123.4-11.4
	c-24.8-5.8-39.9-13.4-39.9-21.7c0-7.3,11.6-14.1,31.4-19.5c71.3,4.6,134.6,11.7,185.6,20.5C641.1,595,667.9,601.2,689,607.8z"/>
<path class="st2" d="M247,596.8c0,15.1-94.9,27.4-212,27.4s-212-12.3-212-27.4c0-1,0.4-1.9,1-2.6c53.5-10.8,123.9-19.4,204.9-24.8
	c2,0,4.1,0,6.1,0C152.1,569.4,247,581.6,247,596.8z"/>
<rect x="131.5" y="461" class="st3" width="41.7" height="134.6"/>
<rect x="-5.5" y="397.9" class="st3" width="41.7" height="197.7"/>
<rect x="-141.3" y="397.9" class="st3" width="41.7" height="197.7"/>
<rect x="-73.4" y="397.9" class="st3" width="41.7" height="134.6"/>
<rect x="62.4" y="397.9" class="st3" width="41.7" height="39.3"/>
<rect x="62.4" y="461" class="st4" width="41.7" height="134.6"/>
<rect x="131.5" y="397.9" class="st3" width="109.6" height="39.3"/>
<path class="st3" d="M530.1,386c28.5,0,52.8,9.9,72.8,29.8c9.4,9.4,16.9,20.5,21.8,32.8c9.9,25.2,10,53.2,0.1,78.4
	c-4.9,12.2-12.3,23.2-21.7,32.3c-9.7,9.7-21.2,17.3-33.8,22.6c-12.4,5.2-25.7,7.8-39.1,7.8c-13.3,0-26.4-2.6-38.7-7.7
	c-24.9-10.6-44.8-30.5-55.4-55.4c-10.2-24.9-10.2-52.8,0.1-77.6c5.2-12.5,12.8-23.9,22.5-33.4C478,395.9,501.8,386,530.1,386z
	 M530.4,404.4c-23.3,0-42.9,8.1-58.8,24.4c-7.8,7.9-14.1,17.2-18.5,27.4c-8.6,20.2-8.6,43.1,0,63.3c8.8,20.4,25.1,36.6,45.6,45.3
	c20.3,8.4,43.1,8.4,63.4-0.1c10.3-4.3,19.7-10.5,27.7-18.4c15.9-15.5,23.8-35,23.8-58.4c0.1-11-2-21.9-6.2-32
	c-4.1-10.1-10.3-19.2-18-26.9C573.2,412.6,553.5,404.4,530.4,404.4L530.4,404.4z M529.2,471l-13.6,7.1c-1.1-2.6-3-4.8-5.4-6.4
	c-1.8-1.1-3.8-1.7-5.9-1.8c-9.1,0-13.6,6-13.6,18c0,5.5,1.2,9.8,3.5,13.1c2.3,3.3,5.7,4.9,10.2,4.9c5.9,0,10.1-2.9,12.6-8.7
	l12.6,6.4c-5.2,9.9-15.5,16.1-26.7,16c-9.1,0-16.4-2.8-22-8.4c-5.6-5.6-8.4-13.3-8.4-23.3c0-9.7,2.8-17.4,8.5-23.1
	c5.6-5.7,12.8-8.5,21.4-8.6C514.7,456.3,523.7,461.2,529.2,471L529.2,471z M587.9,471l-13.5,7.1c-1.1-2.6-3-4.8-5.4-6.4
	c-1.8-1.1-3.9-1.8-6.1-1.8c-9.1,0-13.6,6-13.6,18c0,5.5,1.2,9.8,3.5,13.1c2.3,3.3,5.7,4.9,10.2,4.9c5.9,0,10.1-2.9,12.5-8.7
	l12.7,6.4c-2.7,4.8-6.5,8.9-11.3,11.7c-4.7,2.8-10,4.3-15.5,4.3c-9.2,0-16.6-2.8-22.1-8.4c-5.5-5.6-8.3-13.3-8.3-23.3
	c0-9.7,2.8-17.4,8.5-23.1c5.6-5.7,12.8-8.5,21.4-8.6C573.6,456.3,582.6,461.2,587.9,471L587.9,471z"/>
<path class="st2" d="M468.4,636.3c0,48.7-67.9,33.7-151.1,33.7s-150.1,15.1-150.1-33.7S235.1,577,318.3,577S468.4,587.6,468.4,636.3
	z"/>
<path class="st1" d="M468.4,624.3c0,48.7-67.9,33.7-151.1,33.7s-150.1,15.1-150.1-33.7S235.1,565,318.3,565S468.4,575.6,468.4,624.3
	z"/>
<path class="st5" d="M454.5,536.8L458,551c0,0.2,0,0.3,0,0.5l-15.6,48.7c-0.1,0.5-0.6,0.7-1.1,0.6c-0.3-0.1-0.6-0.4-0.6-0.7l-2.2-19
	c0-0.1,0-0.3,0-0.4l14.3-43.9c0.2-0.5,0.7-0.7,1.1-0.6C454.2,536.3,454.5,536.5,454.5,536.8z"/>
<polygon class="st0" points="453.3,538 456.4,550.2 442.7,594.6 439.5,580.8 "/>
<path class="st5" d="M384.1,604.1c0.5,1.6,54.9-0.5,55.5-1.1c0.5-0.7,0.9-1.4,1.2-2.1c0.5-1.1,1-2.1,1-2.1l-2.1-17.1l-53.9-1.9
	c0,0-1.3,14.5-1.6,21.1C383.9,602,383.9,603,384.1,604.1z"/>
<polygon class="st2" points="432.7,584 433.7,598.8 410,598.8 410,584 "/>
<polygon class="st2" points="402,588.8 402.2,588.7 401.5,595.1 388.3,595.1 388.3,588.8 "/>
<path class="st2" d="M384.1,604.1c0.5,1.6,54.9-0.5,55.5-1.1c0.5-0.7,0.9-1.4,1.2-2.1H384C383.9,602,383.9,603,384.1,604.1z"/>
<path class="st5" d="M300.1,548.6h14.8l36.5-14.3c0,0,25.9-10.6,23.8,9.5s-5.8,47-5.8,47s-11.6-5.3-18-3.7s-2.1-32.2-2.1-32.2
	s-51.8,24.8-56.5,21.7s-5.8-25.4-5.8-25.4L300.1,548.6z"/>
<path class="st2" d="M300.1,548.6h14.8l36.5-14.3c0,0,25.9-10.6,23.8,9.5s-5.8,47-5.8,47s-11.6-5.3-18-3.7s-2.1-32.2-2.1-32.2
	s-51.8,24.8-56.5,21.7s-5.8-25.4-5.8-25.4L300.1,548.6z"/>
<path class="st6" d="M323.4,502.3l17.9,25.7l41.7,34.9c0,0,38.6,9,33.3,15.3s-37.5-6.3-37.5-6.3s-48.1-34.9-49.7-37.5
	s-19-27.5-19-27.5L323.4,502.3z"/>
<path class="st2" d="M323.4,502.3l17.9,25.7l41.7,34.9c0,0,38.6,9,33.3,15.3s-37.5-6.3-37.5-6.3s-48.1-34.9-49.7-37.5
	s-19-27.5-19-27.5L323.4,502.3z"/>
<circle class="st6" cx="320.7" cy="450.3" r="23.8"/>
<path class="st6" d="M319.1,471.5c0,0-7.9,13.7-9.5,21.1s-23.8-14.8-23.8-14.8l-2.9-7.7c0,0,20.9-9.8,19.3-17.7
	S319.1,471.5,319.1,471.5z"/>
<path class="st7" d="M312.7,481.5l11.6,22.7c0,0-2.6,11.1-6.9,12.2s-22.2-13.7-22.2-13.7L312.7,481.5z"/>
<path class="st6" d="M323.3,512.7l21.7,28.5l51.8,38.6c0,0,37.5,7.9,29.1,13.7s-32.8-5.3-32.8-5.3s-52.3-28-63.4-39.6
	s-31.7-31.2-31.7-31.2L323.3,512.7z"/>
<path class="st5" d="M294.2,557.1l6.3,10l37.8-11.9c8.3-2.7,17.4-1.6,24.8,3c6.6,4.2,10.8,10.8,1.3,20.5c-19,19.5-31.7,9-31.7,9
	s-63.9,30.1-74.5,15.3s-11.1-22.2-11.1-22.2S287.9,555.5,294.2,557.1z"/>
<path class="st7" d="M373.5,591.9c0,0,16.9,11.1-3.2,16.4s-34.9-2.1-34.9-2.1s-17.4,0-17.4-9s5.8-10,5.8-10l18,2.6
	C341.8,589.8,363.5,584,373.5,591.9z"/>
<path class="st5" d="M340.2,444.4c1.6,0.8,3.2,1.4,5,1.8c1.8,0.3,3.6-0.5,4.6-2c0.4-0.9,0.6-1.8,0.5-2.8c0.1-2.9-0.1-6-2-8.3
	c-1.2-1.4-2.9-2.3-4.1-3.7c-0.8-1-1.5-2.2-2.1-3.4c-2.4-4.4-5.8-8.7-10.7-10c-2-0.4-4.1-0.6-6.2-0.5l-12.2,0.2c-2-0.1-4,0.1-5.9,0.6
	c-3.9,1.2-6.8,4.5-9.4,7.7c-2,2.3-3.8,4.8-5.4,7.4c-2.1,3.9-3.2,8.3-3.1,12.8c0,1.1,0.1,2.3,0.4,3.4c0.4,1,0.8,2,1.3,2.9
	c2.3,4.5,3.6,10.1,1.1,14.4c4.5-1.8,8.9-4.2,11.9-8.1c1.3-1.7,2.4-3.7,4.1-5s4.6-1.4,5.8,0.5c0.4,0.7,0.6,1.6,0.6,2.4
	c0,1.4,0.2,2.8,0.7,4.1c0.5,1.3,1.9,2.1,3.3,1.9c2.3-0.6,2.1-4.2,3.9-5.8c1.3-1.2,3.4-1,5.2-1.5c2-0.8,3.6-2.3,4.4-4.3
	c0.7-1.5,0.6-5.3,1.9-6.1C335.2,442.1,338.7,443.7,340.2,444.4z"/>
<path class="st7" d="M281,467.6c1.1-0.3,2.2-0.3,3.3,0c3.4,0.9,11,3.3,12.6,7c2.1,4.8,9.5,12.2,9.5,12.2s10,10,7.9,16.9
	s-10,14.8-10,14.8s2.1,32.8-8.5,41.2s-14.8,2.6-14.8,10.6s-32.8,32.8-39.1,17.4c0,0,3.2-28.5,2.1-38.6
	C243,539.2,244.5,477.5,281,467.6z"/>
<path class="st7" d="M297.9,481c0,0,32.2,23.8,26.4,33.8c0,0-19.5,9.5-23.8,9s-20.6-19-24.8-20.6S269.4,473.1,297.9,481z"/>
<path class="st5" d="M208.8,502.3c-5,1.7-9.6,5.7-10.6,10.8c-0.5,2.4-0.2,4.9-0.6,7.3c-0.9,5.6-5.3,9.9-9.4,13.9s-8.3,8.6-8.6,14.3
	c-0.3,6.2,4.2,12,3.4,18.2c-0.9,7.2-8.5,11.8-10.4,18.8c-1.3,4.7,0.3,9.7,2.8,13.8c4.8,7.9,13,13.2,21.8,16s18.1,3.5,27.3,3.6
	c11.2,0.1,23.4-0.8,31.8-8.2c4.8-4.3,7.8-10.2,8.5-16.6c0.8-8.6-2.8-17.4-0.3-25.7c1.6-5.2,5.4-9.9,4.9-15.3
	c-0.6-5.3-5.2-9-8.3-13.3c-2.9-4-4.7-8.7-6.5-13.3l-6-15.8c-1.2-3.1-2.5-6.4-5.1-8.4c-4.9-3.8-12.8-3.1-18.6-2.3
	C219.6,500.9,213.9,500.6,208.8,502.3z"/>
<path class="st8" d="M210.7,548.4c0,0,2.7,8.6-17.3,18.6s2,20.6,2,20.6l23.3,5.3c0,0,23.9-3.3,26.6-7.3s7.3-17.3,6-19.3
	c-1-1.4-2.1-2.8-3.3-4c0,0-15.9-2.7-15.3-10S210.7,548.4,210.7,548.4z"/>
<path class="st2" d="M210.7,548.4c0,0,2.7,8.6-17.3,18.6s2,20.6,2,20.6l23.3,5.3c0,0,23.9-3.3,26.6-7.3s7.3-17.3,6-19.3
	c-1-1.4-2.1-2.8-3.3-4c0,0-15.9-2.7-15.3-10S210.7,548.4,210.7,548.4z"/>
<circle class="st8" cx="223.6" cy="540.7" r="21.3"/>
<path class="st9" d="M221.3,585.6c0,0-25.6-1.9-26.1-19.5c0,0-9.1-1.1-11.8,1.6s-11.3,4.7-11.3,11.3s14.6,26.6,14.6,26.6
	s8,26.6,4.7,31.2s-4,16.6-4,16.6s33.2-2.7,38.5,0s26.6,2.7,27.9,0s-1.3-35.9-1.3-35.9s6-8,4.7-17.3l15.9-18.6c0,0-6-17.9-15.3-17.9
	c0,0-12.6-3.3-13-1.7S251.2,582.3,221.3,585.6z"/>
<path class="st8" d="M161.5,644c0,0,6,9.3,21.3,11.3s17.9-3.3,16.6-4.7s-17.3-7.3-17.3-7.3l-9.3-7.3L161.5,644z"/>
<path class="st8" d="M270.5,636.1l-17.3,10c0,0-22.6-1.3-14,5.3s24.6,4,24.6,4l15.3-7.3L270.5,636.1z"/>
<path class="st5" d="M184.1,653.3c0,0-15.9,39.2,3.3,45.2s72.4,4.7,84.4-3.3s15.3-18.6,13.3-21.9s-15.3-12.6-24.6-13.3
	S184.1,653.3,184.1,653.3z"/>
<path class="st10" d="M184.1,653.3c0,0-15.9,39.2,3.3,45.2s72.4,4.7,84.4-3.3s15.3-18.6,13.3-21.9s-15.3-12.6-24.6-13.3
	S184.1,653.3,184.1,653.3z"/>
<path class="st5" d="M259.4,655.8c0,0,56.3-20.4,55.6,4.2s-35.9,31.2-35.9,31.2l-10.6,1.3l-58.5,2c0,0,2-10.6-2.7-12
	c0,0,15.3-4,15.9-4.7s38.5-14,41.2-14.6s10.6-6,16.6-5.3c0,0,6.6-5.3,14-4l-20.6,1.3L259.4,655.8z"/>
<path class="st2" d="M259.4,655.8c0,0,56.3-20.4,55.6,4.2s-35.9,31.2-35.9,31.2l-10.6,1.3l-58.5,2c0,0,2-10.6-2.7-12
	c0,0,15.3-4,15.9-4.7s38.5-14,41.2-14.6s10.6-6,16.6-5.3c0,0,6.6-5.3,14-4l-20.6,1.3L259.4,655.8z"/>
<polygon class="st5" points="249.4,659.1 256.5,675.3 299.7,660 303,651.4 291.7,649.4 269,653.3 259.2,656 "/>
<polygon class="st2" points="249.4,659.1 256.5,675.3 299.7,660 303,651.4 291.7,649.4 269,653.3 259.2,656 "/>
<path class="st5" d="M157.5,678.6c0,0,12.6,15.9,27.2,19.9s22.6-1.3,22.6-1.3l-4.7-18.6l-2-12l-8.6-6l-17.3-8l-20.6-6.6
	c0,0-8.6-1.3-8.6,0s8,21.3,8,21.3L157.5,678.6z"/>
<path class="st0" d="M172.8,687.2c0,0,2.7,19.3,6,20.6s13.3-1.3,15.9-2.7s11.7-7.5,11.7-7.5S174.8,685.9,172.8,687.2z"/>
<polygon class="st8" points="233.3,689.2 245.9,691.2 244.6,706.5 227,702.2 "/>
<path class="st0" d="M241.2,693.5c0,0-5.9,7,0.1,11l4,3.3c0,0,13.3,2.7,14.6,4s6.6-2,6.6-2s0.7-19.9,0-21.3s-8.6-2.7-9.3-1.3
	s-8.6,3.3-13.3,2L241.2,693.5z"/>
<path class="st5" d="M188.1,658c0,0-46.5-27.2-53.8-17.3s-15.3,23.9,6,34.5c21.3,10.6,87.7,32.6,87.7,32.6s10-15.3,10-19.3
	c0,0-35.2-15.9-41.2-17.3s-29.9-16.6-33.2-17.9s-8-5.3-8-5.3L188.1,658z"/>
<path class="st9" d="M174.8,575.6l-2.7,2c0,0-6,15.3-6.6,23.9s-8.6,35.2-8,38.5s1.3,6,5.3,9.3c0,0,5.3-12,14.6-10l11.3-41.2
	L174.8,575.6z"/>
<path class="st9" d="M267.8,575.6l5.3,6c0,0,3.3,8,3.3,10s6.6,31.2,7.3,32.6s3.3,17.9,0,21.9s-9.3,6.6-9.3,6.6s4-14-8.6-14.6
	l1.3-5.3l-12-39.9L267.8,575.6z"/>
<path class="st1" d="M176.1,621.4v35c0,4.6,3.7,8.3,8.3,8.4l73.2,1.1c4.6,0.1,8.4-3.5,8.5-8.1l1.3-35c0.2-4.6-3.4-8.6-8.1-8.7
	c-0.1,0-0.1,0-0.2,0l-74.5-1.1c-4.6-0.1-8.5,3.6-8.5,8.3C176.1,621.3,176.1,621.3,176.1,621.4z"/>
<ellipse class="st5" cx="224.9" cy="527.7" rx="22.9" ry="12.3"/>
<circle class="st0" cx="221" cy="639.7" r="5.3"/>
</svg>
