<?xml version="1.0" encoding="utf-8"?>
<!-- Generator: Adobe Illustrator 19.0.0, SVG Export Plug-In . SVG Version: 6.00 Build 0)  -->
<svg version="1.1" id="bc263456-463a-4a26-ab4e-25ee29596588"
	 xmlns="http://www.w3.org/2000/svg" xmlns:xlink="http://www.w3.org/1999/xlink" x="0px" y="0px" viewBox="-285 49.5 1028.5 752.5"
	 style="enable-background:new -285 49.5 1028.5 752.5;" xml:space="preserve">
<style type="text/css">
	.st0{opacity:0.5;fill:#DEE3F3;enable-background:new    ;}
	.st1{opacity:0.45;}
	.st2{fill:#6C63FF;}
	.st3{opacity:0.1;enable-background:new    ;}
	.st4{opacity:0.5;fill:#6C63FF;enable-background:new    ;}
	.st5{opacity:0.3;enable-background:new    ;}
	.st6{fill:none;stroke:#FC6681;stroke-width:2;stroke-miterlimit:10;}
	.st7{fill:#FC6681;}
	.st8{fill:none;stroke:#FFD037;stroke-width:2;stroke-miterlimit:10;}
	.st9{fill:#FFD037;}
	.st10{fill:#A8A8A8;}
	.st11{opacity:0.2;enable-background:new    ;}
</style>
<title>Artificial intelligence</title>
<ellipse class="st0" cx="227.3" cy="755.9" rx="256" ry="43"/>
<g class="st1">
	<path class="st2" d="M165.8,308.4c0,0.5,0,1,0.1,1.4C165.8,309.4,165.8,308.9,165.8,308.4z"/>
	<path class="st2" d="M294.7,277.6c0,0.1,0,0.3,0.1,0.4C294.7,277.8,294.7,277.7,294.7,277.6z"/>
	<path class="st2" d="M294.4,276.3c0,0.1,0.1,0.3,0.1,0.4C294.5,276.6,294.5,276.4,294.4,276.3z"/>
	<path class="st2" d="M294.5,310.9c0,0.2-0.1,0.4-0.2,0.7C294.4,311.3,294.5,311.1,294.5,310.9z"/>
	<path class="st2" d="M294.7,309.8c0,0.2-0.1,0.5-0.1,0.7C294.7,310.3,294.7,310,294.7,309.8z"/>
	<path class="st2" d="M171.7,318.3c-0.9-0.4-1.7-1-2.4-1.7C170.1,317.3,170.9,317.8,171.7,318.3z"/>
	<path class="st2" d="M169.3,316.5c-0.3-0.3-0.7-0.6-0.9-1C168.6,315.9,168.9,316.2,169.3,316.5z"/>
	<path class="st2" d="M359.5,527.9c-0.1-0.4-0.3-0.9-0.5-1.3C359.2,527,359.4,527.5,359.5,527.9z"/>
	<path class="st2" d="M354,521.2c0.4,0.2,0.9,0.5,1.3,0.8C354.9,521.7,354.4,521.5,354,521.2z"/>
	<path class="st2" d="M356.5,523c0.7,0.6,1.3,1.4,1.8,2.1C357.8,524.4,357.2,523.6,356.5,523z"/>
	<path class="st2" d="M355.3,522c0.4,0.3,0.7,0.5,1.1,0.9C356,522.6,355.7,522.3,355.3,522z"/>
	<path class="st2" d="M358.9,526.4c-0.2-0.4-0.4-0.7-0.6-1C358.6,525.7,358.8,526.1,358.9,526.4z"/>
	<path class="st2" d="M359.8,529.3c-0.1-0.4-0.1-0.7-0.2-1.1C359.7,528.5,359.8,528.9,359.8,529.3z"/>
	<path class="st2" d="M693.5,468.6h-63.7c3-2.1,4.8-5.5,4.8-9.1v-29.2c0-6.1-5-11.1-11.1-11.1c0,0,0,0,0,0h-73.3
		c4.6-1.5,7.7-5.7,7.7-10.5v-29.2c0-3.6-1.8-7-4.8-9.1h70.3c6.1,0,11.1-5,11.1-11.1c0,0,0,0,0,0v-29.2c0-6.1-5-11.1-11.1-11.1
		c0,0,0,0,0,0h-78.3c4.6-1.5,7.7-5.7,7.7-10.5v-29.2c0-3.6-1.8-7-4.8-9.1h75.3c6.1,0,11.1-5,11.1-11.1c0,0,0,0,0,0v-29.2
		c0-6.1-5-11.1-11.1-11.1c0,0,0,0,0,0h-39.4c4.6-1.5,7.7-5.7,7.7-10.5V179c0-6.1-5-11.1-11.1-11.1c0,0,0,0,0,0H473.8
		c-6.1,0-11.1,5-11.1,11.1c0,0,0,0,0,0c0-6.1-5-11.1-11.1-11.1c0,0,0,0,0,0H344.7c-4.3,0-8.2,2.5-10,6.4c0.1,0.7,0.2,1.4,0.2,2.2
		v29.2c0,1.6-0.4,3.2-1,4.7c0.5,2.5,1.9,4.8,3.9,6.4h27.5c2.6,0,5,0.9,7,2.5h12c-4.6,1.5-7.7,5.7-7.7,10.5c0-0.7-0.1-1.4-0.2-2.1
		c0,0,0,0.1,0,0.1v29.2c0,0.9-0.1,1.9-0.4,2.8c0.2,0.2,0.3,0.4,0.5,0.6c0.1-0.5,0.1-0.9,0.1-1.4c0,0.6,0.1,1.3,0.2,1.9
		c0.1,0.4,0.2,0.7,0.2,1.1c0.7,2.5,2.2,4.6,4.3,6.1h-9.5c0.1-0.1,0.2-0.1,0.2-0.2c-0.9,0-1.8-0.1-2.7-0.1c-0.3,0-0.6-0.1-0.9-0.2
		c-1,0.3-2.1,0.5-3.2,0.5l-65.6,2c-3,2.1-4.8,5.5-4.8,9.1v29.2c0,4.8,3.1,9.1,7.7,10.5l62.7,0.5c1.1,0,2.2,0.2,3.3,0.5
		c0.7,0.1,1.4,0.2,2.1,0.4c0.1,0,0.1,0,0.2,0c-0.6-0.3-1.2-0.6-1.9-0.8h15.4c-4.6,1.5-7.7,5.7-7.7,10.5c0-0.6-0.1-1.3-0.2-1.9
		c-0.1,0.1-0.2,0.2-0.2,0.3c0.1,0.7,0.2,1.4,0.2,2.1v29.2c0,1.4,0.2,1,0.2-0.5c0,3.6,1.8,7,4.8,9.1l39.1,1.3c1.3,0,2.7,0.2,3.9,0.7
		h9.4c-1.7,1.2-3,2.8-3.8,4.7c1,1.7,1.6,3.7,1.6,5.7v29.2c0,1.5-0.3,3-0.9,4.4c1.4,2.3,3.6,4,6.1,4.9h-10.3c-1.8,1.2-3.9,1.8-6,1.8
		h-38.8c-3.2,2-5.1,5.5-5.1,9.3c0-3.9-1.5,34.6-1.5,34.6c0,3.5,60.3,5,60.3,5c1.5,0,3,0.3,4.5,0.9c0.6-0.1,1.3-0.2,1.9-0.2
		c0,0,0,0-0.1,0h9.5c-3,2.1-4.8,5.5-4.8,9.1c0-0.5,0-1.1-0.1-1.6c-0.1,0.1-0.1,0.2-0.2,0.4c0.2,0.8,0.3,1.6,0.3,2.5v28
		c0,6.1,5,11.1,11.1,11.1c0,0,0,0,0,0h-17c-1.6,0.8-3.3,1.3-5.1,1.3h-69.4c-3.7,1.9-6,5.7-6,9.8v29.2c0,6.1,5,11.1,11.1,11.1h0H478
		c6.1,0,11.1-5,11.1-11.1c0,0,0,0,0,0c0,6.1,5,11.1,11.1,11.1c0,0,0,0,0,0H607c6.1,0,11.1-5,11.1-11.1c0,0,0,0,0,0v-29.2
		c0-6.1-5-11.1-11.1-11.1c0,0,0,0,0,0h86.5c6.1,0,11.1-5,11.1-11.1c0,0,0,0,0,0v-29.2C704.5,473.6,699.6,468.6,693.5,468.6
		C693.5,468.6,693.5,468.6,693.5,468.6z M428.6,270.1c-3,2.1-4.8,5.5-4.8,9.1c0-3.6-1.8-7-4.8-9.1H428.6z M416.2,319
		c4.6-1.5,7.7-5.7,7.7-10.5c0,4.8,3.1,9.1,7.7,10.5H416.2z M455,218.8c4.6-1.5,7.7-5.7,7.7-10.5c0,4.8,3.1,9.1,7.7,10.5H455z
		 M489,531.1c0-6.1-5-11.1-11.1-11.1c0,0,0,0,0,0h22.1C494,520,489,525,489,531.1C489,531.1,489,531.1,489,531.1z M500.8,468.6
		c3-2.1,4.8-5.5,4.8-9.1c0,3.6,1.8,7,4.8,9.1H500.8z M505.5,430.3c0-4.8-3.1-9.1-7.7-10.5h15.4C508.6,421.2,505.5,425.5,505.5,430.3
		z M500.8,368.4c3-2.1,4.8-5.5,4.8-9.1c0,3.6,1.8,7,4.8,9.1H500.8z M505.5,330.1c0-4.8-3.1-9.1-7.7-10.5h15.4
		C508.6,321,505.5,325.3,505.5,330.1L505.5,330.1z M500.8,268.1c3-2.1,4.8-5.5,4.8-9.1c0,3.6,1.8,7,4.8,9.1H500.8z M505.5,229.8
		c0-4.8-3.1-9.1-7.7-10.5h15.4C508.6,220.7,505.5,225,505.5,229.8z M580.2,470.6c-3,2.1-4.8,5.5-4.8,9.1c0-3.6-1.8-7-4.8-9.1H580.2z
		 M564.4,520c6.1,0,11.1-5,11.1-11.1c0,0,0,0,0,0c0,6.1,5,11.1,11.1,11.1c0,0,0,0,0,0H564.4z"/>
	<path class="st2" d="M376.5,459.5"/>
	<path class="st2" d="M360,531.1c0-0.5,0-0.9-0.1-1.4C359.9,530.1,360,530.6,360,531.1z"/>
	<path class="st2" d="M294.8,308.4c0,0.4,0,0.7-0.1,1C294.8,309.1,294.8,308.8,294.8,308.4z"/>
	<path class="st2" d="M165.9,310.1c0.1,0.4,0.2,0.9,0.3,1.3C166.1,311,166,310.5,165.9,310.1z"/>
	<path class="st2" d="M42,375.4c-0.2-0.2-0.3-0.4-0.5-0.6c-0.2-0.3-0.3-0.6-0.3-0.9c0,0.8,0,1.5,0,2.3c0.3,1.1,0.5,2.2,0.5,3.3
		c0-1.1,0.2-2.2,0.5-3.2c-0.1-0.3-0.2-0.5-0.2-0.8C42,375.5,42,375.4,42,375.4z"/>
	<path class="st2" d="M193.5,167.9H86.6c-6.1,0-11.1,5-11.1,11.1c0,0,0,0,0,0c0-6.1-5-11.1-11.1-11.1c0,0,0,0,0,0H-42.4
		c-6.1,0-11.1,5-11.1,11.1c0,0,0,0,0,0v29.2c0,4.8,3.1,9.1,7.7,10.5h-82.9c-6.1,0-11.1,5-11.1,11.1c0,0,0,0,0,0v29.2
		c0,3.6,1.8,7,4.8,9.1h-75.3c-6.1,0-11.1,5-11.1,11.1c0,0,0,0,0,0v29.2c0,6.1,5,11.1,11.1,11.1c0,0,0,0,0,0h78.3
		c-4.6,1.5-7.7,5.7-7.7,10.5v29.2c0,3.6,1.8,7,4.8,9.1h-70.3c-6.1,0-11.1,5-11.1,11.1c0,0,0,0,0,0v29.2c0,6.1,5,11.1,11.1,11.1
		c0,0,0,0,0,0h73.3c-4.6,1.5-7.7,5.7-7.7,10.5v29.2c0,6.1,5,11.1,11.1,11.1l0,0H-65c-3,2.1-4.8,5.5-4.8,9.1v29.2
		c0,6.1,5,11.1,11.1,11.1h-86.5c-6.1,0-11.1,5-11.1,11.1c0,0,0,0,0,0v29.2c0,6.1,5,11.1,11.1,11.1c0,0,0,0,0,0h106.9
		c6.1,0,11.1-5,11.1-11.1v0c0,6.1,5,11.1,11.1,11.1c0,0,0,0,0,0H90.8c6.1,0,11.1-5,11.1-11.1v0v-29.2c0-4.1-2.3-7.9-6-9.8H72.8
		c-1.8,0-3.5-0.4-5.1-1.3H48.2c6.1,0,11.1-5,11.1-11.1l0,0c0,4.8,2.5-28,2.5-28c0-6.1,5-11.1,11.1-11.1c0,0,0,0,0,0l40.7-1.3
		c1.2-0.8,2.2-1.8,2.9-3c-0.6-1.4-0.9-2.8-0.9-4.3v-29.2c0-2.2,0.6-4.3,1.8-6.1c-0.9-2-2.3-3.8-4.2-5h-58c-2.1,0-4.2-0.6-6-1.8H34
		c4.6-1.5,7.7-5.7,7.7-10.5l-0.4-29c0-1.3-0.1-2.5-0.1-3.5c-0.7-2.4-2.2-4.4-4.2-5.8h9.5c-0.1,0-0.1,0.1-0.2,0.2
		c5.4-0.3,67.1-3.9,72.1-8c-0.1-0.8-0.2-1.5-0.1-2.3c-0.1-0.6-0.1-1.1-0.1-1.7v-29.2c0-0.4,0-0.7,0.1-1.1c-0.7-4.1-3.6-7.5-7.6-8.7
		h13.5c1.6-0.8,3.3-1.3,5.1-1.3h30.6c3.7-1.9,6-5.7,6-9.8v-29.2c0-3.6-1.8-7-4.8-9.1l-31.8-2c-5.4,0-8.9-2-6.1,0h-9.5
		c3-2.1,4.7-5.4,4.8-9c-0.1-0.7-0.2-1.4-0.2-2v-29.2c0,0,0,0,0-0.1c-0.8-4-3.6-7.3-7.5-8.5h11.6c2-1.6,4.5-2.5,7-2.5h71.3
		c2.6-2.1,4.1-5.2,4.1-8.6V179C204.6,172.9,199.7,167.9,193.5,167.9L193.5,167.9z M-87.6,270.1c-3,2.1-4.8,5.5-4.8,9.1
		c0-3.6-1.8-7-4.8-9.1H-87.6z M-92.3,308.4c0,4.8,3.1,9.1,7.7,10.5H-100C-95.5,317.5-92.3,313.3-92.3,308.4z M-82.6,370.4
		c-3,2.1-4.8,5.5-4.8,9.1c0-3.6-1.8-7-4.8-9.1H-82.6z M-95,419.2c4.6-1.5,7.7-5.7,7.7-10.5c0,4.8,3.1,9.1,7.7,10.5H-95z M41.5,270.1
		c-3,2.1-4.8,5.5-4.8,9.1c0-3.6-1.8-7-4.8-9.1H41.5z M-27.2,531.1c0-6.1-5-11.1-11.1-11.1c0,0,0,0,0,0h22.1
		C-22.2,520-27.2,525-27.2,531.1C-27.2,531.1-27.2,531.1-27.2,531.1z M-15.5,468.6c3-2.1,4.8-5.5,4.8-9.1c0,3.6,1.8,7,4.8,9.1H-15.5
		z M-10.7,430.3c0-4.8-3.1-9.1-7.7-10.5H-3C-7.6,421.2-10.7,425.5-10.7,430.3L-10.7,430.3z M-15.5,368.4c3-2.1,4.8-5.5,4.8-9.1
		c0,3.6,1.8,7,4.8,9.1H-15.5z M-10.7,330.1c0-4.8-3.1-9.1-7.7-10.5H-3C-7.6,321-10.7,325.3-10.7,330.1L-10.7,330.1z M-15.5,268.1
		c3-2.1,4.8-5.5,4.8-9.1c0,3.6,1.8,7,4.8,9.1H-15.5z M-10.7,229.8c0-4.8-3.1-9.1-7.7-10.5H-3C-7.6,220.7-10.7,225-10.7,229.8
		L-10.7,229.8z M29,319c4.6-1.5,7.7-5.7,7.7-10.5c0,4.8,3.1,9.1,7.7,10.5H29z M67.8,218.8c4.6-1.5,7.7-5.7,7.7-10.5
		c0,4.8,3.1,9.1,7.7,10.5H67.8z"/>
	<path class="st2" d="M169.4,271c0.1,0,0.1-0.1,0.2-0.1C169.5,270.9,169.5,271,169.4,271z"/>
	<path class="st2" d="M168.7,271.8c-0.1,0.1-0.1,0.1-0.2,0.2C168.6,271.9,168.6,271.8,168.7,271.8z"/>
	<path class="st2" d="M167.7,272.9c0,0,0.1-0.1,0.1-0.1C167.8,272.8,167.8,272.9,167.7,272.9z"/>
	<path class="st2" d="M166.2,311.6c0.1,0.4,0.3,0.9,0.5,1.3C166.5,312.5,166.4,312.1,166.2,311.6z"/>
	<path class="st2" d="M167.4,314.3c0.2,0.4,0.5,0.8,0.8,1.1C167.9,315,167.7,314.7,167.4,314.3z"/>
	<path class="st2" d="M166.8,313c0.2,0.4,0.4,0.8,0.7,1.2C167.2,313.9,167,313.4,166.8,313z"/>
	<path class="st2" d="M166.1,276.7c0-0.1,0.1-0.3,0.1-0.4C166.1,276.4,166.1,276.6,166.1,276.7z"/>
	<path class="st2" d="M166.4,275.4c0-0.1,0.1-0.2,0.1-0.3C166.5,275.2,166.5,275.3,166.4,275.4z"/>
	<path class="st2" d="M165.8,277.9c0-0.1,0-0.3,0.1-0.4C165.9,277.7,165.9,277.8,165.8,277.9z"/>
	<path class="st2" d="M167.1,274C167.1,274,167.1,274,167.1,274C167.1,274,167.1,274,167.1,274z"/>
	<path class="st3" d="M68,219.3H-43.4c-4.9,0-8.8-4-8.8-8.8v-33.7c0-4.9,4-8.8,8.8-8.8H68c4.9,0,8.8,4,8.8,8.8v33.7
		C76.8,215.3,72.9,219.3,68,219.3z"/>
	<path class="st3" d="M453.9,219.3H342.5c-4.9,0-8.8-4-8.8-8.8v-33.7c0-4.9,4-8.8,8.8-8.8h111.4c4.9,0,8.8,4,8.8,8.8v33.7
		C462.7,215.3,458.8,219.3,453.9,219.3z"/>
	<path class="st3" d="M625.5,269.4H514.2c-4.9,0-8.8-4-8.8-8.8v-33.7c0-4.9,4-8.8,8.8-8.8h111.4c4.9,0,8.8,4,8.8,8.8v33.7
		C634.4,265.4,630.4,269.4,625.5,269.4z"/>
	<path class="st3" d="M415,319.5H303.7c-4.9,0-8.8-4-8.8-8.8V277c0-4.9,4-8.8,8.8-8.8H415c4.9,0,8.8,4,8.8,8.8v33.7
		C423.9,315.6,419.9,319.5,415,319.5z"/>
	<path class="st3" d="M625.5,370.9H514.2c-4.9,0-8.8-4-8.8-8.8v-33.7c0-4.9,4-8.8,8.8-8.8h111.4c4.9,0,8.8,4,8.8,8.8v33.7
		C634.4,366.9,630.4,370.9,625.5,370.9z"/>
	<path class="st3" d="M625.5,471.1H514.2c-4.9,0-8.8-4-8.8-8.8v-33.7c0-4.9,4-8.8,8.8-8.8h111.4c4.9,0,8.8,4,8.8,8.8v33.7
		C634.4,467.2,630.4,471.1,625.5,471.1z"/>
	<path class="st3" d="M567.4,469.9H454.5c-3.6,0-6.7,2.4-7.7,5.8c0,0.5,0,0.9-0.1,1.4c-0.1,0.3-0.1,0.5-0.2,0.8c0,0,0,0.1,0,0.1
		v35.2c0,4.5,3.6,8.1,8.1,8.1h112.9c4.5,0,8.1-3.6,8.1-8.1v-35.2C575.5,473.5,571.9,469.9,567.4,469.9L567.4,469.9z"/>
	<path class="st3" d="M480.2,571.4H368.8c-4.9,0-8.8-4-8.8-8.8v-33.7c0-4.9,4-8.8,8.8-8.8h111.4c4.9,0,8.8,4,8.8,8.8v33.7
		C489,567.4,485.1,571.4,480.2,571.4z"/>
	<path class="st3" d="M109.3,269.4H-2.1c-4.9,0-8.8-4-8.8-8.8v-33.7c0-4.9,4-8.8,8.8-8.8h111.4c4.9,0,8.8,4,8.8,8.8v33.7
		C118.2,265.4,114.2,269.4,109.3,269.4z"/>
	<path class="st3" d="M29.1,319.5H-82.2c-4.9,0-8.8-4-8.8-8.8V277c0-4.9,4-8.8,8.8-8.8H29.1c4.9,0,8.8,4,8.8,8.8v33.7
		C38,315.6,34,319.5,29.1,319.5z"/>
	<path class="st3" d="M-19.7,370.9h-111.4c-4.9,0-8.8-4-8.8-8.8v-33.7c0-4.9,4-8.8,8.8-8.8h111.4c4.9,0,8.8,4,8.8,8.8v33.7
		C-10.9,366.9-14.9,370.9-19.7,370.9z"/>
	<path class="st3" d="M32.9,421H-78.5c-4.9,0-8.8-4-8.8-8.8v-33.7c0-4.9,4-8.8,8.8-8.8H32.9c4.9,0,8.8,4,8.8,8.8v33.7
		C41.7,417.1,37.8,421,32.9,421z"/>
	<path class="st3" d="M-19.7,471.1h-111.4c-4.9,0-8.8-4-8.8-8.8v-33.7c0-4.9,4-8.8,8.8-8.8h111.4c4.9,0,8.8,4,8.8,8.8v33.7
		C-10.9,467.2-14.9,471.1-19.7,471.1z"/>
	<path class="st2" d="M-78.1,521.3h-111.4c-4.9,0-8.8-4-8.8-8.8v-33.7c0-4.9,4-8.8,8.8-8.8h111.4c4.9,0,8.8,4,8.8,8.8v33.7
		C-69.3,517.3-73.2,521.3-78.1,521.3z"/>
	<path class="st2" d="M675.4,421H564c-4.9,0-8.8-4-8.8-8.8v-33.7c0-4.9,4-8.8,8.8-8.8h111.4c4.9,0,8.8,4,8.8,8.8v33.7
		C684.2,417,680.3,421,675.4,421z"/>
	<path class="st2" d="M669.9,319.7H558.5c-4.9,0-8.8-4-8.8-8.8v-33.7c0-4.9,4-8.8,8.8-8.8h111.4c4.9,0,8.8,4,8.8,8.8v33.7
		C678.8,315.7,674.8,319.7,669.9,319.7z"/>
	<path class="st2" d="M734.7,570.6H623.3c-4.9,0-8.8-4-8.8-8.8V528c0-4.9,4-8.8,8.8-8.8h111.4c4.9,0,8.8,4,8.8,8.8v33.7
		C743.5,566.6,739.6,570.6,734.7,570.6z"/>
	<path class="st2" d="M-164.8,571.5h-111.4c-4.9,0-8.8-4-8.8-8.8v-33.7c0-4.9,4-8.8,8.8-8.8h111.4c4.9,0,8.8,4,8.8,8.8v33.7
		C-155.9,567.5-159.9,571.5-164.8,571.5z"/>
	<path class="st2" d="M-147.5,470.2h-111.4c-4.9,0-8.8-4-8.8-8.8v-33.7c0-4.9,4-8.8,8.8-8.8h111.4c4.9,0,8.8,4,8.8,8.8v33.7
		C-138.6,466.3-142.6,470.2-147.5,470.2z"/>
	<path class="st2" d="M-147.5,370.8h-111.4c-4.9,0-8.8-4-8.8-8.8v-33.7c0-4.9,4-8.8,8.8-8.8h111.4c4.9,0,8.8,4,8.8,8.8v33.7
		C-138.6,366.8-142.6,370.8-147.5,370.8z"/>
	<path class="st2" d="M-142.9,269.5h-111.4c-4.9,0-8.8-4-8.8-8.8V227c0-4.9,4-8.8,8.8-8.8h111.4c4.9,0,8.8,4,8.8,8.8v33.7
		C-134.1,265.6-138,269.5-142.9,269.5z"/>
	<path class="st3" d="M-142.9,269.5h-111.4c-4.9,0-8.8-4-8.8-8.8V227c0-4.9,4-8.8,8.8-8.8h111.4c4.9,0,8.8,4,8.8,8.8v33.7
		C-134.1,265.6-138,269.5-142.9,269.5z"/>
	<path class="st2" d="M-60.8,219.3h-111.4c-4.9,0-8.8-4-8.8-8.8v-33.7c0-4.9,4-8.8,8.8-8.8h111.4c4.9,0,8.8,4,8.8,8.8v33.7
		C-51.9,215.4-55.9,219.3-60.8,219.3z"/>
	<path class="st3" d="M51.7,521.2H-59.7c-4.9,0-8.8-4-8.8-8.8v-33.7c0-4.9,4-8.8,8.8-8.8H51.7c4.9,0,8.8,4,8.8,8.8v33.7
		C60.5,517.3,56.6,521.2,51.7,521.2z"/>
	<path class="st3" d="M-36,571.4h-111.4c-4.9,0-8.8-4-8.8-8.8v-33.7c0-4.9,4-8.8,8.8-8.8H-36c4.9,0,8.8,4,8.8,8.8v33.7
		C-27.2,567.4-31.1,571.4-36,571.4z"/>
</g>
<circle class="st4" cx="525.3" cy="78.4" r="28.9"/>
<path class="st0" d="M-33.1,130.8h-6.9c2.7,0,4.8-2.1,4.8-4.8c0-2.7-2.1-4.8-4.8-4.8c0,0,0,0,0,0h-55.7c-2.7,0-4.8,2.1-4.8,4.8
	c0,2.7,2.1,4.8,4.8,4.8c0,0,0,0,0,0h6.9c-2.7,0-4.8,2.1-4.8,4.8s2.1,4.8,4.8,4.8c0,0,0,0,0,0h-9.6c-2.7,0-4.8,2.2-4.8,4.8
	c0,2.6,2.2,4.8,4.8,4.8h55.7c2.7,0,4.8-2.2,4.8-4.8c0-2.6-2.2-4.8-4.8-4.8h9.6c2.7,0,4.8-2.2,4.8-4.8
	C-28.3,133-30.4,130.8-33.1,130.8z"/>
<path class="st0" d="M521.7,74.9h-5.2c2,0,3.7-1.6,3.7-3.7s-1.6-3.7-3.7-3.7H474c-2,0-3.7,1.6-3.7,3.7s1.6,3.7,3.7,3.7h5.2
	c-2,0-3.7,1.6-3.7,3.7s1.6,3.7,3.7,3.7h-7.3c-2,0-3.7,1.6-3.7,3.7s1.6,3.7,3.7,3.7l0,0h42.4c2,0,3.7-1.6,3.7-3.7s-1.6-3.7-3.7-3.7
	h7.3c2,0,3.7-1.6,3.7-3.7S523.7,74.9,521.7,74.9L521.7,74.9z"/>
<path class="st0" d="M98.9,62.8h-6.9c2.7,0,4.8-2.1,4.8-4.8c0-2.7-2.1-4.8-4.8-4.8c0,0,0,0,0,0H36.3c-2.7,0-4.8,2.1-4.8,4.8
	c0,2.7,2.1,4.8,4.8,4.8c0,0,0,0,0,0h6.9c-2.7,0-4.8,2.1-4.8,4.8c0,2.7,2.1,4.8,4.8,4.8c0,0,0,0,0,0h-9.6c-2.7,0-4.8,2.2-4.8,4.8
	c0,2.6,2.2,4.8,4.8,4.8h55.7c2.7,0,4.8-2.2,4.8-4.8c0-2.6-2.2-4.8-4.8-4.8h9.6c2.7,0,4.8-2.2,4.8-4.8C103.7,65,101.6,62.8,98.9,62.8
	z"/>
<path class="st2" d="M105.9,314.2h206.1c7.2,0,13,5.8,13,13v81.7c0,7.2-5.8,13-13,13H105.9c-7.2,0-13-5.8-13-13v-81.7
	C92.9,320,98.7,314.2,105.9,314.2z"/>
<rect x="111.4" y="405.3" class="st3" width="195" height="2"/>
<rect x="111.4" y="331" class="st5" width="195" height="74"/>
<circle class="st3" cx="156.8" cy="369.6" r="26.9"/>
<circle class="st3" cx="261" cy="369.6" r="26.9"/>
<rect x="188.7" y="421.8" class="st2" width="40.3" height="23.5"/>
<rect x="124.8" y="438.6" class="st2" width="168.1" height="134.5"/>
<rect x="121.5" y="600" class="st2" width="174.8" height="16.8"/>
<polygon class="st2" points="150.1,657.2 150.1,677.4 150.1,707.6 150.1,724.4 150.1,734.5 180.3,734.5 180.3,724.4 180.3,707.6 
	180.3,677.4 180.3,657.2 180.3,633.7 150.1,633.7 "/>
<polygon class="st2" points="240.9,633.7 240.9,657.2 240.9,677.4 240.9,707.6 240.9,724.4 240.9,734.5 271.1,734.5 271.1,724.4 
	271.1,707.6 271.1,677.4 271.1,657.2 271.1,633.7 "/>
<path class="st2" d="M101.9,468.9V500c-8.3,1.5-16,5.2-22.4,10.8c-5.9,5.4-10.4,12.1-13.3,19.5c-3.9,9.4-5.8,19.9-6.6,29.8
	c-1,13.3-0.3,26.8,1.9,40H28c-1.4-18.6-1-34.5,0.9-48.2c2.1-15.4,5.9-28,10.8-38.2c9.7-20.4,23.6-31.5,35.8-37.5
	C89.9,468.9,101.9,468.9,101.9,468.9z"/>
<rect x="150.1" y="633.7" class="st5" width="30.3" height="23.5"/>
<rect x="150.1" y="677.4" class="st5" width="30.3" height="30.3"/>
<rect x="150.1" y="724.4" class="st5" width="30.3" height="10.1"/>
<rect x="240.9" y="633.7" class="st5" width="30.3" height="23.5"/>
<rect x="240.9" y="677.4" class="st5" width="30.3" height="30.3"/>
<rect x="240.9" y="724.4" class="st5" width="30.3" height="10.1"/>
<path class="st5" d="M101.9,468.9V500c-8.3,1.5-16,5.2-22.4,10.8L75.4,476C89.9,468.9,101.9,468.9,101.9,468.9z"/>
<path class="st5" d="M66.3,530.3c-3.9,9.4-5.8,19.9-6.6,29.8l-30.9-8.3c2.1-15.4,5.9-28,10.8-38.2L66.3,530.3z"/>
<path class="st2" d="M315.9,468.9V500c8.3,1.5,16,5.2,22.4,10.8c5.9,5.4,10.4,12.1,13.3,19.5c3.9,9.4,5.8,19.9,6.6,29.8
	c1,13.3,0.3,26.8-1.9,40h33.6c1.4-18.6,1-34.5-0.9-48.2c-2.1-15.4-5.9-28-10.8-38.2c-9.7-20.4-23.6-31.5-35.8-37.5
	C328,468.9,315.9,468.9,315.9,468.9z"/>
<path class="st5" d="M315.9,468.9V500c8.3,1.5,16,5.2,22.4,10.8l4.2-34.7C328,468.9,315.9,468.9,315.9,468.9z"/>
<path class="st5" d="M351.5,530.3c3.9,9.4,5.8,19.9,6.6,29.8l30.9-8.3c-2.1-15.4-5.9-28-10.8-38.2L351.5,530.3z"/>
<rect x="188.7" y="421.8" class="st3" width="40.3" height="2.8"/>
<path class="st3" d="M296,462.6v56.3c-2-2.2-3.1-5-3.1-8v-40.4C292.8,467.6,293.9,464.8,296,462.6z"/>
<path class="st3" d="M125.4,466.3v42.2c-0.2,2.7-1.3,5.2-3.1,7.1v-56.4C124.1,461.1,125.2,463.6,125.4,466.3z"/>
<rect x="133.3" y="573.1" class="st3" width="151.3" height="2"/>
<rect x="129.9" y="616.8" class="st3" width="74" height="1.5"/>
<rect x="210.6" y="616.8" class="st3" width="74" height="1.5"/>
<rect x="138.1" y="214.6" class="st2" width="11.6" height="99.6"/>
<rect x="270.9" y="214.6" class="st2" width="11.6" height="99.6"/>
<circle class="st3" cx="143.5" cy="215.4" r="13.1"/>
<circle class="st2" cx="143.5" cy="214.6" r="13.1"/>
<circle class="st3" cx="277.1" cy="215.4" r="13.1"/>
<circle class="st2" cx="277.1" cy="214.6" r="13.1"/>
<path class="st6" d="M-133.5,519.7c0,0,38.4,75.4,7.1,116.6s2.8,153.6,2.8,153.6"/>
<path class="st7" d="M-122.1,496.2c0,14.5-10.7,26.3-10.7,26.3s-10.7-11.8-10.7-26.3s10.7-26.3,10.7-26.3S-122.1,481.7-122.1,496.2z
	"/>
<path class="st8" d="M-113.6,519.7c0,0-38.4,75.4-7.1,116.6s-2.8,153.6-2.8,153.6"/>
<path class="st9" d="M-124.9,496.2c0,14.5,10.7,26.3,10.7,26.3s10.7-11.8,10.7-26.3s-10.7-26.3-10.7-26.3S-124.9,481.7-124.9,496.2z
	"/>
<path class="st6" d="M-97.9,519.7c0,0,38.4,75.4,7.1,116.6S-88,789.9-88,789.9"/>
<path class="st7" d="M-86.5,496.2c0,14.5-10.7,26.3-10.7,26.3s-10.7-11.8-10.7-26.3s10.7-26.3,10.7-26.3S-86.5,481.7-86.5,496.2z"/>
<path class="st7" d="M-92.5,556.6c-10.1,10.5-25.9,11.6-25.9,11.6s0.5-15.9,10.6-26.4S-82,530.3-82,530.3S-82.4,546.1-92.5,556.6z"
	/>
<path class="st7" d="M-91.5,608.6c-10.1,10.5-25.9,11.6-25.9,11.6s0.5-15.9,10.6-26.4S-81,582.3-81,582.3S-81.4,598.1-91.5,608.6z"
	/>
<path class="st7" d="M-146.2,637.2c9.5,11,9.2,26.9,9.2,26.9s-15.8-1.9-25.3-12.9s-9.2-26.9-9.2-26.9S-155.7,626.3-146.2,637.2z"/>
<path class="st7" d="M-137.3,526.3c12.1,8,16,23.4,16,23.4s-15.7,2.4-27.8-5.6s-16-23.4-16-23.4S-149.4,518.3-137.3,526.3z"/>
<path class="st8" d="M-78,519.7c0,0-38.4,75.4-7.1,116.6S-88,789.9-88,789.9"/>
<path class="st9" d="M-89.4,496.2c0,14.5,10.7,26.3,10.7,26.3s10.7-11.8,10.7-26.3s-10.7-26.3-10.7-26.3S-89.4,481.7-89.4,496.2z"/>
<path class="st9" d="M-86.3,557.7C-96.5,568.1-97.2,584-97.2,584s15.9-0.9,26.1-11.3s10.9-26.2,10.9-26.2S-76.1,547.4-86.3,557.7z"
	/>
<path class="st9" d="M-66.3,629.7C-76.5,640.1-77.2,656-77.2,656s15.9-0.9,26.1-11.3s10.9-26.2,10.9-26.2S-56.1,619.4-66.3,629.7z"
	/>
<path class="st8" d="M-95.7,613.9c0,0,23.1-36.4,55.6-37.2"/>
<path class="st6" d="M-113.7,591.9c0,0-23.1-36.4-55.6-37.2"/>
<path class="st8" d="M-116.7,643.9c0,0,23.1-36.4,55.6-37.2"/>
<circle class="st9" cx="-41.2" cy="576.4" r="6"/>
<circle class="st7" cx="-168.7" cy="554.9" r="6"/>
<path class="st6" d="M-99.7,655.9c0,0-23.1-36.4-55.6-37.2"/>
<circle class="st7" cx="-154.7" cy="618.9" r="6"/>
<circle class="st9" cx="-60.7" cy="606.9" r="6"/>
<path class="st10" d="M28,746.1c0,0-55.7-11.1-70.6-26s-81.7-40.8-89.1-22.3s-100.3,81.7-37.1,92.8s148.5,14.9,167.1,7.4
	S28,746.1,28,746.1z"/>
<path class="st11" d="M-168.8,783.8c63.1,11.1,148.5,14.9,167.1,7.4c14.1-5.7,24-32.8,27.9-45.5c1.2,0.3,1.9,0.4,1.9,0.4
	s-11.1,44.6-29.7,52s-104,3.7-167.1-7.4c-18.2-3.2-23.4-10.8-21.5-20.3C-188.7,776.6-182.4,781.4-168.8,783.8z"/>
<path class="st7" d="M629.6,533c0,0,13.3,17.5-6.2,43.8s-35.6,48.6-29.1,65c0,0,29.4-48.9,53.4-49.6S656,562.4,629.6,533z"/>
<path class="st3" d="M629.6,533c1.2,1.7,2.1,3.5,2.7,5.5c23.4,27.5,35.8,53.1,13.4,53.7c-20.9,0.6-46,38-52,47.5
	c0.2,0.7,0.4,1.4,0.7,2.2c0,0,29.4-48.9,53.4-49.6C671.7,591.5,656,562.4,629.6,533z"/>
<path class="st9" d="M654.5,555.2c0,6.1-0.7,11.1-1.5,11.1s-1.5-5-1.5-11.1s0.9-3.3,1.7-3.3S654.5,549.1,654.5,555.2z"/>
<path class="st9" d="M663,562.6c-5.4,2.9-10.1,4.7-10.5,4s3.6-3.7,9-6.7s3.3-0.8,3.7-0.1S668.4,559.6,663,562.6z"/>
<path class="st7" d="M559.2,533c0,0-13.3,17.5,6.2,43.8s35.6,48.6,29.1,65c0,0-29.4-48.9-53.4-49.6S532.8,562.4,559.2,533z"/>
<path class="st3" d="M559.2,533c-1.2,1.7-2.1,3.5-2.7,5.5c-23.4,27.5-35.8,53.1-13.4,53.7c20.9,0.6,46,38,52,47.5
	c-0.2,0.7-0.4,1.4-0.7,2.2c0,0-29.4-48.9-53.4-49.6S532.8,562.4,559.2,533z"/>
<path class="st9" d="M534.3,555.2c0,6.1,0.7,11.1,1.5,11.1s1.5-5,1.5-11.1s-0.9-3.3-1.7-3.3S534.3,549.1,534.3,555.2z"/>
<path class="st9" d="M525.8,562.6c5.4,2.9,10.1,4.7,10.5,4s-3.6-3.7-9-6.7s-3.3-0.8-3.7-0.1S520.4,559.6,525.8,562.6z"/>
<path class="st10" d="M538.6,639.5c0,0,37.3-1.1,48.6-9.2s57.4-17.6,60.2-4.7s56.1,63.9,13.9,64.2s-97.9-6.6-109.1-13.4
	S538.6,639.5,538.6,639.5z"/>
<path class="st11" d="M662,685.4c-42.1,0.3-97.9-6.6-109.1-13.4c-8.5-5.2-12-23.9-13.1-32.5c-0.8,0-1.2,0-1.2,0s2.4,30.1,13.6,36.9
	s67,13.7,109.1,13.4c12.2-0.1,16.4-4.4,16.1-10.8C675.7,682.9,671.1,685.3,662,685.4z"/>
</svg>
