<?xml version="1.0" encoding="utf-8"?>
<!-- Generator: Adobe Illustrator 19.0.0, SVG Export Plug-In . SVG Version: 6.00 Build 0)  -->
<svg version="1.1" id="afcf7ba7-9a9d-4a96-99b1-c6a86c14369d"
	 xmlns="http://www.w3.org/2000/svg" xmlns:xlink="http://www.w3.org/1999/xlink" x="0px" y="0px" viewBox="-237 40.2 1124.7 770.8"
	 style="enable-background:new -237 40.2 1124.7 770.8;" xml:space="preserve">
<style type="text/css">
	.st0{opacity:0.1;fill:#6C63FF;enable-background:new    ;}
	.st1{fill:none;stroke:#535461;stroke-width:3;stroke-miterlimit:10;}
	.st2{fill:#6C63FF;}
	.st3{opacity:0.1;enable-background:new    ;}
	.st4{opacity:0.3;enable-background:new    ;}
	.st5{opacity:0.5;fill:#DEE3F3;enable-background:new    ;}
	.st6{fill:#A8A8A8;}
	.st7{opacity:0.2;enable-background:new    ;}
	.st8{fill:url(#SVGID_1_);}
	.st9{fill:#F7C4A7;}
	.st10{fill:#535461;}
	.st11{fill:#575988;}
	.st12{fill:#E14B5A;}
	.st13{fill:#632652;}
	.st14{opacity:0.5;fill:#FFFFFF;enable-background:new    ;}
	.st15{fill:url(#SVGID_2_);}
	.st16{opacity:0.1;}
	.st17{fill:#FFFFFF;}
	.st18{opacity:0.1;fill:none;stroke:#000000;stroke-miterlimit:10;enable-background:new    ;}
	.st19{fill:#6A5C99;}
	.st20{fill:#FFD037;}
	.st21{fill:#D6D6E3;}
</style>
<title>Firmware</title>
<path class="st0" d="M823.8,477.6c-37.7,47.9-23,117.8,0.9,173.9c8,18.8,17.1,38.6,13.7,58.7c-4.1,24.6-26.1,42.6-49.1,52.1
	c-42,17.4-92.3,13.2-130.9-10.8c-33.4-20.8-57.3-54.5-91.2-74.3c-56.8-33.2-129.1-20.6-190.7,2.2c-43.6,16.2-91.3,37.2-134.7,20.3
	c-30.5-11.9-51.6-40.8-63.1-71.5c-5.5-14.8-9.6-30.8-20.2-42.6c-6.3-7-14.5-11.9-22.9-16.1c-76.9-38.1-174-17.7-248.6-60
	c-50.4-28.6-82.7-82.4-97-138.6c-14.3-56.2-12.6-115-9-172.9c2.6-41.1,7.2-85,33.5-116.7c27.8-33.6,75.5-46,118.6-39.7
	S15.1,70.9,49.5,97.7c42.9,33.5,82.8,75.1,135.5,88.7c35.9,9.2,73.7,4.2,110.7,2.4c61.9-2.9,123.9,3.6,185.4,10.7
	c58.9,6.8,118.3,14.3,174.5,33.5c39.7,13.6,71.6,38.2,109.1,55.4c24.5,11.2,51.1,14.3,74.3,28.6c28.5,17.6,54.7,48.2,47.4,84
	C879.5,435.1,843.8,452.2,823.8,477.6z"/>
<path class="st1" d="M498,187.1c0,0-60.5-17.9-64.5,33.1s16,135,0,162s-73.1,66-43,69.5s45,8.5,36,26.5s-56,35-46,48s15,29,5,45
	s-45,26-39,37s28,17,17,29s-42.9,39.3-30.4,39.1"/>
<path class="st2" d="M458.8,153.1h127.7c7.2,0,13,5.8,13,13v45.3c0,7.2-5.8,13-13,13H458.8c-7.2,0-13-5.8-13-13v-45.3
	C445.8,158.9,451.6,153.1,458.8,153.1z"/>
<rect x="458.1" y="213.4" class="st3" width="129.1" height="1.3"/>
<rect x="458.1" y="164.2" class="st4" width="129.1" height="49"/>
<circle class="st3" cx="488.1" cy="189.8" r="17.8"/>
<circle class="st3" cx="557.2" cy="189.8" r="17.8"/>
<rect x="509.3" y="224.4" class="st2" width="26.7" height="15.6"/>
<rect x="467" y="235.5" class="st2" width="111.3" height="89.1"/>
<rect x="464.8" y="342.3" class="st2" width="115.8" height="11.1"/>
<polygon class="st2" points="483.7,380.2 483.7,393.5 483.7,413.6 483.7,424.7 483.7,431.4 503.7,431.4 503.7,424.7 503.7,413.6 
	503.7,393.5 503.7,380.2 503.7,364.6 483.7,364.6 "/>
<polygon class="st2" points="543.8,364.6 543.8,380.2 543.8,393.5 543.8,413.6 543.8,424.7 543.8,431.4 563.8,431.4 563.8,424.7 
	563.8,413.6 563.8,393.5 563.8,380.2 563.8,364.6 "/>
<path class="st2" d="M451.8,255.5v20.6c-5.5,1-10.6,3.4-14.8,7.1c-3.9,3.6-6.9,8-8.8,12.9c-2.5,6.3-3.9,13-4.3,19.7
	c-0.6,8.8-0.2,17.7,1.2,26.5h-22.3c-0.9-10.6-0.7-21.3,0.6-31.9c1.1-8.8,3.5-17.3,7.1-25.3c6.4-13.5,15.6-20.9,23.7-24.9
	C439.7,257.5,445.7,255.8,451.8,255.5z"/>
<rect x="483.7" y="364.6" class="st4" width="20" height="15.6"/>
<rect x="483.7" y="393.5" class="st4" width="20" height="20"/>
<rect x="483.7" y="424.7" class="st4" width="20" height="6.7"/>
<rect x="543.8" y="364.6" class="st4" width="20" height="15.6"/>
<rect x="543.8" y="393.5" class="st4" width="20" height="20"/>
<rect x="543.8" y="424.7" class="st4" width="20" height="6.7"/>
<path class="st4" d="M451.8,255.5v20.6c-5.5,1-10.6,3.4-14.8,7.1l-2.8-23C439.7,257.5,445.7,255.8,451.8,255.5z"/>
<path class="st4" d="M428.2,296.2c-2.5,6.3-3.9,13-4.3,19.7l-20.4-5.5c1.1-8.8,3.5-17.3,7.1-25.3L428.2,296.2z"/>
<path class="st2" d="M593.5,255.5v20.6c5.5,1,10.6,3.4,14.8,7.1c3.9,3.6,6.9,8,8.8,12.9c2.5,6.3,3.9,13,4.3,19.7
	c0.6,8.8,0.2,17.7-1.2,26.5h22.3c0.9-10.6,0.7-21.3-0.6-31.9c-1.1-8.8-3.5-17.3-7.1-25.3c-6.4-13.5-15.6-20.9-23.7-24.9
	C605.6,257.5,599.6,255.8,593.5,255.5z"/>
<path class="st4" d="M593.5,255.5v20.6c5.5,1,10.6,3.4,14.8,7.1l2.8-23C605.6,257.5,599.6,255.8,593.5,255.5z"/>
<path class="st4" d="M617.1,296.2c2.5,6.3,3.9,13,4.3,19.7l20.4-5.5c-1.1-8.8-3.5-17.3-7.1-25.3L617.1,296.2z"/>
<rect x="509.3" y="224.4" class="st3" width="26.7" height="1.8"/>
<path class="st3" d="M580.3,251.4v37.3c-1.3-1.4-2.1-3.3-2.1-5.3v-26.7C578.2,254.7,579,252.8,580.3,251.4z"/>
<path class="st3" d="M467.4,253.8v27.9c-0.1,1.8-0.9,3.4-2.1,4.7v-37.4C466.5,250.4,467.3,252,467.4,253.8z"/>
<rect x="472.6" y="324.5" class="st3" width="100.2" height="1.3"/>
<rect x="470.3" y="353.5" class="st3" width="49" height="1"/>
<rect x="523.8" y="353.5" class="st3" width="49" height="1"/>
<rect x="475.8" y="87.2" class="st2" width="7.7" height="65.9"/>
<rect x="563.7" y="87.2" class="st2" width="7.7" height="65.9"/>
<circle class="st3" cx="479.4" cy="87.7" r="8.7"/>
<circle class="st2" cx="479.4" cy="87.2" r="8.7"/>
<circle class="st3" cx="567.8" cy="87.7" r="8.7"/>
<circle class="st2" cx="567.8" cy="87.2" r="8.7"/>
<path class="st5" d="M387,469.2c-3.4,3.4-4.2,8.1-5.4,12.5c-3.5,12.4-11.6,23.9-23,32.4c-8.3,6.2-19.5,13-17.5,22.2
	c0.5,2.2,1.7,4.3,2,6.5c1.4,9.6-13.3,14.7-19,23.1c-4.2,6.3-3.1,14-1.8,21.2c1.5,8.7,3.4,18.1,10.6,24.5c1.9,1.7,4.2,3.2,5.6,5.3
	c3,4.7,0.4,10.8,3.1,15.6c3.7,6.4,15.2,6.7,21.9,2.4s9.8-11.4,12.8-18.1c8-18,17.9-36.1,34.5-49.2c16-12.6,39.2-22.3,42-40.6
	c1.2-7.8-1.8-16.4,2.7-23.4c2.2-3.3,5.7-5.7,8.2-8.8c7.3-9.3,1.9-22.8-8.8-29.4C438.9,455.4,400.9,455.2,387,469.2z"/>
<rect x="597" y="145.7" transform="matrix(-0.9545 0.2982 -0.2982 -0.9545 1283.9396 104.4074)" class="st2" width="74" height="9"/>
<path class="st6" d="M699.4,469.2c0,0-38.7-7.7-49.1-18.1s-56.8-28.4-62-15.5s-69.7,56.8-25.8,64.5s103.3,10.3,116.2,5.2
	S699.4,469.2,699.4,469.2z"/>
<path class="st7" d="M562.6,495.4c43.9,7.7,103.3,10.3,116.2,5.2c9.8-3.9,16.7-22.8,19.4-31.6c0.8,0.2,1.3,0.3,1.3,0.3
	s-7.7,31-20.7,36.1s-72.3,2.6-116.2-5.2c-12.7-2.2-16.3-7.5-14.9-14.1C548.8,490.4,553.2,493.7,562.6,495.4z"/>
<linearGradient id="SVGID_1_" gradientUnits="userSpaceOnUse" x1="732.1517" y1="255.9213" x2="732.1517" y2="675.1157" gradientTransform="matrix(1 0 0 -1 -37.6617 787.098)">
	<stop  offset="0" style="stop-color:#808080;stop-opacity:0.25"/>
	<stop  offset="0.5351" style="stop-color:#808080;stop-opacity:0.12"/>
	<stop  offset="1" style="stop-color:#808080;stop-opacity:0.1"/>
</linearGradient>
<path class="st8" d="M785.4,131.6c-0.7-1.7-1.8-3.2-3.2-4.4c-10.4-9.5-27.2-6.6-40.1-12.4c-3-1.3-6-3.2-9.2-2.7
	c-4.5,0.7-8.7,5.8-12.6,3.6l0.3,0.9c-0.1,0-0.2-0.1-0.3-0.1c1,2.9,1.9,5.9,2.9,8.8c1.1,3.4,2.3,6.9,4.4,9.7
	c-10.5,9.2-11.6,25.2-2.4,35.7c2.4,2.7,5.3,4.9,8.6,6.4c0.1,0.3,0.3,0.6,0.4,0.9c0.1,0.1,0.2,0.1,0.4,0.2c0.9,2,1.5,4,1.9,6.1
	c-3.3,0.5-9.2,4.2-14.9,9.6l-11.5-0.4c-7.4-0.2-14.6-2.7-20.6-7l-34.3-24.7c-2.4,0.2-4.7,1.3-6.6,2.9c-4.3-4.4-7.9-9.1-7.6-11.8
	c0,0-15.9-29.8-21.7-14.9s10.9,30.6,10.9,30.6l10.6,13.7c-0.4,2.4-0.7,4.8-0.8,7.3c13,14.9,58.7,28.4,58.7,28.4l7.1,0.3
	c0,0.1,0,0.2,0,0.3c-0.4,1.9-0.7,3.8-0.6,5.7c0,0.3,0,0.6,0,0.9c0,0.2,0,0.4,0,0.6c0.4,23.8,3.6,96.6,3.6,96.6
	c0.6-0.3,1.3-0.5,2-0.8l-0.5,6.5c0,0-30.4,4.3-52.9,12.8s-23.2,18.5-23.2,18.5V447c-6.4,3.3-16.5,7.6-21.7,5.3
	c-5.6-2.5-8.7-0.4-9.3,1.8l0,0v0c-0.1,0.4-0.1,0.9,0,1.3l0,0c0,0.2,0.1,0.4,0.2,0.6l0,0c0.1,0.2,0.2,0.4,0.4,0.5
	c2.2,2.1,49.3,20.6,60.2,17.8c0.3-0.1,0.7-0.2,1-0.3c0.1,0,0.2-0.1,0.3-0.1c0.2-0.1,0.4-0.2,0.6-0.3c0.1-0.1,0.2-0.1,0.3-0.2
	c0.2-0.1,0.3-0.2,0.5-0.3c0.1-0.1,0.2-0.2,0.3-0.3c0.1-0.1,0.3-0.2,0.4-0.4c0.1-0.1,0.2-0.2,0.3-0.3c0.1-0.1,0.2-0.3,0.4-0.4
	c0.1-0.1,0.2-0.2,0.2-0.3c0.1-0.2,0.2-0.3,0.3-0.5c0.1-0.1,0.1-0.2,0.2-0.4c0.1-0.2,0.2-0.4,0.3-0.5c0.1-0.1,0.1-0.2,0.2-0.4
	c0.1-0.2,0.2-0.4,0.3-0.6c0-0.1,0.1-0.2,0.1-0.4c0.1-0.2,0.2-0.4,0.2-0.7c0-0.1,0.1-0.2,0.1-0.4c0.1-0.2,0.1-0.5,0.2-0.7
	c0-0.1,0-0.2,0.1-0.3c0.1-0.3,0.1-0.5,0.2-0.8c0-0.1,0-0.2,0-0.3c0-0.3,0.1-0.6,0.1-0.9c0-0.1,0-0.2,0-0.3c0-0.3,0.1-0.6,0.1-0.9
	c0-0.1,0-0.1,0-0.2c0-0.3,0-0.7,0.1-1c0,0,0-0.1,0-0.1c0-0.4,0-0.7,0-1.1l0-0.1c0-4.2-0.5-8.5-1.4-12.6l0,0l2.6-74.8
	c14.2,0.2,28.5-0.3,42.7-1.6l1.6,35.7c0,0,0,23.4,8,34.1c6.8,9.1,14.7,49.5,16.8,60.9c-2.9,5.6-8.5,12.5-18.3,12.3
	c0,0-18.4-1.6-17.3,3.5l0,0c0,0.1,0.1,0.3,0.1,0.4l0,0c0.1,0.1,0.1,0.3,0.2,0.4l0,0c0.1,0.1,0.2,0.3,0.3,0.4c0,0,0,0.1,0.1,0.1
	c0.1,0.1,0.2,0.3,0.4,0.5l0,0c0.1,0.1,0.3,0.3,0.4,0.4c0,0,0.1,0.1,0.1,0.1c0.2,0.2,0.3,0.3,0.5,0.5c9.4,8.5,64.5,9.9,64.5,9.9l0,0
	l0,0l0-0.1l0,0c0-0.1,0-0.1,0-0.2l0,0c0-2.5-0.4-15.4-3.7-25.2h0.8c0,0-8-71.8-14.5-80.3c0,0-1.7-37.8,2.2-61.6
	c0.2-0.1,0.5-0.2,0.7-0.3c18.3-6.8,19.6-23.6,17.7-36c3.5,1.1,5.5,1.9,5.5,1.9s-0.1-0.5-0.2-1.5c0.1,0,0.2,0.1,0.2,0.1
	s-0.3-2.3-0.9-5.8c-1.3-9.7-3.8-26.6-6.5-34.6c-0.4-1.8-0.9-3.3-1.2-4.4c-1.6-4.8-2.6-9.7-3.2-14.8c-0.7-6.5-1.1-13-1.1-19.6
	c0.1-8.7,0.7-17.5,2-26.1c1.1-7.6,2.1-16.1,2-22.1c0.1-2.1-0.1-4.2-0.4-6.2c-1-4.4-5.2-7.3-9.7-9.1c-0.3-0.1-0.6-0.2-0.9-0.3
	c0.1-1.7,0.2-3.6,0.4-5.6c1.1,0.7,2.4,1,3.7,0.7c1.9-0.4,3.3-2,4.5-3.5c6.4-7.9,13-16.1,15.5-25.9c1-4.4,1.4-8.9,1.4-13.3
	c0-0.2,0-0.5,0-0.7C786.1,134.9,785.9,133.2,785.4,131.6z"/>
<path class="st9" d="M726.9,170c0,0,9.7,14.6,7.6,21.6c-2.1,7,22.9,2.8,22.9,2.8s0.7-27.1,5.6-33.4S726.9,170,726.9,170z"/>
<path class="st9" d="M662.6,179.4c0,0-20.2-16.7-19.5-22.9c0,0-15.3-29.2-20.9-14.6s10.4,29.9,10.4,29.9l19.5,25.7L662.6,179.4z"/>
<path class="st10" d="M642.1,441.2c0,0-18.8,11.8-26.4,8.3s-10.4,2.1-8.3,4.2s47.3,20.2,57.7,17.4s5.1-25.6,5.1-25.6L642.1,441.2z"
	/>
<path class="st10" d="M741.5,491.9c0,0-4.5,19.1-20.2,18.8c0,0-23.6-2.1-14.6,6.3c9,8.3,61.9,9.7,61.9,9.7s0-28.5-9.7-34.8
	S741.5,491.9,741.5,491.9z"/>
<path class="st11" d="M713,357l2.1,48.7c0,0,0,22.9,7.6,33.4s16.7,62.6,16.7,62.6h26.4c0,0-7.6-70.2-13.9-78.6c0,0-2.8-61.9,7-75.8
	L713,357z"/>
<path class="st3" d="M713,357l2.1,48.7c0,0,0,22.9,7.6,33.4s16.7,62.6,16.7,62.6h26.4c0,0-7.6-70.2-13.9-78.6c0,0-2.8-61.9,7-75.8
	L713,357z"/>
<path class="st11" d="M767.9,313.2c0,0,16,38.2-13.2,49.4s-82,9.7-82,9.7l-2.8,80.6c0,0-32.7,4.2-33.4-6.3v-88.3
	c0,0,0.7-9.7,22.2-18.1s50.7-12.5,50.7-12.5l1.4-18.1L767.9,313.2z"/>
<path class="st3" d="M742.3,187.3c5.6-0.6,11.2,0.2,16.3,2.3c4.3,1.8,8.4,4.6,9.3,8.9c1.1,5.1-0.1,16.6-1.5,26.4
	c-2.2,15.3-2.5,30.7-0.8,46.1c0.7,6.4,1.7,12,3.1,14.4c4.2,7.6,8.3,43.8,8.3,43.8s-45.9-17.4-68.8-7c0,0-3.1-71.3-3.5-94.5
	c-0.3-18,22.6-38.6,30.2-39.3C739.4,188,737.9,187.7,742.3,187.3z"/>
<path class="st12" d="M742.3,185.9c5.6-0.6,11.2,0.2,16.3,2.3c4.3,1.8,8.4,4.6,9.3,8.9c1.1,5.1-0.1,16.6-1.5,26.4
	c-2.2,15.3-2.5,30.7-0.8,46.1c0.5,4.9,1.6,9.7,3.1,14.4c3.1,9.4,8.3,43.8,8.3,43.8s-45.9-17.4-68.8-7c0,0-3.1-71.3-3.5-94.5
	c-0.3-18,22.6-38.6,30.2-39.3C739.4,186.7,737.9,186.4,742.3,185.9z"/>
<path class="st3" d="M754.7,224.3l-49.4-2.8c0,0-3.1-24.2,4-23.9l48.8,1.7C758.2,199.2,768.6,211.7,754.7,224.3z"/>
<path class="st12" d="M754.7,222.9l-56.3-2.8c0,0-43.8-13.2-56.3-27.8c0,0,0.7-25.7,14.6-27.1l32.9,24.1c5.7,4.2,12.6,6.6,19.8,6.9
	l48.8,1.7C758.2,197.8,768.6,210.4,754.7,222.9z"/>
<path class="st3" d="M757.2,173.2c0.8-6.6,3.8-8.8,5.9-11.5c4.9-6.3-36.1,9-36.1,9c2.1,3.3,4,6.7,5.5,10.2c3.3,1.5,6.8,2.3,10.4,2.3
	C749,183.2,752.8,176.7,757.2,173.2z"/>
<circle class="st9" cx="742.9" cy="157.5" r="25"/>
<path class="st3" d="M727.1,140c-2.7-2.9-3.9-6.8-5.2-10.6l-2.8-8.6c3.8,2.2,7.8-2.8,12.1-3.5c3.1-0.5,6,1.3,8.9,2.6
	c12.4,5.7,28.5,2.9,38.5,12.1c1.4,1.2,2.4,2.7,3.1,4.3c0.5,1.6,0.7,3.2,0.6,4.9c0.1,4.4-0.4,8.8-1.3,13.1
	c-2.4,9.6-8.7,17.6-14.9,25.4c-1.2,1.5-2.5,3-4.3,3.4c-3.6,0.8-6.3-3.1-7.7-6.5c-1.8-4.5-3.2-9.2-4-14c-0.2-2-0.8-4-1.7-5.9
	c-2.2-3.8-7.5-7.4-10.7-10.4C734.5,143.5,730.1,143.2,727.1,140z"/>
<path class="st13" d="M727.1,139.3c-2.7-2.9-3.9-6.8-5.2-10.6l-2.8-8.6c3.8,2.2,7.8-2.8,12.1-3.5c3.1-0.5,6,1.3,8.9,2.6
	c12.4,5.7,28.5,2.9,38.5,12.1c1.4,1.2,2.4,2.7,3.1,4.3c0.5,1.6,0.7,3.2,0.6,4.9c0.1,4.4-0.4,8.8-1.3,13.1
	c-2.4,9.6-8.7,17.6-14.9,25.4c-1.2,1.5-2.5,3-4.3,3.4c-3.6,0.8-6.3-3.1-7.7-6.5c-1.8-4.5-3.2-9.2-4-14c-0.2-2-0.8-4-1.7-5.9
	c-2.2-3.8-7.5-7.4-10.7-10.4C734.5,142.8,730.1,142.5,727.1,139.3z"/>
<ellipse class="st9" cx="749.5" cy="160.3" rx="2.1" ry="4.5"/>
<path class="st3" d="M762,280.9c0,0-1.4,4.2-8.3,3.5s-27.1-2.1-27.1,0"/>
<path class="st14" d="M706.8,516.2c-1-0.7-1.7-1.7-2-2.9c-0.2,0.9,0.4,2.1,2,3.6c9,8.3,61.9,9.7,61.9,9.7s0-0.2,0-0.7
	C768.3,526,715.8,524.5,706.8,516.2z"/>
<path class="st14" d="M665.1,469.7c-10.4,2.8-55.6-15.3-57.7-17.4c-0.3-0.3-0.5-0.6-0.6-1c-0.2,0.8,0,1.8,0.6,2.4
	c2.1,2.1,47.3,20.2,57.7,17.4c5.4-1.4,6.6-8.2,6.5-14.3C671.4,462.5,670,468.3,665.1,469.7z"/>
<linearGradient id="SVGID_2_" gradientUnits="userSpaceOnUse" x1="118.6686" y1="120.5613" x2="118.6686" y2="513.2537" gradientTransform="matrix(1 0 0 -1 -37.6617 787.098)">
	<stop  offset="0" style="stop-color:#808080;stop-opacity:0.25"/>
	<stop  offset="0.5351" style="stop-color:#808080;stop-opacity:0.12"/>
	<stop  offset="1" style="stop-color:#808080;stop-opacity:0.1"/>
</linearGradient>
<path class="st15" d="M268.5,522.9c-2.4-13.6-3.9-27.3-4.5-41v0c-1-23.2-16.5-43.3-38.7-50.2c-3.9-1.2-8.3-2.4-13.1-3.4
	c-42.1-8.9-54.9-1.1-56.4-0.1c-1.2-2.2-2.3-4.6-3.2-7c-0.1-0.2-0.1-0.5-0.2-0.7c8.3-8.9,13.4-20.3,14.4-32.5
	c7-7.1,11.1-15.7,11.1-25c0-8-3-15.4-8.4-21.9v-12.6c0-30.2-24.5-54.7-54.7-54.7l0,0h-4.4c-30.2,0-54.7,24.5-54.7,54.7l0,0v13.6
	c-4.8,5.9-7.5,13.3-7.6,20.9c0,9.1,3.9,17.5,10.7,24.5c0.9,12.6,6.2,24.5,15,33.5c0.3,2.1,0.6,4.3,0.9,6.6l-75.4,15.9
	c0,0-29.1,1.2-47.8,39.8c-15.8,32.7-47.4,116.7-56.7,141.7h0l0,0c-1.7,4.5-2.6,7.1-2.6,7.1s0.3-0.3,0.9-0.8
	c-0.6,1.6-0.9,2.4-0.9,2.4s0.5-0.5,1.3-1.2c-1.3,10.5-1.5,28.4,12.2,30.7c11.5,1.9,41.1,2.6,63.5,3v0h1.6
	c14.8,0.2,26.1,0.2,26.1,0.2v-0.2h240.6v-2.5c0-2.2-0.4-4.5-1.3-6.5c0.1-0.1,0.2-0.3,0.3-0.4c1.3,1.7,2.1,3.7,2.5,5.8
	c0,0.2-0.1,0.4-0.1,0.6c0,0,0-0.1,0.1-0.4c0.1,0.7,0,1.3-0.1,2c0,0,30.9-79.5,30.5-127C269.7,532.9,269.3,527.9,268.5,522.9z
	 M76.1,438.4c-0.4-2.3-0.7-4.6-0.8-6.9l0-0.1C75.6,433.7,75.8,436,76.1,438.4z M-17.5,609.3v19l-11.9,2.5L-17.5,609.3z"/>
<path class="st12" d="M111.5,281.5L111.5,281.5c30.2,0,54.7,24.5,54.7,54.7v23.3l0,0H56.8l0,0v-23.3
	C56.8,306,81.3,281.5,111.5,281.5z"/>
<ellipse class="st12" cx="111.8" cy="367.2" rx="62.4" ry="42.8"/>
<path class="st9" d="M71.9,408.7c0,0,13,68.1,0,86.5c-13,18.4,39.8,25.6,39.8,25.6l54.7-19.9l7.7-49c0,0-33.3-18.7-26.4-56.6
	L71.9,408.7z"/>
<path class="st9" d="M233.3,638.2c0,0,3.4,14.9-15.3,17.6c-11.1,1.6-22.3,1.5-33.4-0.4l-4.1-37.5h43.6L233.3,638.2z"/>
<path class="st9" d="M-97.7,619.1c0,0-8.3,33.6,10.5,36.7s87.6,3.1,87.6,3.1v-39.8l-31.2,6.7l-29.3-28.1L-97.7,619.1z"/>
<path class="st3" d="M75.9,430.7L2.6,446.2c0,0-27.9,1.1-45.9,38.3s-57,143.1-57,143.1s33.3-33.7,72.3,2.3l26-47.1l-5.7,74.6h201.6
	v-35.2c0,0,42.1,22.6,39,35.2c0,0,36-92.8,28.3-134.9c-2.3-13-3.8-26.2-4.3-39.4v0c-0.9-22.3-15.8-41.7-37.2-48.3
	c-3.8-1.2-8-2.3-12.6-3.2c-43.2-9.2-54.3,0-54.3,0s-8.4,27.2-8.2,39.6c0.2,15.9-22.6,26.4-22.6,26.4s-33.7-8-35.2-14.5
	S73.2,438.3,75.9,430.7z"/>
<path class="st11" d="M75.9,429.2L2.6,444.7c0,0-27.9,1.1-45.9,38.3c-18,37.1-57,143.1-57,143.1s33.3-33.7,72.3,2.3l26-47.1
	l-5.7,74.6h201.6v-35.2c0,0,42.1,22.6,39,35.2c0,0,36-92.8,28.3-134.9c-2.3-13-3.8-26.2-4.3-39.4v0c-0.9-22.3-15.8-41.7-37.2-48.3
	c-3.8-1.2-8-2.3-12.6-3.2c-43.2-9.2-54.3,0-54.3,0s-8.4,27.2-8.2,39.6c0.2,15.9-22.6,26.4-22.6,26.4s-33.7-8-35.2-14.5
	S73.2,436.8,75.9,429.2z"/>
<path class="st3" d="M150.8,425.9c-3.1-8.7-3.8-18.1-2-27.2L73,412.1c0,0,1.1,5.7,2.3,14.3c19.9,20.7,52.9,21.3,73.6,1.4
	C149.5,427.2,150.2,426.6,150.8,425.9L150.8,425.9z"/>
<path class="st9" d="M163.7,386.9c0,28.7-23.3,52-52,52c-28.2,0-51.3-22.5-52-50.8c0-0.4,0-0.8,0-1.3c0-19.9,11.3-38,29.2-46.8
	c1.6-0.8,3.2-1.4,4.8-2.1c8.6-3.1,17.8-4,26.8-2.5c0,0,0,0,0,0c23.7,4,41.6,23.8,43.1,47.8C163.6,384.6,163.7,385.7,163.7,386.9z"/>
<g class="st16">
	<path d="M93.5,339.3C93.6,339.3,93.6,339.3,93.5,339.3c-1.6,0.6-3.2,1.2-4.7,2c-17.9,8.7-29.2,26.9-29.2,46.8c0,0.4,0,0.8,0,1.3
		c1.6,0,3.2-0.4,4.7-1.1c12.7-5.9,20.3-24,23.3-36.7C88.7,347,89.7,341.9,93.5,339.3z"/>
	<path d="M133.4,340.8c-4.1-1.9-8.5-3.2-12.9-4c3.7,0.8,6.9,2.9,9.3,5.8c1.2,1.6,2.1,3.3,2.8,5.1c-14-6.1-30-5.8-43.8,0.9
		c3.3,7.2,13.4,11.1,20.2,13.7c7.4,2.9,14.9,5.5,22.5,7.8c-2.2-1.8-4.5-3.6-6.7-5.4c5,0.8,10.1,1.6,15.1,2.4c0.2-3-0.2-6-1.1-8.9
		c2.9,2.3,6.7,3.1,9.9,5.1c5.9,3.7,8.3,10.9,11.5,17c0.7,1.7,1.9,3.2,3.4,4.3C162.3,365.6,150.7,348.7,133.4,340.8z"/>
</g>
<path class="st13" d="M93.5,338.1C93.6,338.1,93.6,338.1,93.5,338.1c-1.6,0.6-3.2,1.2-4.7,2c-17.9,8.7-29.2,26.9-29.2,46.8
	c0,0.4,0,0.8,0,1.3c1.6,0,3.2-0.4,4.7-1.1c12.7-5.9,20.3-24,23.3-36.7C88.7,345.8,89.7,340.7,93.5,338.1z"/>
<path class="st13" d="M133.4,339.6c-4.1-1.9-8.5-3.2-12.9-4c3.7,0.8,6.9,2.9,9.3,5.8c1.2,1.6,2.1,3.3,2.8,5.1
	c-14-6.1-30-5.8-43.8,0.9c3.3,7.2,13.4,11.1,20.2,13.7c7.4,2.9,14.9,5.5,22.5,7.8c-2.2-1.8-4.5-3.6-6.7-5.4c5,0.8,10.1,1.6,15.1,2.4
	c0.2-3-0.2-6-1.1-8.9c2.9,2.3,6.7,3.1,9.9,5.1c5.9,3.7,8.3,10.9,11.5,17c0.7,1.7,1.9,3.2,3.4,4.3
	C162.3,364.4,150.7,347.6,133.4,339.6z"/>
<path class="st3" d="M53.7,378.3c0,0,53.6-66.6,115.5,0l-5.4-14.9c0,0-29.1-42.5-49.7-33.3s-40.9,15.7-40.9,15.7L53.7,378.3z"/>
<path class="st12" d="M53.7,377.1c0,0,53.6-66.6,115.5,0l-5.4-14.9c0,0-29.1-42.5-49.7-33.3s-40.9,15.7-40.9,15.7L53.7,377.1z"/>
<path class="st3" d="M9.7,520.6c0,0-11.5,30.6,4.6,58.1s-14.2,39-14.2,39"/>
<path class="st3" d="M195.6,493c0,0,19.9,25.2,6.9,47.8s-12.2,76.9-12.2,76.9"/>
<path class="st10" d="M-7.9,640.3h221.1c10.1,0,18.4,8.2,18.4,18.4l0,0l0,0H-26.3l0,0l0,0C-26.3,648.6-18,640.3-7.9,640.3
	L-7.9,640.3z"/>
<path class="st10" d="M25.4,514.1H180c21.5,0,39,17.5,39,39v91.5l0,0H-13.6l0,0v-91.5C-13.6,531.5,3.8,514.1,25.4,514.1
	C25.4,514.1,25.4,514.1,25.4,514.1z"/>
<circle class="st17" cx="102.5" cy="585.1" r="13.8"/>
<path class="st18" d="M56.8,347.1c0,0,52.6-52.6,109.4-1"/>
<rect x="174.2" y="343.7" class="st19" width="5.3" height="30"/>
<path class="st20" d="M167.1,363.1L167.1,363.1c10.1,0,18.2,8.2,18.2,18.2v0v1.2c0,10.1-8.2,18.2-18.2,18.2h0l0,0l0,0V363.1
	L167.1,363.1z"/>
<path class="st19" d="M167.7,361.4L167.7,361.4c2.3,0,4.1,1.8,4.1,4.1v32.9c0,2.3-1.8,4.1-4.1,4.1l0,0c-2.3,0-4.1-1.8-4.1-4.1v-32.9
	C163.6,363.2,165.5,361.4,167.7,361.4z"/>
<rect x="42.9" y="344.3" class="st19" width="5.3" height="30"/>
<path class="st20" d="M55.3,401.3L55.3,401.3c-10.1,0-18.2-8.2-18.2-18.2v0v-1.2c0-10.1,8.2-18.2,18.2-18.2h0l0,0l0,0V401.3
	L55.3,401.3z"/>
<path class="st19" d="M54.7,403.1L54.7,403.1c-2.3,0-4.1-1.8-4.1-4.1v-32.9c0-2.3,1.8-4.1,4.1-4.1l0,0c2.3,0,4.1,1.8,4.1,4.1V399
	C58.8,401.2,56.9,403.1,54.7,403.1z"/>
<path class="st20" d="M173.6,311.7c-7.2-14.9-22.7-32.9-56.4-34.3l0,0l-0.4,0l0,0l0,0l-11.9,0.6l0,0.1c-33.4,1.5-48.9,19.5-56,34.3
	c-4.7,10.1-7.3,21-7.4,32.1l4.1-0.1l4.1-0.1c0.2-9.9,2.5-19.7,6.7-28.6c9.1-18.6,25.7-28.5,49.6-29.4l0,0l10.5-0.6l0,0
	c23.8,0.9,40.5,10.8,49.6,29.4c4.2,9,6.5,18.7,6.7,28.6l4.1,0.1l4.1,0.1C180.8,332.7,178.3,321.8,173.6,311.7z"/>
<rect x="-199.4" y="658.9" class="st21" width="560.8" height="150.6"/>
<rect x="-199.4" y="669.1" class="st3" width="560.8" height="19.5"/>
<rect x="-237" y="656.8" class="st21" width="636" height="19.5"/>
<path class="st1" d="M198.5,608.2c0,0,24,44,84,32s31,111,31,111s-9.8,58.7-2.9,58.3"/>
</svg>
