<?xml version="1.0" encoding="utf-8"?>
<!-- Generator: Adobe Illustrator 19.0.0, SVG Export Plug-In . SVG Version: 6.00 Build 0)  -->
<svg version="1.1" id="fd25c83a-acc9-441d-8dce-2bbb37970907"
	 xmlns="http://www.w3.org/2000/svg" xmlns:xlink="http://www.w3.org/1999/xlink" x="0px" y="0px" viewBox="-261 59.5 1076.4 733.5"
	 style="enable-background:new -261 59.5 1076.4 733.5;" xml:space="preserve">
<style type="text/css">
	.st0{opacity:0.1;fill:#6C63FF;enable-background:new    ;}
	.st1{fill:#535461;}
	.st2{fill:#3F3D56;}
	.st3{fill:#9D9CB5;}
	.st4{fill:#6C63FF;}
	.st5{fill:none;stroke:#535461;stroke-width:2;stroke-miterlimit:10;}
	.st6{opacity:0.2;fill:none;stroke:#6C63FF;stroke-miterlimit:10;enable-background:new    ;}
	.st7{fill:url(#SVGID_1_);}
	.st8{fill:#6F758D;}
	.st9{opacity:0.1;enable-background:new    ;}
	.st10{fill:none;}
	.st11{fill:#DCDFED;}
	.st12{fill:url(#SVGID_2_);}
	.st13{fill:#454B69;}
	.st14{fill:#FBBEBE;}
	.st15{opacity:5.000000e-002;enable-background:new    ;}
	.st16{opacity:0.1;}
</style>
<title>robotics</title>
<path class="st0" d="M807.8,340.9h-91.9v111.4h85.2c0.2,1.1,0.4,2.3,0.7,3.5h-85.9v89.8l0.4-0.1c2.4-0.8,4.8-1.8,7.2-2.7l1.6-0.6
	c2.4-1,4.8-2.1,7.2-3.2c0.8-0.4,1.7-0.8,2.5-1.2c13.2-6.5,25.4-14.9,36.2-25c0.3-0.3,0.6-0.5,0.9-0.8c1.5-1.4,2.9-2.8,4.3-4.3
	c0.5-0.5,1-1.1,1.5-1.6c1.7-1.8,3.2-3.6,4.8-5.5c0.2-0.3,0.4-0.6,0.7-0.8c6.2-7.7,11.5-16.1,15.6-25.1c0.1-0.3,0.2-0.5,0.4-0.8
	c1.3-2.8,2.4-5.7,3.4-8.6c0.4-1.2,0.8-2.5,1.2-3.7c0.1-0.4,0.2-0.7,0.3-1.1c5.1-17.8,5.7-36.4,5.7-54.9c0-2.2,0-4.3,0-6.5
	c0-7.5-0.1-15-0.2-22.4c0-1.9-0.1-3.9-0.1-5.8c-0.1-4.9-0.3-9.9-0.5-14.8c-0.1-1.4-0.1-2.8-0.2-4.1c0-0.8-0.1-1.6-0.1-2.4
	C808.2,346.6,808,343.7,807.8,340.9z"/>
<path class="st0" d="M715.9,216.8h50.4c-8.3-11.5-17.2-22.5-26.8-32.8c-7.5-8.2-15.4-16.2-23.6-23.8V216.8z"/>
<path class="st0" d="M715.9,220.2v117.2h91.7c0-0.3,0-0.7-0.1-1c-0.1-0.9-0.2-1.9-0.3-2.8c-0.1-1.1-0.2-2.2-0.3-3.3
	s-0.3-2.4-0.4-3.5s-0.3-2.4-0.4-3.5s-0.3-2.3-0.4-3.5s-0.3-2.3-0.5-3.5c-0.1-1-0.3-1.9-0.4-2.9c-0.2-1.4-0.4-2.7-0.7-4.1
	c0-0.2-0.1-0.4-0.1-0.6c-1.7-9.9-3.9-19.8-6.8-29.4c-3-10.2-6.8-20.2-11.4-29.9c-4.9-10.2-10.6-20-17.1-29.3L715.9,220.2z"/>
<path class="st0" d="M497.5,340.9v111.4h196.4V340.9H497.5z M497.5,455.7v75.5c22.9-7.3,49-4.3,72.7,1.7c18.3,4.7,36.2,11,54.5,15.5
	c8.2,2.1,16.5,3.7,24.9,4.7l2.1,0.2l3,0.3l3,0.2c0.1,0,0.2,0,0.3,0c0.4,0,0.9,0,1.3,0.1h0.5c0.5,0,1.1,0.1,1.6,0.1l0,0
	c0.8,0,1.5,0,2.3,0.1h1c0.8,0,1.5,0,2.3,0h1.7h1.4c0.6,0,1.2,0,1.8-0.1c0.9,0,1.9-0.1,2.8-0.1l0,0l1.8-0.1c0.7,0,1.5-0.1,2.2-0.2
	c1.5-0.1,3-0.3,4.5-0.5c0.6-0.1,1.2-0.1,1.8-0.2l0.9-0.1c1.5-0.2,3-0.4,4.5-0.7c1.1-0.2,2.2-0.4,3.3-0.6v-95.7H497.5z M643.6,216.7
	v3.4H497.5v117.2h196.4V220.2h-9.8v-3.4h9.8v-75.7c-38.2-30.8-82.8-54.9-132.6-66c-20.9-4.6-42.3-6.9-63.8-6.7v148.4L643.6,216.7z
	 M194.6,216.1l0.7,0.7h280.3V69.4c-49.9,4.2-98.6,20.9-137.8,48.7c-18.8,13.3-35.8,29.1-56.9,39.4c-11.1,5.5-23.2,8.6-35.6,9.2
	L194.6,216.1z M192.7,155.6V189l27.1-26.4C209.7,159.1,201.7,156.7,192.7,155.6L192.7,155.6z M191.8,575.2h0.9v73.1
	c10.2-0.8,20.4-1.8,30.5-3.1c45.3-5.9,89.8-17.4,132.2-34.3l0,0c4.6-1.8,9.1-3.7,13.6-5.7c3-1.3,6-2.7,8.9-4c4.4-2,8.8-4.1,13.2-6.3
	c19.4-9.5,38-20.3,55.9-32.4c1.1-0.8,2.2-1.5,3.3-2.3c2.2-1.5,4.4-3.1,6.6-4.6c1.1-0.8,2.2-1.6,3.3-2.4l2.3-1.7
	c2.2-1.7,4.5-3.3,6.7-5l0,0c2.1-1.5,4.2-3,6.3-4.4v-86.4H250.4c0.2-0.5,0.3-1,0.5-1.5c-0.2,0.5-0.3,1-0.5,1.5h-57.7v119.4
	L191.8,575.2z M192.7,220.2v117.2h282.9V220.2L192.7,220.2z M192.7,340.8v111.5h282.9V340.9L192.7,340.8z M136.1,159.1l34.6,33.7
	v-37.3C159.1,156.2,147.6,157.4,136.1,159.1z M-104.6,340.9v111.4h275.2V340.9H-104.6z M-38,616.1C3.7,632,47.3,642.3,91.7,646.9
	h0.2c8.4,0.9,16.8,1.6,25.3,2.1h0.3l0,0c17.7,1,35.5,1.2,53.2,0.6V455.7h-275.2l1,128.3 M-180.8,452.3h54.3V340.9H-148
	c-2.2,3.9-4.4,7.9-6.4,11.9c-1.1,2.1-2.2,4.3-3.2,6.5C-171.7,388.5-180.7,420.7-180.8,452.3z M-180.8,455.7
	c0.4,22.6,5.5,44.9,16.7,65.4c9.3,17,22.2,32,37.5,45V455.7H-180.8z M-145.9,337.4h19.5v-29C-133.5,317.7-140,327.4-145.9,337.4z
	 M-24.1,216.8h188.2l0.7-0.7l-1-1l0,0l-52.9-51.6c-15.7,3.3-31.2,7.4-46.5,12.4c-1.4,0.5-2.9,1-4.3,1.4
	C30.7,187.4,2.5,200.6-24.1,216.8z M-104.6,282.2v55.3h241.4l0,0l0,0h33.8v-114l-3.9-3.1H-29.6C-57.1,237.6-82.3,258.4-104.6,282.2z
	"/>
<path class="st0" d="M715.9,279.3v58.1h91.7c0-0.3,0-0.7-0.1-1c-0.1-0.9-0.2-1.9-0.3-2.8c-0.1-1.1-0.2-2.2-0.3-3.3s-0.3-2.4-0.4-3.5
	s-0.3-2.4-0.4-3.5s-0.3-2.3-0.4-3.5s-0.3-2.3-0.5-3.5c-0.1-1-0.3-1.9-0.4-2.9c-0.2-1.4-0.4-2.7-0.7-4.1c0-0.2-0.1-0.4-0.1-0.6
	c-1.7-9.9-3.9-19.8-6.8-29.4L715.9,279.3z"/>
<path class="st0" d="M807.8,340.9h-91.9v111.4h85.2c0.2,1.1,0.4,2.3,0.7,3.5h-85.9v89.8l0.4-0.1c2.4-0.8,4.8-1.8,7.2-2.7l1.6-0.6
	c2.4-1,4.8-2.1,7.2-3.2c0.8-0.4,1.7-0.8,2.5-1.2c13.2-6.5,25.4-14.9,36.2-25c0.3-0.3,0.6-0.5,0.9-0.8c1.5-1.4,2.9-2.8,4.3-4.3
	c0.5-0.5,1-1.1,1.5-1.6c1.7-1.8,3.2-3.6,4.8-5.5c0.2-0.3,0.4-0.6,0.7-0.8c6.2-7.7,11.5-16.1,15.6-25.1c0.1-0.3,0.2-0.5,0.4-0.8
	c1.3-2.8,2.4-5.7,3.4-8.6c0.4-1.2,0.8-2.5,1.2-3.7c0.1-0.4,0.2-0.7,0.3-1.1c5.1-17.8,5.7-36.4,5.7-54.9c0-2.2,0-4.3,0-6.5
	c0-7.5-0.1-15-0.2-22.4c0-1.9-0.1-3.9-0.1-5.8c-0.1-4.9-0.3-9.9-0.5-14.8c-0.1-1.4-0.1-2.8-0.2-4.1c0-0.8-0.1-1.6-0.1-2.4
	C808.2,346.6,808,343.7,807.8,340.9z"/>
<polygon class="st0" points="624.8,237 624.8,337.4 693.9,337.4 693.9,237 684.1,237 684.1,203 643.6,203 643.6,237 "/>
<rect x="624.8" y="340.9" class="st0" width="69.1" height="111.4"/>
<path class="st0" d="M693.9,455.8h-69.1v92.7c8.2,2.1,16.5,3.7,24.9,4.7l2.1,0.2l3,0.3c1,0.1,2,0.2,3,0.2h0.3c0.4,0,0.9,0,1.3,0.1
	h0.5c0.5,0,1.1,0,1.6,0.1l0,0c0.8,0,1.5,0,2.3,0.1h1c0.8,0,1.5,0,2.3,0h1.7c0.5,0,0.9,0,1.4,0l1.8-0.1c0.9,0,1.9-0.1,2.8-0.1l0,0
	l1.7-0.1l2.2-0.2c1.5-0.1,3-0.3,4.5-0.5l1.8-0.2l0.9-0.1c1.5-0.2,3-0.4,4.5-0.7c1.1-0.2,2.2-0.4,3.3-0.6L693.9,455.8z"/>
<rect x="192.6" y="225.2" class="st0" width="57" height="112.3"/>
<polygon class="st0" points="192.6,340.9 192.6,452.3 475.6,452.3 475.6,404.2 324.9,404.2 324.9,432.6 249.6,432.6 249.6,340.9 "/>
<path class="st0" d="M191.7,575.2h0.9v73.1c10.2-0.8,20.4-1.8,30.5-3.1c45.4-5.8,89.8-17.4,132.3-34.3c12.2-4.9,24.1-10.2,35.7-15.9
	c19.3-9.5,38-20.4,55.8-32.4c4.5-3,8.8-6.1,13.2-9.3c3-2.2,6-4.5,9-6.6c2.1-1.5,4.2-3,6.3-4.4v-86.4H250.4c0.2-0.5,0.3-1,0.5-1.5
	c-0.2,0.5-0.3,1-0.5,1.5h-57.8v119.4L191.7,575.2z"/>
<path class="st0" d="M44,216.8h37.1v-10.3H64.4v-30.6c-1.4,0.5-2.9,1-4.3,1.4v29.1H44V216.8z"/>
<path class="st0" d="M-45.6,337.4h182.4h-0.1h0.1h33.8V225.2h-9.6v83h-43.8V259H81.1v-38.8H44V259H7.8v49.1h-53.4V337.4z"/>
<path class="st0" d="M-45.6,340.9v111.4h216.2V340.9H-45.6z M-38,616.1C3.7,632,47.3,642.3,91.7,646.9h0.2
	c8.4,0.9,16.8,1.6,25.3,2.1h0.3l0,0c17.7,1,35.5,1.2,53.2,0.6V455.7H-45.6v39.5h-59l0.3,88.2"/>
<path class="st0" d="M-130.3,455.8h-50.4c0.4,22.6,5.6,44.8,16.7,65.4c9.3,17.1,22.2,32,37.5,45v-70.9h-3.8L-130.3,455.8z"/>
<path class="st0" d="M-180.8,452.3h50.5v-93.1h-27.3C-171.7,388.5-180.7,420.7-180.8,452.3z"/>
<rect x="192.6" y="256.4" class="st0" width="30.5" height="35.2"/>
<rect x="192.6" y="329.3" class="st0" width="30.5" height="8.1"/>
<rect x="192.6" y="340.9" class="st0" width="30.5" height="23.6"/>
<rect x="192.6" y="402.3" class="st0" width="30.5" height="35.2"/>
<rect x="192.6" y="475.2" class="st0" width="30.5" height="35.2"/>
<path class="st0" d="M192.6,575.2l-0.9,0L192.6,575.2v8.2h30.5v-35.2h-30.5V575.2z"/>
<path class="st0" d="M192.6,621.1v27.2c10.2-0.8,20.4-1.8,30.5-3.1v-24L192.6,621.1z"/>
<rect x="344.7" y="449.7" class="st0" width="130.9" height="2.6"/>
<rect x="344.7" y="455.8" class="st0" width="130.9" height="9.9"/>
<rect x="344.7" y="498.1" class="st0" width="130.9" height="15.9"/>
<path class="st0" d="M344.7,546.5v16h102.4c4.5-3,8.8-6.1,13.2-9.3c3-2.2,6-4.5,9-6.6L344.7,546.5z"/>
<path class="st0" d="M344.7,595v15.9h10.8c12.2-4.9,24.1-10.2,35.7-15.9H344.7z"/>
<rect x="91.7" y="351.7" class="st0" width="25.8" height="22.9"/>
<rect x="649.6" y="244.9" class="st0" width="25.8" height="22.9"/>
<rect x="649.6" y="298.1" class="st0" width="25.8" height="22.9"/>
<rect x="649.6" y="351.3" class="st0" width="25.8" height="22.9"/>
<rect x="649.6" y="404.6" class="st0" width="25.8" height="22.9"/>
<rect x="649.6" y="457.8" class="st0" width="25.8" height="22.9"/>
<rect x="649.6" y="511" class="st0" width="25.8" height="22.9"/>
<rect x="-6.6" y="351.7" class="st0" width="25.8" height="22.9"/>
<rect x="91.7" y="408.2" class="st0" width="25.8" height="22.9"/>
<rect x="-6.6" y="408.2" class="st0" width="25.8" height="22.9"/>
<rect x="91.7" y="464.7" class="st0" width="25.8" height="22.9"/>
<rect x="-6.6" y="464.7" class="st0" width="25.8" height="22.9"/>
<rect x="91.7" y="521.2" class="st0" width="25.8" height="22.9"/>
<rect x="-6.6" y="521.2" class="st0" width="25.8" height="22.9"/>
<rect x="91.7" y="577.7" class="st0" width="25.8" height="22.9"/>
<rect x="-6.6" y="577.7" class="st0" width="25.8" height="22.9"/>
<polygon class="st0" points="117.5,649 117.5,634.2 91.7,634.2 91.7,646.9 "/>
<path class="st0" d="M715.9,308.8v13.1H804v-13.1H715.9z M795.3,309.6h7.2V321h-7.2V309.6z M786.5,309.6h7.2V321h-7.2V309.6z
	 M777.7,309.6h7.2V321h-7.2V309.6z M768.9,309.6h7.2V321h-7.2V309.6z M760.2,309.6h7.3V321h-7.2L760.2,309.6z M751.4,309.6h7.2V321
	h-7.2L751.4,309.6z M742.6,309.6h7.2V321h-7.2V309.6z M733.8,309.6h7.2V321h-7.2V309.6z M725.1,309.6h7.2V321h-7.2V309.6z
	 M716.3,309.6h7.2V321h-7.2V309.6z"/>
<path class="st0" d="M715.9,346.9V360H804v-13.1H715.9z M795.3,347.7h7.2v11.5h-7.2V347.7z M786.5,347.7h7.2v11.5h-7.2V347.7z
	 M777.7,347.7h7.2v11.5h-7.2V347.7z M768.9,347.7h7.2v11.5h-7.2V347.7z M760.2,347.7h7.3v11.5h-7.2L760.2,347.7z M751.4,347.7h7.2
	v11.5h-7.2L751.4,347.7z M742.6,347.7h7.2v11.5h-7.2V347.7z M733.8,347.7h7.2v11.5h-7.2V347.7z M725.1,347.7h7.2v11.5h-7.2V347.7z
	 M716.3,347.7h7.2v11.5h-7.2V347.7z"/>
<path class="st0" d="M715.9,385.1v13.1H804v-13.1H715.9z M795.3,385.9h7.2v11.5h-7.2V385.9z M786.5,385.9h7.2v11.5h-7.2V385.9z
	 M777.7,385.9h7.2v11.5h-7.2V385.9z M768.9,385.9h7.2v11.5h-7.2V385.9z M760.2,385.9h7.3v11.5h-7.2L760.2,385.9z M751.4,385.9h7.2
	v11.5h-7.2L751.4,385.9z M742.6,385.9h7.2v11.5h-7.2V385.9z M733.8,385.9h7.2v11.5h-7.2V385.9z M725.1,385.9h7.2v11.5h-7.2V385.9z
	 M716.3,385.9h7.2v11.5h-7.2V385.9z"/>
<path class="st0" d="M715.9,423.2v13.1H804v-13.1H715.9z M795.3,424h7.2v11.5h-7.2V424z M786.5,424h7.2v11.5h-7.2V424z M777.7,424
	h7.2v11.5h-7.2V424z M768.9,424h7.2v11.5h-7.2V424z M760.2,424h7.3v11.5h-7.2L760.2,424z M751.4,424h7.2v11.5h-7.2L751.4,424z
	 M742.6,424h7.2v11.5h-7.2V424z M733.8,424h7.2v11.5h-7.2V424z M725.1,424h7.2v11.5h-7.2V424z M716.3,424h7.2v11.5h-7.2V424z"/>
<path class="st0" d="M715.9,461.4v13.1h82.9c0.1-0.3,0.2-0.5,0.3-0.8h-3.9v-11.5h7.2v2.9c0.4-1.2,0.8-2.5,1.2-3.7L715.9,461.4z
	 M786.5,462.2h7.2v11.5h-7.2V462.2z M777.7,462.2h7.2v11.5h-7.2V462.2z M768.9,462.2h7.2v11.5h-7.2V462.2z M760.2,462.2h7.3v11.5
	h-7.2L760.2,462.2z M751.4,462.2h7.2v11.5h-7.2L751.4,462.2z M742.6,462.2h7.2v11.5h-7.2V462.2z M733.8,462.2h7.2v11.5h-7.2V462.2z
	 M725.1,462.2h7.2v11.5h-7.2V462.2z M716.3,462.2h7.2v11.5h-7.2V462.2z"/>
<path class="st0" d="M715.9,499.5v13.1H771c0.3-0.3,0.6-0.5,0.9-0.8h-2.9v-11.4h7.2v7.2l1.6-1.7v-5.5h4.8c0.2-0.3,0.4-0.6,0.7-0.8
	L715.9,499.5z M760.2,500.3h7.3v11.5h-7.2L760.2,500.3z M751.4,500.3h7.2v11.5h-7.2L751.4,500.3z M742.6,500.3h7.2v11.5h-7.2V500.3z
	 M733.8,500.3h7.2v11.5h-7.2V500.3z M725.1,500.3h7.2v11.5h-7.2V500.3z M716.3,500.3h7.2v11.5h-7.2V500.3z"/>
<path class="st0" d="M715.9,537.7v7.9l0.4-0.1v-7h7.2v4.3l1.5-0.6v-3.6h7.2v0.4c0.8-0.4,1.7-0.8,2.5-1.2L715.9,537.7z"/>
<path class="st0" d="M136.8,337.4L136.8,337.4L136.8,337.4z M191.7,575.2h0.9l0,0H191.7z M250.4,455.7L250.4,455.7
	c0.2-0.5,0.3-1,0.5-1.5C250.7,454.7,250.5,455.2,250.4,455.7L250.4,455.7z M136.8,337.4L136.8,337.4L136.8,337.4z M643.6,216.8v3.4
	h40.5v-3.4H643.6z M191.7,575.2h0.9l0,0H191.7z M250.4,455.7L250.4,455.7c0.2-0.5,0.3-1,0.5-1.5
	C250.7,454.7,250.5,455.2,250.4,455.7L250.4,455.7z M136.8,337.4L136.8,337.4L136.8,337.4z M191.7,575.2h0.9l0,0H191.7z
	 M250.4,455.7L250.4,455.7c0.2-0.5,0.3-1,0.5-1.5C250.7,454.7,250.5,455.2,250.4,455.7L250.4,455.7z"/>
<rect x="-186.5" y="757.6" class="st0" width="1001.9" height="35.4"/>
<rect x="-156.2" y="532.4" class="st1" width="5.1" height="114"/>
<path class="st2" d="M-119.3,646l-0.3,5.1l-0.4,7.3l-0.2,3l-0.4,7.3l-0.2,3l-0.4,7.2l-5.1,82.5c-0.5,7.4-6.6,13.1-13.9,13.1H-167
	c-7.4,0-13.5-5.7-13.9-13.1L-186,679l-0.4-7.2l-0.2-3l-0.5-7.3l-0.2-3l-0.4-7.3l-0.3-5.1c-0.2-4,2.8-7.4,6.8-7.7c0.1,0,0.3,0,0.4,0
	h54.3c4,0,7.2,3.2,7.2,7.2C-119.3,645.8-119.3,645.9-119.3,646z"/>
<polygon class="st3" points="-119.7,651.2 -120.1,658.4 -187.3,658.4 -187.7,651.2 "/>
<polygon class="st3" points="-120.3,661.5 -120.7,668.7 -186.7,668.7 -187.1,661.5 "/>
<polygon class="st3" points="-120.9,671.7 -121.4,679 -186,679 -186.5,671.7 "/>
<path class="st4" d="M-195.5,575.1c29.5,21.3,41.8,54.7,41.8,54.7s-35.5-1.2-65-22.6s-41.9-54.7-41.9-54.7S-225,553.8-195.5,575.1z"
	/>
<path class="st5" d="M-260.6,552.6c0,0,36.9,20.5,48.7,37.4s58.1,39.8,58.1,39.8"/>
<path class="st4" d="M-176.4,532.1c16.1,11.6,22.7,29.8,22.7,29.8s-19.3-0.7-35.4-12.3s-22.7-29.8-22.7-29.8
	S-192.5,520.5-176.4,532.1z"/>
<path class="st5" d="M-211.8,519.9c0,0,20.1,11.2,26.5,20.4s31.6,21.7,31.6,21.7"/>
<path class="st4" d="M-130.4,561c-18.4,20.3-22.3,46.8-22.3,46.8s26-6.4,44.4-26.7s22.3-46.7,22.3-46.7S-111.9,540.7-130.4,561z"/>
<path class="st5" d="M-85.9,534.3c0,0-24,20.8-30.1,35.1s-36.6,38.3-36.6,38.3"/>
<circle class="st6" cx="145.3" cy="116.4" r="19.8"/>
<circle class="st6" cx="145.3" cy="116.4" r="35.8"/>
<circle class="st6" cx="145.3" cy="116.4" r="56.4"/>
<linearGradient id="SVGID_1_" gradientUnits="userSpaceOnUse" x1="226.4529" y1="-18.9113" x2="226.4529" y2="656.6802" gradientTransform="matrix(1 0 0 -1 -61.56 772.04)">
	<stop  offset="0" style="stop-color:#808080;stop-opacity:0.25"/>
	<stop  offset="0.54" style="stop-color:#808080;stop-opacity:0.12"/>
	<stop  offset="1" style="stop-color:#808080;stop-opacity:0.1"/>
</linearGradient>
<path class="st7" d="M282,784.8c-0.5-3.9-3.2-9-3.2-9l-14.5-21.2h0.1c0,0-2.3-10.6,0-15.8s-8.1-18.1-8.1-18.1s-1.3-3.2,2-7.2
	s-2-15.6-2-15.6s-2.5-24.3-2.8-28s-2.3-24.2-2.3-24.2l-4.8-43.5l-8.6-115.4l-0.2-2.2c1.1-0.5,1.6-0.8,1.6-0.8l-1.8-63.8l1.5-1.3
	c13-11.5,42.9-38,42.6-38.6c-0.4-0.7-3.6-44.4-4-55.3c-0.3-7.8-2.1-15.5-5.1-22.6c-0.8-1.5-2.9-11-3.8-15.1l-0.4-1.8
	c0,0-8.8-16.3-8-23.8s2.3-13-16.4-15.6c0,0-15.8-2.3-25.1-8.5c-5.5-3.7-11.6-6.7-17.9-8.8c0,0-3.4-6-6.8-4.8V211
	c5.3-2.1,8.7-7.1,8.8-12.8v-45.9c-0.1-7.8-6.5-14-14.3-13.9h-39.8l0,0c-0.6,0-1.2,0.1-1.7,0.1v-21c0-0.6-0.3-1.2-0.7-1.6
	c-0.4-0.4-1-0.7-1.7-0.7c-1.3,0-2.3,1-2.4,2.3v22.5c-4.5,2.4-7.4,7-7.4,12.1v45.9c0.1,5.6,3.5,10.7,8.8,12.8V223
	c-1.6-0.2-4,0.9-6.7,6.5c0,0-13.6,7.7-18.3,8.5s-21.4,6.5-21.4,6.5c-2.5,1.8-5.6,2.7-8.6,2.7c-5.2,0-9.5,11.1-8.9,17.2
	s-0.4,10.5-5.2,10.8s-2.2,9.9-2.2,10c-0.1,0.3-0.2,1-0.5,2.1c-0.9,4.2-3,13.3-3.7,14.7c-3.1,7.2-4.8,14.8-5.2,22.6
	c-0.4,11-3.6,54.6-4,55.3c-0.2,0.5,20.3,18.8,34.7,31.6l2.1,1.8l-6.6,60.5c0,0,0,6.8,6.8,11.9c0,0.7,0,1.4-0.1,2.2
	c-0.3,7-0.9,15.7-2,17.9c-2,4-1.5,25.2-1.5,25.2s-2,43.3-4.6,48s-3.1,14.6-2.3,16.6s-2.5,53.9-2.5,53.9l-2.5,23.3
	c0,0,0.8,22.3-1.5,22.8s-3.6,15.8-3.6,15.8s-8.1,10.9-4.6,14.8s-0.5,5.7-0.9,6.7s-7.8,4.7-2.4,18.5c0,0.1,0.1,0.3,0.2,0.4
	c-5,6.8-20.9,28.7-19.9,32c0.7,2.1,2.2,3.9,4.2,5c3.7,2.2,10.1,3.2,20.3,0c16.9-5.3,15.7-9.2,15.7-9.2s0.1-6.2,7.1-6.7
	s12.2-6.8,12.2-6.8l-0.8-3l-1.1-4.1c0.1-1.2,1-3.3,4.9-4.4c5.9-1.7,4.3-12.6,4.3-12.6s-0.5-11.4,2-12.9S118,709,118,709
	s2.8-13.6,6.9-22.8s8.9-63.6,8.9-63.6s3.3-26.7,6.4-34.4S146,559,146,559s18.8-35.6,19.1-43.5c0,0,2.4-7.4,4.8,0.8
	c2.4,8.2,9.2,27.7,9.2,27.7l6.6,24l7.9,35.9l5.1,30.2c0,0-0.7,11.5,1.3,15.5s4.8,13.1,3.3,14.8s3.1,9.9,4.3,11.6s0,38.4,0,38.4
	s5.8,31.2,14.3,36.6c0.6,0.4,1.2,0.7,1.9,0.9c-0.1,3.4-0.2,7.9-0.1,10.3c0,0.5,0.1,1.1,0.3,1.5c0.8,1,9.4,7.7,11.2,7.7
	s8.1,4.3,8.4,6.4s18.6,11,21.2,11.3s15.2,2.5,17-1C282.2,787,282.3,785.9,282,784.8z M236.9,338.9l1.3,1.1c0,0,1.3,10.2,2.3,13.3
	s-0.2,9-0.2,9s0.2,4.3,1.3,6.5s-2.2,7.1-2.2,7.1h-3.1l-1-38.2L236.9,338.9z M99.1,371.9c-0.5-1-0.5-2.1-0.2-3.1
	c0.3-0.6,0.5-1.1,0.6-1.7c0.4-1.6,0.6-3.1,0.7-4.8c0,0,0,0,0,0c-0.1-0.6-1.1-6-0.2-9s2.3-13.3,2.3-13.3l0.9-0.7l2-1.7
	c0,0,0.1-0.6,0.1-1.7c0.4,9,0.8,18.8,0.2,19.4c-1,1-4.7,10.6-3.8,11c0.3,0.1-0.1,4-0.8,9.2C100.2,374.3,99.6,373.1,99.1,371.9
	L99.1,371.9z"/>
<path class="st8" d="M147.6,118.7V149c0,1.3-1,2.3-2.3,2.3c-1.3,0-2.3-1-2.3-2.3v-30.3c0-1.3,1-2.3,2.3-2.3
	C146.6,116.4,147.6,117.4,147.6,118.7L147.6,118.7z"/>
<path class="st8" d="M193.1,199.8v47.1c0,7.8-6.4,14.2-14.2,14.2h-20.4c-7.8,0-14.2-6.4-14.2-14.2v-47.1c0-7.8,6.4-14.2,14.2-14.2
	h20.4C186.8,185.6,193.1,192,193.1,199.8z"/>
<path class="st2" d="M113.1,376.4l-3.9,48c0,0-5.8-5.3-13.4-12.2c-14-12.8-33.9-31.1-33.7-31.5c0.4-0.7,3.5-44.3,3.9-55.2
	c0.3-7.8,2-15.4,5-22.6c0.7-1.4,2.7-10.5,3.6-14.7c0.3-1.3,0.5-2.2,0.5-2.2l6.5-2.6c0,0,27.2,30.4,27.2,31s-1.9,23.9-1.9,23.9
	l-1.9,1.7l-0.8,0.7c0,0-1.3,10.2-2.2,13.3c-0.9,2.9,0.1,8.4,0.2,8.9v0c-0.1,1.6-0.3,3.2-0.7,4.7c-0.2,0.6-0.4,1.2-0.6,1.8
	c-0.3,1-0.3,2.2,0.2,3.1c0.5,1.4,1.2,2.7,2,3.9L113.1,376.4z"/>
<path class="st2" d="M278.2,380.7c0.3,0.6-28.8,27.1-41.4,38.5l-5.7,5.2l-3.9-48h10c0,0,3.3-4.8,2.2-7s-1.3-6.5-1.3-6.5
	s1.1-5.9,0.2-9s-2.2-13.3-2.2-13.3l-1.3-1.1l-1.5-1.3c0,0-1.9-23.3-1.9-23.9s27.2-31,27.2-31l6.5,2.6c0,0,0.2,0.7,0.4,1.8
	c0.9,4,3,13.6,3.7,15c3,7.2,4.7,14.8,5,22.6C274.6,336.4,277.8,379.9,278.2,380.7z"/>
<path class="st2" d="M278.3,788c-1.7,3.5-14,1.2-16.5,1s-20.3-9.2-20.6-11.2s-6.4-6.4-8.2-6.4s-10.1-6.7-10.9-7.7
	c-0.2-0.5-0.3-1-0.3-1.5c-0.3-4.1,0.3-14.5,0.3-14.5l35.8,2l17.4,26.2c0,0,2.6,5,3.1,9C278.8,785.9,278.7,787,278.3,788z"/>
<path class="st9" d="M278.3,788c-1.7,3.5-14,1.2-16.5,1s-20.3-9.2-20.6-11.2s-6.4-6.4-8.2-6.4s-10.1-6.7-10.9-7.7
	c-0.2-0.5-0.3-1-0.3-1.5c-0.3-4.1,0.3-14.5,0.3-14.5l35.8,2l17.4,26.2c0,0,2.6,5,3.1,9C278.8,785.9,278.7,787,278.3,788z"/>
<path class="st9" d="M278.3,788c-1.7,3.5-14,1.2-16.5,1s-20.3-9.2-20.6-11.2s-6.4-6.4-8.2-6.4s-10.1-6.7-10.9-7.7
	c-0.2-0.5-0.3-1-0.3-1.5l11.6,7.4c0,0,7.4,4.7,9.4,7.5s17.6,8.7,18.8,8.8c1,0.1,11.2-1.9,16.8-1C278.8,785.9,278.7,787,278.3,788z"
	/>
<path class="st2" d="M108.9,766.4c0,0-5.1,6.3-11.9,6.8c-3.7,0-6.7,3-6.9,6.7c0,0,1.2,3.8-15.2,9.2c-9.9,3.2-16.1,2.2-19.7,0
	c-2-1.1-3.4-2.9-4.1-5c-1.1-4,20.8-34,20.8-34l19.9-1.2l14.2,6.4l2.2,8.1L108.9,766.4z"/>
<path class="st9" d="M108.9,766.4c0,0-5.1,6.3-11.9,6.8c-3.7,0-6.7,3-6.9,6.7c0,0,1.2,3.8-15.2,9.2c-9.9,3.2-16.1,2.2-19.7,0
	c-2-1.1-3.4-2.9-4.1-5c-1.1-4,20.8-34,20.8-34l19.9-1.2l14.2,6.4l2.2,8.1L108.9,766.4z"/>
<path class="st10" d="M108.9,766.4c0,0-5.1,6.3-11.9,6.8c-3.7,0-6.7,3-6.9,6.7c0,0,1.2,3.8-15.2,9.2c-9.9,3.2-16.1,2.2-19.7,0
	c9.3-1,29.9-6.9,32-8.9c2.5-2.5,5.6-9.3,7.7-9.4c1.5-0.1,8.9-4.5,13.3-7.3L108.9,766.4z"/>
<path class="st9" d="M108.9,766.4c0,0-5.1,6.3-11.9,6.8c-3.7,0-6.7,3-6.9,6.7c0,0,1.2,3.8-15.2,9.2c-9.9,3.2-16.1,2.2-19.7,0
	c9.3-1,29.9-6.9,32-8.9c2.5-2.5,5.6-9.3,7.7-9.4c1.5-0.1,8.9-4.5,13.3-7.3L108.9,766.4z"/>
<path class="st2" d="M261.4,738.9c-2.2,5.2,0,15.8,0,15.8s-33.1,1.7-41.3-3.7s-13.8-36.6-13.8-36.6s1.2-36.6,0-38.3
	s-5.7-9.9-4.2-11.6s-1.2-10.9-3.2-14.8s-1.2-15.3-1.2-15.3l-4.9-30.1l-7.7-35.8l-6.4-24c0,0-6.7-19.5-8.9-27.7
	c-2.3-8.2-4.6-0.7-4.6-0.7c-0.2,7.9-18.5,43.5-18.5,43.5s-2.7,21.5-5.7,29.2s-6.2,34.3-6.2,34.3s-4.7,54.3-8.6,63.5
	s-6.6,22.8-6.6,22.8s1,18.8-1.5,20.3s-2,12.8-2,12.8s1.5,10.9-4.2,12.6s-4.7,5.4-4.7,5.4s-31.6,5.2-36.8-8.6s2-17.5,2.3-18.5
	s4.3-2.7,0.9-6.7s4.5-14.8,4.5-14.8s1.2-15.3,3.5-15.8s1.5-22.7,1.5-22.7l2.5-23.2c0,0,3.2-51.9,2.5-53.9s-0.3-11.9,2.2-16.5
	s4.4-47.9,4.4-47.9s-0.5-21.2,1.5-25.2c1.1-2.2,1.7-10.8,2-17.9c0.2-5.4,0.3-9.8,0.3-9.8l27.7-10.4l35.6-11.4l29.9,14.3l43.7,8.4
	l0.5,7.5l8.3,115.3l4.7,43.5c0,0,2,20.5,2.2,24.2s2.7,27.9,2.7,27.9s5.2,11.6,2,15.6s-2,7.2-2,7.2S263.7,733.7,261.4,738.9z"/>
<polygon class="st9" points="209.6,241.3 198.2,443.7 136.5,430.8 124.2,349.6 136.3,240.6 145.5,241.8 161.5,243.9 177.5,244.8 
	194.7,242.9 "/>
<polygon class="st4" points="209.6,242.7 198.2,445.2 136.5,432.2 124.2,351.1 136.3,242.1 145.5,243.3 161.5,245.3 177.5,246.3 
	194.7,244.4 "/>
<path class="st2" d="M158.8,248.2l22.2,0.7l-6.3,8.8c0,0,0.4,17.7,3.4,22.8s2.1,83.4,2.1,83.4l-5.9,11.2l-10.1-12.6l0.1-103.4
	L158.8,248.2z"/>
<path class="st9" d="M158.8,248.2l22.2,0.7l-6.3,8.8c0,0,0.4,17.7,3.4,22.8s2.1,83.4,2.1,83.4l-5.9,11.2l-10.1-12.6l0.1-103.4
	L158.8,248.2z"/>
<polygon class="st9" points="193.7,225.2 172.9,248.2 184.8,260.5 204.4,241.4 "/>
<path class="st4" d="M192.3,225.2l-19.4,21.5l11.9,12.4l19.7-19.1l-9.6-14.5c-0.5-0.7-1.4-1-2.2-0.5
	C192.5,225,192.4,225.1,192.3,225.2z"/>
<polygon class="st9" points="164.1,247.1 143.1,226.1 141.2,237.1 150.8,261.1 "/>
<polygon class="st4" points="164.9,245.6 143.9,224.6 141.9,235.6 151.5,259.7 "/>
<path class="st9" d="M235.6,487.2c-10.1,4.8-20.9,8-31.9,9.3c-20.4,2.6-33.7-23.3-33.7-23.3l-7.8,10.1c-2.5,10.8-40.2,13.5-55.5,9.4
	c-3.2-0.8-6.2-2.2-8.8-4.2c0.2-5.4,0.3-9.8,0.3-9.8l27.7-10.4l35.6-11.4l29.9,14.3l43.7,8.4L235.6,487.2z"/>
<path class="st9" d="M209.6,242.7l-11.4,202.5l-61.8-13L124.2,351l12.1-109l9.1,1.2c-0.2,4-0.7,7.9-1.3,11.8
	c-1.5,6.9,7.7,56.1,7.7,56.1s17.4,55.1,25.2,47.2s18.9-49.9,18.9-49.9c7.5-15.6,0.1-59.2-0.4-60.1c-0.4-1.3-0.6-2.6-0.7-4
	L209.6,242.7z"/>
<path class="st9" d="M236.3,399.4l0.5,19.8l-5.7,5.2l-3.9-48h8.5L236.3,399.4z"/>
<path class="st9" d="M102.1,362.8L102.1,362.8c-0.1,1.6-0.3,3.2-0.7,4.8c0-0.4,0-0.7-0.1-0.7C101,366.7,101.4,364.9,102.1,362.8z"/>
<path class="st9" d="M113.1,376.4l-3.9,48c0,0-5.8-5.3-13.4-12.2l0.9-8.5c0,0,3.2-20.9,4.4-31.2c0.5,1.4,1.2,2.7,2,3.9L113.1,376.4z
	"/>
<path class="st2" d="M146.6,225.3c0,0-3.7-5.4-8.8,5.1c0,0-13.2,7.7-17.8,8.5s-20.8,6.5-20.8,6.5c-2.4,1.8-5.4,2.7-8.4,2.7
	c-5.1,0-9.3,11.1-8.6,17.2s-0.4,10.5-5.1,10.8s-2.1,10-2.1,10l31.3,35.8c0,0,2,33,1,34s-4.6,10.6-3.7,11s-4.7,36.8-4.7,36.8
	l-7.5,70.8c0,0,0,11.9,15.3,15.9c15.3,4.1,53,1.4,55.5-9.4l7.8-10.1c0,0,13.3,26,33.7,23.3c20.4-2.7,33.4-10,33.4-10l-2.2-84.9
	l-1.5-61.1l31.9-52.3c0,0-8.5-16.3-7.8-23.7s2.2-13-15.9-15.6c0,0-15.3-2.3-24.3-8.5c-5.4-3.7-11.2-6.7-17.4-8.8
	c0,0-4.1-7.4-7.6-4.2c0,0,2.6,11.4,2.3,13.4s0.5,11.1,1.1,12s8,44.5,0.4,60.1c0,0-11.1,42-18.9,49.9s-25.2-47.2-25.2-47.2
	s-9.1-49.2-7.7-56.1S146.6,225.3,146.6,225.3z"/>
<circle class="st2" cx="173" cy="381.8" r="5.4"/>
<circle class="st2" cx="173" cy="407.5" r="5.4"/>
<circle class="st9" cx="173" cy="381.8" r="5.4"/>
<circle class="st9" cx="173" cy="407.5" r="5.4"/>
<path class="st9" d="M221.9,731.4c0,0,22.3,1.7,24.5,3.5S221.9,731.4,221.9,731.4z"/>
<path class="st9" d="M89,713.9c0,0,4.7,5.9,2.7,8.7S89,713.9,89,713.9z"/>
<path class="st9" d="M94.7,735.3c0,0,8.6-5.7,12.1-1.9S94.7,735.3,94.7,735.3z"/>
<path class="st9" d="M193.1,199.8v14.3c-1.8,0.8-3.7,1.2-5.7,1.2H150c-2,0-3.9-0.4-5.7-1.2v-14.3c0-7.8,6.4-14.2,14.2-14.2h20.4
	C186.8,185.6,193.1,192,193.1,199.8z"/>
<path class="st9" d="M147.6,138.5v10.5c0,1.3-1,2.3-2.3,2.3c-1.3,0-2.3-1-2.3-2.3v-8.9C144.4,139.3,146,138.8,147.6,138.5z"/>
<path class="st11" d="M147.8,139.5h41.9c6.6,0,12,5.4,12,12v49.4c0,6.6-5.4,12-12,12h-41.9c-6.6,0-12-5.4-12-12v-49.4
	C135.8,144.8,141.2,139.5,147.8,139.5z"/>
<path class="st9" d="M187.4,188.5v29.9H150v-30c2.5-1.9,5.5-2.9,8.5-2.9h20.4C182,185.6,185,186.6,187.4,188.5z"/>
<rect x="149.3" y="139.5" class="st9" width="38.6" height="76.6"/>
<rect x="150" y="139.5" class="st8" width="37.5" height="76.6"/>
<rect x="152.8" y="165.9" class="st11" width="12.1" height="2.2"/>
<rect x="172.9" y="165.9" class="st11" width="12.1" height="2.2"/>
<rect x="158.5" y="190.6" class="st11" width="20.4" height="1.3"/>
<linearGradient id="SVGID_2_" gradientUnits="userSpaceOnUse" x1="92.7327" y1="-17.4189" x2="92.7327" y2="608.1179" gradientTransform="matrix(-1 0 0 -1 645.48 772.04)">
	<stop  offset="0" style="stop-color:#808080;stop-opacity:0.25"/>
	<stop  offset="0.54" style="stop-color:#808080;stop-opacity:0.12"/>
	<stop  offset="1" style="stop-color:#808080;stop-opacity:0.1"/>
</linearGradient>
<path class="st12" d="M425.8,273l14.5,71.5c0.3,1.6,1.7,2.8,3.4,3l9.7,0.9c0.7,1.2,1.4,2.5,1.9,3.9c1.7,4,2.8,8.8,6.5,11.2
	c2,2,6.5,1.6,9.1,1.7c2.7-0.1,5.4,0.3,8,1.1c-0.3,0-0.6,0-0.9,0c1.7,0.7,3.3,1.5,4.9,2.4c0.1,0.2,0.3,0.3,0.3,0.5
	c0.4,0.6,0.7,1.4,1.4,1.7c-0.2,0.4,0.8,0.4,2.3,0.2c0.1,0,0.3,0.1,0.4,0.1c0.4,0.3,0.7,0.6,1,1c2.5,3.3,7.2,4.2,11.4,4.3
	s8.6-0.2,12.3,1.8c0.9,0.5,1.7,1.1,2.6,1.5c0,0.4,0,0.9,0,1.3c0.4,1.4,1,2.7,1.7,4c0.7,1.3,0.7,2.9,0.1,4.2c-0.3,0.5-0.8,1-1.1,1.5
	c-0.4,0.9-0.6,1.8-0.6,2.8c-0.3,4.5-0.6,9.2,0.7,13.6c0.7,2.5,1.9,5.2,1.1,7.7c-0.5,1.5-1.7,2.8-1.8,4.4s0.8,3.2,1.4,4.8
	c1.4,3.8,0.6,8.3-0.3,12.2c0.1,0,0.1,0.1,0.2,0.1c-0.7,0.8-1.3,1.8-1.7,2.8c-1.5,3.3-1.4,7.1-1.3,10.7c0.2,6.8,0.4,13.7,2.3,20.2
	c0.3,0.9,0.5,1.9,0.7,2.9c0,0.9-0.1,1.8-0.2,2.8c-0.5,2.6-1,5.2-1.7,7.8c-0.4,1.1-0.5,2.3-0.4,3.4c0.2,1.5,1.1,2.8,1.8,4.2
	c2.5,5.6-0.2,12.5,2.3,18.1c0.6,1.3,1.4,2.5,1.9,3.9c1.1,3,0.5,6.2,0.8,9.4c0.4,2.2,0.9,4.4,1.6,6.5c1.8,6.9-1.2,14.3,0.5,21.3
	c1.5,6,2.9,12,3,18.1c0.1,4.3-0.5,8.5,0,12.8s2.3,8.6,5.9,10.9c1.9,1.1,4.1,1.7,6.3,1.9c4.3,22.4,4,45.4,7.8,67.9
	c0.8,4.5,1.7,9,2.1,13.6c2.1,21.4-5.9,42.2-10.4,63.3l-0.7,0.4c-5.5,3.5-11.5,7.4-13.7,13.5c-0.7,1.9-0.8,4.3,0.7,5.6
	c0.6,0.4,1.1,0.8,1.6,1.2c1.2,1.5,0.2,4.1,1.6,5.3c1,0.2,1.9,0.3,2.9,0.3c-0.7,1.6-1.3,3.2-2,4.8c-0.6,1.4-1.2,3-0.8,4.4
	c0.3,0.9,0.8,1.8,1.4,2.7c1,2.2,1.5,4.7,1.4,7.2c-0.1,0.8,0.1,1.6,0.6,2.3c0.3,0.3,0.6,0.5,0.9,0.6c9.1,4,19.5,2.8,27.5-3
	c0.4-0.2,0.7-0.6,0.9-0.9c0.1-0.3,0.2-0.5,0.3-0.8c0.6-2.6,1.3-5.2,1.9-7.8c0.1-0.3,0.2-0.6,0.2-0.9c0.7-3.1,1.5-6.1,2.2-9.2
	c1-4.3,2.1-8.6,2.8-13c0,2.4,0,4.9,0,7.3v8.5c0,1.3,0,2.5,0.1,3.8c1,0,2.1,0,3.2,0c0.2,0,0.3,0,0.4-0.2c0.1-0.3,0.2-0.7,0.2-1
	c0.2-3.1,0.3-6.2,0.3-9.4c0.1-5.5,0.2-11,0-16.5c0-1.2,0.1-3.8-0.1-5.5c0.5-1.2,0.9-2.5,1.3-3.7c0.5-1.7,1-3.5,1.4-5.2
	c0.7-0.1,1.3-0.1,2,0c0,10.1-1,20.2-2.9,30.1c1.9,1.8,5.4,0.8,6.9-1.4s1.8-5,2-7.6c0.7-8.7,2.1-17.3,3.5-25.9
	c0.1-1.5,0.6-2.9,1.3-4.3c0.7-1.1,1.7-2,2.3-3.2c0.6-1.5,0.8-3.2,0.5-4.8c-0.4-3.8-1.3-7.7-3.6-10.7c-2.2-2.8-5.8-4.8-9.3-4.4
	l-0.2-0.4c-2.1-4.1-1.8-9-1.6-13.6c0.3-5.2,0.6-10.4,0.9-15.6c0.8-5.7,1.5-11.4,1.9-17.2c1-3.7,2.3-7.3,3.3-11
	c0-3.6,1.3-7.4,1.3-11.1c0-3.9-0.3-7.8-0.9-11.6c-1.1-7.9-3.2-15.6-4.9-23.3c-0.3-1.3-0.5-2.7-0.7-4.1c1.2-0.7,2.2-1.5,3.2-2.4
	c-1.8-13.6-3.3-28.2,3.1-40.3c1.9-3.6,4.5-7,5.2-11c0.2-1,0.2-2.1,0.4-3.1c0.3-1.2,0.7-2.4,1.3-3.5l12.7-28.8l2.1-4.6
	c2.2-5,4.4-10,6.3-15.2c2.2-6,4-12.2,5.7-18.4c1-3.7,2-7.5,1.9-11.3c-0.2-3.4-1-6.8-2.4-9.9c-0.3-0.7-0.6-1.4-1-2.1
	c0.4-0.1,0.8-0.2,1.2-0.3c0.8-6,1.6-12.7-1.8-17.8c-0.7-0.8-1.2-1.7-1.6-2.7c-0.6-2.1,0.7-4.2,1.1-6.3c0.9-4.3-2.1-8.4-4.6-12
	c-0.4-0.5-0.7-1-0.9-1.6c-0.5-1.7,0.5-3.5,0.6-5.2c0-0.4-0.1-0.9-0.3-1.3c9.7,0.6,19.2,3.1,28.8,3.5c6.1,0.2,13-0.7,16.9-5.4
	c2.5-3,3.4-7,3.6-10.8c0.4-7.1-1-14.2-2.2-21.2c-0.8-4.8-1.4-9.6-1.9-14.4c1,0.1,2,0.1,3,0.1c5.7,0,11.7-0.8,16.4-4
	s7.9-9.2,6.4-14.7c-0.8-3.1-3-5.7-4.6-8.5c-5.6-9.9-4-22.4,0.8-32.6c2.3-4.9,5.2-9.9,4.3-15.2c-1.3-7.4-9.3-11.3-15.2-15.9
	c-10.6-8.3-16.3-21.3-15.2-34.7c0.5-4.9,1.8-10-0.2-14.5c-2.1-4.8-7.3-7.3-11.7-10.3c-6.8-4.6-12.3-10.8-15.9-18.1
	c-2.2-4.6-4.1-8.7-9.3-10.3c-4.2-1.1-8.7-1.2-12.9-0.2l0.9-0.4c-0.4,0.1-0.8,0.1-1.2,0.2l-0.6,0.2c-4-0.9-8.2-0.9-12.2,0.1
	c-8.1,2-17,7.8-23.7,12.6c-2,1.4-3.8,3-5.5,4.8c-0.2,0.2-0.4,0.4-0.5,0.5c-0.8,0.9-1.5,1.9-2,3c-0.3,0.8-0.6,1.6-0.8,2.4
	c-0.7,2.3-1,4.7-0.8,7.1c-0.4,0.5-0.7,1-1,1.5c-8.8,14-5.2,32.4,8.3,42.1c-1.2,2.7-2.6,5.4-4.2,7.9c-1.7,2.8-3.5,5.5-5.4,8.2
	l-20,6.2c-1.3,0.4-2.5,0.8-3.7,1.3c-1.5,0.6-2.8,1.4-4.1,2.4c-4.1,3.2-6.2,8.3-5.5,13.5c0.1,0.5,0.2,1,0.3,1.5
	c-0.6,3.1-1.1,6.2-1.5,9.3c-0.6,4.2-1.2,8.3-1.8,12.5c-2.1,4.1-3,8.8-2.6,13.4c0.1,2.8,0.3,5.6,0.7,8.3c-0.1,2.5-0.1,4.9,0,7.4
	c0.2,3.1,0.2,6.2,0,9.3c-0.3,2.8-0.9,5.6-1.7,8.4c-0.1,0.5-0.3,1-0.7,1.3l-0.2,0.1l-1.3-0.1l-1.5-0.2c0-0.2,0-0.4,0-0.6l-15.8-77.2
	c-0.4-1.8-1.9-3-3.7-3h-57.9c-2.1,0-3.8,1.7-3.8,3.8C425.7,272.5,425.7,272.7,425.8,273z M609.3,365.1c0.1-0.3,0.3-0.6,0.4-0.9
	c0.6-1,1.5-1.8,2-2.8c0.6-1.2,0.6-2.5,0-3.7c-0.6-1,1-2,1.5-3c0.2-0.8,0.3-1.7,0.2-2.6c0.2-1.5,0.7-2.8,1.6-4
	c1.1-1.7,2.2-3.5,3.3-5.2c0.3-0.5,0.7-1,1-1.5c0.2,0.3,0.4,0.7,0.6,1c0.8,0.9,1.4,2,1.8,3.2c0.1,0.8,0.1,1.6,0,2.5
	c0,2.6,1.6,4.8,2.8,7.1s2.1,5.1,0.8,7.3c-0.5,0.8-1,2-0.2,2.4c0.4,0.2,1,0,1.4,0.3c0.5,0.5-0.2,1.3-0.8,1.5c-4.3,1.9-9.2,1.9-13.6,0
	C611.3,366.1,610.3,365.6,609.3,365.1z M486.3,351.7l16,1.6c-1.3,0.6-2.8,1-4.3,0.9l-3.9-1.2c0,0,0,0.3-0.1,0.7
	c-0.7-0.2-1.5-0.4-2.2-0.5C489.9,352.7,488.1,352.2,486.3,351.7L486.3,351.7z"/>
<path class="st2" d="M609.5,178.5c3.6,7.3,9,13.5,15.7,18c4.3,2.9,9.5,5.4,11.5,10.2c1.9,4.5,0.6,9.6,0.2,14.4
	c-1.1,13.3,4.5,26.3,15,34.5c5.9,4.6,13.8,8.4,15.1,15.8c0.9,5.3-2,10.3-4.3,15.1c-4.7,10.2-6.3,22.7-0.8,32.5
	c1.6,2.8,3.7,5.3,4.5,8.4c1.5,5.5-1.7,11.4-6.3,14.6s-10.6,4-16.2,4c-4.1,0-8.6-0.6-11.5-3.5c-2-1.9-2.9-4.6-3.9-7.2l-7.2-20.2
	c-1.3-3.6-2.7-7.4-5.4-10.2c-5.7-5.9-15.1-5.2-23.3-5.1c-12.1,0.1-24.1-1.8-35.6-5.6c-6.7-2.3-14-6.1-15.5-13
	c-1.5-6.7,3.1-13.2,7.1-18.8c3-4.2,5.9-8.4,8.6-12.9c2.6-4.3,5.2-8.8,5.9-13.8c1.2-8.3-2.7-16.3-5.7-24.1s-5.1-17-0.7-24.1
	c1.9-2.8,4.3-5.1,7.1-7c6.5-4.8,15.3-10.6,23.4-12.5c4.3-1,8.8-0.9,13.1,0.2C605.5,169.8,607.3,173.9,609.5,178.5z"/>
<path class="st13" d="M521.3,275c-1.6,5.5-2.7,11.1-3.4,16.8c-2,13.7-4,27.5-3.6,41.3c0.2,3.1,0.2,6.2,0,9.3
	c-0.3,2.8-0.9,5.6-1.6,8.4c-0.1,0.5-0.3,1-0.7,1.3c-0.5,0.2-1,0-1.5-0.1c-1.8-0.2-3.1,1.5-4.5,2.7c-2.7,2.2-6.6,2.5-9.6,0.7
	c0.9,4.2-0.7,8.5-4.1,11c-3.4,2.4-7.8,3.3-11.9,2.2c2-0.3,4,1.1,5.2,2.9c0.4,0.6,0.7,1.4,1.4,1.7s1.9-0.1,2.7,0.3
	c0.4,0.3,0.7,0.6,1,1c2.5,3.3,7.1,4.1,11.2,4.3s8.5-0.2,12.2,1.8c0.9,0.5,1.8,1.1,2.7,1.5c2.9,1.2,6.3,0,8.6-2.1s3.5-5.1,4.4-8.1
	c3.7-12,3-24.9,2.2-37.5C530.5,314.3,528,293.8,521.3,275z"/>
<path class="st9" d="M521.3,275c-1.6,5.5-2.7,11.1-3.4,16.8c-2,13.7-4,27.5-3.6,41.3c0.2,3.1,0.2,6.2,0,9.3
	c-0.3,2.8-0.9,5.6-1.6,8.4c-0.1,0.5-0.3,1-0.7,1.3c-0.5,0.2-1,0-1.5-0.1c-1.8-0.2-3.1,1.5-4.5,2.7c-2.7,2.2-6.6,2.5-9.6,0.7
	c0.9,4.2-0.7,8.5-4.1,11c-3.4,2.4-7.8,3.3-11.9,2.2c2-0.3,4,1.1,5.2,2.9c0.4,0.6,0.7,1.4,1.4,1.7s1.9-0.1,2.7,0.3
	c0.4,0.3,0.7,0.6,1,1c2.5,3.3,7.1,4.1,11.2,4.3s8.5-0.2,12.2,1.8c0.9,0.5,1.8,1.1,2.7,1.5c2.9,1.2,6.3,0,8.6-2.1s3.5-5.1,4.4-8.1
	c3.7-12,3-24.9,2.2-37.5C530.5,314.3,528,293.8,521.3,275z"/>
<path class="st14" d="M582,640.8c-1,4.3-2.8,8.5-3.7,12.8c-0.7,3.7-1.1,7.5-1.2,11.3l-1.1,19.3c-0.3,4.6-0.5,9.4,1.6,13.5
	c1.4,2.8,3.8,5.2,4.5,8.3c1.1,4.8-2.4,9.4-5.6,13.2l-16,18.5c-5,5.8-10.5,11.9-17.9,13.9c-1.1,0.4-2.3,0.4-3.4,0.1
	c-2.1-0.7-3.1-3.2-2.8-5.3c0.5-2.1,1.4-4.1,2.8-5.8c4.2-5.9,8.7-11.7,11.4-18.3c3.5-8.5,3.8-17.9,3.6-27.1
	c-0.8-37.4-10.2-74.3-9.2-111.7c8.2-0.6,16.6-2,24.8-1.9c7.3,0.1,6.4,7.5,7.7,13.3c1.7,7.7,3.7,15.4,4.9,23.2
	c0.6,3.8,0.9,7.7,0.8,11.5C583.3,633.4,582,637.2,582,640.8z"/>
<path class="st15" d="M582,640.8c-1,4.3-2.8,8.5-3.7,12.8c-0.7,3.7-1.1,7.5-1.2,11.3l-1.1,19.3c-0.3,4.6-0.5,9.4,1.6,13.5
	c1.4,2.8,3.8,5.2,4.5,8.3c1.1,4.8-2.4,9.4-5.6,13.2l-16,18.5c-5,5.8-10.5,11.9-17.9,13.9c-1.1,0.4-2.3,0.4-3.4,0.1
	c-2.1-0.7-3.1-3.2-2.8-5.3c0.5-2.1,1.4-4.1,2.8-5.8c4.2-5.9,8.7-11.7,11.4-18.3c3.5-8.5,3.8-17.9,3.6-27.1
	c-0.8-37.4-10.2-74.3-9.2-111.7c8.2-0.6,16.6-2,24.8-1.9c7.3,0.1,6.4,7.5,7.7,13.3c1.7,7.7,3.7,15.4,4.9,23.2
	c0.6,3.8,0.9,7.7,0.8,11.5C583.3,633.4,582,637.2,582,640.8z"/>
<path class="st2" d="M577.1,698.2c3.7-0.8,7.6,1.3,9.9,4.3s3.2,6.9,3.6,10.6c0.3,1.6,0.1,3.3-0.5,4.8c-0.6,1.2-1.6,2.1-2.3,3.2
	c-0.7,1.3-1.1,2.8-1.2,4.2c-1.4,8.5-2.8,17.1-3.5,25.8c-0.2,2.6-0.4,5.4-2,7.6s-4.9,3.2-6.8,1.4c1.9-9.9,2.9-19.9,2.9-29.9
	c-4.4-0.6-8.2,2.8-11,6.2c-2.9,3.4-5.6,7-8,10.8c-2.2,3.5-4.2,7.1-7,10.2c-5.8,6.2-14.3,9.1-22.6,7.7c-1.4-1.2-0.4-3.8-1.6-5.3
	c-0.5-0.5-1-0.9-1.5-1.3c-1.5-1.3-1.3-3.7-0.7-5.6c2.2-6.1,8-10,13.5-13.4c9.9-6.2,20-12.4,30-18.4c3.8-2.3,6.7-5.9,8.3-10.1
	C576.8,709.9,578.4,697.8,577.1,698.2z"/>
<path class="st15" d="M577.1,698.2c3.7-0.8,7.6,1.3,9.9,4.3s3.2,6.9,3.6,10.6c0.3,1.6,0.1,3.3-0.5,4.8c-0.6,1.2-1.6,2.1-2.3,3.2
	c-0.7,1.3-1.1,2.8-1.2,4.2c-1.4,8.5-2.8,17.1-3.5,25.8c-0.2,2.6-0.4,5.4-2,7.6s-4.9,3.2-6.8,1.4c1.9-9.9,2.9-19.9,2.9-29.9
	c-4.4-0.6-8.2,2.8-11,6.2c-2.9,3.4-5.6,7-8,10.8c-2.2,3.5-4.2,7.1-7,10.2c-5.8,6.2-14.3,9.1-22.6,7.7c-1.4-1.2-0.4-3.8-1.6-5.3
	c-0.5-0.5-1-0.9-1.5-1.3c-1.5-1.3-1.3-3.7-0.7-5.6c2.2-6.1,8-10,13.5-13.4c9.9-6.2,20-12.4,30-18.4c3.8-2.3,6.7-5.9,8.3-10.1
	C576.8,709.9,578.4,697.8,577.1,698.2z"/>
<path class="st14" d="M578.8,629.9c2,25-3.6,49.8-8.6,74.4c-0.5,2-0.7,4-0.8,6c0.2,2.5,0.6,5,1.2,7.4c1.9,10.1-0.5,20.5-2.9,30.5
	c-1.7,6.9-4,14.8-10.5,17.8c-4.6,2.1-9.9,1.2-14.9,0.2c-1.6-0.2-3.2-0.8-4.5-1.8c-1.8-1.7-1.8-4.5-1.7-6.9c1.7-27.6,15.7-54,13-81.5
	c-0.5-4.5-1.4-9-2.1-13.6c-3.9-23.4-3.4-47.4-8.3-70.6c-0.2-0.8-0.2-1.7,0-2.5c0.4-0.8,1.1-1.4,1.9-1.8c4.5-2.7,9.3-5.1,14.6-5.8
	c4.1-0.6,9.2-0.1,12.6,2.4c3.6,2.7,3.8,8.3,4.9,12.5C575.4,607.7,577.9,618.7,578.8,629.9z"/>
<path class="st2" d="M572.2,770.2c0,0.3-0.1,0.7-0.2,1c-0.1,0.1-0.2,0.2-0.4,0.2c-1,0-2.1,0-3.1,0c-0.1-1.3-0.2-2.5-0.1-3.8v-8.5
	c0-6.7,0-13.5,0.3-20.2c0-0.2,0-0.5,0.1-0.7c0.1-0.1,0.2-0.3,0.3-0.3c0.7-0.3,2.5-1.4,3.1-0.2s0.3,5.2,0.4,6.8
	c0.1,5.5,0.1,10.9,0,16.4C572.5,764,572.4,767.1,572.2,770.2z"/>
<path class="st2" d="M517.7,474.7c0,0.9-0.1,1.8-0.2,2.7c-0.5,2.6-1,5.2-1.6,7.8c-0.4,1.1-0.5,2.3-0.4,3.4c0.2,1.5,1.1,2.8,1.8,4.2
	c2.5,5.5-0.2,12.4,2.2,18c0.6,1.3,1.4,2.5,1.9,3.9c1.1,2.9,0.5,6.2,0.8,9.3c0.4,2.2,0.9,4.4,1.6,6.5c1.8,6.9-1.2,14.3,0.5,21.2
	c1.5,5.9,2.9,11.9,3,18c0.1,4.2-0.5,8.5,0,12.7s2.2,8.6,5.8,10.8c2.8,1.8,6.3,2,9.7,2c6.5,0.1,12.9-0.1,19.4-0.6s13.4-1.5,17.9-6.1
	c-1.7-13.5-3.3-28,3.1-40.1c1.9-3.6,4.5-6.9,5.1-10.9c0.2-1,0.2-2,0.4-3.1c0.3-1.2,0.7-2.3,1.2-3.4l12.6-28.7c0.7-1.5,1.3-3.1,2-4.6
	c2.2-5,4.4-10,6.3-15.1c2.2-6,3.9-12.2,5.6-18.3c1-3.7,2-7.5,1.9-11.3c-0.2-3.4-1-6.7-2.3-9.8c-0.8-1.8-1.6-3.6-2.5-5.3
	c-25-5.9-50.7-8.1-76.3-6.5c-4.1,0.1-8.1,0.8-12,2c-2.7,0.9-5.1,2.5-7,4.5c-0.9,1-1.6,2-2.1,3.2c-1.5,3.3-1.4,7-1.3,10.6
	c0.2,6.8,0.4,13.6,2.3,20.1C517.3,472.7,517.6,473.7,517.7,474.7z"/>
<path class="st2" d="M535.2,756.3c3.8,2.9,8.2,4.7,12.9,5.4c4.1,0.6,8.7,0.2,12-2.4c3.8-3,5-8,6.1-12.7l1.4-6.2
	c0.5-2.2,1-4.5,1.4-6.7c1.1-6,1.4-12,1-18.1c3.4,1.3,5.4,5.4,5.7,9s-0.9,7.2-1.9,10.7c-0.4,1.7-1,3.3-1.9,4.9c-0.6,1-1.4,1.9-1.9,3
	c-0.7,1.6-1,3.3-1.1,5c-0.8,5.6-1.9,11.2-3.3,16.7l-2.2,9.1l-0.2,0.9l-2,7.7c-0.1,0.3-0.1,0.5-0.3,0.8c-0.2,0.4-0.5,0.7-0.9,0.9
	c-7.9,5.8-18.3,6.9-27.2,2.9c-0.3-0.1-0.7-0.3-0.9-0.6c-0.5-0.7-0.7-1.5-0.6-2.3c0.1-2.5-0.4-4.9-1.4-7.2c-0.6-0.8-1-1.7-1.4-2.7
	c-0.4-1.5,0.2-3,0.8-4.4l4.6-10.8C534.4,758.1,534.4,757.4,535.2,756.3z"/>
<path class="st14" d="M546,308.8c0.2,2.4,0.6,4.7,1.4,7c0.6,1.6,1.5,3.1,2.8,4.2c2.1-2.9,6-3.9,8.8-6c2.5-1.9,4.3-4.5,6.2-7
	c3.7-4.9,8-9.4,12-14.1c0.6-0.7,1.2-1.4,1.8-2.1c2-2.5,3.9-5.1,5.5-7.9c3.3-5.7,5.6-12.3,10.6-16.6c2.7-2.4,6.1-3.9,8.5-6.6
	c-1.6-2.4-2.3-5.3-2.8-8.2c-0.6-2.8-1.1-5.6-1.4-8.4c-0.1-0.7-0.1-1.5-0.2-2.2c0-0.3,0-0.6,0-1c0-2.3,1.5-6.2-0.9-7.5
	c-2.2-1.2-5.7-1.2-8.2-1.2h-0.4c-5.9,0.1-11.6,1.8-16.5,5.1c-1.1,0.7-2.1,1.6-2.9,2.6c-1.3,2-1.4,4.4-1.3,6.8c0,0.5,0,1.1,0.1,1.6
	c0,0.3,0,0.5,0,0.8c0.1,2.7-0.2,5.5-2,7.4c-2,2-5.2,2.1-7.9,2.9c-0.5,0.1-0.9,0.3-1.3,0.5c-3,1.3-5.5,3.5-7.3,6.2
	c-2,3.1-3.5,6.6-4.3,10.3c-0.8,3.3-1.2,6.6-1.4,10C544.4,293.1,545.2,301,546,308.8z"/>
<path class="st9" d="M569.1,247.4c0,0.3,0,0.5,0,0.8c3.3,1.2,11.4-2.2,15.1-2.2c7.4,0,9.7,1.5,15.1-2.9c-0.1-1.1-0.2-2.1-0.2-3.2
	c0-2.3,1.5-6.2-0.9-7.5c-2.3-1.3-6.1-1.2-8.6-1.2c-5.9,0.1-11.6,1.8-16.5,5.1c-1.1,0.7-2.1,1.6-2.9,2.6
	C568.7,241.4,568.9,244.5,569.1,247.4z"/>
<path class="st14" d="M548.5,216.4c0,17.2,14,31.2,31.2,31.2c0,0,0,0,0,0c17.2,0,31.2-14,31.2-31.2c-0.3-17.2-14.5-31-31.8-30.7
	C562.4,186.1,548.8,199.6,548.5,216.4L548.5,216.4z"/>
<path class="st4" d="M601,253.3c1-0.8,2.2-1.3,3.5-1.5c1.8,0,3.3,1.5,4.1,3.2s1,3.5,1.7,5.3c0.9,2.3,2.5,4.3,4.6,5.6
	c1.5,0.9,3.2,1.6,4.2,3c1.6,2.3,0.6,5.4-0.7,7.8c-5,9-14,14.9-22.7,20.4l-9.8,6.2c-3.9,2.6-8,5-12.2,7.1c-6.8,3.4-14.2,5.5-20.9,8.9
	c-3.1,1.6-6.2,3.4-9.6,4c-0.7-2.3-1.2-4.7-1.4-7.1c-1.7-14.9-3.3-30.1,0-44.8c0.6-2.8,1.5-5.6,3.5-7.7c1.3-1.2,2.8-2.2,4.3-3
	c4-2.1,8-4,12.2-5.7c2-0.9,4.1-1.4,6.3-1.4c-0.2,1.6-0.7,3.2-1.4,4.7L551,293.4c-1,2.2-2,4.5-1.9,6.9c0.1,3.4,2.4,6.8,1.5,10.1
	c9.1-13.3,19.6-25.7,31.3-36.9c0.5-0.4,0.9-1,1.3-1.5c0.3-0.9,0.3-1.9,0.2-2.9c-0.1-1.8,0.3-4.3,1.8-5.5c1.1-0.9,2.7-1.1,3.8-1.9
	C593.1,259.1,597,256.1,601,253.3z"/>
<path class="st9" d="M517.6,440.6c7.8,4.1,16.5,6.2,25.3,7s17.6,0.5,26.4,0.1c6.7-0.2,13.3-0.5,20-0.8c9.1-0.4,18-1.1,26.7-3.8
	c-0.8-1.8-1.6-3.6-2.5-5.3c-25-5.9-50.7-8.1-76.3-6.5c-4.1,0.1-8.1,0.8-12,2c-2.7,0.9-5.1,2.5-7,4.5
	C518,438.8,517.8,439.7,517.6,440.6z"/>
<path class="st13" d="M519,343c3.5,11.7,1.1,24.5-1.1,36.5c-1.3,0.6-1.7,2.4-1.4,3.8c0.4,1.4,1,2.7,1.7,4c0.7,1.3,0.7,2.9,0.1,4.2
	c-0.3,0.5-0.8,1-1.1,1.5c-0.4,0.9-0.6,1.8-0.6,2.8c-0.3,4.5-0.6,9.1,0.7,13.5c0.7,2.5,1.9,5.2,1.1,7.7c-0.5,1.5-1.6,2.8-1.8,4.4
	s0.8,3.2,1.4,4.8c1.4,3.7,0.6,8.2-0.3,12.1c7.8,4.1,16.5,6.2,25.3,7s17.6,0.5,26.4,0.2l20-0.8c9.2-0.4,18.2-1.1,26.9-3.9
	c0.8-6,1.5-12.6-1.8-17.7c-0.7-0.8-1.2-1.7-1.6-2.7c-0.6-2.1,0.7-4.1,1.1-6.3c0.8-4.3-2-8.4-4.5-12c-0.4-0.5-0.7-1-0.9-1.6
	c-0.5-1.7,0.5-3.5,0.6-5.2c0-0.5-0.1-1-0.3-1.4c-0.4-0.7-1.1-1.2-1.4-1.9c-0.4-0.9-0.5-1.9-0.3-2.9c0.5-6.2,1.2-12.5,2.3-18.6
	c0.1-0.6,0.2-1.1,0.3-1.7c0.2-0.9,0.5-1.7,0.9-2.5c0.6-1,1.4-1.8,2-2.8c0.6-1.1,0.6-2.5,0-3.6c-0.6-1,1-2,1.5-3
	c0.2-0.8,0.3-1.7,0.1-2.6c0.2-1.5,0.7-2.8,1.6-4c1.1-1.7,2.2-3.4,3.3-5.1c5-7.7,10.2-15.3,15.5-22.7c2.6-3.6,5.3-7.1,7.9-10.6
	c2.2-2.8,4.4-5.7,5.4-9.1c0.2-0.6,0.3-1.2,0.5-1.8c0.6-3.3,0.1-6.6-1.3-9.6c-1.3-2.6-3.2-4.7-4.9-7c-1.9-2.6-3.5-5.4-5.7-7.7
	s-5.1-4.2-8.3-4.2c-1.8,0-4,0.5-5.3-0.8c-0.5-0.5-0.7-1.1-1.2-1.6c-1.4-1.3-3.6-0.4-5.2,0.5l-31.3,17.7l-5.1,2.9
	c-0.9,0.5-1.9,1.1-2.8,1.6c-4.4,2.5-8.6,5.4-12.5,8.5c-5.8,4.6-12.2,8.9-17.3,14.4c-0.5,0.5-0.9,1-1.4,1.5
	c-0.9-6.4-1.8-12.7-2.7-19.1c-0.3-1.8-0.5-3.7-0.4-5.6c0.2-1.8,0.7-3.6,1.3-5.4c0.2-0.6,0.4-1.2,0.6-1.9l3.4-10.1
	c1.7-5,3.4-10.1,7.1-13.8c0.9-0.8,1.7-1.6,2.5-2.5v0c0.7-0.9,0.9-2.2,0.6-3.3l-26.3,8.2c-1.2,0.4-2.5,0.8-3.7,1.3
	c-1.4,0.6-2.8,1.4-4,2.4c-4,3.2-6.1,8.3-5.4,13.4c0.3,1.6,0.8,3.2,1.2,4.8c0.6,2.9,1.5,6.3,0.3,9.1s-2.4,5.1-3.6,7.7
	c-1,2-1.8,4-2.5,6.1c-0.7,2.9-1,5.8-0.8,8.8c0.2,6.6,1.3,13.1,3.4,19.4C517.6,338.9,518.4,340.9,519,343z"/>
<polygon class="st2" points="572.8,357.8 510.3,351.9 499.4,350.7 509.4,354.2 "/>
<polygon class="st2" points="574.2,360.8 574.2,356.1 507.9,352.8 504.7,355.6 "/>
<path class="st14" d="M573.9,351.9c-1.4-0.4-2.9-0.3-4.3-0.6c-1.8-0.4-3.5-1.6-5.3-1.8c-1.1-0.1-2.3,0-3.4,0.3l-8.6,1.5
	c-0.7,0.1-1.4,0.3-1.7,1c-0.1,0.6,0.1,1.2,0.5,1.6c1.5,1.6,4,1.9,6.2,2l6,0.4c1.2,0,2.3,0.2,3.3,0.8c1.1,0.6,1.6,1.9,1.1,3
	c-0.3,0.5-0.8,1-1.4,1.2c-2.4,1.3-5.1,1.8-7.8,1.5c-2.2-0.4-4.3-1-6.4-1.8c-5.3-1.7-10.8-2.3-16.3-1.7c-1.4,0.1-3.1,0.5-3.6,1.9
	c-0.3,1-0.1,2,0.6,2.8c2.1,3,6.4,3.1,10,3.9c3.4,0.8,6.5,2.4,9.1,4.7c-0.8,1.6-0.1,3.6,0.7,5.2c0.9,1.9,2,3.6,3.2,5.3
	c0.7,1,1.6,1.9,2.7,2.4c0.7,0.3,1.5,0.4,2.3,0.4c7.4,0.5,14.9,0.1,22.2-1.2c0.8-0.1,1.5-0.4,2.1-0.9c0.4-0.5,0.6-1.1,0.7-1.7
	c0.8-3.7,1.4-7.5,2-11.3c0.4-2.4,0.5-4.9-0.7-7.1c-0.9-1.7-2.3-2.3-3.8-3.4C580.2,357.4,578.2,353,573.9,351.9z"/>
<path class="st2" d="M493.3,274.2l15.5,76.9c0.4,2-0.9,4-3,4.4c-0.4,0.1-0.7,0.1-1.1,0.1l-58.5-5.8c-1.6-0.2-3-1.4-3.3-3l-14.3-71.2
	c-0.4-2,0.9-4,3-4.4c0.2,0,0.5-0.1,0.7-0.1h57.3C491.4,271.2,492.9,272.4,493.3,274.2z"/>
<path class="st14" d="M464.2,365.7c-3.7-2.4-4.8-7.1-6.5-11.1c-1.4-3-2.9-5.8-4.7-8.6c-1.5-2.5-3-5.5-1.8-8.1
	c0.9-1.7,2.5-2.9,4.3-3.5c1.7-0.8,3.5-1,5.3-0.6c2,0.5,3.5,2.2,4.8,3.8l4.8,5.6c2.2,2.6,4.5,5.2,7.4,6.9c1.8,1,3.6,1.8,5.5,2.4
	c3.5,1.1,7,2.1,10.5,3c2,0.4,4,1,5.9,1.8c0.8,0.3,1.4,0.9,1.7,1.6c0.2,0.9-0.1,1.9-0.6,2.6c-1.2,2.3-2.6,6.9-5.2,7.7
	c-2.4,0.6-4.9,1-7.3,1.1c-2.4,0.3-4.4-0.7-6.6-1.7c-2.8-1.1-5.7-1.5-8.7-1.4C470.6,367.4,466.2,367.7,464.2,365.7z"/>
<path class="st13" d="M496.2,355.3c0,0-2.2,14.8-16,13.2c0,0,7.3,2.9,6.6,4.6s17-3.2,17-3.2l0.9-7.7c0,0,0.6-4.3,0-4.4
	S496.2,355.3,496.2,355.3z"/>
<path class="st9" d="M496.2,355.3c0,0-2.2,14.8-16,13.2c0,0,7.3,2.9,6.6,4.6s17-3.2,17-3.2l0.9-7.7c0,0,0.6-4.3,0-4.4
	S496.2,355.3,496.2,355.3z"/>
<path class="st9" d="M559.9,293.5c-1.4,0.7-2.5,1.8-3.2,3.1c-1.2,1.8-2,3.8-2.6,5.9c-0.7,2.5-1,5.4-2.9,7.2"/>
<path class="st9" d="M617.9,334.4c-1,3.6-0.6,7.4,1.2,10.7c5-7.7,10.2-15.3,15.5-22.7c2.6-3.6,5.2-7.1,7.9-10.6
	c2.2-2.8,4.4-5.7,5.4-9.1c0.2-0.6,0.3-1.2,0.5-1.8c-1.3-2-3.3-3.4-5.6-4c-3.6,10.5-12.8,18.1-19.4,27
	C620.9,327.1,619,330.6,617.9,334.4z"/>
<path class="st9" d="M571.6,388.3l21.8,0.7c1.9,0.1,4.2,0.4,4.7,2.2c0.2,0.6,0.1,1.2,0.3,1.7c0.6,2,3.3,2.2,5.3,2.2
	c1.8,0,3.6,0.1,5.4,0.2c0-0.5-0.1-1-0.3-1.4c-0.4-0.7-1.1-1.2-1.4-1.9c-0.4-0.9-0.5-1.9-0.3-2.9c0.5-6.2,1.2-12.5,2.3-18.6
	c0.1-0.6,0.2-1.1,0.3-1.7c-1.8-0.9-3.7-1.8-5.7-1.6c-1.8,0.2-3.4,1.3-5.2,1.1c-3.1-0.1-5.3-3.6-8.3-3.8c-0.7,0.1-1.4,0-2-0.2
	c-1-0.5-1.1-1.8-1.6-2.8c-0.8-1.4-2.8-1.8-4.4-1.4c0,3.3-0.2,6.6-0.6,9.8c-0.2,1.4-0.5,2.8-1,4.2c-0.6,1.4-1.3,2.7-2.2,3.9
	C576.1,381.5,573.9,384.8,571.6,388.3z"/>
<path class="st13" d="M643.9,295.7c3.9,1,6.6,4.6,7.7,8.4s0.9,7.9,0.8,11.9c-0.4,14.8,0.6,29.6,3,44.2c1.1,7,2.6,14,2.2,21.1
	c-0.2,3.8-1.1,7.8-3.6,10.8c-3.9,4.7-10.6,5.6-16.7,5.4c-10.9-0.4-21.6-3.6-32.5-3.5c-2.1,0-4.7-0.2-5.3-2.2
	c-0.2-0.6-0.1-1.2-0.3-1.7c-0.6-1.8-2.9-2.1-4.7-2.2l-21.8-0.7c2.3-3.4,4.6-6.8,6.9-10.3c0.9-1.2,1.6-2.5,2.2-3.9
	c0.5-1.4,0.8-2.8,1-4.2c0.5-3.3,0.7-6.5,0.6-9.8c1.6-0.4,3.7,0,4.4,1.4c0.5,1,0.7,2.3,1.7,2.8c0.6,0.2,1.3,0.3,2,0.2
	c3.1,0.2,5.3,3.7,8.3,3.8c1.8,0.1,3.4-1,5.2-1.1c2.8-0.3,5.3,1.6,7.9,2.7c4.3,1.9,9.1,1.9,13.4,0c0.6-0.3,1.3-1.1,0.8-1.5
	c-0.3-0.3-0.9-0.1-1.3-0.3c-0.8-0.4-0.2-1.6,0.2-2.3c1.3-2.2,0.4-5-0.8-7.3s-2.8-4.5-2.8-7c0.1-0.8,0.1-1.6,0-2.5
	c-0.4-1.2-1-2.2-1.8-3.2c-2.2-3.3-2.5-7.6-1.6-11.4c1.1-3.8,2.9-7.4,5.3-10.5C631,313.8,640.2,306.3,643.9,295.7z"/>
<path class="st9" d="M585,288.3l-5.1,2.9c1.6,0.7,3.1,1.4,4.8,1.9c11.4,3.8,7.3,9.2,19.4,9c8.2-0.1,17.6-0.7,23.3,5.1
	c2.7,2.8,4.1,6.5,5.4,10.2c0.6,1.6,1.2,3.3,1.8,5c2.6-3.6,5.2-7.1,7.9-10.6c2.2-2.8,4.4-5.7,5.4-9.1c1.2-3.8,0.9-7.8-0.9-11.4
	c-1.3-2.6-3.2-4.7-4.9-7c-1.9-2.6-3.5-5.4-5.7-7.7s-5.1-4.2-8.3-4.2c-1.8,0-4,0.5-5.3-0.8c-0.5-0.5-0.7-1.1-1.2-1.6
	c-1.4-1.3-3.6-0.4-5.2,0.5L585,288.3z"/>
<path class="st2" d="M554.8,193.4c0.2-1.5,0.5-2.9,1.1-4.3c0.5-1.1,1.2-2.1,2-2.9c5.3-6,13-9.5,21-9.5c0.7,0,1.4,0.1,2,0.3
	c0.2,0.1,0.3,0.2,0.5,0.3c5.7-3.9,12.4-7.6,18.6-9.1c4.3-1,8.8-0.9,13.1,0.2c5.2,1.6,7,5.7,9.2,10.2c3.6,7.3,9,13.5,15.7,18
	c4.3,2.9,9.5,5.4,11.5,10.2c1.9,4.5,0.6,9.6,0.2,14.4c-1.1,13.3,4.5,26.3,15,34.5c5.9,4.6,13.8,8.4,15.1,15.8
	c0.9,5.3-2,10.3-4.3,15.1c-4.7,10.2-6.3,22.7-0.8,32.5c1.6,2.8,3.7,5.3,4.5,8.4c1.5,5.5-1.7,11.4-6.3,14.6s-10.6,4-16.2,4
	c-4.1,0-8.6-0.6-11.5-3.5c-2-1.9-2.9-4.6-3.9-7.2c-2.4-6.7-4.8-13.5-7.2-20.2c-1.3-3.6-2.7-7.4-5.4-10.2c-5.7-5.9-15.1-5.2-23.3-5.1
	c-12.1,0.1-8-5.2-19.4-9c-6.7-2.3-14-6.1-15.6-13c-1.5-6.7,3.1-13.2,7.1-18.8c3-4.2,5.9-8.4,8.6-12.9c2.6-4.3,5.2-8.8,5.9-13.8
	c1.2-8.3-18.8-12.9-21.8-20.7c-0.9-2.2-1.6-4.5-2.2-6.7c-1.4-0.1-2.8-0.2-3.7-0.3c-3.8-0.2-8.2-1.7-9.5-5.3
	C554.2,197.5,554.4,195.4,554.8,193.4z"/>
<g class="st16">
	<path d="M588.5,174.2c-0.6-0.2-1.3-0.4-2-0.3h-0.3c4.3-2.7,8.9-4.7,13.7-6.1c0.4-0.1,0.8-0.2,1.2-0.2c-4.2,2-8.3,4.3-12.1,6.9
		C588.8,174.4,588.7,174.3,588.5,174.2z"/>
	<path d="M554.8,193.2c0.2-1.5,0.5-2.9,1.1-4.3c0.5-1.1,1.2-2.1,2-2.9c4.2-4.8,10-8,16.3-9.1c-3.3,1.6-6.2,3.8-8.7,6.6
		c-0.8,0.9-1.5,1.9-2,2.9c-0.6,1.4-0.9,2.8-1.1,4.3c-0.5,2-0.5,4,0.1,6c1.3,3.6,5.6,5.1,9.5,5.3c0.9,0,2.3,0.2,3.7,0.3
		c0.6,2.3,1.3,4.5,2.2,6.7c3,7.8,23,12.4,21.8,20.7c-0.7,5-3.3,9.5-5.9,13.8s-5.6,8.7-8.6,12.9c-4.1,5.6-8.7,12-7.1,18.8
		s8.8,10.8,15.6,13c11.4,3.9,7.3,9.2,19.4,9c8.2-0.1,17.6-0.7,23.3,5.1c2.7,2.8,4.1,6.5,5.4,10.2c2.4,6.7,4.8,13.5,7.2,20.2
		c0.9,2.6,1.9,5.3,3.9,7.2c2.9,2.9,7.4,3.5,11.5,3.5c2.3,0,4.7-0.2,7-0.5c-4.4,2.4-9.6,3-14.6,3c-4.1,0-8.6-0.6-11.5-3.5
		c-2-1.9-2.9-4.6-3.9-7.2c-2.4-6.7-4.8-13.5-7.2-20.2c-1.3-3.6-2.7-7.4-5.4-10.2c-5.7-5.9-15.1-5.2-23.3-5.1c-12.1,0.1-8-5.2-19.4-9
		c-6.7-2.3-14-6.1-15.6-13c-1.5-6.7,3.1-13.2,7.1-18.8c3-4.2,5.9-8.5,8.6-12.9c2.6-4.3,5.2-8.8,5.9-13.8
		c1.2-8.3-18.8-12.9-21.8-20.7c-0.9-2.2-1.6-4.4-2.2-6.7c-1.4-0.1-2.8-0.3-3.7-0.3c-3.8-0.2-8.2-1.7-9.5-5.3
		C554.3,197.2,554.3,195.1,554.8,193.2z"/>
</g>
</svg>
