<?xml version="1.0" encoding="utf-8"?>
<!-- Generator: Adobe Illustrator 19.0.0, SVG Export Plug-In . SVG Version: 6.00 Build 0)  -->
<svg version="1.1" id="ae5f5559-570c-4c14-9324-22f1786600a2"
	 xmlns="http://www.w3.org/2000/svg" xmlns:xlink="http://www.w3.org/1999/xlink" x="0px" y="0px" viewBox="-291 163 1015.1 526"
	 style="enable-background:new -291 163 1015.1 526;" xml:space="preserve">
<style type="text/css">
	.st0{fill:#3F3D56;}
	.st1{fill:#6C63FF;}
	.st2{fill:#D0CDE1;}
	.st3{fill:#FFB8B8;}
	.st4{fill:#2F2E41;}
	.st5{fill:#575A89;}
	.st6{opacity:0.2;enable-background:new    ;}
</style>
<title>static_website</title>
<rect x="217.2" y="119.9" transform="matrix(-0.2721 0.9623 -0.9623 -0.2721 838.8737 137.6269)" class="st0" width="300.3" height="532.4"/>
<circle class="st1" cx="160.9" cy="181.2" r="4.2"/>
<circle class="st1" cx="174" cy="184.9" r="4.2"/>
<circle class="st1" cx="187.1" cy="188.6" r="4.2"/>
<path class="st1" d="M424,352.5c-6.9-1.3-13.9-1.1-20.7,0.5c2-6.8,2.5-13.9,1.5-20.9c-7,2.5-13.3,6.6-18.5,11.9
	c-1.6-7.3-4.9-14-9.5-19.9c-4.5,5.4-7.8,11.8-9.7,18.6c-4.9-4.9-10.9-8.8-17.4-11.3c0,0-3.1,15.7,4.3,28.6
	c6.6,11.5,19.3,16.8,22.1,17.9l0.1,0.1l0,0c0.3,0.1,0.4,0.2,0.4,0.2s0.1-0.3,0.1-0.8c0-0.1,0.1-0.1,0.2-0.2c0,0.1,0,0.2,0,0.2
	c-0.2,0.5-0.3,0.8-0.3,0.8s0.2,0,0.4,0.1l0,0.1l0.1,0c2.9,0.5,16.5,2.6,28.2-3.7C418.4,367.5,424,352.5,424,352.5z"/>
<circle class="st1" cx="398.6" cy="301.4" r="11"/>
<rect x="198" y="397.6" transform="matrix(-0.9623 -0.2721 0.2721 -0.9623 617.4669 888.2653)" class="st1" width="344.5" height="7.5"/>
<rect x="217.2" y="402.5" transform="matrix(-0.9623 -0.2721 0.2721 -0.9623 366.9503 915.2968)" class="st1" width="59.4" height="59.4"/>
<rect x="323.4" y="432.5" transform="matrix(-0.9623 -0.2721 0.2721 -0.9623 567.0966 1003.0929)" class="st1" width="59.4" height="59.4"/>
<rect x="429.6" y="462.5" transform="matrix(-0.9623 -0.2721 0.2721 -0.9623 767.243 1090.8892)" class="st1" width="59.4" height="59.4"/>
<rect x="212.9" y="472.1" transform="matrix(-0.9623 -0.2721 0.2721 -0.9623 331.8319 995.3553)" class="st1" width="44.1" height="5.1"/>
<rect x="319" y="502.1" transform="matrix(-0.9623 -0.2721 0.2721 -0.9623 531.9782 1083.1515)" class="st1" width="44.1" height="5.1"/>
<rect x="425.2" y="532.2" transform="matrix(-0.9623 -0.2721 0.2721 -0.9623 732.1245 1170.9478)" class="st1" width="44.1" height="5.1"/>
<ellipse class="st2" cx="-1.4" cy="559.5" rx="284" ry="10.5"/>
<ellipse class="st2" cx="503.1" cy="678.5" rx="221" ry="10.5"/>
<path class="st0" d="M394.7,597h63.8v26.7h-37.1v26.7h37.1V677h-63.8V597z M471.2,597H535v23.2h-37.1v4.6H535v53.3h-63.8v-24.3h37.1
	v-4.6h-37.1L471.2,597L471.2,597z M547.8,597h63.8v23.2h-37.1v4.6h37.1v53.3h-63.8v-24.3h37.1v-4.6h-37.1L547.8,597L547.8,597z"/>
<path class="st0" d="M-162.5,475h26.3v26h24.1v-26h26.3v78.7h-26.3v-26.4h-24.1v26.4h-26.3L-162.5,475L-162.5,475z M-51.3,501.1
	h-23.2V475h72.6v26.1h-23.2v52.6h-26.3L-51.3,501.1L-51.3,501.1L-51.3,501.1z M9.7,475h27.4L54,502.7L70.9,475h27.4v78.7H72.1v-39
	l-18.1,28h-0.5l-18.1-28v39H9.7V475z M111.4,475h26.3v52.7h37v26h-63.3L111.4,475L111.4,475z"/>
<polygon class="st3" points="-209,529.1 -211.1,553.6 -193.9,552.1 -193.9,531.3 "/>
<polygon class="st3" points="-224.8,529.1 -222.6,553.6 -239.9,552.1 -239.9,531.3 "/>
<path class="st4" d="M-179.5,341.3c0,0,5.8,34.5,5.8,39.6s-2.2,37.4-5.8,43.9s-4.3,9.4-2.9,12.2s0.7,2.2,0,4.3s-2.2,1.4,0,4.3
	c1.8,2.6,1.8,6,0,8.6c-1.4,2.2,2.9,60.4-2.9,64.8s-7.2,18.7-7.2,18.7l-18.7-2.2v-15.8c0,0-4.3-11.5-1.4-18.7s4.3-45.3,4.3-45.3
	s-0.7-3.6,0-5.8s0-3.6-1.4-4.3s-2.2-3.6-2.2-3.6l-2.2-52.5l-8.6,51.8c0,0,8.6,70.5,0,79.9v16.6h-18.7l2.9-18c0,0-5.8-16.6-2.9-20.1
	s-8.6-61.2-7.2-63.3s0.7-2.9,0-4.3s-2.9-2.9-2.2-4.3s0-4.3,0-4.3s-13.7-67.6-7.2-74.1S-179.5,341.3-179.5,341.3z"/>
<path class="st4" d="M-206.8,544.2c0,0,1.4-6.9,13-4.5c0,0,2.9,6,2.9,8.8s2.9,22.3,2.9,22.3s11.5,19.4-2.9,19.4s-19.4-5-20.1-10.1
	s0.7-6.5-2.2-8.6s-4.3-2.2-3.6-5s2.2-17.3,2.2-17.3s0.7-10.8,4.7-7.9l4,2.9"/>
<path class="st4" d="M-227,544.2c0,0-1.4-6.9-13-4.5c0,0-2.9,6-2.9,8.8s-2.9,22.3-2.9,22.3s-11.5,19.4,2.9,19.4s19.4-5,20.1-10.1
	s-0.7-6.5,2.2-8.6s4.3-2.2,3.6-5s-2.2-17.3-2.2-17.3s-0.7-10.8-4.7-7.9l-4,2.9"/>
<circle class="st3" cx="-206.1" cy="189.4" r="19.4"/>
<path class="st3" d="M-221.9,192.3c0,0-7.9,30.9-9.4,31.7s33.1,3.6,33.1,3.6s-8.6-26.6,0-30.9L-221.9,192.3z"/>
<path class="st2" d="M-227,211.2L-227,211.2l-23.7,16.4l4.3,128.8c0,0,31.7-3.6,38.9-2.9s30.2-6.5,30.2-6.5l-10.1-121
	c-0.4-4.9-4.3-8.7-9.2-9.1l-4.3-0.3c0,0-4.3,10.7-17.3,5.2C-222.7,219.8-225.9,215.9-227,211.2z"/>
<path class="st5" d="M-226.4,210l-29.3,14l-5.8,82.8c0,0-11.5,49.7-2.2,64c9.4,14.4,25.2,15.8,25.2,15.8s20.9-82.8,15.1-110.8
	S-226.4,210-226.4,210z"/>
<path class="st3" d="M-281.6,334.8v10.8c0,0-4.3,23.7,9.4,23s7.2-25.9,7.2-25.9l-4.3-7.9L-281.6,334.8z"/>
<path class="st3" d="M-155,356.4l-1.4,12.2c0,0,7.2,24.5-6.5,25.2s-3.7-25-3.7-25l4.5-13.8L-155,356.4z"/>
<path class="st5" d="M-201.4,214.1L-201.4,214.1c13.1,3.2,25.3,9.5,35.4,18.4l0.1,0.1l-10.1,53.3l-1.4,19.4c0,0,26.6,95-4.3,81.3
	c0,0-26.6-82.8-23-120.9S-201.4,214.1-201.4,214.1z"/>
<path class="st5" d="M-175.1,231.9c0.7-0.7,9.4,1,9.4,1s15.8,55.8,15.8,65.2s2.2,62.6,2.2,62.6l-19,1.9l-15.4-74L-175.1,231.9z"/>
<path class="st5" d="M-250.7,224h-5c0,0-14.4,5.8-15.1,12.2s-20.1,72-20.1,72l5,33.1l18.7-2.9l3.6-36.7l18.7-40.3L-250.7,224z"/>
<path class="st4" d="M-209.9,194.9l0.7-5.2c0.2-1.2,0.9-2.8,2.1-2.5c1,0.3,3.2,1.1,3.5,0.9c1.4-1,3.4,0.7,4.9-0.1
	c0.6-0.4,1-1.1,1.7-1.2c0.5,0,0.9,0.2,1.2,0.6c0.9,0.8,2,1.4,3.2,1.8c1.2,0.3,2.5,0,3.4-0.9c0.2-0.2,0.4-0.4,0.6-0.6
	c0.3-0.1,0.6-0.1,0.9,0l3.7,1c1.1-4,0.4-8.2-1.9-11.6c-1.5-2-3.3-3.8-5.4-5.2c-2.3-1.7-4.6-3.4-7-4.9c-2.6-1.8-5.5-3.1-8.6-3.7
	c-3.1-0.5-6.6,0.4-8.5,2.8c-0.9-0.7-1.6-1.6-2-2.7c-0.8,0.8-0.9,2-0.1,2.9c0.1,0.1,0.2,0.2,0.3,0.2l-3.1-2c-0.9,0.9,0.8,2.6,0.1,3.6
	c-0.2,0.3-0.5,0.4-0.8,0.5c-1.7,0.7-3.2,1.6-4.6,2.9c-1.7,1.9-2.9,4.2-3.6,6.6c-1.9,5.3-3.2,11.4-0.6,16.4c0.3,0.6,4.2,9.9,4.8,10.2
	c1.8,1.2,0.6-1.7,1.9,0c1,1.4,0.8-3.9,2.3-2.7c1.2,0.8,2.8,0.9,4,0.2c0.6-0.4,0.4-2.8,0.1-5c-0.2-1.4,0.7-2.7,2.1-2.9
	c0.3,0,0.7,0,1,0C-211.7,194.7-209.9,195.1-209.9,194.9z"/>
<polygon class="st6" points="-173.3,297 -165.4,362.5 -170.5,362.5 "/>
<polygon class="st6" points="-256.8,271.8 -260.8,297 -253.2,271.8 -255.4,271.8 "/>
</svg>
