<?xml version="1.0" encoding="utf-8"?>
<!-- Generator: Adobe Illustrator 19.0.0, SVG Export Plug-In . SVG Version: 6.00 Build 0)  -->
<svg version="1.1" id="Layer_1" xmlns="http://www.w3.org/2000/svg" xmlns:xlink="http://www.w3.org/1999/xlink" x="0px" y="0px"
	 viewBox="-497 346.3 604.6 159.7" style="enable-background:new -497 346.3 604.6 159.7;" xml:space="preserve">
<style type="text/css">
	.st0{opacity:0.6;fill:url(#SVGID_1_);enable-background:new    ;}
	.st1{fill:none;stroke:#F44242;stroke-width:18.9435;stroke-miterlimit:10;}
	.st2{fill:#F7F7F7;}
	.st3{fill:#FFFFFF;}
</style>
<linearGradient id="SVGID_1_" gradientUnits="userSpaceOnUse" x1="-484.6" y1="425.15" x2="101.2" y2="425.15" gradientTransform="matrix(1 0 0 -1 0 854.6)">
	<stop  offset="3.897303e-002" style="stop-color:#EF4725"/>
	<stop  offset="0.9949" style="stop-color:#A91E22"/>
</linearGradient>
<path class="st0" d="M101.2,409.3c0-27.8-22.5-50.3-50.3-50.3S0.6,381.5,0.6,409.3c0,0.3,0,0.5,0,0.8h-440.3
	c-24.8,0-44.9,20.1-44.9,44.9s20.1,44.9,44.9,44.9H13.4c23.4,0,42.6-17.9,44.7-40.7C82.5,455.6,101.2,434.6,101.2,409.3z"/>
<path class="st1" d="M102.2,407.3c0-27.8-22.5-50.3-50.3-50.3S1.6,379.5,1.6,407.3c0,0.3,0,0.5,0,0.8h-440.3
	c-24.8,0-44.9,20.1-44.9,44.9s20.1,44.9,44.9,44.9H14.4c23.4,0,42.6-17.9,44.7-40.7C83.5,453.6,102.2,432.6,102.2,407.3z"/>
<g>
	<path class="st2" d="M27.5,404.1c-0.4,0-0.9,0-1.7,0c-0.8,0-1.4,0-1.7,0c0,0.3,0,0.9,0.1,1.8c0,0.7,0,1.3,0,1.8
		c0,0.3-0.6,0.5-1.8,0.5c-1.1,0-1.7-0.1-1.7-0.3c0-0.5,0-1.1,0-1.9c0-1.1,0-1.7,0-1.9c-2,0.1-3.1,0.1-3.2,0.1
		c-0.1,0-0.2-0.1-0.2-0.4c0-0.1,0-0.5,0.1-1.3c0-0.5,0-0.9,0-1.4c0.1-0.1,0.2-0.2,0.3-0.2c0.4,0,0.9,0,1.5,0c0.8,0,1.3,0,1.5,0
		c0-0.7,0-1.4,0-2.2v-1.4c0-0.1,0.1-0.2,0.3-0.2c0.3,0,0.7,0,1.3,0s1,0,1.3,0c0.4,0,0.6,0.1,0.6,0.2c0,0.4,0,1,0,1.8s0,1.4,0,1.8
		c1.7,0,2.8,0,3.4,0c0.2,0,0.2,0.1,0.2,0.2s0,0.6-0.1,1.4c0,0.3,0,0.8-0.1,1.5C27.6,404,27.5,404.1,27.5,404.1z"/>
	<path class="st2" d="M39.9,404.6c0,3.5-2.2,5.2-6.5,5.2c-0.6,0-1.5-0.1-2.5-0.2c-1.4-0.2-2.1-0.4-2.1-0.6c0-0.1,0-0.4,0-1
		c0-0.3,0-0.8,0.1-1.3c0.1-0.7,0.2-1.1,0.4-1.1c0,0,0.1,0,0.2,0.1c0.9,0.5,2,0.7,3.2,0.7c1.7,0,2.6-0.6,2.6-1.7
		c0-0.6-0.3-1.1-0.9-1.4c-0.5-0.3-1.1-0.4-1.8-0.4c-0.3,0-0.7,0-1.3,0.1s-1,0.1-1.3,0.1s-0.4-0.1-0.4-0.4c0-0.8,0-1.9,0.1-3.4
		s0.1-2.7,0.1-3.4c0-0.1,0.1-0.3,0.2-0.5s0.2-0.3,0.4-0.3c0.2,0,1.3,0,3.3,0c2.3,0,3.8,0,4.6,0c0.2,0,0.3,0.1,0.3,0.3
		c0,0.4,0,1.1-0.1,1.8c-0.1,1-0.3,1.5-0.4,1.5H38c-1.8-0.2-2.9-0.2-3.3-0.2c-0.9,0-1.3,0-1.4,0.1c-0.1,0.2-0.2,0.7-0.2,1.3
		c0,0.1,0,0.2,0.1,0.2c0.2,0,0.5,0,0.9-0.1c0.4,0,0.7-0.1,0.9-0.1c1.5,0,2.7,0.4,3.6,1.2C39.4,402.1,39.9,403.2,39.9,404.6z"/>
	<path class="st2" d="M55,402.4c0,2-0.7,3.7-2,5.2c-1.4,1.5-3,2.3-5,2.3s-3.7-0.8-5-2.3c-1.3-1.4-2-3.2-2-5.2s0.7-3.8,2-5.2
		c1.3-1.5,3-2.2,5-2.2s3.7,0.7,5,2.2C54.4,398.7,55,400.4,55,402.4z M50.7,402.4c0-0.8-0.2-1.5-0.7-2.1s-1.1-0.9-1.9-0.9
		c-0.8,0-1.5,0.3-1.9,0.9c-0.5,0.6-0.7,1.3-0.7,2.1c0,0.8,0.2,1.5,0.7,2.1s1.1,1,1.9,1c0.8,0,1.4-0.3,1.9-1
		C50.4,403.9,50.7,403.2,50.7,402.4z"/>
	<path class="st2" d="M66.9,409.2c0,0.2-0.1,0.3-0.4,0.3c-0.5,0.1-0.9,0.1-1.5,0.1c-0.5,0-1,0-1.4-0.1c-0.1,0-0.2-0.1-0.4-0.2
		c-0.4-0.5-1-1.4-1.7-2.4c-0.2,0.2-0.8,1-1.9,2.4c-0.1,0.1-0.2,0.2-0.4,0.3c-0.3,0.1-0.7,0.1-1.3,0.1c-1.2,0-1.9-0.1-1.9-0.4
		c0-0.2,0-0.6,0-1s0-0.8,0-1c0-0.1,0.1-0.3,0.2-0.4c0.6-0.6,1.5-1.6,2.7-2.9c-0.5-0.5-1.1-1-1.6-1.6c-0.9-0.9-1.3-1.4-1.3-1.5v-2.1
		c0-0.2,0.1-0.3,0.4-0.3c0.3,0,0.8,0,1.4,0s1.1,0,1.4,0c0.2,0,0.3,0.1,0.4,0.3c0.4,0.6,1,1.3,1.8,2.2c0.7-0.9,1.3-1.6,1.7-2.2
		c0.1-0.2,0.3-0.2,0.4-0.2c0.3,0,0.8,0,1.5,0c0.7,0,1.1,0,1.5,0c0.3,0,0.4,0.1,0.4,0.3v2.1c0,0.1-0.1,0.3-0.2,0.4
		c-0.6,0.6-1.5,1.5-2.6,2.7c0.6,0.6,1.5,1.6,2.6,2.8c0.1,0.1,0.2,0.3,0.2,0.4C66.9,407.3,66.9,409.2,66.9,409.2z"/>
	<path class="st2" d="M81.2,403.9c0,1.7-0.5,3.1-1.5,4.2s-2.3,1.7-4,1.7c-0.6,0-1.2-0.1-1.9-0.4s-1-0.4-0.9-0.4
		c-0.1,0-0.2,0.1-0.2,0.4c0,0.4,0,1,0.1,1.8s0.1,1.4,0.1,1.8c0,0.3-0.1,0.4-0.4,0.4h-2.4c-0.5,0-0.9,0-1-0.1
		c-0.2-0.1-0.4-0.2-0.4-0.4v-9c0-1.8-0.1-3.4-0.4-4.6c0-0.1,0-0.1,0-0.2s0-0.2,0.1-0.2c0.3-0.1,0.9-0.2,1.7-0.4
		c0.8-0.1,1.4-0.2,1.8-0.2c0.3,0,0.5,0.2,0.5,0.6s0.1,0.6,0.2,0.6c-0.1,0,0.3-0.2,1-0.6s1.4-0.6,2-0.6c1.7,0,3.1,0.6,4.1,1.7
		C80.8,400.8,81.2,402.2,81.2,403.9z M76.9,403.9c0-0.6-0.2-1.2-0.6-1.6c-0.4-0.5-0.9-0.7-1.5-0.7s-1.1,0.2-1.5,0.7
		c-0.3,0.4-0.5,1-0.5,1.6c0,0.7,0.2,1.2,0.5,1.7c0.4,0.5,0.9,0.7,1.5,0.7C76.2,406.2,76.9,405.4,76.9,403.9z"/>
</g>
<g>
	<path class="st3" d="M-418.5,437.3v24h-7.1v-24H-418.5z"/>
	<path class="st3" d="M-398.5,461.3h-6.6v-9.9c0-1-0.4-1.5-1.2-1.5c-0.8,0-1.2,0.5-1.2,1.5v9.9h-6.6v-9.8c0-2.3,0.8-4.2,2.3-5.8
		s3.4-2.3,5.6-2.3c2.5,0,4.5,0.9,6,2.7c1.2,1.4,1.8,3.4,1.8,5.9V461.3z"/>
	<path class="st3" d="M-388.8,437.3v6.7h3v6.9h-3c0,1.4,0.2,2.4,0.7,2.9s1.2,0.8,2.4,0.8v6.9c-0.3,0-0.6,0-0.8,0
		c-1.5,0-2.9-0.3-4.2-1s-2.4-1.6-3.2-2.8c-1-1.5-1.5-3.5-1.5-6v-14.4H-388.8z"/>
	<path class="st3" d="M-373,443.6v7c-0.5-0.3-0.9-0.4-1.2-0.4c-1.2,0-1.8,0.9-1.8,2.7v8.3h-6.6v-9.6c0-2.5,0.7-4.5,2.1-6.1
		s3.2-2.3,5.5-2.3C-374.5,443.4-373.9,443.5-373,443.6z"/>
	<path class="st3" d="M-362.8,443.4c2.5,0,4.6,0.9,6.4,2.7s2.7,3.9,2.7,6.4c0,2.5-0.9,4.7-2.7,6.5s-4,2.7-6.5,2.7s-4.7-0.9-6.5-2.7
		s-2.7-3.9-2.7-6.5c0-2.6,0.9-4.7,2.7-6.5S-365.4,443.4-362.8,443.4z M-363,449.9c-0.7,0-1.3,0.3-1.8,0.8s-0.7,1.1-0.7,1.9
		c0,0.7,0.2,1.3,0.7,1.9s1.1,0.8,1.8,0.8c0.7,0,1.3-0.3,1.8-0.8s0.7-1.1,0.7-1.9c0-0.7-0.2-1.4-0.7-1.9S-362.2,449.9-363,449.9z"/>
	<path class="st3" d="M-340.2,437.3h6.6v14.6c0,2.7-0.7,4.9-2.1,6.6c-0.8,1-1.8,1.7-3.1,2.3s-2.5,0.9-3.8,0.9
		c-2.6,0-4.8-0.9-6.6-2.6s-2.7-3.9-2.7-6.5c0-2.5,0.9-4.6,2.7-6.4s3.9-2.7,6.3-2.7c0.4,0,1,0,1.8,0.1v7.2c-0.5-0.4-1.1-0.6-1.6-0.6
		c-0.7,0-1.3,0.2-1.7,0.7s-0.7,1.1-0.7,1.8c0,0.7,0.3,1.3,0.8,1.7s1.1,0.7,1.8,0.7c1.7,0,2.5-1.2,2.5-3.5V437.3z"/>
	<path class="st3" d="M-330.2,444h6.6v9.9c0,1,0.4,1.5,1.2,1.5c0.8,0,1.2-0.5,1.2-1.5V444h6.6v9.8c0,2.3-0.8,4.2-2.3,5.8
		s-3.4,2.3-5.6,2.3c-2.5,0-4.5-0.9-6-2.7c-1.2-1.4-1.8-3.4-1.8-5.9V444z"/>
	<path class="st3" d="M-299.9,453.2l6.5-0.2c-0.2,2.5-1.1,4.6-2.8,6.2s-3.8,2.4-6.2,2.4c-2.6,0-4.8-0.9-6.5-2.7s-2.7-4-2.7-6.6
		c0-2.5,0.9-4.6,2.7-6.3s3.9-2.6,6.5-2.6c2.2,0,4.1,0.7,5.8,2.1s2.7,3.1,3.1,5.3l-6.7,0.2c-0.6-0.8-1.3-1.1-2.2-1.1
		c-0.8,0-1.4,0.2-1.8,0.7s-0.7,1.1-0.7,1.9c0,0.8,0.3,1.4,0.8,1.9s1.1,0.8,1.9,0.8C-301.2,455.2-300.4,454.5-299.9,453.2z"/>
	<path class="st3" d="M-284.7,437.3v6.7h3v6.9h-3c0,1.4,0.2,2.4,0.7,2.9s1.2,0.8,2.4,0.8v6.9c-0.3,0-0.6,0-0.8,0
		c-1.5,0-2.9-0.3-4.2-1s-2.4-1.6-3.2-2.8c-1-1.5-1.5-3.5-1.5-6v-14.4H-284.7z"/>
	<path class="st3" d="M-271.9,443.8v17.5h-6.6v-17.5H-271.9z M-275.2,436c0.9,0,1.7,0.3,2.3,0.9s1,1.4,1,2.2c0,0.9-0.3,1.7-0.9,2.3
		s-1.4,0.9-2.4,0.9s-1.7-0.3-2.4-0.9s-0.9-1.3-0.9-2.3c0-0.9,0.3-1.6,1-2.2S-276.1,436-275.2,436z"/>
	<path class="st3" d="M-259.8,443.4c2.5,0,4.6,0.9,6.4,2.7s2.7,3.9,2.7,6.4c0,2.5-0.9,4.7-2.7,6.5s-4,2.7-6.5,2.7s-4.7-0.9-6.5-2.7
		s-2.7-3.9-2.7-6.5c0-2.6,0.9-4.7,2.7-6.5S-262.4,443.4-259.8,443.4z M-259.9,449.9c-0.7,0-1.3,0.3-1.8,0.8s-0.7,1.1-0.7,1.9
		c0,0.7,0.2,1.3,0.7,1.9s1.1,0.8,1.8,0.8c0.7,0,1.3-0.3,1.8-0.8s0.7-1.1,0.7-1.9c0-0.7-0.2-1.4-0.7-1.9S-259.2,449.9-259.9,449.9z"
		/>
	<path class="st3" d="M-232.3,461.3h-6.6v-9.9c0-1-0.4-1.5-1.2-1.5c-0.8,0-1.2,0.5-1.2,1.5v9.9h-6.6v-9.8c0-2.3,0.8-4.2,2.3-5.8
		s3.4-2.3,5.6-2.3c2.5,0,4.5,0.9,6,2.7c1.2,1.4,1.8,3.4,1.8,5.9V461.3z"/>
	<path class="st3" d="M-213.7,437.3v6.7h3v6.9h-3c0,1.4,0.2,2.4,0.7,2.9s1.2,0.8,2.4,0.8v6.9c-0.3,0-0.6,0-0.8,0
		c-1.5,0-2.9-0.3-4.2-1s-2.4-1.6-3.2-2.8c-1-1.5-1.5-3.5-1.5-6v-14.4H-213.7z"/>
	<path class="st3" d="M-199.2,443.4c2.5,0,4.6,0.9,6.4,2.7s2.7,3.9,2.7,6.4c0,2.5-0.9,4.7-2.7,6.5s-4,2.7-6.5,2.7s-4.7-0.9-6.5-2.7
		s-2.7-3.9-2.7-6.5c0-2.6,0.9-4.7,2.7-6.5S-201.8,443.4-199.2,443.4z M-199.3,449.9c-0.7,0-1.3,0.3-1.8,0.8s-0.7,1.1-0.7,1.9
		c0,0.7,0.2,1.3,0.7,1.9s1.1,0.8,1.8,0.8c0.7,0,1.3-0.3,1.8-0.8s0.7-1.1,0.7-1.9c0-0.7-0.2-1.4-0.7-1.9S-198.6,449.9-199.3,449.9z"
		/>
	<path class="st3" d="M-161.6,454.4v6.9h-15.5l7.7-14.4l0.3-0.5c0.2-0.4,0.3-0.8,0.3-1.1c0-0.9-0.6-1.4-1.7-1.4
		c-0.4,0-0.8,0.2-1.1,0.5s-0.5,0.7-0.5,1.1c0,0.5,0.2,0.9,0.6,1.3l-3.1,5.5c-1.3-0.8-2.3-1.8-3-3s-1-2.6-1-4.1
		c0-2.3,0.8-4.3,2.4-5.9s3.6-2.5,5.9-2.5c2.3,0,4.3,0.8,5.9,2.4s2.4,3.6,2.4,5.9c0,1.3-0.3,2.6-0.9,3.7l-2.8,5.5H-161.6z"/>
	<path class="st3" d="M-150.3,444.2v17.1h-7.1v-24h9.3c4.1,0,7.3,0.9,9.6,2.8c2.7,2.2,4.1,5.2,4.1,9c0,3.6-1.2,6.6-3.5,8.9
		s-5.4,3.4-9.1,3.4c-0.4,0-1.1,0-2.1-0.1v-7h1.1c4.2,0,6.2-1.7,6.2-5.2c0-3.3-2-4.9-6.1-4.9H-150.3z"/>
	<path class="st3" d="M-114.9,444.2v17.1h-7.1v-24h9.3c4.1,0,7.3,0.9,9.6,2.8c2.7,2.2,4.1,5.2,4.1,9c0,3.6-1.2,6.6-3.5,8.9
		s-5.4,3.4-9.1,3.4c-0.4,0-1.1,0-2.1-0.1v-7h1.1c4.2,0,6.2-1.7,6.2-5.2c0-3.3-2-4.9-6.1-4.9H-114.9z"/>
	<path class="st3" d="M-79,453.6h-10c-0.2-0.5-0.2-1-0.2-1.4c0-0.6,0.1-1.2,0.3-1.7h3.3c-0.2-1.3-1-2-2.2-2c-0.8,0-1.5,0.3-2,1
		s-0.8,1.6-0.8,2.7c0,1.1,0.2,2.1,0.7,2.8s1.2,1.1,2,1.1c0.7,0,1.3-0.3,1.9-1l3.7,4.5c-1.7,1.4-3.7,2.1-5.8,2.1
		c-2.6,0-4.8-0.9-6.6-2.6s-2.7-3.9-2.7-6.5c0-2.6,0.9-4.7,2.7-6.5s4-2.7,6.6-2.7c2.5,0,4.7,0.9,6.4,2.6s2.6,3.9,2.6,6.4
		C-78.9,452.6-78.9,453-79,453.6z"/>
	<path class="st3" d="M-65.3,444v6.9c-0.9,0-1.6,0.2-1.9,0.5s-0.6,1-0.7,2c-0.3,3.4-1.6,5.8-3.9,7.2c-1.2,0.7-3,1.1-5.2,1.1h-0.9v-7
		h0.3c1.1,0,1.8-0.2,2.3-0.7s0.7-1.2,0.8-2.3c0.1-1.8,0.3-3.1,0.5-3.8s0.7-1.4,1.5-2.2c1.3-1.3,3.1-1.9,5.4-1.9H-65.3z"/>
	<path class="st3" d="M-56.5,443.8v17.5h-6.6v-17.5H-56.5z M-59.8,436c0.9,0,1.7,0.3,2.3,0.9s1,1.4,1,2.2c0,0.9-0.3,1.7-0.9,2.3
		s-1.4,0.9-2.4,0.9s-1.7-0.3-2.4-0.9s-0.9-1.3-0.9-2.3c0-0.9,0.3-1.6,1-2.2S-60.7,436-59.8,436z"/>
	<path class="st3" d="M-43.3,454.1v6c-0.9,0.4-1.9,0.5-2.7,0.5c-2.1,0-3.9-0.8-5.4-2.4s-2.2-3.6-2.2-5.9c0-2.5,0.9-4.6,2.7-6.3
		s3.9-2.6,6.5-2.6c1.4,0,2.7,0.3,3.9,0.8s2.2,1.3,3,2.2c1.2,1.5,1.8,3.8,1.8,6.7v5.8c0,3.1-0.9,5.7-2.7,7.6s-4.1,2.9-6.9,2.9
		c-0.9,0-2-0.2-3.3-0.7v-6c0.9,0.5,1.7,0.7,2.6,0.7c1.2,0,2.1-0.4,2.7-1.2s1-1.9,1-3.3v-6.6c0-1.8-0.7-2.8-2.2-2.8
		c-0.6,0-1.2,0.2-1.7,0.7s-0.7,1-0.7,1.7c0,0.7,0.2,1.2,0.7,1.7s1,0.7,1.7,0.7C-44.2,454.4-43.7,454.3-43.3,454.1z"/>
	<path class="st3" d="M-16.3,461.3h-6.6v-9.9c0-1-0.4-1.5-1.2-1.5c-0.8,0-1.2,0.5-1.2,1.5v9.9h-6.6v-9.8c0-2.3,0.8-4.2,2.3-5.8
		s3.4-2.3,5.6-2.3c2.5,0,4.5,0.9,6,2.7c1.2,1.4,1.8,3.4,1.8,5.9V461.3z"/>
</g>
</svg>
