<?xml version="1.0" encoding="utf-8"?>
<!-- Generator: Adobe Illustrator 19.0.0, SVG Export Plug-In . SVG Version: 6.00 Build 0)  -->
<svg version="1.1" id="Layer_1" xmlns="http://www.w3.org/2000/svg" xmlns:xlink="http://www.w3.org/1999/xlink" x="0px" y="0px"
	 viewBox="-497 346.3 604.6 159.7" style="enable-background:new -497 346.3 604.6 159.7;" xml:space="preserve">
<style type="text/css">
	.st0{opacity:0.6;fill:url(#SVGID_1_);enable-background:new    ;}
	.st1{fill:none;stroke:#F44242;stroke-width:18.9435;stroke-miterlimit:10;}
	.st2{fill:#F7F7F7;}
	.st3{fill:#FFFFFF;}
</style>
<linearGradient id="SVGID_1_" gradientUnits="userSpaceOnUse" x1="-487.6" y1="426.15" x2="98.2" y2="426.15">
	<stop  offset="3.897303e-002" style="stop-color:#EF4725"/>
	<stop  offset="0.9949" style="stop-color:#A91E22"/>
</linearGradient>
<path class="st0" d="M98.2,406c0-27.8-22.5-50.3-50.3-50.3S-2.4,378.2-2.4,406c0,0.3,0,0.5,0,0.8h-440.3
	c-24.8,0-44.9,20.1-44.9,44.9c0,24.8,20.1,44.9,44.9,44.9H10.4c23.4,0,42.6-17.9,44.7-40.7C79.5,452.3,98.2,431.3,98.2,406z"/>
<path class="st1" d="M99.2,404c0-27.8-22.5-50.3-50.3-50.3S-1.4,376.2-1.4,404c0,0.3,0,0.5,0,0.8h-440.3
	c-24.8,0-44.9,20.1-44.9,44.9c0,24.8,20.1,44.9,44.9,44.9H11.4c23.4,0,42.6-17.9,44.7-40.7C80.5,450.3,99.2,429.3,99.2,404z"/>
<g>
	<path class="st2" d="M24.5,400.8c-0.4,0-0.9,0-1.7,0c-0.8,0-1.4,0-1.7,0c0,0.3,0,0.9,0.1,1.8c0,0.7,0,1.3,0,1.8
		c0,0.3-0.6,0.5-1.8,0.5c-1.1,0-1.7-0.1-1.7-0.3c0-0.5,0-1.1,0-1.9c0-1.1,0-1.7,0-1.9c-2,0.1-3.1,0.1-3.2,0.1
		c-0.1,0-0.2-0.1-0.2-0.4c0-0.1,0-0.5,0.1-1.3c0-0.5,0-0.9,0-1.4c0.1-0.1,0.2-0.2,0.3-0.2c0.4,0,0.9,0,1.5,0c0.8,0,1.3,0,1.5,0
		c0-0.7,0-1.4,0-2.2V394c0-0.1,0.1-0.2,0.3-0.2c0.3,0,0.7,0,1.3,0s1,0,1.3,0c0.4,0,0.6,0.1,0.6,0.2c0,0.4,0,1,0,1.8s0,1.4,0,1.8
		c1.7,0,2.8,0,3.4,0c0.2,0,0.2,0.1,0.2,0.2c0,0.1,0,0.6-0.1,1.4c0,0.3,0,0.8-0.1,1.5C24.6,400.7,24.5,400.8,24.5,400.8z"/>
	<path class="st2" d="M36.9,401.3c0,3.5-2.2,5.2-6.5,5.2c-0.6,0-1.5-0.1-2.5-0.2c-1.4-0.2-2.1-0.4-2.1-0.6c0-0.1,0-0.4,0-1
		c0-0.3,0-0.8,0.1-1.3c0.1-0.7,0.2-1.1,0.4-1.1c0,0,0.1,0,0.2,0.1c0.9,0.5,2,0.7,3.2,0.7c1.7,0,2.6-0.6,2.6-1.7
		c0-0.6-0.3-1.1-0.9-1.4c-0.5-0.3-1.1-0.4-1.8-0.4c-0.3,0-0.7,0-1.3,0.1s-1,0.1-1.3,0.1c-0.3,0-0.4-0.1-0.4-0.4c0-0.8,0-1.9,0.1-3.4
		s0.1-2.7,0.1-3.4c0-0.1,0.1-0.3,0.2-0.5s0.2-0.3,0.4-0.3c0.2,0,1.3,0,3.3,0c2.3,0,3.8,0,4.6,0c0.2,0,0.3,0.1,0.3,0.3
		c0,0.4,0,1.1-0.1,1.8c-0.1,1-0.3,1.5-0.4,1.5l-0.1,0c-1.8-0.2-2.9-0.2-3.3-0.2c-0.9,0-1.3,0-1.4,0.1c-0.1,0.2-0.2,0.7-0.2,1.3
		c0,0.1,0,0.2,0.1,0.2c0.2,0,0.5,0,0.9-0.1c0.4,0,0.7-0.1,0.9-0.1c1.5,0,2.7,0.4,3.6,1.2C36.4,398.8,36.9,399.9,36.9,401.3z"/>
	<path class="st2" d="M52,399.1c0,2-0.7,3.7-2,5.2c-1.4,1.5-3,2.3-5,2.3s-3.7-0.8-5-2.3c-1.3-1.4-2-3.2-2-5.2c0-2,0.7-3.8,2-5.2
		c1.3-1.5,3-2.2,5-2.2s3.7,0.7,5,2.2C51.4,395.4,52,397.1,52,399.1z M47.7,399.1c0-0.8-0.2-1.5-0.7-2.1c-0.5-0.6-1.1-0.9-1.9-0.9
		c-0.8,0-1.5,0.3-1.9,0.9c-0.5,0.6-0.7,1.3-0.7,2.1c0,0.8,0.2,1.5,0.7,2.1c0.5,0.6,1.1,1,1.9,1c0.8,0,1.4-0.3,1.9-1
		C47.4,400.6,47.7,399.9,47.7,399.1z"/>
	<path class="st2" d="M63.9,405.9c0,0.2-0.1,0.3-0.4,0.3c-0.5,0.1-0.9,0.1-1.5,0.1c-0.5,0-1,0-1.4-0.1c-0.1,0-0.2-0.1-0.4-0.2
		c-0.4-0.5-1-1.4-1.7-2.4c-0.2,0.2-0.8,1-1.9,2.4c-0.1,0.1-0.2,0.2-0.4,0.3c-0.3,0.1-0.7,0.1-1.3,0.1c-1.2,0-1.9-0.1-1.9-0.4
		c0-0.2,0-0.6,0-1s0-0.8,0-1c0-0.1,0.1-0.3,0.2-0.4c0.6-0.6,1.5-1.6,2.7-2.9c-0.5-0.5-1.1-1-1.6-1.6c-0.9-0.9-1.3-1.4-1.3-1.5v-2.1
		c0-0.2,0.1-0.3,0.4-0.3c0.3,0,0.8,0,1.4,0s1.1,0,1.4,0c0.2,0,0.3,0.1,0.4,0.3c0.4,0.6,1,1.3,1.8,2.2c0.7-0.9,1.3-1.6,1.7-2.2
		c0.1-0.2,0.3-0.2,0.4-0.2c0.3,0,0.8,0,1.5,0s1.1,0,1.5,0c0.3,0,0.4,0.1,0.4,0.3v2.1c0,0.1-0.1,0.3-0.2,0.4
		c-0.6,0.6-1.5,1.5-2.6,2.7c0.6,0.6,1.5,1.6,2.6,2.8c0.1,0.1,0.2,0.3,0.2,0.4V405.9z"/>
	<path class="st2" d="M78.2,400.6c0,1.7-0.5,3.1-1.5,4.2c-1,1.1-2.3,1.7-4,1.7c-0.6,0-1.2-0.1-1.9-0.4s-1-0.4-0.9-0.4
		c-0.1,0-0.2,0.1-0.2,0.4c0,0.4,0,1,0.1,1.8s0.1,1.4,0.1,1.8c0,0.3-0.1,0.4-0.4,0.4l-2.4,0c-0.5,0-0.9,0-1-0.1
		c-0.2-0.1-0.4-0.2-0.4-0.4l0-9c0-1.8-0.1-3.4-0.4-4.6c0-0.1,0-0.1,0-0.2c0-0.1,0-0.2,0.1-0.2c0.3-0.1,0.9-0.2,1.7-0.4
		c0.8-0.1,1.4-0.2,1.8-0.2c0.3,0,0.5,0.2,0.5,0.6s0.1,0.6,0.2,0.6c-0.1,0,0.3-0.2,1-0.6s1.4-0.6,2-0.6c1.7,0,3.1,0.6,4.1,1.7
		C77.8,397.5,78.2,398.9,78.2,400.6z M73.9,400.6c0-0.6-0.2-1.2-0.6-1.6c-0.4-0.5-0.9-0.7-1.5-0.7c-0.6,0-1.1,0.2-1.5,0.7
		c-0.3,0.4-0.5,1-0.5,1.6c0,0.7,0.2,1.2,0.5,1.7c0.4,0.5,0.9,0.7,1.5,0.7C73.2,402.9,73.9,402.1,73.9,400.6z"/>
</g>
<g>
	<path class="st3" d="M-282.7,454.2c0,0.3,0,0.7-0.1,1.2s-0.1,0.9-0.1,1.2s0,0.7,0,1.3s0,1.1,0,1.3s-0.2,0.4-0.6,0.4
		c-0.1,0-0.7-0.1-1.7-0.3c-1.1-0.2-3.1-0.4-6-0.4c-0.9,0-2.3,0.1-4.1,0.2s-3.1,0.1-4,0.1c-0.3,0-0.5-0.1-0.5-0.4
		c0-0.4-0.1-1-0.3-1.8c-0.3-1.2-0.4-1.9-0.4-2.1c0-0.3,0.5-0.5,1.5-0.6c1.1-0.2,1.9-0.4,2.2-0.6c1.2-1,2.4-2.3,3.6-3.8
		c1.6-1.9,2.4-3.4,2.4-4.3c0-0.8-0.3-1.5-0.9-2.1s-1.3-0.9-2.2-0.9c-0.9,0-1.9,0.2-2.8,0.6c-0.6,0.2-1.3,0.6-2,1
		c-0.6,0.4-0.9,0.5-0.9,0.5c-0.4,0-0.6-0.5-0.6-1.4c0-0.7,0-1.3-0.1-1.6c0-0.2-0.1-0.5-0.3-0.9c-0.1-0.4-0.2-0.7-0.2-0.9
		c0-0.2,0.1-0.3,0.3-0.4c1-0.7,2.3-1.2,3.9-1.6c1.5-0.4,2.9-0.5,4.2-0.5c2.2,0,4.1,0.5,5.6,1.5c1.8,1.1,2.7,2.8,2.7,4.9
		c0,2.8-2.1,6.1-6.4,9.9c3-0.2,5.4-0.2,7.1-0.2C-282.9,453.5-282.7,453.7-282.7,454.2z"/>
	<path class="st3" d="M-257.8,446.7c0,3.4-1.1,6.4-3.3,9c-2,2.3-4.7,3.5-8.2,3.6c-0.7,0-2.5,0-5.6,0c-0.6,0-1.4,0-2.6-0.1
		s-2-0.1-2.6-0.1c-0.3,0-0.5-0.1-0.5-0.4c0-1.3,0-3.2,0.1-5.8s0.1-4.5,0.1-5.8c0-1.3,0-3.4-0.1-6.1s-0.1-4.7-0.1-6
		c0-0.2,0.2-0.4,0.5-0.4c0.8-0.1,2.2-0.1,4.1-0.1c3.6,0,5.9,0.1,7,0.2c2.8,0.3,5,1,6.5,2.1c1.5,1.1,2.6,2.5,3.5,4.4
		C-258.2,443-257.8,444.8-257.8,446.7z M-264.6,446.7c0-2-0.6-3.6-1.8-4.9c-1.2-1.3-2.8-2-4.7-2c-1.8,0-2.7,0.2-2.7,0.7
		c0,0.7,0,1.7,0,3.1s0,2.4,0,3.1c0,0.7,0,1.7,0,3.1s0,2.4,0,3.1c0,0.5,0.9,0.8,2.8,0.8c2,0,3.6-0.7,4.8-2
		C-265.1,450.5-264.6,448.8-264.6,446.7z"/>
	<path class="st3" d="M-234.1,451.1c0,2.4-1,4.4-3,6.1c-1.8,1.5-3.9,2.5-6.4,2.9c-0.1,0-0.2,0-0.2,0c-0.3,0-0.9-0.8-1.8-2.5
		s-1.4-2.7-1.4-3c0-0.1,0.1-0.2,0.3-0.2c1.7-0.4,2.8-0.7,3.4-1c1.2-0.6,1.8-1.5,1.8-2.7c0-0.8-0.4-1.6-1.2-2.5
		c-1.4-1.6-2.1-2.5-2.3-2.7c-0.8-1.2-1.2-2.6-1.2-4c0-2.1,1-3.9,3-5.3c1.6-1.2,3.6-1.9,6-2.3c0.1,0,0.2,0,0.3,0
		c0.2,0,0.3,0.1,0.4,0.4c0.3,0.9,1,2.4,2.1,4.6c0,0.1,0.1,0.1,0.1,0.2c0,0.2-0.1,0.3-0.3,0.3c-0.1,0-0.3,0-0.5-0.1s-0.4-0.1-0.5-0.1
		c-0.8,0-1.6,0.2-2.2,0.6c-0.8,0.4-1.1,1.1-1.1,1.9c0,0.7,0.4,1.6,1.3,2.6c1.5,1.9,2.3,2.9,2.3,3
		C-234.5,448.5-234.1,449.8-234.1,451.1z"/>
	<path class="st3" d="M-214.4,450.5c0,2.7-0.8,4.8-2.5,6.5s-3.8,2.5-6.4,2.5c-2.6,0-4.7-0.8-6.4-2.5s-2.5-3.8-2.5-6.3
		c0-2.7,0.8-4.9,2.4-6.6s3.8-2.5,6.5-2.5c2.6,0,4.8,0.8,6.4,2.5S-214.4,447.9-214.4,450.5z M-220.2,450.5c0-0.9-0.3-1.7-0.9-2.5
		s-1.3-1.1-2.2-1.1c-0.9,0-1.7,0.4-2.3,1.1c-0.6,0.7-0.8,1.5-0.8,2.4c0,0.9,0.3,1.8,0.8,2.4c0.6,0.7,1.4,1.1,2.3,1.1
		c0.9,0,1.7-0.4,2.3-1.1C-220.5,452.3-220.2,451.5-220.2,450.5z"/>
	<path class="st3" d="M-201.5,447.8c0,0.3-0.2,0.4-0.5,0.4c-1.3,0-2.3,0-3-0.1c0,0.9,0.1,2.1,0.1,3.7c0,0.7,0.1,1.8,0.2,3.5
		c0.1,1.5,0.1,2.6,0.1,3.5c0,0.2-0.2,0.4-0.5,0.4c-0.4,0-1.4,0.1-3,0.1c-1.3,0-2.2,0-2.6-0.1s-0.6-0.3-0.6-0.7v-9.7
		c0-0.3-0.2-0.5-0.7-0.5c-0.1,0-0.2,0-0.4,0s-0.3,0-0.4,0c-0.3,0-0.5-0.1-0.5-0.3c-0.1-1-0.2-2.5-0.2-4.4c0-0.4,0.2-0.7,0.7-0.8
		c0.4,0,0.8-0.1,1.2-0.1c-0.1-0.9-0.1-1.7-0.1-2.2c0-2,0.4-3.5,1.2-4.4c1.6-1.8,4.1-2.7,7.6-2.7c0.2,0,0.4,0.1,0.4,0.2
		c0.1,0.5,0.2,1.3,0.4,2.3c0,0.1,0.1,0.4,0.2,1c0.1,0.4,0.2,0.8,0.2,1c0,0.3-0.4,0.5-1.2,0.5c-1,0.1-1.6,0.3-1.8,0.5
		c-0.4,0.4-0.6,1.2-0.6,2.5c0,0.4,0,0.8,0.1,1.1c0.3,0,0.8,0,1.5,0s1.2,0,1.6,0s0.5,0.1,0.5,0.4c0,0.6,0,1.4,0,2.5
		S-201.5,447.3-201.5,447.8z"/>
	<path class="st3" d="M-187.8,454c0,0.4,0,0.9-0.1,1.6s-0.1,1.2-0.1,1.6s0,0.5-0.1,0.6s-0.3,0.2-0.6,0.4c-1.5,0.8-3.2,1.2-5,1.2
		c-3.4,0-5.1-1.3-5.1-3.9c0-0.8,0-1.9,0.1-3.5s0.1-2.7,0.1-3.5c0-0.5-0.3-0.8-0.9-0.8c0,0-0.1,0-0.2,0c-0.1,0-0.2,0-0.2,0
		c-0.4,0-0.7-0.2-0.7-0.5c0-0.2,0-0.5,0-0.9s0-0.7,0-0.9c0-0.2,0-0.6,0-1.1s0-0.9,0-1.1c0-0.2,0.4-0.4,1.1-0.4
		c0.4,0,0.7-0.1,0.7-0.4c0.1-0.4,0.1-1.1,0.1-2.1c0-1.5-0.1-2.2-0.1-2.2c0-1.4,0.1-2,0.4-2c0.3,0,0.8,0.1,1.4,0.2
		c0.7,0.2,1.1,0.2,1.4,0.3c0.6,0.1,1.5,0.2,2.7,0.3c0.3,0,0.4,0.1,0.4,0.3c0,0.5,0,1.2-0.1,2.1s-0.1,1.7-0.1,2.1
		c0,0.6,0.2,0.9,0.5,0.9c0.4,0,1,0,1.9-0.1s1.5-0.1,1.9-0.1c0.3,0,0.4,0.1,0.4,0.3c0,0.3,0,0.7-0.1,1.2s-0.1,0.9-0.1,1.2
		c0,0.3,0,0.7,0,1.2s0,0.9,0,1.2c0,0.2-0.2,0.4-0.5,0.4c-0.2,0-0.6,0-1.2,0s-0.9,0-1.2,0h-1.3c-0.2,0-0.3,0.3-0.3,0.8
		c0,0.3,0,0.7,0,1.2c0,0.6,0,1,0,1.2c0,1,0.1,1.7,0.3,2c0.3,0.5,0.9,0.8,1.9,0.8c0.3,0,0.7-0.1,1.3-0.2s0.9-0.2,1.2-0.2
		C-187.9,453.6-187.8,453.8-187.8,454z"/>
	<path class="st3" d="M-160.7,446.9c0,1.8-0.1,3.1-0.4,3.8c-0.3,0.8-1.1,2.1-2.3,4.2c-1.2,2.1-2.1,3.4-2.6,3.9
		c-0.3,0.3-1.1,0.5-2.3,0.5c-1,0-1.7,0-1.9-0.1c-0.2-0.1-0.4-0.2-0.6-0.4c-0.7-0.7-1.7-2.3-3.1-4.8c-1.5,2.6-2.5,4.2-3,4.8
		c-0.3,0.3-1,0.5-2.3,0.5c-0.9,0-1.5,0-1.7-0.1c-0.6-0.2-1.6-1.4-3-3.8c-1.1-1.9-2-3.5-2.4-4.7c-0.3-0.8-0.5-2-0.5-3.8
		c0-2.2,0.1-3.5,0.2-4c0.1-0.3,0.3-0.5,0.6-0.5c0.5,0,1.3,0,2.4,0.1s1.9,0.1,2.4,0.1c0.3,0,0.4,0.2,0.4,0.6c0,0.3,0,0.9,0,1.6
		s0,1.2,0,1.6c0,1.4,0,2.5,0.1,3.1c0,0.3,0.3,0.9,0.9,2s1,1.6,1.1,1.6c0.2,0,0.6-0.5,1.2-1.6c0.5-0.9,0.8-1.5,0.9-2s0.2-1.5,0.2-3.2
		c0-0.4,0-0.9-0.1-1.6s-0.1-1.2-0.1-1.6c0-0.4,0.1-0.5,0.4-0.5c0.3,0,1,0,2,0l0.7,0c0,0,0,0-0.1,0s0,0,0,0h0.1h0.5c0.4,0,1.1,0,2,0
		c0.3,0,0.4,0.2,0.4,0.5c0,0.4,0,1.1-0.1,2s-0.1,1.6-0.1,2c0,1.2,0,2,0.1,2.3c0.1,0.4,0.4,1,0.8,1.9c0.5,1.1,0.9,1.6,1.1,1.6
		s0.6-0.5,1.2-1.6c0.6-1,0.8-1.7,0.9-2c0-0.4,0.1-2.5,0.1-6.2c0-0.4,0.1-0.6,0.4-0.6c0.5,0,1.4,0,2.4-0.1s1.9-0.1,2.4-0.1
		c0.3,0,0.5,0.2,0.6,0.5C-160.8,443.4-160.7,444.7-160.7,446.9z"/>
	<path class="st3" d="M-141.1,450.4c0,0.9,0.1,2.2,0.2,4s0.2,3.1,0.2,4c0,0.5-0.2,0.7-0.6,0.8c-1.5,0.1-3.1,0.2-5,0.2
		c-0.2,0-0.4-0.3-0.4-1s-0.2-1-0.3-1c-0.1,0-0.2,0.1-0.4,0.3c-1.3,1.3-2.7,2-4.2,2c-2.3,0-4.2-0.9-5.7-2.7c-1.4-1.7-2.1-3.7-2.1-6
		c0-2.7,0.7-4.9,2.2-6.5c1.5-1.7,3.6-2.6,6.3-2.6c1.8,0,3.3,0.6,4.4,1.9c0,0.1,0.1,0.1,0.1,0.1c0.1,0,0.2-0.3,0.4-0.9
		s0.3-0.9,0.5-0.9c0.4,0,1.3,0.1,2.5,0.4c1.2,0.2,2,0.4,2.5,0.6c0.2,0.1,0.3,0.2,0.3,0.3c0,0,0,0.2-0.1,0.4
		C-140.9,445.8-141.1,448-141.1,450.4z M-146.7,450.5c0-1-0.3-1.8-0.9-2.5s-1.4-1-2.5-1s-1.8,0.3-2.4,1s-0.9,1.5-0.9,2.5
		c0,0.9,0.3,1.8,1,2.4s1.5,1,2.4,1c1,0,1.8-0.3,2.4-1S-146.7,451.5-146.7,450.5z"/>
	<path class="st3" d="M-125.9,448.2c0,0.5-0.3,0.7-0.8,0.7c-0.2,0-0.5,0-1,0s-0.7,0-1,0c-1,0-1.6,0.2-2,0.5s-0.5,0.9-0.5,1.8
		c0,0.5,0,1.3,0,2.3s0,1.8,0,2.3c0,0.3,0,0.8,0.1,1.5s0.1,1.2,0.1,1.5c0,0.3-0.2,0.4-0.6,0.5c-0.6,0-1.4,0.1-2.6,0.1
		c-1.1,0-2,0-2.7-0.1c-0.4,0-0.6-0.2-0.6-0.6c0-0.9,0-2.3,0-4.2s0-3.3,0-4.2c0-2.8-0.3-5-0.8-6.8c0-0.1,0-0.2,0-0.3
		c0-0.2,0.1-0.3,0.3-0.4c0.6-0.1,1.6-0.2,2.8-0.4c1.9-0.4,2.8-0.5,2.9-0.5c0.2,0,0.3,0.4,0.4,1.1s0.2,1.1,0.3,1.1
		c-0.2,0,0.3-0.3,1.4-0.9s2.2-0.9,3.3-0.9c0.7,0,1,0.1,1,0.4c0,0.3,0,0.8-0.1,1.4c-0.1,0.7-0.1,1.1-0.1,1.4c0,0.3,0,0.8,0,1.4
		C-125.9,447.5-125.9,448-125.9,448.2z"/>
	<path class="st3" d="M-107.7,449.6c0,1.2-0.4,1.9-1.1,2c-0.1,0-1.3,0.2-3.6,0.4c-1.4,0.2-3.4,0.3-6.2,0.5c0.2,0.8,0.7,1.3,1.5,1.7
		c0.7,0.3,1.5,0.5,2.3,0.5c1,0,2.1-0.3,3.1-0.8c0.4-0.3,0.9-0.6,1.3-0.8c0.2,0.1,0.7,0.7,1.2,1.8s0.9,1.8,0.9,2.1
		c0,0.1-0.1,0.2-0.3,0.4c-1.4,1.5-3.7,2.3-6.7,2.3c-2.8,0-5-0.8-6.8-2.4c-1.8-1.7-2.6-3.9-2.6-6.6c0-2.7,0.8-4.9,2.4-6.6
		c1.6-1.8,3.8-2.7,6.4-2.7c2.3,0,4.2,0.8,5.7,2.5S-107.7,447.4-107.7,449.6z M-113.9,448.6c0-0.7-0.3-1.4-0.8-1.9s-1.1-0.8-1.8-0.8
		c-0.7,0-1.3,0.3-1.8,0.9c-0.4,0.6-0.7,1.2-0.7,2c0,0.3,0.2,0.5,0.5,0.5c0.9,0,2.2-0.1,4-0.4C-114.1,448.8-113.9,448.7-113.9,448.6z
		"/>
</g>
</svg>
