<?xml version="1.0" encoding="utf-8"?>
<!-- Generator: Adobe Illustrator 19.0.0, SVG Export Plug-In . SVG Version: 6.00 Build 0)  -->
<svg version="1.1" id="Layer_1" xmlns="http://www.w3.org/2000/svg" xmlns:xlink="http://www.w3.org/1999/xlink" x="0px" y="0px"
	 viewBox="-497 346.3 604.6 159.7" style="enable-background:new -497 346.3 604.6 159.7;" xml:space="preserve">
<style type="text/css">
	.st0{opacity:0.6;fill:url(#SVGID_1_);stroke:#EAA50C;stroke-miterlimit:10;enable-background:new    ;}
	.st1{fill:none;stroke:#00AF1D;stroke-width:18.9435;stroke-miterlimit:10;}
	.st2{fill:#F7F7F7;}
	.st3{fill:#FFFFFF;}
</style>
<linearGradient id="SVGID_1_" gradientUnits="userSpaceOnUse" x1="-482.6" y1="425.65" x2="103.2" y2="425.65" gradientTransform="matrix(1 0 0 -1 0 854.6)">
	<stop  offset="0.2863" style="stop-color:#80C342"/>
	<stop  offset="0.9949" style="stop-color:#2DB34A"/>
	<stop  offset="1" style="stop-color:#299546"/>
</linearGradient>
<path class="st0" d="M103.2,408.8c0-27.8-22.5-50.3-50.3-50.3S2.6,381,2.6,408.8c0,0.3,0,0.5,0,0.8h-440.3
	c-24.8,0-44.9,20.1-44.9,44.9s20.1,44.9,44.9,44.9H15.4c23.4,0,42.6-17.9,44.7-40.7C84.5,455.1,103.2,434.1,103.2,408.8z"/>
<path class="st1" d="M100.2,407.3c0-27.8-22.5-50.3-50.3-50.3s-50.3,22.5-50.3,50.3c0,0.3,0,0.5,0,0.8h-440.3
	c-24.8,0-44.9,20.1-44.9,44.9s20.1,44.9,44.9,44.9H12.4c23.4,0,42.6-17.9,44.7-40.7C81.5,453.6,100.2,432.6,100.2,407.3z"/>
<g>
	<path class="st2" d="M25.5,402.1c-0.4,0-0.9,0-1.7,0c-0.8,0-1.4,0-1.7,0c0,0.3,0,0.9,0.1,1.8c0,0.7,0,1.3,0,1.8
		c0,0.3-0.6,0.5-1.8,0.5c-1.1,0-1.7-0.1-1.7-0.3c0-0.5,0-1.1,0-1.9c0-1.1,0-1.7,0-1.9c-2,0.1-3.1,0.1-3.2,0.1
		c-0.1,0-0.2-0.1-0.2-0.4c0-0.1,0-0.5,0.1-1.3c0-0.5,0-0.9,0-1.4c0.1-0.1,0.2-0.2,0.3-0.2c0.4,0,0.9,0,1.5,0c0.8,0,1.3,0,1.5,0
		c0-0.7,0-1.4,0-2.2v-1.4c0-0.1,0.1-0.2,0.3-0.2c0.3,0,0.7,0,1.3,0s1,0,1.3,0c0.4,0,0.6,0.1,0.6,0.2c0,0.4,0,1,0,1.8s0,1.4,0,1.8
		c1.7,0,2.8,0,3.4,0c0.2,0,0.2,0.1,0.2,0.2s0,0.6-0.1,1.4c0,0.3,0,0.8-0.1,1.5C25.6,402,25.5,402.1,25.5,402.1z"/>
	<path class="st2" d="M37.9,402.6c0,3.5-2.2,5.2-6.5,5.2c-0.6,0-1.5-0.1-2.5-0.2c-1.4-0.2-2.1-0.4-2.1-0.6c0-0.1,0-0.4,0-1
		c0-0.3,0-0.8,0.1-1.3c0.1-0.7,0.2-1.1,0.4-1.1c0,0,0.1,0,0.2,0.1c0.9,0.5,2,0.7,3.2,0.7c1.7,0,2.6-0.6,2.6-1.7
		c0-0.6-0.3-1.1-0.9-1.4c-0.5-0.3-1.1-0.4-1.8-0.4c-0.3,0-0.7,0-1.3,0.1s-1,0.1-1.3,0.1s-0.4-0.1-0.4-0.4c0-0.8,0-1.9,0.1-3.4
		s0.1-2.7,0.1-3.4c0-0.1,0.1-0.3,0.2-0.5s0.2-0.3,0.4-0.3c0.2,0,1.3,0,3.3,0c2.3,0,3.8,0,4.6,0c0.2,0,0.3,0.1,0.3,0.3
		c0,0.4,0,1.1-0.1,1.8c-0.1,1-0.3,1.5-0.4,1.5H36c-1.8-0.2-2.9-0.2-3.3-0.2c-0.9,0-1.3,0-1.4,0.1c-0.1,0.2-0.2,0.7-0.2,1.3
		c0,0.1,0,0.2,0.1,0.2c0.2,0,0.5,0,0.9-0.1c0.4,0,0.7-0.1,0.9-0.1c1.5,0,2.7,0.4,3.6,1.2C37.4,400.1,37.9,401.2,37.9,402.6z"/>
	<path class="st2" d="M53,400.4c0,2-0.7,3.7-2,5.2c-1.4,1.5-3,2.3-5,2.3s-3.7-0.8-5-2.3c-1.3-1.4-2-3.2-2-5.2s0.7-3.8,2-5.2
		c1.3-1.5,3-2.2,5-2.2s3.7,0.7,5,2.2C52.4,396.7,53,398.4,53,400.4z M48.7,400.4c0-0.8-0.2-1.5-0.7-2.1s-1.1-0.9-1.9-0.9
		c-0.8,0-1.5,0.3-1.9,0.9c-0.5,0.6-0.7,1.3-0.7,2.1c0,0.8,0.2,1.5,0.7,2.1s1.1,1,1.9,1c0.8,0,1.4-0.3,1.9-1
		C48.4,401.9,48.7,401.2,48.7,400.4z"/>
	<path class="st2" d="M64.9,407.2c0,0.2-0.1,0.3-0.4,0.3c-0.5,0.1-0.9,0.1-1.5,0.1c-0.5,0-1,0-1.4-0.1c-0.1,0-0.2-0.1-0.4-0.2
		c-0.4-0.5-1-1.4-1.7-2.4c-0.2,0.2-0.8,1-1.9,2.4c-0.1,0.1-0.2,0.2-0.4,0.3c-0.3,0.1-0.7,0.1-1.3,0.1c-1.2,0-1.9-0.1-1.9-0.4
		c0-0.2,0-0.6,0-1s0-0.8,0-1c0-0.1,0.1-0.3,0.2-0.4c0.6-0.6,1.5-1.6,2.7-2.9c-0.5-0.5-1.1-1-1.6-1.6c-0.9-0.9-1.3-1.4-1.3-1.5v-2.1
		c0-0.2,0.1-0.3,0.4-0.3c0.3,0,0.8,0,1.4,0s1.1,0,1.4,0c0.2,0,0.3,0.1,0.4,0.3c0.4,0.6,1,1.3,1.8,2.2c0.7-0.9,1.3-1.6,1.7-2.2
		c0.1-0.2,0.3-0.2,0.4-0.2c0.3,0,0.8,0,1.5,0s1.1,0,1.5,0c0.3,0,0.4,0.1,0.4,0.3v2.1c0,0.1-0.1,0.3-0.2,0.4
		c-0.6,0.6-1.5,1.5-2.6,2.7c0.6,0.6,1.5,1.6,2.6,2.8c0.1,0.1,0.2,0.3,0.2,0.4C64.9,405.3,64.9,407.2,64.9,407.2z"/>
	<path class="st2" d="M79.2,401.9c0,1.7-0.5,3.1-1.5,4.2s-2.3,1.7-4,1.7c-0.6,0-1.2-0.1-1.9-0.4s-1-0.4-0.9-0.4
		c-0.1,0-0.2,0.1-0.2,0.4c0,0.4,0,1,0.1,1.8s0.1,1.4,0.1,1.8c0,0.3-0.1,0.4-0.4,0.4h-2.4c-0.5,0-0.9,0-1-0.1
		c-0.2-0.1-0.4-0.2-0.4-0.4v-9c0-1.8-0.1-3.4-0.4-4.6c0-0.1,0-0.1,0-0.2s0-0.2,0.1-0.2c0.3-0.1,0.9-0.2,1.7-0.4
		c0.8-0.1,1.4-0.2,1.8-0.2c0.3,0,0.5,0.2,0.5,0.6s0.1,0.6,0.2,0.6c-0.1,0,0.3-0.2,1-0.6s1.4-0.6,2-0.6c1.7,0,3.1,0.6,4.1,1.7
		C78.8,398.8,79.2,400.2,79.2,401.9z M74.9,401.9c0-0.6-0.2-1.2-0.6-1.6c-0.4-0.5-0.9-0.7-1.5-0.7s-1.1,0.2-1.5,0.7
		c-0.3,0.4-0.5,1-0.5,1.6c0,0.7,0.2,1.2,0.5,1.7c0.4,0.5,0.9,0.7,1.5,0.7C74.2,404.2,74.9,403.4,74.9,401.9z"/>
</g>
<g>
	<path class="st3" d="M-306.4,450.4c0,2.2-0.9,3.8-2.7,5c-1.5,1-3.4,1.5-5.7,1.5c-1.8,0-3.2-0.1-4.3-0.4c-2.5-0.5-3.7-1-3.7-1.4
		c0-0.1,0-0.2,0.1-0.3c0.2-0.4,0.4-1.1,0.7-2c0.1-0.4,0.3-1.1,0.5-1.9c0.1-0.3,0.3-0.4,0.5-0.4c0,0,0.5,0.2,1.6,0.6s2,0.6,2.7,0.6
		c2.3,0,3.4-0.8,3.4-2.3c0-1.2-1.1-1.8-3.3-1.8c-0.3,0-0.7,0-1.2,0s-0.8,0-0.9,0c-0.7,0-1.1,0-1.2,0c-0.5-0.1-0.8-0.3-0.8-0.6
		c0-1.8,0.1-2.9,0.2-3.4c0.1-0.3,0.3-0.4,0.6-0.4c0.4,0,1,0,1.8,0.1s1.4,0.1,1.7,0.1c0.5,0,0.9-0.2,1.3-0.5s0.5-0.8,0.5-1.3
		c0-1.4-1-2.1-3-2.1c-0.8,0-2,0.2-3.4,0.7c-0.1,0-0.1,0-0.2,0c-0.2,0-0.3-0.2-0.4-0.5c0-0.5-0.1-1.1-0.1-1.7c0-0.1,0-0.4-0.1-0.8
		c0-0.3-0.1-0.6-0.1-0.8c0-0.6,1-1.1,2.9-1.4c1.3-0.2,2.6-0.4,3.8-0.4c2,0,3.7,0.4,5.2,1.3c1.8,1.1,2.7,2.5,2.7,4.4
		c0,2.1-1,3.8-2.9,4.9c1.1,0.4,2.1,1,2.7,2S-306.4,449.2-306.4,450.4z"/>
	<path class="st3" d="M-281.3,443.9c0,3.4-1.1,6.4-3.3,9c-2,2.3-4.7,3.5-8.2,3.6c-0.7,0-2.5,0-5.6,0c-0.6,0-1.4,0-2.6-0.1
		s-2-0.1-2.6-0.1c-0.3,0-0.5-0.1-0.5-0.4c0-1.3,0-3.2,0.1-5.8s0.1-4.5,0.1-5.8c0-1.3,0-3.4-0.1-6.1s-0.1-4.7-0.1-6
		c0-0.2,0.2-0.4,0.5-0.4c0.8-0.1,2.2-0.1,4.1-0.1c3.6,0,5.9,0.1,7,0.2c2.8,0.3,5,1,6.5,2.1c1.5,1.1,2.6,2.5,3.5,4.4
		C-281.7,440.2-281.3,442-281.3,443.9z M-288.1,443.9c0-2-0.6-3.6-1.8-4.9c-1.2-1.3-2.8-2-4.7-2c-1.8,0-2.7,0.2-2.7,0.7
		c0,0.7,0,1.7,0,3.1s0,2.4,0,3.1c0,0.7,0,1.7,0,3.1s0,2.4,0,3.1c0,0.5,0.9,0.8,2.8,0.8c2,0,3.6-0.7,4.8-2
		C-288.6,447.7-288.1,446-288.1,443.9z"/>
	<path class="st3" d="M-251.6,450.9c0,0.5-0.1,1.4-0.3,2.8c-0.2,1.5-0.4,2.3-0.6,2.6c-0.1,0.2-0.3,0.3-0.6,0.3c-0.1,0-0.3,0-0.5-0.1
		c-0.9-0.1-3.4-0.2-7.5-0.2c-0.9,0-2.2,0-4,0s-3.1,0-4,0c-0.4,0-0.6-0.2-0.6-0.5c0-1.3,0.1-3.3,0.2-5.9s0.2-4.6,0.2-5.9
		c0-1.3-0.1-3.8-0.2-7.5c0-0.9-0.1-2.3-0.2-4.2l0-0.2c0-0.3,0.1-0.4,0.4-0.4c0.9,0,2.2,0,3.9,0.1s3,0.1,3.9,0.1c0.9,0,2.1,0,3.9-0.1
		s3-0.1,3.9-0.1c0.6,0,1,0.2,1.1,0.7c0.1,0.3,0.1,1.1,0.3,2.5s0.2,2.2,0.2,2.5c0,0.2-0.1,0.4-0.4,0.4c-0.1,0-0.2,0-0.4,0
		c-3.1-0.3-5.9-0.4-8.4-0.4c-0.6,0-1,0.1-1.1,0.4c-0.1,0.1-0.1,0.6-0.1,1.4c0,0.8,0.1,1.3,0.4,1.6c0.2,0.2,0.6,0.3,1.1,0.3
		c0.1,0,0.3,0,0.7,0s0.6,0,0.8,0c1.5,0,3,0,4.5-0.1c0.1,0,0.5,0,1-0.1c0.4,0,0.7-0.1,0.9-0.1c0.3,0,0.4,0.1,0.4,0.4
		c0-0.2-0.1,0.7-0.3,2.7c-0.1,0.9-0.1,1.9-0.1,2.8c0,0.2-0.2,0.4-0.5,0.4l-1.6-0.2c-0.7-0.1-2.2-0.1-4.6-0.1h-1.9
		c-0.5,0-0.8,0.1-0.8,0.4c0,0.1,0,0.4,0,1.1c0,0.9,0.1,1.5,0.2,1.7c0.2,0.4,0.9,0.7,2.3,0.8c0,0,0.8,0,2.6,0c0.6,0,1.5-0.1,2.8-0.2
		s2.1-0.2,2.8-0.2C-251.7,450.3-251.6,450.5-251.6,450.9z"/>
	<path class="st3" d="M-231.5,450v2.5c0,0.9,0,2.4,0.1,4.3s0.1,3.4,0.1,4.3c0,0.4-0.2,0.5-0.5,0.6c-0.5,0-1.3,0.1-2.5,0.1
		c-0.3,0-0.8,0-1.4,0.1s-1.1,0.1-1.4,0.1c-0.2,0-0.4-0.2-0.4-0.5c0-0.7,0-1.7,0-3.1s0-2.4,0-3.1c0-0.2-0.1-0.2-0.2-0.2
		c0.2,0-0.3,0.3-1.4,1s-2.2,1-3.3,1c-2.3,0-4.2-0.9-5.7-2.7c-1.4-1.7-2.1-3.7-2.1-6.1c0-2.5,0.7-4.7,2-6.4c1.4-1.8,3.4-2.7,5.9-2.7
		c1.9,0,3.3,0.5,4.3,1.6c0.1,0.1,0.2,0.2,0.4,0.3c0.1-0.1,0.2-0.3,0.2-0.7c0-0.3,0-0.5,0-0.8c0-0.4,0.2-0.7,0.6-0.7
		c1,0,2,0.1,3.3,0.2c1.7,0.2,2.5,0.4,2.5,0.6l0,0.4C-231.4,443-231.5,446.4-231.5,450z M-237.7,447.7c0-1-0.3-1.9-0.8-2.5
		c-0.6-0.7-1.3-1.1-2.4-1.1c-0.9,0-1.7,0.4-2.3,1.1c-0.5,0.7-0.8,1.5-0.8,2.4c0,1,0.3,1.8,0.9,2.5c0.6,0.7,1.4,1,2.4,1
		s1.7-0.3,2.2-1C-237.9,449.5-237.7,448.7-237.7,447.7z"/>
	<path class="st3" d="M-210,440.4c0,0.9,0,2.2-0.1,3.9s-0.1,3-0.1,3.9c0,0.8,0,2.1,0.1,3.8s0.1,2.9,0.1,3.8c0,0.3-0.1,0.5-0.4,0.6
		c-0.4,0.1-1.4,0.2-2.8,0.2c-1.3,0-2.2,0-2.7-0.1c-0.2,0-0.4-0.2-0.4-0.4c0-0.4-0.1-0.7-0.1-1.1c-0.1-0.5-0.1-0.8-0.2-0.8
		c0.2,0-0.4,0.4-1.8,1.2s-2.6,1.2-3.7,1.2c-3.1,0-4.9-1.4-5.5-4.2c-0.3-1.3-0.4-3.2-0.4-5.7c0-2.7,0.2-4.8,0.7-6.3
		c0.1-0.5,0.4-0.7,0.7-0.7c0.5,0,1.4,0,2.5,0s1.9,0,2.5,0c0.4,0,0.5,0.2,0.5,0.5c0,0.1,0,0.2,0,0.4c-0.2,1.6-0.4,3.2-0.4,4.9
		c0,2,0.1,3.4,0.2,4.2c0.2,1.3,1,1.9,2.3,1.9c0.5,0,1.1-0.2,1.7-0.7s0.9-0.9,0.9-1.4c0-0.4,0-3.4,0-8.8c0-0.4,0-0.6,0.1-0.7
		c0.1-0.1,0.3-0.2,0.6-0.2c0.6,0,1.4,0,2.6,0s2,0,2.6,0c0.4,0,0.6,0.1,0.6,0.3C-210,440.1-210,440.2-210,440.4z"/>
	<path class="st3" d="M-200.6,448.3c0,0.9,0,2.1,0.1,3.8s0.1,3,0.1,3.8c0,0.2-0.1,0.4-0.4,0.4c-0.4,0.1-1.3,0.1-2.7,0.1
		c-1.4,0-2.3,0-2.7-0.1c-0.3,0-0.4-0.1-0.5-0.2c0,0,0-0.2,0-0.5c0-0.8,0-2,0.1-3.6s0.1-2.8,0.1-3.7c0-3.3-0.1-6-0.4-7.9
		c0-0.2,0-0.3,0-0.4c0-0.2,0.2-0.4,0.5-0.4c0.3,0,0.8,0,1.5,0.1s1.2,0.1,1.5,0.1s0.8,0,1.5-0.1s1.2-0.1,1.5-0.1
		c0.3,0,0.4,0.1,0.4,0.4c0,0,0,0.2,0,0.3C-200.5,442.7-200.6,445.3-200.6,448.3z M-200.1,435.3c0,2-1.1,3.1-3.4,3.1
		c-1,0-1.8-0.3-2.4-0.8c-0.7-0.6-1.1-1.3-1.1-2.3c0-0.9,0.4-1.7,1.1-2.3c0.7-0.5,1.5-0.8,2.4-0.8c0.9,0,1.7,0.3,2.4,0.8
		C-200.5,433.6-200.1,434.3-200.1,435.3z"/>
	<path class="st3" d="M-177.8,447.9c0,2.5-0.7,4.6-2.2,6.2c-1.5,1.7-3.5,2.6-6,2.6c-0.9,0-1.9-0.2-2.9-0.7s-1.5-0.7-1.4-0.7
		c-0.2,0-0.2,0.2-0.2,0.5c0,0.6,0,1.5,0.1,2.7s0.1,2.1,0.1,2.7c0,0.4-0.2,0.6-0.6,0.6l-3.6,0c-0.8,0-1.3,0-1.6-0.1
		c-0.4-0.1-0.5-0.3-0.5-0.7l0-13.5c0-2.7-0.2-5-0.6-6.9c0-0.1,0-0.2,0-0.3c0-0.2,0.1-0.3,0.2-0.4c0.5-0.2,1.3-0.4,2.6-0.6
		c1.3-0.2,2.2-0.3,2.7-0.3c0.5,0,0.7,0.3,0.8,0.9s0.1,0.9,0.2,0.9c-0.1,0,0.4-0.3,1.5-1s2.1-1,3-1c2.5,0,4.6,0.8,6.1,2.5
		C-178.5,443.2-177.8,445.3-177.8,447.9z M-184.3,447.9c0-0.9-0.3-1.8-0.9-2.5c-0.6-0.7-1.4-1.1-2.3-1.1c-0.9,0-1.7,0.4-2.3,1.1
		c-0.5,0.7-0.7,1.5-0.7,2.5c0,1,0.3,1.8,0.8,2.5c0.6,0.7,1.3,1.1,2.3,1.1C-185.4,451.4-184.3,450.3-184.3,447.9z"/>
	<path class="st3" d="M-147.4,455.7c0,0.4-0.2,0.6-0.5,0.7s-1.2,0.1-2.6,0.1c-1.4,0-2.3,0-2.7-0.1s-0.5-0.4-0.5-0.9
		c0-0.5,0-1.3,0.1-2.4s0.1-1.9,0.1-2.4c0-2.1,0-3.5-0.1-4.4c-0.1-1.4-0.7-2.1-2-2.1c-0.6,0-1.1,0.2-1.6,0.7s-0.8,1-0.9,1.5
		c0,0.5-0.1,1.9-0.1,4.3c0,0.6,0,1.4,0.1,2.5s0.1,2,0.1,2.5c0,0.4-0.2,0.6-0.5,0.6h-5.3c-0.3,0-0.5-0.2-0.5-0.7c0-0.6,0-1.4,0.1-2.5
		s0.1-1.9,0.1-2.5c0-0.4,0-1.1,0-2s0-1.5,0-2c0-1.7-0.6-2.5-1.9-2.5c-0.5,0-1.1,0.2-1.7,0.6c-0.7,0.4-1,0.9-1,1.4c0,1.1,0,2.7,0,4.8
		s0,3.7,0,4.8c0,0.3,0,0.5-0.1,0.5s-0.3,0.1-0.5,0.1c-0.5,0-1.4,0.1-2.5,0.1c-0.7,0-1.6,0-2.5-0.1c-0.3,0-0.4-0.1-0.5-0.1
		s-0.1-0.2-0.1-0.5c0-0.9,0-2.3,0-4.2s0-3.3,0-4.2c0-1.9-0.1-4.1-0.4-6.5c0-0.1,0-0.2,0-0.3c0-0.2,0.1-0.3,0.2-0.4
		c0.3-0.1,0.7-0.2,1.5-0.3c0.9-0.1,1.4-0.1,1.6-0.2c0.1,0,0.6-0.1,1.4-0.4c0.6-0.2,1-0.2,1.4-0.2c0.2,0,0.3,0.4,0.4,1.2
		s0.1,1.2,0.1,1.2c0.1,0,0.3-0.1,0.4-0.2c1.1-0.8,1.9-1.4,2.5-1.7c0.9-0.4,1.9-0.7,2.9-0.7c1.1,0,2,0.2,2.9,0.7
		c0.9,0.5,1.6,1.3,1.8,2.3c0.6-0.8,1.5-1.6,2.6-2.1s2.2-0.9,3.2-0.9c1.5,0,2.8,0.4,3.8,1.1c1.1,0.8,1.7,2,1.7,3.5
		c0,0.6,0,1.6-0.1,2.8s-0.1,2.2-0.1,2.8c0,0.7,0,1.8,0.1,3.3S-147.4,455-147.4,455.7z"/>
	<path class="st3" d="M-128,446.8c0,1.2-0.4,1.9-1.1,2c-0.1,0-1.3,0.2-3.6,0.4c-1.4,0.2-3.4,0.3-6.2,0.5c0.2,0.8,0.7,1.3,1.5,1.7
		c0.7,0.3,1.5,0.5,2.3,0.5c1,0,2.1-0.3,3.1-0.8c0.4-0.3,0.9-0.6,1.3-0.8c0.2,0.1,0.7,0.7,1.2,1.8s0.9,1.8,0.9,2.1
		c0,0.1-0.1,0.2-0.3,0.4c-1.4,1.5-3.7,2.3-6.7,2.3c-2.8,0-5-0.8-6.8-2.4c-1.8-1.7-2.6-3.9-2.6-6.6c0-2.7,0.8-4.9,2.4-6.6
		c1.6-1.8,3.8-2.7,6.4-2.7c2.3,0,4.2,0.8,5.7,2.5S-128,444.6-128,446.8z M-134.1,445.8c0-0.7-0.3-1.4-0.8-1.9s-1.1-0.8-1.8-0.8
		c-0.7,0-1.3,0.3-1.8,0.9c-0.4,0.6-0.7,1.2-0.7,2c0,0.3,0.2,0.5,0.5,0.5c0.9,0,2.2-0.1,4-0.4C-134.3,446-134.1,445.9-134.1,445.8z"
		/>
	<path class="st3" d="M-108.6,455.9c0,0.3-0.2,0.5-0.5,0.5s-1.2,0.1-2.6,0.1c-1.5,0-2.4,0-2.7-0.1s-0.5-0.3-0.5-0.7
		c0-0.6,0-1.4,0.1-2.5s0.1-2,0.1-2.5c0-0.4,0-1.1,0-1.9s0-1.5,0-1.9c0-1.6-0.7-2.4-2.1-2.4c-0.5,0-1,0.2-1.6,0.6
		c-0.7,0.4-1,0.9-1,1.3v9.5c0,0.4-0.2,0.6-0.5,0.7c-0.4,0-1.2,0.1-2.5,0.1c-1.4,0-2.3,0-2.7-0.1c-0.4-0.1-0.5-0.3-0.5-0.6
		c0-0.9,0-2.3,0-4.1s0-3.2,0-4.1c0-2.9-0.2-5.2-0.7-6.9c0-0.1,0-0.2,0-0.3c0-0.2,0.1-0.3,0.3-0.4c0.7-0.1,1.7-0.2,3-0.4
		c1.9-0.4,2.9-0.5,3.1-0.5c0.1,0,0.2,0.4,0.3,1.2s0.2,1.2,0.3,1.2c-0.1,0,0.5-0.4,1.9-1.2s2.6-1.2,3.6-1.2c1.5,0,2.7,0.4,3.7,1.1
		c1.1,0.8,1.7,1.9,1.7,3.4v5.6c0,0.8,0,1.9,0,3.4S-108.6,455.1-108.6,455.9z"/>
	<path class="st3" d="M-93.9,451.2c0,0.4,0,0.9-0.1,1.6s-0.1,1.2-0.1,1.6s0,0.5-0.1,0.6s-0.3,0.2-0.6,0.4c-1.5,0.8-3.2,1.2-5,1.2
		c-3.4,0-5.1-1.3-5.1-3.9c0-0.8,0-1.9,0.1-3.5s0.1-2.7,0.1-3.5c0-0.5-0.3-0.8-0.9-0.8c0,0-0.1,0-0.2,0c-0.1,0-0.2,0-0.2,0
		c-0.4,0-0.7-0.2-0.7-0.5c0-0.2,0-0.5,0-0.9s0-0.7,0-0.9c0-0.2,0-0.6,0-1.1s0-0.9,0-1.1c0-0.2,0.4-0.4,1.1-0.4
		c0.4,0,0.7-0.1,0.7-0.4c0.1-0.4,0.1-1.1,0.1-2.1c0-1.5-0.1-2.2-0.1-2.2c0-1.4,0.1-2,0.4-2c0.3,0,0.8,0.1,1.4,0.2
		c0.7,0.2,1.1,0.2,1.4,0.3c0.6,0.1,1.5,0.2,2.7,0.3c0.3,0,0.4,0.1,0.4,0.3c0,0.5,0,1.2-0.1,2.1s-0.1,1.7-0.1,2.1
		c0,0.6,0.2,0.9,0.5,0.9c0.4,0,1,0,1.9-0.1s1.5-0.1,1.9-0.1c0.3,0,0.4,0.1,0.4,0.3c0,0.3,0,0.7-0.1,1.2s-0.1,0.9-0.1,1.2
		c0,0.3,0,0.7,0,1.2s0,0.9,0,1.2c0,0.2-0.2,0.4-0.5,0.4c-0.2,0-0.6,0-1.2,0s-0.9,0-1.2,0h-1.3c-0.2,0-0.3,0.3-0.3,0.8
		c0,0.3,0,0.7,0,1.2c0,0.6,0,1,0,1.2c0,1,0.1,1.7,0.3,2c0.3,0.5,0.9,0.8,1.9,0.8c0.3,0,0.7-0.1,1.3-0.2s0.9-0.2,1.2-0.2
		C-94,450.8-93.9,451-93.9,451.2z"/>
</g>
</svg>
