<?xml version="1.0" encoding="utf-8"?>
<!-- Generator: Adobe Illustrator 19.0.0, SVG Export Plug-In . SVG Version: 6.00 Build 0)  -->
<svg version="1.1" id="Layer_1" xmlns="http://www.w3.org/2000/svg" xmlns:xlink="http://www.w3.org/1999/xlink" x="0px" y="0px"
	 viewBox="-497 346.3 604.6 159.7" style="enable-background:new -497 346.3 604.6 159.7;" xml:space="preserve">
<style type="text/css">
	.st0{opacity:0.6;fill:url(#SVGID_1_);stroke:#EAA50C;stroke-miterlimit:10;enable-background:new    ;}
	.st1{fill:none;stroke:#00AF1D;stroke-width:18.9435;stroke-miterlimit:10;}
	.st2{fill:#F7F7F7;}
	.st3{fill:#FFFFFF;}
</style>
<linearGradient id="SVGID_1_" gradientUnits="userSpaceOnUse" x1="-483.6" y1="427.65" x2="102.2" y2="427.65">
	<stop  offset="0.2863" style="stop-color:#80C342"/>
	<stop  offset="0.9949" style="stop-color:#2DB34A"/>
	<stop  offset="1" style="stop-color:#299546"/>
</linearGradient>
<path class="st0" d="M102.2,407.5c0-27.8-22.5-50.3-50.3-50.3S1.6,379.7,1.6,407.5c0,0.3,0,0.5,0,0.8h-440.3
	c-24.8,0-44.9,20.1-44.9,44.9c0,24.8,20.1,44.9,44.9,44.9H14.4c23.4,0,42.6-17.9,44.7-40.7C83.5,453.8,102.2,432.8,102.2,407.5z"/>
<path class="st1" d="M99.2,406c0-27.8-22.5-50.3-50.3-50.3S-1.4,378.2-1.4,406c0,0.3,0,0.5,0,0.8h-440.3
	c-24.8,0-44.9,20.1-44.9,44.9c0,24.8,20.1,44.9,44.9,44.9H11.4c23.4,0,42.6-17.9,44.7-40.7C80.5,452.3,99.2,431.3,99.2,406z"/>
<g>
	<path class="st2" d="M24.5,400.8c-0.4,0-0.9,0-1.7,0c-0.8,0-1.4,0-1.7,0c0,0.3,0,0.9,0.1,1.8c0,0.7,0,1.3,0,1.8
		c0,0.3-0.6,0.5-1.8,0.5c-1.1,0-1.7-0.1-1.7-0.3c0-0.5,0-1.1,0-1.9c0-1.1,0-1.7,0-1.9c-2,0.1-3.1,0.1-3.2,0.1
		c-0.1,0-0.2-0.1-0.2-0.4c0-0.1,0-0.5,0.1-1.3c0-0.5,0-0.9,0-1.4c0.1-0.1,0.2-0.2,0.3-0.2c0.4,0,0.9,0,1.5,0c0.8,0,1.3,0,1.5,0
		c0-0.7,0-1.4,0-2.2V394c0-0.1,0.1-0.2,0.3-0.2c0.3,0,0.7,0,1.3,0s1,0,1.3,0c0.4,0,0.6,0.1,0.6,0.2c0,0.4,0,1,0,1.8s0,1.4,0,1.8
		c1.7,0,2.8,0,3.4,0c0.2,0,0.2,0.1,0.2,0.2c0,0.1,0,0.6-0.1,1.4c0,0.3,0,0.8-0.1,1.5C24.6,400.7,24.5,400.8,24.5,400.8z"/>
	<path class="st2" d="M36.9,401.3c0,3.5-2.2,5.2-6.5,5.2c-0.6,0-1.5-0.1-2.5-0.2c-1.4-0.2-2.1-0.4-2.1-0.6c0-0.1,0-0.4,0-1
		c0-0.3,0-0.8,0.1-1.3c0.1-0.7,0.2-1.1,0.4-1.1c0,0,0.1,0,0.2,0.1c0.9,0.5,2,0.7,3.2,0.7c1.7,0,2.6-0.6,2.6-1.7
		c0-0.6-0.3-1.1-0.9-1.4c-0.5-0.3-1.1-0.4-1.8-0.4c-0.3,0-0.7,0-1.3,0.1s-1,0.1-1.3,0.1c-0.3,0-0.4-0.1-0.4-0.4c0-0.8,0-1.9,0.1-3.4
		s0.1-2.7,0.1-3.4c0-0.1,0.1-0.3,0.2-0.5s0.2-0.3,0.4-0.3c0.2,0,1.3,0,3.3,0c2.3,0,3.8,0,4.6,0c0.2,0,0.3,0.1,0.3,0.3
		c0,0.4,0,1.1-0.1,1.8c-0.1,1-0.3,1.5-0.4,1.5l-0.1,0c-1.8-0.2-2.9-0.2-3.3-0.2c-0.9,0-1.3,0-1.4,0.1c-0.1,0.2-0.2,0.7-0.2,1.3
		c0,0.1,0,0.2,0.1,0.2c0.2,0,0.5,0,0.9-0.1c0.4,0,0.7-0.1,0.9-0.1c1.5,0,2.7,0.4,3.6,1.2C36.4,398.8,36.9,399.9,36.9,401.3z"/>
	<path class="st2" d="M52,399.1c0,2-0.7,3.7-2,5.2c-1.4,1.5-3,2.3-5,2.3s-3.7-0.8-5-2.3c-1.3-1.4-2-3.2-2-5.2c0-2,0.7-3.8,2-5.2
		c1.3-1.5,3-2.2,5-2.2s3.7,0.7,5,2.2C51.4,395.4,52,397.1,52,399.1z M47.7,399.1c0-0.8-0.2-1.5-0.7-2.1c-0.5-0.6-1.1-0.9-1.9-0.9
		c-0.8,0-1.5,0.3-1.9,0.9c-0.5,0.6-0.7,1.3-0.7,2.1c0,0.8,0.2,1.5,0.7,2.1c0.5,0.6,1.1,1,1.9,1c0.8,0,1.4-0.3,1.9-1
		C47.4,400.6,47.7,399.9,47.7,399.1z"/>
	<path class="st2" d="M63.9,405.9c0,0.2-0.1,0.3-0.4,0.3c-0.5,0.1-0.9,0.1-1.5,0.1c-0.5,0-1,0-1.4-0.1c-0.1,0-0.2-0.1-0.4-0.2
		c-0.4-0.5-1-1.4-1.7-2.4c-0.2,0.2-0.8,1-1.9,2.4c-0.1,0.1-0.2,0.2-0.4,0.3c-0.3,0.1-0.7,0.1-1.3,0.1c-1.2,0-1.9-0.1-1.9-0.4
		c0-0.2,0-0.6,0-1s0-0.8,0-1c0-0.1,0.1-0.3,0.2-0.4c0.6-0.6,1.5-1.6,2.7-2.9c-0.5-0.5-1.1-1-1.6-1.6c-0.9-0.9-1.3-1.4-1.3-1.5v-2.1
		c0-0.2,0.1-0.3,0.4-0.3c0.3,0,0.8,0,1.4,0s1.1,0,1.4,0c0.2,0,0.3,0.1,0.4,0.3c0.4,0.6,1,1.3,1.8,2.2c0.7-0.9,1.3-1.6,1.7-2.2
		c0.1-0.2,0.3-0.2,0.4-0.2c0.3,0,0.8,0,1.5,0s1.1,0,1.5,0c0.3,0,0.4,0.1,0.4,0.3v2.1c0,0.1-0.1,0.3-0.2,0.4
		c-0.6,0.6-1.5,1.5-2.6,2.7c0.6,0.6,1.5,1.6,2.6,2.8c0.1,0.1,0.2,0.3,0.2,0.4V405.9z"/>
	<path class="st2" d="M78.2,400.6c0,1.7-0.5,3.1-1.5,4.2c-1,1.1-2.3,1.7-4,1.7c-0.6,0-1.2-0.1-1.9-0.4s-1-0.4-0.9-0.4
		c-0.1,0-0.2,0.1-0.2,0.4c0,0.4,0,1,0.1,1.8s0.1,1.4,0.1,1.8c0,0.3-0.1,0.4-0.4,0.4l-2.4,0c-0.5,0-0.9,0-1-0.1
		c-0.2-0.1-0.4-0.2-0.4-0.4l0-9c0-1.8-0.1-3.4-0.4-4.6c0-0.1,0-0.1,0-0.2c0-0.1,0-0.2,0.1-0.2c0.3-0.1,0.9-0.2,1.7-0.4
		c0.8-0.1,1.4-0.2,1.8-0.2c0.3,0,0.5,0.2,0.5,0.6s0.1,0.6,0.2,0.6c-0.1,0,0.3-0.2,1-0.6s1.4-0.6,2-0.6c1.7,0,3.1,0.6,4.1,1.7
		C77.8,397.5,78.2,398.9,78.2,400.6z M73.9,400.6c0-0.6-0.2-1.2-0.6-1.6c-0.4-0.5-0.9-0.7-1.5-0.7c-0.6,0-1.1,0.2-1.5,0.7
		c-0.3,0.4-0.5,1-0.5,1.6c0,0.7,0.2,1.2,0.5,1.7c0.4,0.5,0.9,0.7,1.5,0.7C73.2,402.9,73.9,402.1,73.9,400.6z"/>
</g>
<g>
	<path class="st3" d="M-289.4,455.2c0,0.2-0.1,0.4-0.4,0.7c-2.2,2.6-5,3.8-8.6,3.8c-3.7,0-6.6-1.2-8.9-3.7c-2.2-2.4-3.3-5.5-3.3-9.1
		c0-3.6,1.1-6.6,3.3-9.1c2.3-2.6,5.1-3.9,8.6-3.9c3.8,0,6.8,1.2,8.9,3.5c0.2,0.3,0.4,0.5,0.4,0.7c0,0.2-0.4,1-1.2,2.5
		s-1.3,2.2-1.5,2.4c-0.1,0.1-0.2,0.1-0.4,0.1c-0.1,0-0.4-0.2-0.9-0.7c-0.6-0.6-1.3-1-1.9-1.3c-0.9-0.5-1.9-0.7-2.9-0.7
		c-1.7,0-3.1,0.6-4.1,1.9c-0.9,1.2-1.4,2.7-1.4,4.4c0,1.8,0.5,3.3,1.4,4.5c1,1.3,2.4,2,4.1,2c1,0,2-0.2,2.9-0.7
		c0.6-0.3,1.2-0.7,1.8-1.2c0.5-0.4,0.8-0.7,0.9-0.7c0.1,0,0.2,0.1,0.4,0.2c0.2,0.2,0.7,0.9,1.5,2.2
		C-289.8,454.4-289.4,455.1-289.4,455.2z"/>
	<path class="st3" d="M-269.9,450.4c0,0.9,0.1,2.2,0.2,4s0.2,3.1,0.2,4c0,0.5-0.2,0.7-0.6,0.8c-1.5,0.1-3.1,0.2-5,0.2
		c-0.2,0-0.4-0.3-0.4-1s-0.2-1-0.3-1c-0.1,0-0.2,0.1-0.4,0.3c-1.3,1.3-2.7,2-4.2,2c-2.3,0-4.2-0.9-5.7-2.7c-1.4-1.7-2.1-3.7-2.1-6
		c0-2.7,0.7-4.9,2.2-6.5c1.5-1.7,3.6-2.6,6.3-2.6c1.8,0,3.3,0.6,4.4,1.9c0,0.1,0.1,0.1,0.1,0.1c0.1,0,0.2-0.3,0.4-0.9
		s0.3-0.9,0.5-0.9c0.4,0,1.3,0.1,2.5,0.4c1.2,0.2,2,0.4,2.5,0.6c0.2,0.1,0.3,0.2,0.3,0.3c0,0,0,0.2-0.1,0.4
		C-269.7,445.8-269.9,448-269.9,450.4z M-275.6,450.5c0-1-0.3-1.8-0.9-2.5s-1.4-1-2.5-1s-1.8,0.3-2.4,1s-0.9,1.5-0.9,2.5
		c0,0.9,0.3,1.8,1,2.4s1.5,1,2.4,1c1,0,1.8-0.3,2.4-1S-275.6,451.5-275.6,450.5z"/>
	<path class="st3" d="M-254.8,448.2c0,0.5-0.3,0.7-0.8,0.7c-0.2,0-0.5,0-1,0s-0.7,0-1,0c-1,0-1.6,0.2-2,0.5s-0.5,0.9-0.5,1.8
		c0,0.5,0,1.3,0,2.3s0,1.8,0,2.3c0,0.3,0,0.8,0.1,1.5s0.1,1.2,0.1,1.5c0,0.3-0.2,0.4-0.6,0.5c-0.6,0-1.4,0.1-2.6,0.1
		c-1.1,0-2,0-2.7-0.1c-0.4,0-0.6-0.2-0.6-0.6c0-0.9,0-2.3,0-4.2s0-3.3,0-4.2c0-2.8-0.3-5-0.8-6.8c0-0.1,0-0.2,0-0.3
		c0-0.2,0.1-0.3,0.3-0.4c0.6-0.1,1.6-0.2,2.8-0.4c1.9-0.4,2.8-0.5,2.9-0.5c0.2,0,0.3,0.4,0.4,1.1s0.2,1.1,0.3,1.1
		c-0.2,0,0.3-0.3,1.4-0.9s2.2-0.9,3.3-0.9c0.7,0,1,0.1,1,0.4c0,0.3,0,0.8-0.1,1.4c-0.1,0.7-0.1,1.1-0.1,1.4c0,0.3,0,0.8,0,1.4
		C-254.8,447.5-254.8,448-254.8,448.2z"/>
	<path class="st3" d="M-236.6,449.6c0,1.2-0.4,1.9-1.1,2c-0.1,0-1.3,0.2-3.6,0.4c-1.4,0.2-3.4,0.3-6.2,0.5c0.2,0.8,0.7,1.3,1.5,1.7
		c0.7,0.3,1.5,0.5,2.3,0.5c1,0,2.1-0.3,3.1-0.8c0.4-0.3,0.9-0.6,1.3-0.8c0.2,0.1,0.7,0.7,1.2,1.8s0.9,1.8,0.9,2.1
		c0,0.1-0.1,0.2-0.3,0.4c-1.4,1.5-3.7,2.3-6.7,2.3c-2.8,0-5-0.8-6.8-2.4c-1.8-1.7-2.6-3.9-2.6-6.6c0-2.7,0.8-4.9,2.4-6.6
		c1.6-1.8,3.8-2.7,6.4-2.7c2.3,0,4.2,0.8,5.7,2.5S-236.6,447.4-236.6,449.6z M-242.8,448.6c0-0.7-0.3-1.4-0.8-1.9s-1.1-0.8-1.8-0.8
		c-0.7,0-1.3,0.3-1.8,0.9c-0.4,0.6-0.7,1.2-0.7,2c0,0.3,0.2,0.5,0.5,0.5c0.9,0,2.2-0.1,4-0.4C-242.9,448.8-242.8,448.7-242.8,448.6z
		"/>
	<path class="st3" d="M-218.6,449.6c0,1.2-0.4,1.9-1.1,2c-0.1,0-1.3,0.2-3.6,0.4c-1.4,0.2-3.4,0.3-6.2,0.5c0.2,0.8,0.7,1.3,1.5,1.7
		c0.7,0.3,1.5,0.5,2.3,0.5c1,0,2.1-0.3,3.1-0.8c0.4-0.3,0.9-0.6,1.3-0.8c0.2,0.1,0.7,0.7,1.2,1.8s0.9,1.8,0.9,2.1
		c0,0.1-0.1,0.2-0.3,0.4c-1.4,1.5-3.7,2.3-6.7,2.3c-2.8,0-5-0.8-6.8-2.4c-1.8-1.7-2.6-3.9-2.6-6.6c0-2.7,0.8-4.9,2.4-6.6
		c1.6-1.8,3.8-2.7,6.4-2.7c2.3,0,4.2,0.8,5.7,2.5S-218.6,447.4-218.6,449.6z M-224.7,448.6c0-0.7-0.3-1.4-0.8-1.9s-1.1-0.8-1.8-0.8
		c-0.7,0-1.3,0.3-1.8,0.9c-0.4,0.6-0.7,1.2-0.7,2c0,0.3,0.2,0.5,0.5,0.5c0.9,0,2.2-0.1,4-0.4C-224.9,448.8-224.7,448.7-224.7,448.6z
		"/>
	<path class="st3" d="M-205,448.2c0,0.5-0.3,0.7-0.8,0.7c-0.2,0-0.5,0-1,0s-0.7,0-1,0c-1,0-1.6,0.2-2,0.5s-0.5,0.9-0.5,1.8
		c0,0.5,0,1.3,0,2.3s0,1.8,0,2.3c0,0.3,0,0.8,0.1,1.5s0.1,1.2,0.1,1.5c0,0.3-0.2,0.4-0.6,0.5c-0.6,0-1.4,0.1-2.6,0.1
		c-1.1,0-2,0-2.7-0.1c-0.4,0-0.6-0.2-0.6-0.6c0-0.9,0-2.3,0-4.2s0-3.3,0-4.2c0-2.8-0.3-5-0.8-6.8c0-0.1,0-0.2,0-0.3
		c0-0.2,0.1-0.3,0.3-0.4c0.6-0.1,1.6-0.2,2.8-0.4c1.9-0.4,2.8-0.5,2.9-0.5c0.2,0,0.3,0.4,0.4,1.1s0.2,1.1,0.3,1.1
		c-0.2,0,0.3-0.3,1.4-0.9s2.2-0.9,3.3-0.9c0.7,0,1,0.1,1,0.4c0,0.3,0,0.8-0.1,1.4c-0.1,0.7-0.1,1.1-0.1,1.4c0,0.3,0,0.8,0,1.4
		C-205,447.5-205,448-205,448.2z"/>
	<path class="st3" d="M-192.6,445c0,0.1-0.1,0.3-0.3,0.5c-0.3-0.1-0.7-0.1-1-0.1c-0.7,0-1.3,0.2-1.7,0.5c-0.6,0.4-0.8,0.8-0.8,1.5
		c0,0.4,0.3,0.9,0.9,1.6c0.9,0.9,1.5,1.6,1.7,1.9c0.6,0.9,0.9,1.8,0.9,2.9c0,0.6-0.1,1.2-0.4,1.9c-0.3,0.7-0.6,1.3-1,1.6
		c-0.9,0.8-1.9,1.4-3,1.9c-1.3,0.5-2.4,0.8-3.5,0.8c-0.2,0-0.8-0.6-1.6-1.9s-1.2-2-1.2-2.3c0-0.1,0.1-0.2,0.2-0.2
		c0.8-0.2,1.6-0.3,2.5-0.5c1-0.3,1.5-0.9,1.5-1.6c0-0.5-0.3-1.1-0.9-1.8c-1.1-1.2-1.6-1.8-1.7-1.9c-0.6-0.8-0.9-1.7-0.9-2.7
		c0-1.8,0.9-3.3,2.7-4.5c1.6-1.1,3.3-1.6,5.1-1.6c0.2,0,0.7,0.6,1.4,1.9S-192.6,444.7-192.6,445z"/>
	<path class="st3" d="M-174.6,451.1c0,0.9,0,2.1,0.1,3.8s0.1,3,0.1,3.8c0,0.2-0.1,0.4-0.4,0.4c-0.4,0.1-1.3,0.1-2.7,0.1
		c-1.4,0-2.3,0-2.7-0.1c-0.3,0-0.4-0.1-0.5-0.2c0,0,0-0.2,0-0.5c0-0.8,0-2,0.1-3.6s0.1-2.8,0.1-3.7c0-3.3-0.1-6-0.4-7.9
		c0-0.2,0-0.3,0-0.4c0-0.2,0.2-0.4,0.5-0.4c0.3,0,0.8,0,1.5,0.1s1.2,0.1,1.5,0.1s0.8,0,1.5-0.1s1.2-0.1,1.5-0.1
		c0.3,0,0.4,0.1,0.4,0.4c0,0,0,0.2,0,0.3C-174.5,445.5-174.6,448.1-174.6,451.1z M-174.1,438.1c0,2-1.1,3.1-3.4,3.1
		c-1,0-1.8-0.3-2.4-0.8c-0.7-0.6-1.1-1.3-1.1-2.3c0-0.9,0.4-1.7,1.1-2.3c0.7-0.5,1.5-0.8,2.4-0.8c0.9,0,1.7,0.3,2.4,0.8
		C-174.5,436.4-174.1,437.1-174.1,438.1z"/>
	<path class="st3" d="M-153.7,458.7c0,0.3-0.2,0.5-0.5,0.5s-1.2,0.1-2.6,0.1c-1.5,0-2.4,0-2.7-0.1s-0.5-0.3-0.5-0.7
		c0-0.6,0-1.4,0.1-2.5s0.1-2,0.1-2.5c0-0.4,0-1.1,0-1.9s0-1.5,0-1.9c0-1.6-0.7-2.4-2.1-2.4c-0.5,0-1,0.2-1.6,0.6
		c-0.7,0.4-1,0.9-1,1.3v9.5c0,0.4-0.2,0.6-0.5,0.7c-0.4,0-1.2,0.1-2.5,0.1c-1.4,0-2.3,0-2.7-0.1c-0.4-0.1-0.5-0.3-0.5-0.6
		c0-0.9,0-2.3,0-4.1s0-3.2,0-4.1c0-2.9-0.2-5.2-0.7-6.9c0-0.1,0-0.2,0-0.3c0-0.2,0.1-0.3,0.3-0.4c0.7-0.1,1.7-0.2,3-0.4
		c1.9-0.4,2.9-0.5,3.1-0.5c0.1,0,0.2,0.4,0.3,1.2s0.2,1.2,0.3,1.2c-0.1,0,0.5-0.4,1.9-1.2s2.6-1.2,3.6-1.2c1.5,0,2.7,0.4,3.7,1.1
		c1.1,0.8,1.7,1.9,1.7,3.4v5.6c0,0.8,0,1.9,0,3.4S-153.7,457.9-153.7,458.7z"/>
	<path class="st3" d="M-126.3,453.2c0,2.2-0.9,3.8-2.7,5c-1.5,1-3.4,1.5-5.7,1.5c-1.8,0-3.2-0.1-4.3-0.4c-2.5-0.5-3.7-1-3.7-1.4
		c0-0.1,0-0.2,0.1-0.3c0.2-0.4,0.4-1.1,0.7-2c0.1-0.4,0.3-1.1,0.5-1.9c0.1-0.3,0.3-0.4,0.5-0.4c0,0,0.5,0.2,1.6,0.6s2,0.6,2.7,0.6
		c2.3,0,3.4-0.8,3.4-2.3c0-1.2-1.1-1.8-3.3-1.8c-0.3,0-0.7,0-1.2,0s-0.8,0-0.9,0c-0.7,0-1.1,0-1.2,0c-0.5-0.1-0.8-0.3-0.8-0.6
		c0-1.8,0.1-2.9,0.2-3.4c0.1-0.3,0.3-0.4,0.6-0.4c0.4,0,1,0,1.8,0.1s1.4,0.1,1.7,0.1c0.5,0,0.9-0.2,1.3-0.5s0.5-0.8,0.5-1.3
		c0-1.4-1-2.1-3-2.1c-0.8,0-2,0.2-3.4,0.7c-0.1,0-0.1,0-0.2,0c-0.2,0-0.3-0.2-0.4-0.5c0-0.5-0.1-1.1-0.1-1.7c0-0.1,0-0.4-0.1-0.8
		c0-0.3-0.1-0.6-0.1-0.8c0-0.6,1-1.1,2.9-1.4c1.3-0.2,2.6-0.4,3.8-0.4c2,0,3.7,0.4,5.2,1.3c1.8,1.1,2.7,2.5,2.7,4.4
		c0,2.1-1,3.8-2.9,4.9c1.1,0.4,2.1,1,2.7,2S-126.3,452-126.3,453.2z"/>
	<path class="st3" d="M-101.2,446.7c0,3.4-1.1,6.4-3.3,9c-2,2.3-4.7,3.5-8.2,3.6c-0.7,0-2.5,0-5.6,0c-0.6,0-1.4,0-2.6-0.1
		s-2-0.1-2.6-0.1c-0.3,0-0.5-0.1-0.5-0.4c0-1.3,0-3.2,0.1-5.8s0.1-4.5,0.1-5.8c0-1.3,0-3.4-0.1-6.1s-0.1-4.7-0.1-6
		c0-0.2,0.2-0.4,0.5-0.4c0.8-0.1,2.2-0.1,4.1-0.1c3.6,0,5.9,0.1,7,0.2c2.8,0.3,5,1,6.5,2.1c1.5,1.1,2.6,2.5,3.5,4.4
		C-101.6,443-101.2,444.8-101.2,446.7z M-107.9,446.7c0-2-0.6-3.6-1.8-4.9c-1.2-1.3-2.8-2-4.7-2c-1.8,0-2.7,0.2-2.7,0.7
		c0,0.7,0,1.7,0,3.1s0,2.4,0,3.1c0,0.7,0,1.7,0,3.1s0,2.4,0,3.1c0,0.5,0.9,0.8,2.8,0.8c2,0,3.6-0.7,4.8-2
		C-108.5,450.5-107.9,448.8-107.9,446.7z"/>
</g>
</svg>
