<?xml version="1.0" encoding="utf-8"?>
<!-- Generator: Adobe Illustrator 19.0.0, SVG Export Plug-In . SVG Version: 6.00 Build 0)  -->
<svg version="1.1" id="Layer_1" xmlns="http://www.w3.org/2000/svg" xmlns:xlink="http://www.w3.org/1999/xlink" x="0px" y="0px"
	 viewBox="-497 346.3 604.6 159.7" style="enable-background:new -497 346.3 604.6 159.7;" xml:space="preserve">
<style type="text/css">
	.st0{opacity:0.6;fill:url(#SVGID_1_);stroke:#EAA50C;stroke-miterlimit:10;enable-background:new    ;}
	.st1{fill:none;stroke:#00AF1D;stroke-width:18.9435;stroke-miterlimit:10;}
	.st2{fill:#F7F7F7;}
	.st3{fill:#FFFFFF;}
</style>
<linearGradient id="SVGID_1_" gradientUnits="userSpaceOnUse" x1="-482.6" y1="425.65" x2="103.2" y2="425.65" gradientTransform="matrix(1 0 0 -1 0 854.6)">
	<stop  offset="0.2863" style="stop-color:#80C342"/>
	<stop  offset="0.9949" style="stop-color:#2DB34A"/>
	<stop  offset="1" style="stop-color:#299546"/>
</linearGradient>
<path class="st0" d="M103.2,408.8c0-27.8-22.5-50.3-50.3-50.3S2.6,381,2.6,408.8c0,0.3,0,0.5,0,0.8h-440.3
	c-24.8,0-44.9,20.1-44.9,44.9s20.1,44.9,44.9,44.9H15.4c23.4,0,42.6-17.9,44.7-40.7C84.5,455.1,103.2,434.1,103.2,408.8z"/>
<path class="st1" d="M100.2,407.3c0-27.8-22.5-50.3-50.3-50.3s-50.3,22.5-50.3,50.3c0,0.3,0,0.5,0,0.8h-440.3
	c-24.8,0-44.9,20.1-44.9,44.9s20.1,44.9,44.9,44.9H12.4c23.4,0,42.6-17.9,44.7-40.7C81.5,453.6,100.2,432.6,100.2,407.3z"/>
<g>
	<path class="st2" d="M25.5,402.1c-0.4,0-0.9,0-1.7,0c-0.8,0-1.4,0-1.7,0c0,0.3,0,0.9,0.1,1.8c0,0.7,0,1.3,0,1.8
		c0,0.3-0.6,0.5-1.8,0.5c-1.1,0-1.7-0.1-1.7-0.3c0-0.5,0-1.1,0-1.9c0-1.1,0-1.7,0-1.9c-2,0.1-3.1,0.1-3.2,0.1
		c-0.1,0-0.2-0.1-0.2-0.4c0-0.1,0-0.5,0.1-1.3c0-0.5,0-0.9,0-1.4c0.1-0.1,0.2-0.2,0.3-0.2c0.4,0,0.9,0,1.5,0c0.8,0,1.3,0,1.5,0
		c0-0.7,0-1.4,0-2.2v-1.4c0-0.1,0.1-0.2,0.3-0.2c0.3,0,0.7,0,1.3,0s1,0,1.3,0c0.4,0,0.6,0.1,0.6,0.2c0,0.4,0,1,0,1.8s0,1.4,0,1.8
		c1.7,0,2.8,0,3.4,0c0.2,0,0.2,0.1,0.2,0.2s0,0.6-0.1,1.4c0,0.3,0,0.8-0.1,1.5C25.6,402,25.5,402.1,25.5,402.1z"/>
	<path class="st2" d="M37.9,402.6c0,3.5-2.2,5.2-6.5,5.2c-0.6,0-1.5-0.1-2.5-0.2c-1.4-0.2-2.1-0.4-2.1-0.6c0-0.1,0-0.4,0-1
		c0-0.3,0-0.8,0.1-1.3c0.1-0.7,0.2-1.1,0.4-1.1c0,0,0.1,0,0.2,0.1c0.9,0.5,2,0.7,3.2,0.7c1.7,0,2.6-0.6,2.6-1.7
		c0-0.6-0.3-1.1-0.9-1.4c-0.5-0.3-1.1-0.4-1.8-0.4c-0.3,0-0.7,0-1.3,0.1s-1,0.1-1.3,0.1s-0.4-0.1-0.4-0.4c0-0.8,0-1.9,0.1-3.4
		s0.1-2.7,0.1-3.4c0-0.1,0.1-0.3,0.2-0.5s0.2-0.3,0.4-0.3c0.2,0,1.3,0,3.3,0c2.3,0,3.8,0,4.6,0c0.2,0,0.3,0.1,0.3,0.3
		c0,0.4,0,1.1-0.1,1.8c-0.1,1-0.3,1.5-0.4,1.5H36c-1.8-0.2-2.9-0.2-3.3-0.2c-0.9,0-1.3,0-1.4,0.1c-0.1,0.2-0.2,0.7-0.2,1.3
		c0,0.1,0,0.2,0.1,0.2c0.2,0,0.5,0,0.9-0.1c0.4,0,0.7-0.1,0.9-0.1c1.5,0,2.7,0.4,3.6,1.2C37.4,400.1,37.9,401.2,37.9,402.6z"/>
	<path class="st2" d="M53,400.4c0,2-0.7,3.7-2,5.2c-1.4,1.5-3,2.3-5,2.3s-3.7-0.8-5-2.3c-1.3-1.4-2-3.2-2-5.2s0.7-3.8,2-5.2
		c1.3-1.5,3-2.2,5-2.2s3.7,0.7,5,2.2C52.4,396.7,53,398.4,53,400.4z M48.7,400.4c0-0.8-0.2-1.5-0.7-2.1s-1.1-0.9-1.9-0.9
		c-0.8,0-1.5,0.3-1.9,0.9c-0.5,0.6-0.7,1.3-0.7,2.1c0,0.8,0.2,1.5,0.7,2.1s1.1,1,1.9,1c0.8,0,1.4-0.3,1.9-1
		C48.4,401.9,48.7,401.2,48.7,400.4z"/>
	<path class="st2" d="M64.9,407.2c0,0.2-0.1,0.3-0.4,0.3c-0.5,0.1-0.9,0.1-1.5,0.1c-0.5,0-1,0-1.4-0.1c-0.1,0-0.2-0.1-0.4-0.2
		c-0.4-0.5-1-1.4-1.7-2.4c-0.2,0.2-0.8,1-1.9,2.4c-0.1,0.1-0.2,0.2-0.4,0.3c-0.3,0.1-0.7,0.1-1.3,0.1c-1.2,0-1.9-0.1-1.9-0.4
		c0-0.2,0-0.6,0-1s0-0.8,0-1c0-0.1,0.1-0.3,0.2-0.4c0.6-0.6,1.5-1.6,2.7-2.9c-0.5-0.5-1.1-1-1.6-1.6c-0.9-0.9-1.3-1.4-1.3-1.5v-2.1
		c0-0.2,0.1-0.3,0.4-0.3c0.3,0,0.8,0,1.4,0s1.1,0,1.4,0c0.2,0,0.3,0.1,0.4,0.3c0.4,0.6,1,1.3,1.8,2.2c0.7-0.9,1.3-1.6,1.7-2.2
		c0.1-0.2,0.3-0.2,0.4-0.2c0.3,0,0.8,0,1.5,0s1.1,0,1.5,0c0.3,0,0.4,0.1,0.4,0.3v2.1c0,0.1-0.1,0.3-0.2,0.4
		c-0.6,0.6-1.5,1.5-2.6,2.7c0.6,0.6,1.5,1.6,2.6,2.8c0.1,0.1,0.2,0.3,0.2,0.4C64.9,405.3,64.9,407.2,64.9,407.2z"/>
	<path class="st2" d="M79.2,401.9c0,1.7-0.5,3.1-1.5,4.2s-2.3,1.7-4,1.7c-0.6,0-1.2-0.1-1.9-0.4s-1-0.4-0.9-0.4
		c-0.1,0-0.2,0.1-0.2,0.4c0,0.4,0,1,0.1,1.8s0.1,1.4,0.1,1.8c0,0.3-0.1,0.4-0.4,0.4h-2.4c-0.5,0-0.9,0-1-0.1
		c-0.2-0.1-0.4-0.2-0.4-0.4v-9c0-1.8-0.1-3.4-0.4-4.6c0-0.1,0-0.1,0-0.2s0-0.2,0.1-0.2c0.3-0.1,0.9-0.2,1.7-0.4
		c0.8-0.1,1.4-0.2,1.8-0.2c0.3,0,0.5,0.2,0.5,0.6s0.1,0.6,0.2,0.6c-0.1,0,0.3-0.2,1-0.6s1.4-0.6,2-0.6c1.7,0,3.1,0.6,4.1,1.7
		C78.8,398.8,79.2,400.2,79.2,401.9z M74.9,401.9c0-0.6-0.2-1.2-0.6-1.6c-0.4-0.5-0.9-0.7-1.5-0.7s-1.1,0.2-1.5,0.7
		c-0.3,0.4-0.5,1-0.5,1.6c0,0.7,0.2,1.2,0.5,1.7c0.4,0.5,0.9,0.7,1.5,0.7C74.2,404.2,74.9,403.4,74.9,401.9z"/>
</g>
<g>
	<path class="st3" d="M-247.6,454.1c0,2.2-0.7,3.9-2,5.4c-1.5,1.6-4.2,2.4-8.1,2.4c-0.3,0-0.7,0-1.3,0c-0.6,0-1,0-1.2,0
		c-4.3,0-6.9-0.1-7.7-0.3c-0.3-0.1-0.5-0.3-0.5-0.5c0-1.3,0.1-3.2,0.2-5.7s0.2-4.4,0.2-5.7c0-1.4-0.1-3.9-0.2-7.7
		c0-1-0.1-2.4-0.2-4.3l0-0.2c0-0.2,0.2-0.4,0.6-0.4s1.7-0.1,4.1-0.1c3.7,0,5.9,0,6.6,0c2.9,0.1,5,0.6,6.4,1.4c1.8,1.1,2.7,3,2.7,5.6
		c0,0.7-0.2,1.4-0.6,2.2c-0.3,0.6-0.7,1.1-1.2,1.7c-0.4,0.5-0.7,0.7-0.7,0.7c0,0.1,0.2,0.2,0.5,0.4c0.8,0.5,1.5,1.2,1.9,2.2
		C-247.8,452.1-247.6,453.1-247.6,454.1z M-255.2,444.2c0-1-0.5-1.7-1.5-2c-0.6-0.2-1.5-0.3-2.8-0.3c-1.3,0-1.9,0.1-1.9,0.3
		c0,0.2,0,0.6-0.1,1s-0.1,0.8-0.1,1c0,1.2,0.1,1.8,0.3,2c0.1,0.1,0.9,0.2,2.2,0.2C-256.4,446.4-255.2,445.6-255.2,444.2z
		 M-254.6,454c0-1.1-0.4-1.8-1.3-2.1c-0.6-0.2-1.5-0.4-2.7-0.4c-1.5,0-2.3,0.1-2.5,0.2s-0.2,0.8-0.2,2.2c0,1.4,0.1,2.1,0.2,2.3
		s1,0.2,2.5,0.2c1.3,0,2.2-0.1,2.7-0.3C-255.1,455.7-254.6,455-254.6,454z"/>
	<path class="st3" d="M-239.1,451.1c0,3.2,0,5.7,0,7.4c0,0.3,0,0.7,0.1,1.4c0,0.6,0.1,1.1,0.1,1.4c0,0.2-0.1,0.4-0.4,0.4
		c-0.5,0.1-1.5,0.1-2.8,0.1c-1.4,0-2.3,0-2.7-0.1c-0.3-0.1-0.4-0.2-0.4-0.5c0,0,0-0.3,0-0.8c0-1,0-2.6,0-4.7s0-3.6,0-4.7
		c0-4.9,0-7.2,0-6.7c0-2.6-0.2-4.8-0.4-6.7c0-0.1,0-0.2,0-0.3c0-0.3,0.2-0.4,0.5-0.4h6.3c0.3,0,0.4,0.1,0.4,0.4l0,0.3
		C-238.9,442.7-239.1,447.2-239.1,451.1z"/>
	<path class="st3" d="M-219.8,452.1c0,1.2-0.4,1.9-1.1,2c-0.1,0-1.3,0.2-3.6,0.4c-1.4,0.2-3.4,0.3-6.2,0.5c0.2,0.8,0.7,1.3,1.5,1.7
		c0.7,0.3,1.5,0.5,2.3,0.5c1,0,2.1-0.3,3.1-0.8c0.4-0.3,0.9-0.6,1.3-0.8c0.2,0.1,0.7,0.7,1.2,1.8s0.9,1.8,0.9,2.1
		c0,0.1-0.1,0.2-0.3,0.4c-1.4,1.5-3.7,2.3-6.7,2.3c-2.8,0-5-0.8-6.8-2.4c-1.8-1.7-2.6-3.9-2.6-6.6c0-2.7,0.8-4.9,2.4-6.6
		c1.6-1.8,3.8-2.7,6.4-2.7c2.3,0,4.2,0.8,5.7,2.5S-219.8,449.9-219.8,452.1z M-225.9,451.1c0-0.7-0.3-1.4-0.8-1.9s-1.1-0.8-1.8-0.8
		c-0.7,0-1.3,0.3-1.8,0.9c-0.4,0.6-0.7,1.2-0.7,2c0,0.3,0.2,0.5,0.5,0.5c0.9,0,2.2-0.1,4-0.4C-226.1,451.3-225.9,451.2-225.9,451.1z
		"/>
	<path class="st3" d="M-200.4,461.2c0,0.3-0.2,0.5-0.5,0.5s-1.2,0.1-2.6,0.1c-1.5,0-2.4,0-2.7-0.1s-0.5-0.3-0.5-0.7
		c0-0.6,0-1.4,0.1-2.5s0.1-2,0.1-2.5c0-0.4,0-1.1,0-1.9s0-1.5,0-1.9c0-1.6-0.7-2.4-2.1-2.4c-0.5,0-1,0.2-1.6,0.6
		c-0.7,0.4-1,0.9-1,1.3v9.5c0,0.4-0.2,0.6-0.5,0.7c-0.4,0-1.2,0.1-2.5,0.1c-1.4,0-2.3,0-2.7-0.1c-0.4-0.1-0.5-0.3-0.5-0.6
		c0-0.9,0-2.3,0-4.1s0-3.2,0-4.1c0-2.9-0.2-5.2-0.7-6.9c0-0.1,0-0.2,0-0.3c0-0.2,0.1-0.3,0.3-0.4c0.7-0.1,1.7-0.2,3-0.4
		c1.9-0.4,2.9-0.5,3.1-0.5c0.1,0,0.2,0.4,0.3,1.2s0.2,1.2,0.3,1.2c-0.1,0,0.5-0.4,1.9-1.2s2.6-1.2,3.6-1.2c1.5,0,2.7,0.4,3.7,1.1
		c1.1,0.8,1.7,1.9,1.7,3.4v5.6c0,0.8,0,1.9,0,3.4S-200.4,460.4-200.4,461.2z"/>
	<path class="st3" d="M-178.8,436.7c0-0.3,0,0.1-0.1,1.2c-0.1,1.3-0.2,3-0.3,5c-0.1,2.3-0.1,4.9-0.1,7.8c0,4.8,0.1,8.3,0.4,10.3
		c0,0.2,0,0.4,0,0.4c0,0.1-0.1,0.2-0.3,0.2c-0.4,0.1-2,0.1-4.7,0.1c-0.6,0-1-0.1-1.1-0.4c0-0.4,0-0.9-0.1-1.3c0-0.1-0.1-0.2-0.1-0.3
		c-0.1,0-0.2,0.1-0.3,0.2c-1.3,1.2-2.8,1.9-4.7,1.9c-2.5,0-4.5-0.9-5.9-2.6c-1.4-1.7-2.1-3.7-2.1-6.3c0-2.6,0.7-4.7,2.1-6.3
		c1.5-1.8,3.5-2.6,6-2.6c1.8,0,3.1,0.6,4.1,1.7c0.2,0.2,0.3,0.3,0.4,0.3c0.1,0,0.2-0.2,0.2-0.5c0-0.9,0-2.3-0.1-4s-0.1-3.1-0.1-4
		c0-0.3,0.1-0.5,0.3-0.6c0.8,0,1.8-0.1,3.1-0.2c2.3-0.3,3.4-0.4,3.1-0.4C-178.9,436.3-178.8,436.4-178.8,436.7z M-185.4,452.9
		c0-0.9-0.3-1.7-1-2.4s-1.4-1-2.3-1c-1,0-1.7,0.3-2.3,1s-0.9,1.5-0.9,2.5c0,0.9,0.3,1.8,0.9,2.4c0.6,0.7,1.3,1.1,2.3,1.1
		s1.7-0.4,2.4-1.1S-185.4,453.8-185.4,452.9z"/>
	<path class="st3" d="M-160.1,452.1c0,1.2-0.4,1.9-1.1,2c-0.1,0-1.3,0.2-3.6,0.4c-1.4,0.2-3.4,0.3-6.2,0.5c0.2,0.8,0.7,1.3,1.5,1.7
		c0.7,0.3,1.5,0.5,2.3,0.5c1,0,2.1-0.3,3.1-0.8c0.4-0.3,0.9-0.6,1.3-0.8c0.2,0.1,0.7,0.7,1.2,1.8s0.9,1.8,0.9,2.1
		c0,0.1-0.1,0.2-0.3,0.4c-1.4,1.5-3.7,2.3-6.7,2.3c-2.8,0-5-0.8-6.8-2.4c-1.8-1.7-2.6-3.9-2.6-6.6c0-2.7,0.8-4.9,2.4-6.6
		c1.6-1.8,3.8-2.7,6.4-2.7c2.3,0,4.2,0.8,5.7,2.5S-160.1,449.9-160.1,452.1z M-166.3,451.1c0-0.7-0.3-1.4-0.8-1.9s-1.1-0.8-1.8-0.8
		c-0.7,0-1.3,0.3-1.8,0.9c-0.4,0.6-0.7,1.2-0.7,2c0,0.3,0.2,0.5,0.5,0.5c0.9,0,2.2-0.1,4-0.4C-166.4,451.3-166.3,451.2-166.3,451.1z
		"/>
	<path class="st3" d="M-146.5,450.7c0,0.5-0.3,0.7-0.8,0.7c-0.2,0-0.5,0-1,0s-0.7,0-1,0c-1,0-1.6,0.2-2,0.5s-0.5,0.9-0.5,1.8
		c0,0.5,0,1.3,0,2.3s0,1.8,0,2.3c0,0.3,0,0.8,0.1,1.5s0.1,1.2,0.1,1.5c0,0.3-0.2,0.4-0.6,0.5c-0.6,0-1.4,0.1-2.6,0.1
		c-1.1,0-2,0-2.7-0.1c-0.4,0-0.6-0.2-0.6-0.6c0-0.9,0-2.3,0-4.2s0-3.3,0-4.2c0-2.8-0.3-5-0.8-6.8c0-0.1,0-0.2,0-0.3
		c0-0.2,0.1-0.3,0.3-0.4c0.6-0.1,1.6-0.2,2.8-0.4c1.9-0.4,2.8-0.5,2.9-0.5c0.2,0,0.3,0.4,0.4,1.1s0.2,1.1,0.3,1.1
		c-0.2,0,0.3-0.3,1.4-0.9s2.2-0.9,3.3-0.9c0.7,0,1,0.1,1,0.4c0,0.3,0,0.8-0.1,1.4c-0.1,0.7-0.1,1.1-0.1,1.4c0,0.3,0,0.8,0,1.4
		C-146.5,450-146.5,450.5-146.5,450.7z"/>
</g>
</svg>
