<?xml version="1.0" encoding="utf-8"?>
<!-- Generator: Adobe Illustrator 19.0.0, SVG Export Plug-In . SVG Version: 6.00 Build 0)  -->
<svg version="1.1" id="Layer_1" xmlns="http://www.w3.org/2000/svg" xmlns:xlink="http://www.w3.org/1999/xlink" x="0px" y="0px"
	 viewBox="-497 346.3 604.6 159.7" style="enable-background:new -497 346.3 604.6 159.7;" xml:space="preserve">
<style type="text/css">
	.st0{opacity:0.6;fill:url(#SVGID_1_);enable-background:new    ;}
	.st1{fill:none;stroke:#00AEEF;stroke-width:18.9435;stroke-miterlimit:10;}
	.st2{fill:#F7F7F7;}
	.st3{fill:#FFFFFF;}
</style>
<linearGradient id="SVGID_1_" gradientUnits="userSpaceOnUse" x1="-486.2666" y1="421.8167" x2="99.5333" y2="421.8167" gradientTransform="matrix(1 0 0 1 0 4.6)">
	<stop  offset="0" style="stop-color:#00B2ED"/>
	<stop  offset="0.9949" style="stop-color:#1D71B8"/>
</linearGradient>
<path class="st0" d="M99.5,406.3c0-27.8-22.5-50.3-50.3-50.3s-50.3,22.5-50.3,50.3c0,0.3,0,0.5,0,0.8h-440.3
	c-24.8,0-44.9,20.1-44.9,44.9s20.1,44.9,44.9,44.9H11.7c23.4,0,42.6-17.9,44.7-40.7C80.8,452.6,99.5,431.6,99.5,406.3z"/>
<path class="st1" d="M99.5,406.3c0-27.8-22.5-50.3-50.3-50.3s-50.3,22.5-50.3,50.3c0,0.3,0,0.5,0,0.8h-440.3
	c-24.8,0-44.9,20.1-44.9,44.9s20.1,44.9,44.9,44.9H11.7c23.4,0,42.6-17.9,44.7-40.7C80.8,452.6,99.5,431.6,99.5,406.3z"/>
<g>
	<path class="st2" d="M25.8,401.1c-0.4,0-0.9,0-1.7,0c-0.8,0-1.4,0-1.7,0c0,0.3,0,0.9,0.1,1.8c0,0.7,0,1.3,0,1.8
		c0,0.3-0.6,0.5-1.8,0.5c-1.1,0-1.7-0.1-1.7-0.3c0-0.5,0-1.1,0-1.9c0-1.1,0-1.7,0-1.9c-2,0.1-3.1,0.1-3.2,0.1
		c-0.1,0-0.2-0.1-0.2-0.4c0-0.1,0-0.5,0.1-1.3c0-0.5,0-0.9,0-1.4c0.1-0.1,0.2-0.2,0.3-0.2c0.4,0,0.9,0,1.5,0c0.8,0,1.3,0,1.5,0
		c0-0.7,0-1.4,0-2.2v-1.4c0-0.1,0.1-0.2,0.3-0.2c0.3,0,0.7,0,1.3,0s1,0,1.3,0c0.4,0,0.6,0.1,0.6,0.2c0,0.4,0,1,0,1.8s0,1.4,0,1.8
		c1.7,0,2.8,0,3.4,0c0.2,0,0.2,0.1,0.2,0.2s0,0.6-0.1,1.4c0,0.3,0,0.8-0.1,1.5C25.9,401,25.8,401.1,25.8,401.1z"/>
	<path class="st2" d="M38.2,401.6c0,3.5-2.2,5.2-6.5,5.2c-0.6,0-1.5-0.1-2.5-0.2c-1.4-0.2-2.1-0.4-2.1-0.6c0-0.1,0-0.4,0-1
		c0-0.3,0-0.8,0.1-1.3c0.1-0.7,0.2-1.1,0.4-1.1c0,0,0.1,0,0.2,0.1c0.9,0.5,2,0.7,3.2,0.7c1.7,0,2.6-0.6,2.6-1.7
		c0-0.6-0.3-1.1-0.9-1.4c-0.5-0.3-1.1-0.4-1.8-0.4c-0.3,0-0.7,0-1.3,0.1s-1,0.1-1.3,0.1s-0.4-0.1-0.4-0.4c0-0.8,0-1.9,0.1-3.4
		s0.1-2.7,0.1-3.4c0-0.1,0.1-0.3,0.2-0.5s0.2-0.3,0.4-0.3c0.2,0,1.3,0,3.3,0c2.3,0,3.8,0,4.6,0c0.2,0,0.3,0.1,0.3,0.3
		c0,0.4,0,1.1-0.1,1.8c-0.1,1-0.3,1.5-0.4,1.5h-0.1c-1.8-0.2-2.9-0.2-3.3-0.2c-0.9,0-1.3,0-1.4,0.1c-0.1,0.2-0.2,0.7-0.2,1.3
		c0,0.1,0,0.2,0.1,0.2c0.2,0,0.5,0,0.9-0.1c0.4,0,0.7-0.1,0.9-0.1c1.5,0,2.7,0.4,3.6,1.2C37.7,399.1,38.2,400.2,38.2,401.6z"/>
	<path class="st2" d="M53.3,399.4c0,2-0.7,3.7-2,5.2c-1.4,1.5-3,2.3-5,2.3s-3.7-0.8-5-2.3c-1.3-1.4-2-3.2-2-5.2s0.7-3.8,2-5.2
		c1.3-1.5,3-2.2,5-2.2s3.7,0.7,5,2.2C52.7,395.7,53.3,397.4,53.3,399.4z M49,399.4c0-0.8-0.2-1.5-0.7-2.1s-1.1-0.9-1.9-0.9
		c-0.8,0-1.5,0.3-1.9,0.9c-0.5,0.6-0.7,1.3-0.7,2.1c0,0.8,0.2,1.5,0.7,2.1s1.1,1,1.9,1c0.8,0,1.4-0.3,1.9-1
		C48.7,400.9,49,400.2,49,399.4z"/>
	<path class="st2" d="M65.2,406.2c0,0.2-0.1,0.3-0.4,0.3c-0.5,0.1-0.9,0.1-1.5,0.1c-0.5,0-1,0-1.4-0.1c-0.1,0-0.2-0.1-0.4-0.2
		c-0.4-0.5-1-1.4-1.7-2.4c-0.2,0.2-0.8,1-1.9,2.4c-0.1,0.1-0.2,0.2-0.4,0.3c-0.3,0.1-0.7,0.1-1.3,0.1c-1.2,0-1.9-0.1-1.9-0.4
		c0-0.2,0-0.6,0-1s0-0.8,0-1c0-0.1,0.1-0.3,0.2-0.4c0.6-0.6,1.5-1.6,2.7-2.9c-0.5-0.5-1.1-1-1.6-1.6c-0.9-0.9-1.3-1.4-1.3-1.5v-2.1
		c0-0.2,0.1-0.3,0.4-0.3c0.3,0,0.8,0,1.4,0s1.1,0,1.4,0c0.2,0,0.3,0.1,0.4,0.3c0.4,0.6,1,1.3,1.8,2.2c0.7-0.9,1.3-1.6,1.7-2.2
		c0.1-0.2,0.3-0.2,0.4-0.2c0.3,0,0.8,0,1.5,0c0.7,0,1.1,0,1.5,0c0.3,0,0.4,0.1,0.4,0.3v2.1c0,0.1-0.1,0.3-0.2,0.4
		c-0.6,0.6-1.5,1.5-2.6,2.7c0.6,0.6,1.5,1.6,2.6,2.8c0.1,0.1,0.2,0.3,0.2,0.4C65.2,404.3,65.2,406.2,65.2,406.2z"/>
	<path class="st2" d="M79.5,400.9c0,1.7-0.5,3.1-1.5,4.2s-2.3,1.7-4,1.7c-0.6,0-1.2-0.1-1.9-0.4s-1-0.4-0.9-0.4
		c-0.1,0-0.2,0.1-0.2,0.4c0,0.4,0,1,0.1,1.8s0.1,1.4,0.1,1.8c0,0.3-0.1,0.4-0.4,0.4h-2.4c-0.5,0-0.9,0-1-0.1
		c-0.2-0.1-0.4-0.2-0.4-0.4v-9c0-1.8-0.1-3.4-0.4-4.6c0-0.1,0-0.1,0-0.2s0-0.2,0.1-0.2c0.3-0.1,0.9-0.2,1.7-0.4
		c0.8-0.1,1.4-0.2,1.8-0.2c0.3,0,0.5,0.2,0.5,0.6s0.1,0.6,0.2,0.6c-0.1,0,0.3-0.2,1-0.6s1.4-0.6,2-0.6c1.7,0,3.1,0.6,4.1,1.7
		C79.1,397.8,79.5,399.2,79.5,400.9z M75.2,400.9c0-0.6-0.2-1.2-0.6-1.6c-0.4-0.5-0.9-0.7-1.5-0.7s-1.1,0.2-1.5,0.7
		c-0.3,0.4-0.5,1-0.5,1.6c0,0.7,0.2,1.2,0.5,1.7c0.4,0.5,0.9,0.7,1.5,0.7C74.5,403.2,75.2,402.4,75.2,400.9z"/>
</g>
<g>
	<path class="st3" d="M-339.7,453c0,2.4-1,4.4-3,6.1c-1.8,1.5-3.9,2.5-6.4,2.9c-0.1,0-0.2,0-0.2,0c-0.3,0-0.9-0.8-1.8-2.5
		s-1.4-2.7-1.4-3c0-0.1,0.1-0.2,0.3-0.2c1.7-0.4,2.8-0.7,3.4-1c1.2-0.6,1.8-1.5,1.8-2.7c0-0.8-0.4-1.6-1.2-2.5
		c-1.4-1.6-2.1-2.5-2.3-2.7c-0.8-1.2-1.2-2.6-1.2-4c0-2.1,1-3.9,3-5.3c1.6-1.2,3.6-1.9,6-2.3c0.1,0,0.2,0,0.3,0
		c0.2,0,0.3,0.1,0.4,0.4c0.3,0.9,1,2.4,2.1,4.6c0,0.1,0.1,0.1,0.1,0.2c0,0.2-0.1,0.3-0.3,0.3c-0.1,0-0.3,0-0.5-0.1s-0.4-0.1-0.5-0.1
		c-0.8,0-1.6,0.2-2.2,0.6c-0.8,0.4-1.1,1.1-1.1,1.9c0,0.7,0.4,1.6,1.3,2.6c1.5,1.9,2.3,2.9,2.3,3
		C-340.1,450.4-339.7,451.7-339.7,453z"/>
	<path class="st3" d="M-317.5,452.6c0,2.5-0.7,4.6-2.2,6.2c-1.5,1.7-3.5,2.6-6,2.6c-0.9,0-1.9-0.2-2.9-0.7s-1.5-0.7-1.4-0.7
		c-0.2,0-0.2,0.2-0.2,0.5c0,0.6,0,1.5,0.1,2.7s0.1,2.1,0.1,2.7c0,0.4-0.2,0.6-0.6,0.6l-3.6,0c-0.8,0-1.3,0-1.6-0.1
		c-0.4-0.1-0.5-0.3-0.5-0.7l0-13.5c0-2.7-0.2-5-0.6-6.9c0-0.1,0-0.2,0-0.3c0-0.2,0.1-0.3,0.2-0.4c0.5-0.2,1.3-0.4,2.6-0.6
		c1.3-0.2,2.2-0.3,2.7-0.3c0.5,0,0.7,0.3,0.8,0.9s0.1,0.9,0.2,0.9c-0.1,0,0.4-0.3,1.5-1s2.1-1,3-1c2.5,0,4.6,0.8,6.1,2.5
		C-318.3,447.9-317.5,450-317.5,452.6z M-324.1,452.6c0-0.9-0.3-1.8-0.9-2.5c-0.6-0.7-1.4-1.1-2.3-1.1c-0.9,0-1.7,0.4-2.3,1.1
		c-0.5,0.7-0.7,1.5-0.7,2.5c0,1,0.3,1.8,0.8,2.5c0.6,0.7,1.3,1.1,2.3,1.1C-325.1,456.1-324.1,454.9-324.1,452.6z"/>
	<path class="st3" d="M-299.2,451.5c0,1.2-0.4,1.9-1.1,2c-0.1,0-1.3,0.2-3.6,0.4c-1.4,0.2-3.4,0.3-6.2,0.5c0.2,0.8,0.7,1.3,1.5,1.7
		c0.7,0.3,1.5,0.5,2.3,0.5c1,0,2.1-0.3,3.1-0.8c0.4-0.3,0.9-0.6,1.3-0.8c0.2,0.1,0.7,0.7,1.2,1.8s0.9,1.8,0.9,2.1
		c0,0.1-0.1,0.2-0.3,0.4c-1.4,1.5-3.7,2.3-6.7,2.3c-2.8,0-5-0.8-6.8-2.4c-1.8-1.7-2.6-3.9-2.6-6.6c0-2.7,0.8-4.9,2.4-6.6
		c1.6-1.8,3.8-2.7,6.4-2.7c2.3,0,4.2,0.8,5.7,2.5S-299.2,449.2-299.2,451.5z M-305.3,450.4c0-0.7-0.3-1.4-0.8-1.9s-1.1-0.8-1.8-0.8
		c-0.7,0-1.3,0.3-1.8,0.9c-0.4,0.6-0.7,1.2-0.7,2c0,0.3,0.2,0.5,0.5,0.5c0.9,0,2.2-0.1,4-0.4C-305.5,450.7-305.3,450.6-305.3,450.4z
		"/>
	<path class="st3" d="M-281.1,451.5c0,1.2-0.4,1.9-1.1,2c-0.1,0-1.3,0.2-3.6,0.4c-1.4,0.2-3.4,0.3-6.2,0.5c0.2,0.8,0.7,1.3,1.5,1.7
		c0.7,0.3,1.5,0.5,2.3,0.5c1,0,2.1-0.3,3.1-0.8c0.4-0.3,0.9-0.6,1.3-0.8c0.2,0.1,0.7,0.7,1.2,1.8s0.9,1.8,0.9,2.1
		c0,0.1-0.1,0.2-0.3,0.4c-1.4,1.5-3.7,2.3-6.7,2.3c-2.8,0-5-0.8-6.8-2.4c-1.8-1.7-2.6-3.9-2.6-6.6c0-2.7,0.8-4.9,2.4-6.6
		c1.6-1.8,3.8-2.7,6.4-2.7c2.3,0,4.2,0.8,5.7,2.5S-281.1,449.2-281.1,451.5z M-287.3,450.4c0-0.7-0.3-1.4-0.8-1.9s-1.1-0.8-1.8-0.8
		c-0.7,0-1.3,0.3-1.8,0.9c-0.4,0.6-0.7,1.2-0.7,2c0,0.3,0.2,0.5,0.5,0.5c0.9,0,2.2-0.1,4-0.4C-287.5,450.7-287.3,450.6-287.3,450.4z
		"/>
	<path class="st3" d="M-267.6,449.5c0,0-0.4-0.1-1.1-0.3s-1.3-0.3-1.7-0.3c-1,0-1.9,0.3-2.5,0.9s-0.9,1.5-0.9,2.5
		c0,1.1,0.3,1.9,1,2.5s1.6,0.9,2.7,0.9c0.5,0,1.1-0.1,1.7-0.4s0.9-0.4,0.9-0.4c0.2,0,0.5,0.7,0.8,2.2c0.3,1.4,0.4,2.3,0.4,2.7
		s-0.7,0.8-2.2,1.1c-1.1,0.2-2,0.4-2.7,0.4c-2.6,0-4.7-0.9-6.4-2.6s-2.5-3.9-2.5-6.5c0-2.6,0.8-4.7,2.5-6.5s3.8-2.6,6.4-2.6
		c1.7,0,3.3,0.4,4.6,1.1c0.3,0.2,0.5,0.3,0.5,0.5s-0.2,0.8-0.5,2.1c-0.3,1.2-0.5,1.9-0.6,2.1S-267.4,449.5-267.6,449.5z"/>
	<path class="st3" d="M-246.7,448.3l0,12.1c0,0.4-0.2,0.6-0.5,0.7c-0.4,0-1.2,0.1-2.6,0.1c-1.3,0-2.2,0-2.7-0.1
		c-0.4-0.1-0.6-0.3-0.6-0.8c0-1,0-2.5,0.1-4.6s0.1-3.5,0.1-4.6c0-1.4-0.7-2.1-2.1-2.1c-0.5,0-1,0.2-1.7,0.6c-0.7,0.4-1,0.8-1,1.3
		v4.3c0,0.6,0,1.4,0,2.5s0,2,0,2.5c0,0.4-0.2,0.7-0.5,0.7s-1.4,0.1-3.1,0.1c-1,0-1.7,0-2.1-0.1s-0.6-0.3-0.6-0.6c0-0.9,0-2.3,0-4.2
		s0-3.2,0-4.2c0-3.8,0-7-0.1-9.5c0-0.9-0.1-1.8-0.1-2.6c-0.1-1-0.2-1.9-0.3-2.6c0-0.2-0.1-0.3-0.1-0.3c0-0.2,0.1-0.3,0.3-0.4
		c0.4-0.1,0.9-0.2,1.6-0.2c0.9,0,1.5-0.1,1.6-0.1l3.2-0.4c0.2,0,0.3,0.1,0.3,0.4c0,0.4,0,0.9-0.1,1.5c0,0.8-0.1,1.3-0.1,1.5
		c-0.1,2.6-0.1,4.7-0.1,6.3c0,0.2,0.1,0.4,0.2,0.4c0,0,0.3-0.2,0.9-0.6c0.7-0.5,1.3-0.9,2-1.1c0.9-0.4,1.8-0.6,2.7-0.6
		c1.5,0,2.8,0.4,3.8,1.2C-247.2,445.7-246.7,446.8-246.7,448.3z"/>
	<path class="st3" d="M-213.7,460.9c0,0.1-0.1,0.1-0.4,0.2c-0.4,0.1-1.6,0.1-3.4,0.1c-1.5,0-2.6,0-3.1-0.1c-0.3,0-0.4-0.1-0.4-0.1
		c-0.1,0-0.2-0.2-0.2-0.4c-0.2-0.5-0.4-1.1-0.8-2c-0.5-1.2-1.2-2.9-2.1-5.2c-0.2-0.5-0.7-0.7-1.5-0.8c0.4,0-0.3,0-1.8,0
		c-0.2,0-0.3,0.3-0.3,0.9c0,0.8,0.1,2,0.2,3.6s0.2,2.8,0.2,3.6c0,0.2-0.1,0.3-0.2,0.4c-0.2,0-0.3,0-0.5,0c-0.7,0-1.8,0.1-3.2,0.1
		c-1.7,0-2.7,0-3-0.1s-0.5-0.3-0.5-0.5c0-1.3,0.1-3.2,0.2-5.8s0.2-4.6,0.2-5.9c0-5-0.1-8.8-0.3-11.6l0-0.2c0-0.2,0.2-0.3,0.6-0.4
		s2.2-0.1,5.4-0.2c2.2,0,3.9-0.1,5.2-0.1c2.7,0,4.9,0.6,6.5,1.8c1.9,1.4,2.9,3.3,2.9,5.9c0,1.7-0.2,3.1-0.7,4.1s-1.4,2-2.7,3
		c-0.3,0.2-0.4,0.4-0.4,0.5c0,0,0.7,1.5,2.1,4.4S-213.7,460.6-213.7,460.9z M-221.1,445.1c0-1.4-0.5-2.4-1.4-3
		c-0.7-0.4-1.9-0.6-3.4-0.6c-1.1,0-1.7,0.2-1.8,0.5c-0.1,0.4-0.1,1.5-0.1,3.4c0,0.3,0,0.7,0,1.2s0,0.9,0,1.2c0,0.1,0.2,0.1,0.6,0.2
		c0.7,0.1,1.5,0.2,2.3,0.2C-222.4,448.2-221.1,447.1-221.1,445.1z"/>
	<path class="st3" d="M-195.8,451.5c0,1.2-0.4,1.9-1.1,2c-0.1,0-1.3,0.2-3.6,0.4c-1.4,0.2-3.4,0.3-6.2,0.5c0.2,0.8,0.7,1.3,1.5,1.7
		c0.7,0.3,1.5,0.5,2.3,0.5c1,0,2.1-0.3,3.1-0.8c0.4-0.3,0.9-0.6,1.3-0.8c0.2,0.1,0.7,0.7,1.2,1.8s0.9,1.8,0.9,2.1
		c0,0.1-0.1,0.2-0.3,0.4c-1.4,1.5-3.7,2.3-6.7,2.3c-2.8,0-5-0.8-6.8-2.4c-1.8-1.7-2.6-3.9-2.6-6.6c0-2.7,0.8-4.9,2.4-6.6
		c1.6-1.8,3.8-2.7,6.4-2.7c2.3,0,4.2,0.8,5.7,2.5S-195.8,449.2-195.8,451.5z M-201.9,450.4c0-0.7-0.3-1.4-0.8-1.9s-1.1-0.8-1.8-0.8
		c-0.7,0-1.3,0.3-1.8,0.9c-0.4,0.6-0.7,1.2-0.7,2c0,0.3,0.2,0.5,0.5,0.5c0.9,0,2.2-0.1,4-0.4C-202.1,450.7-201.9,450.6-201.9,450.4z
		"/>
	<path class="st3" d="M-182.2,449.5c0,0-0.4-0.1-1.1-0.3s-1.3-0.3-1.7-0.3c-1,0-1.9,0.3-2.5,0.9s-0.9,1.5-0.9,2.5
		c0,1.1,0.3,1.9,1,2.5s1.6,0.9,2.7,0.9c0.5,0,1.1-0.1,1.7-0.4s0.9-0.4,0.9-0.4c0.2,0,0.5,0.7,0.8,2.2c0.3,1.4,0.4,2.3,0.4,2.7
		s-0.7,0.8-2.2,1.1c-1.1,0.2-2,0.4-2.7,0.4c-2.6,0-4.7-0.9-6.4-2.6s-2.5-3.9-2.5-6.5c0-2.6,0.8-4.7,2.5-6.5s3.8-2.6,6.4-2.6
		c1.7,0,3.3,0.4,4.6,1.1c0.3,0.2,0.5,0.3,0.5,0.5s-0.2,0.8-0.5,2.1c-0.3,1.2-0.5,1.9-0.6,2.1S-182.1,449.5-182.2,449.5z"/>
	<path class="st3" d="M-161.9,452.4c0,2.7-0.8,4.8-2.5,6.5s-3.8,2.5-6.4,2.5c-2.6,0-4.7-0.8-6.4-2.5s-2.5-3.8-2.5-6.3
		c0-2.7,0.8-4.9,2.4-6.6s3.8-2.5,6.5-2.5c2.6,0,4.8,0.8,6.4,2.5S-161.9,449.7-161.9,452.4z M-167.7,452.4c0-0.9-0.3-1.7-0.9-2.5
		s-1.3-1.1-2.2-1.1c-0.9,0-1.7,0.4-2.3,1.1c-0.6,0.7-0.8,1.5-0.8,2.4c0,0.9,0.3,1.8,0.8,2.4c0.6,0.7,1.4,1.1,2.3,1.1
		c0.9,0,1.7-0.4,2.3-1.1C-168,454.2-167.7,453.3-167.7,452.4z"/>
	<path class="st3" d="M-142.3,456.5c0,3.3-0.7,5.7-2.1,7.2c-1.5,1.5-3.9,2.2-7.2,2.2c-1,0-2.3-0.2-4-0.5c-2.2-0.4-3.3-0.9-3.3-1.4
		c0-0.2,0.3-1.4,0.8-3.4c0.1-0.3,0.2-0.5,0.4-0.5c0.1,0,0.1,0,0.2,0.1c1.8,0.9,3.5,1.3,5,1.3c0.8,0,1.7-0.2,2.5-0.6
		c1-0.5,1.5-1.1,1.5-1.9v-1.2c-1.2,1.1-2.7,1.7-4.6,1.7c-2.2,0-4-0.8-5.4-2.4c-1.4-1.5-2.1-3.4-2.1-5.6c0-2.2,0.7-4.1,2-5.6
		c1.4-1.5,3.2-2.3,5.4-2.3c1.8,0,3.1,0.6,4.1,1.9c0.2,0.3,0.3,0.4,0.4,0.4c0.1,0,0.2-0.2,0.2-0.6c0-0.9,0.1-1.4,0.3-1.4
		c0.2,0,1.2,0.1,3,0.3s2.8,0.3,2.9,0.3c0.2,0.1,0.3,0.2,0.3,0.5c0,0.8,0,2-0.1,3.6s-0.1,2.8-0.1,3.6c0,0.5,0,1.2,0,2.2
		S-142.3,456-142.3,456.5z M-148.4,451.6c0-0.9-0.3-1.6-0.9-2.2s-1.3-0.9-2.1-0.9s-1.6,0.3-2.1,1s-0.9,1.4-0.9,2.2s0.3,1.6,0.9,2.2
		s1.3,0.9,2.1,0.9c0.9,0,1.6-0.3,2.1-0.9S-148.4,452.5-148.4,451.6z"/>
	<path class="st3" d="M-121.8,460.5c0,0.3-0.2,0.5-0.5,0.5s-1.2,0.1-2.6,0.1c-1.5,0-2.4,0-2.7-0.1s-0.5-0.3-0.5-0.7
		c0-0.6,0-1.4,0.1-2.5s0.1-2,0.1-2.5c0-0.4,0-1.1,0-1.9s0-1.5,0-1.9c0-1.6-0.7-2.4-2.1-2.4c-0.5,0-1,0.2-1.6,0.6
		c-0.7,0.4-1,0.9-1,1.3v9.5c0,0.4-0.2,0.6-0.5,0.7c-0.4,0-1.2,0.1-2.5,0.1c-1.4,0-2.3,0-2.7-0.1c-0.4-0.1-0.5-0.3-0.5-0.6
		c0-0.9,0-2.3,0-4.1s0-3.2,0-4.1c0-2.9-0.2-5.2-0.7-6.9c0-0.1,0-0.2,0-0.3c0-0.2,0.1-0.3,0.3-0.4c0.7-0.1,1.7-0.2,3-0.4
		c1.9-0.4,2.9-0.5,3.1-0.5c0.1,0,0.2,0.4,0.3,1.2s0.2,1.2,0.3,1.2c-0.1,0,0.5-0.4,1.9-1.2s2.6-1.2,3.6-1.2c1.5,0,2.7,0.4,3.7,1.1
		c1.1,0.8,1.7,1.9,1.7,3.4v5.6c0,0.8,0,1.9,0,3.4S-121.8,459.8-121.8,460.5z"/>
	<path class="st3" d="M-112.4,453c0,0.9,0,2.1,0.1,3.8s0.1,3,0.1,3.8c0,0.2-0.1,0.4-0.4,0.4c-0.4,0.1-1.3,0.1-2.7,0.1
		c-1.4,0-2.3,0-2.7-0.1c-0.3,0-0.4-0.1-0.5-0.2c0,0,0-0.2,0-0.5c0-0.8,0-2,0.1-3.6s0.1-2.8,0.1-3.7c0-3.3-0.1-6-0.4-7.9
		c0-0.2,0-0.3,0-0.4c0-0.2,0.2-0.4,0.5-0.4c0.3,0,0.8,0,1.5,0.1s1.2,0.1,1.5,0.1s0.8,0,1.5-0.1s1.2-0.1,1.5-0.1
		c0.3,0,0.4,0.1,0.4,0.4c0,0,0,0.2,0,0.3C-112.2,447.3-112.4,450-112.4,453z M-111.9,439.9c0,2-1.1,3.1-3.4,3.1
		c-1,0-1.8-0.3-2.4-0.8c-0.7-0.6-1.1-1.3-1.1-2.3c0-0.9,0.4-1.7,1.1-2.3c0.7-0.5,1.5-0.8,2.4-0.8c0.9,0,1.7,0.3,2.4,0.8
		C-112.3,438.3-111.9,439-111.9,439.9z"/>
	<path class="st3" d="M-97.2,455.9c0,0.4,0,0.9-0.1,1.6s-0.1,1.2-0.1,1.6s0,0.5-0.1,0.6s-0.3,0.2-0.6,0.4c-1.5,0.8-3.2,1.2-5,1.2
		c-3.4,0-5.1-1.3-5.1-3.9c0-0.8,0-1.9,0.1-3.5s0.1-2.7,0.1-3.5c0-0.5-0.3-0.8-0.9-0.8c0,0-0.1,0-0.2,0c-0.1,0-0.2,0-0.2,0
		c-0.4,0-0.7-0.2-0.7-0.5c0-0.2,0-0.5,0-0.9s0-0.7,0-0.9c0-0.2,0-0.6,0-1.1s0-0.9,0-1.1c0-0.2,0.4-0.4,1.1-0.4
		c0.4,0,0.7-0.1,0.7-0.4c0.1-0.4,0.1-1.1,0.1-2.1c0-1.5-0.1-2.2-0.1-2.2c0-1.4,0.1-2,0.4-2c0.3,0,0.8,0.1,1.4,0.2
		c0.7,0.2,1.1,0.2,1.4,0.3c0.6,0.1,1.5,0.2,2.7,0.3c0.3,0,0.4,0.1,0.4,0.3c0,0.5,0,1.2-0.1,2.1s-0.1,1.7-0.1,2.1
		c0,0.6,0.2,0.9,0.5,0.9c0.4,0,1,0,1.9-0.1s1.5-0.1,1.9-0.1c0.3,0,0.4,0.1,0.4,0.3c0,0.3,0,0.7-0.1,1.2s-0.1,0.9-0.1,1.2
		c0,0.3,0,0.7,0,1.2s0,0.9,0,1.2c0,0.2-0.2,0.4-0.5,0.4c-0.2,0-0.6,0-1.2,0s-0.9,0-1.2,0h-1.3c-0.2,0-0.3,0.3-0.3,0.8
		c0,0.3,0,0.7,0,1.2c0,0.6,0,1,0,1.2c0,1,0.1,1.7,0.3,2c0.3,0.5,0.9,0.8,1.9,0.8c0.3,0,0.7-0.1,1.3-0.2s0.9-0.2,1.2-0.2
		C-97.3,455.5-97.2,455.6-97.2,455.9z"/>
	<path class="st3" d="M-88.9,453c0,0.9,0,2.1,0.1,3.8s0.1,3,0.1,3.8c0,0.2-0.1,0.4-0.4,0.4c-0.4,0.1-1.3,0.1-2.7,0.1
		c-1.4,0-2.3,0-2.7-0.1c-0.3,0-0.4-0.1-0.5-0.2c0,0,0-0.2,0-0.5c0-0.8,0-2,0.1-3.6s0.1-2.8,0.1-3.7c0-3.3-0.1-6-0.4-7.9
		c0-0.2,0-0.3,0-0.4c0-0.2,0.2-0.4,0.5-0.4c0.3,0,0.8,0,1.5,0.1s1.2,0.1,1.5,0.1s0.8,0,1.5-0.1s1.2-0.1,1.5-0.1
		c0.3,0,0.4,0.1,0.4,0.4c0,0,0,0.2,0,0.3C-88.7,447.3-88.9,450-88.9,453z M-88.4,439.9c0,2-1.1,3.1-3.4,3.1c-1,0-1.8-0.3-2.4-0.8
		c-0.7-0.6-1.1-1.3-1.1-2.3c0-0.9,0.4-1.7,1.1-2.3c0.7-0.5,1.5-0.8,2.4-0.8c0.9,0,1.7,0.3,2.4,0.8C-88.8,438.3-88.4,439-88.4,439.9z
		"/>
	<path class="st3" d="M-68.6,452.4c0,2.7-0.8,4.8-2.5,6.5s-3.8,2.5-6.4,2.5c-2.6,0-4.7-0.8-6.4-2.5s-2.5-3.8-2.5-6.3
		c0-2.7,0.8-4.9,2.4-6.6s3.8-2.5,6.5-2.5c2.6,0,4.8,0.8,6.4,2.5S-68.6,449.7-68.6,452.4z M-74.3,452.4c0-0.9-0.3-1.7-0.9-2.5
		s-1.3-1.1-2.2-1.1c-0.9,0-1.7,0.4-2.3,1.1c-0.6,0.7-0.8,1.5-0.8,2.4c0,0.9,0.3,1.8,0.8,2.4c0.6,0.7,1.4,1.1,2.3,1.1
		c0.9,0,1.7-0.4,2.3-1.1C-74.6,454.2-74.3,453.3-74.3,452.4z"/>
	<path class="st3" d="M-49,460.5c0,0.3-0.2,0.5-0.5,0.5s-1.2,0.1-2.6,0.1c-1.5,0-2.4,0-2.7-0.1s-0.5-0.3-0.5-0.7
		c0-0.6,0-1.4,0.1-2.5s0.1-2,0.1-2.5c0-0.4,0-1.1,0-1.9s0-1.5,0-1.9c0-1.6-0.7-2.4-2.1-2.4c-0.5,0-1,0.2-1.6,0.6
		c-0.7,0.4-1,0.9-1,1.3v9.5c0,0.4-0.2,0.6-0.5,0.7c-0.4,0-1.2,0.1-2.5,0.1c-1.4,0-2.3,0-2.7-0.1c-0.4-0.1-0.5-0.3-0.5-0.6
		c0-0.9,0-2.3,0-4.1s0-3.2,0-4.1c0-2.9-0.2-5.2-0.7-6.9c0-0.1,0-0.2,0-0.3c0-0.2,0.1-0.3,0.3-0.4c0.7-0.1,1.7-0.2,3-0.4
		c1.9-0.4,2.9-0.5,3.1-0.5c0.1,0,0.2,0.4,0.3,1.2s0.2,1.2,0.3,1.2c-0.1,0,0.5-0.4,1.9-1.2s2.6-1.2,3.6-1.2c1.5,0,2.7,0.4,3.7,1.1
		c1.1,0.8,1.7,1.9,1.7,3.4v5.6c0,0.8,0,1.9,0,3.4S-49,459.8-49,460.5z"/>
</g>
</svg>
