<?xml version="1.0" encoding="utf-8"?>
<!-- Generator: Adobe Illustrator 16.0.4, SVG Export Plug-In . SVG Version: 6.00 Build 0)  -->
<!DOCTYPE svg PUBLIC "-//W3C//DTD SVG 1.1//EN" "http://www.w3.org/Graphics/SVG/1.1/DTD/svg11.dtd">
<svg version="1.1" id="Layer_1" xmlns="http://www.w3.org/2000/svg" xmlns:xlink="http://www.w3.org/1999/xlink" x="0px" y="0px"
	 width="800.8px" height="178.5px" viewBox="0 0 800.8 178.5" style="enable-background:new 0 0 800.8 178.5;" xml:space="preserve"
	>
<style type="text/css">
<![CDATA[
	.st0{fill:none;stroke:#009444;stroke-width:8.2985;stroke-miterlimit:10;}
	.st1{fill:none;stroke:#E1871E;stroke-width:4.1406;stroke-miterlimit:10;}
	.st2{fill:none;stroke:#00AEEF;stroke-width:17.3271;stroke-miterlimit:10;}
	.st3{fill:none;stroke:#00AEEF;stroke-width:7.8639;stroke-miterlimit:10;}
	.st4{fill:#E0E0E0;}
	.st5{fill:#E1871E;}
	.st6{opacity:0.6;clip-path:url(#SVGID_18_);fill:url(#SVGID_19_);}
	.st7{fill:none;stroke:#00AEEF;stroke-width:4.1406;stroke-miterlimit:10;}
	.st8{fill:#ED1C24;}
	.st9{fill:none;stroke:#414042;stroke-width:13.892;stroke-miterlimit:10;}
	.st10{fill:none;stroke:#FFFFFF;stroke-width:0.6732;stroke-miterlimit:10;}
	.st11{opacity:0.8;fill:#FFFFFF;}
	.st12{fill:none;stroke:#E1871E;stroke-width:8.2985;stroke-miterlimit:10;}
	.st13{clip-path:url(#SVGID_18_);fill:none;stroke:#00AEEF;stroke-width:24.9644;stroke-miterlimit:10;}
	.st14{opacity:0.6;fill:url(#SVGID_3_);}
	.st15{opacity:0.6;fill:url(#SVGID_4_);}
	.st16{opacity:0.6;fill:url(#SVGID_7_);}
	.st17{opacity:0.6;fill:url(#SVGID_8_);}
	.st18{fill:#231F20;}
	.st19{fill:#00AEEF;stroke:#00AEEF;stroke-width:1.5728;stroke-linejoin:round;stroke-miterlimit:10;}
	.st20{opacity:0.9;fill:url(#SVGID_15_);stroke:url(#SVGID_16_);stroke-miterlimit:10;}
	.st21{fill:none;stroke:#00AEEF;stroke-width:8.2985;stroke-miterlimit:10;}
	.st22{fill:#00AEEF;stroke:#00AEEF;stroke-width:1.6597;stroke-linejoin:round;stroke-miterlimit:10;}
	.st23{clip-path:url(#SVGID_2_);}
	.st24{fill:url(#SVGID_5_);}
	.st25{fill:url(#SVGID_6_);}
	.st26{fill:url(#SVGID_9_);}
	.st27{fill:#2BB673;}
	.st28{clip-path:url(#SVGID_21_);fill:none;stroke:#00AEEF;stroke-width:24.9644;stroke-miterlimit:10;}
	.st29{opacity:0.8;}
	.st30{fill:#FFFFFF;}
	.st31{opacity:0.6;clip-path:url(#SVGID_21_);fill:url(#SVGID_22_);}
	.st32{fill:none;stroke:#00AEEF;stroke-width:18.2529;stroke-miterlimit:10;}
	.st33{opacity:0.6;fill:url(#SVGID_11_);}
	.st34{opacity:0.6;fill:url(#SVGID_12_);}
	.st35{opacity:0.6;fill:url(#SVGID_23_);}
	.st36{opacity:0.6;fill:url(#SVGID_24_);}
	.st37{opacity:0.6;fill:url(#SVGID_25_);}
	.st38{opacity:0.6;fill:url(#SVGID_26_);}
	.st39{opacity:0.6;fill:url(#SVGID_27_);}
	.st40{opacity:0.6;fill:url(#SVGID_28_);}
	.st41{opacity:0.6;fill:url(#SVGID_29_);}
	.st42{opacity:0.6;fill:url(#SVGID_30_);}
	.st43{fill:none;stroke:#ED1C24;stroke-width:7.8639;stroke-miterlimit:10;}
	.st44{fill:none;stroke:#009444;stroke-width:7.8639;stroke-miterlimit:10;}
	.st45{opacity:0.8;fill:#414042;}
	.st46{fill:none;stroke:#ED1C24;stroke-width:4.1406;stroke-miterlimit:10;}
	.st47{fill:none;stroke:#009444;stroke-width:4.1406;stroke-miterlimit:10;}
	.st48{fill:url(#SVGID_10_);}
	.st49{fill:url(#SVGID_13_);}
	.st50{fill:url(#SVGID_14_);}
	.st51{fill:none;stroke:#00AEEF;stroke-width:18.9435;stroke-miterlimit:10;}
	.st52{fill:#00AEEF;stroke:#00AEEF;stroke-width:0.8281;stroke-linejoin:round;stroke-miterlimit:10;}
	.st53{fill:#A7A9AC;}
	.st54{fill:none;stroke:#FFFFFF;stroke-width:2.0197;stroke-miterlimit:10;}
	.st55{fill:#414042;}
	.st56{fill:none;stroke:#E1871E;stroke-width:7.8639;stroke-miterlimit:10;}
	.st57{fill:none;stroke:#FFFFFF;stroke-width:0.7395;stroke-miterlimit:10;}
	.st58{fill:none;stroke:#ED1C24;stroke-width:8.2985;stroke-miterlimit:10;}
]]>
</style>
<g>
	<defs>
		<rect id="SVGID_20_" x="100.6" y="0" width="700.2" height="178.5"/>
	</defs>
	<clipPath id="SVGID_2_">
		<use xlink:href="#SVGID_20_"  style="overflow:visible;"/>
	</clipPath>
	<linearGradient id="SVGID_3_" gradientUnits="userSpaceOnUse" x1="12.4824" y1="80.8008" x2="727.874" y2="80.8008">
		<stop  offset="0" style="stop-color:#00B2ED"/>
		<stop  offset="0.9949" style="stop-color:#1D71B8"/>
	</linearGradient>
	<path style="opacity:0.6;clip-path:url(#SVGID_2_);fill:url(#SVGID_3_);" d="M727.9,80.8c0,32.7-26.5,59.1-59.1,59.1H71.6
		c-32.7,0-59.1-26.5-59.1-59.1l0,0c0-32.7,26.5-59.1,59.1-59.1h597.1C701.4,21.7,727.9,48.1,727.9,80.8L727.9,80.8z"/>
	<path style="clip-path:url(#SVGID_2_);fill:none;stroke:#00AEEF;stroke-width:24.9644;stroke-miterlimit:10;" d="M727.9,80.8
		c0,32.7-26.5,59.1-59.1,59.1H71.6c-32.7,0-59.1-26.5-59.1-59.1l0,0c0-32.7,26.5-59.1,59.1-59.1h597.1
		C701.4,21.7,727.9,48.1,727.9,80.8L727.9,80.8z"/>
</g>
<g>
	<path class="st30" d="M118.8,82.6L118.8,82.6c0-7.6,5.8-13.5,13.6-13.5c5.3,0,8.7,2.2,11,5.4l-5.4,4.2c-1.5-1.8-3.2-3-5.7-3
		c-3.6,0-6.2,3.1-6.2,6.8v0.1c0,3.9,2.5,6.9,6.2,6.9c2.7,0,4.3-1.3,5.8-3.1l5.4,3.8c-2.4,3.4-5.7,5.8-11.5,5.8
		C124.7,95.9,118.8,90.3,118.8,82.6z"/>
	<path class="st30" d="M146.5,82.6L146.5,82.6c0-7.5,6-13.5,14-13.5s13.9,6,13.9,13.4v0.1c0,7.4-6,13.5-14,13.5
		C152.4,95.9,146.5,90,146.5,82.6z M167,82.6L167,82.6c0-3.8-2.7-7.1-6.6-7.1c-3.9,0-6.5,3.2-6.5,6.9v0.1c0,3.7,2.7,7,6.6,7
		C164.4,89.5,167,86.3,167,82.6z"/>
	<path class="st30" d="M179.6,69.5h10c9.2,0,14.6,5.3,14.6,12.8v0.1c0,7.5-5.4,13-14.7,13h-9.8V69.5z M189.6,89.1
		c4.3,0,7.1-2.4,7.1-6.5v-0.1c0-4.1-2.8-6.5-7.1-6.5h-2.9v13.2H189.6z"/>
	<path class="st30" d="M209.4,69.5h7.2v25.9h-7.2V69.5z"/>
	<path class="st30" d="M222.9,69.5h6.7l10.6,13.7V69.5h7.1v25.9H241l-11-14.2v14.2h-7.1V69.5z"/>
	<path class="st30" d="M252.5,82.6L252.5,82.6c0-7.6,5.9-13.5,13.9-13.5c4.5,0,7.8,1.4,10.5,3.8l-4.2,5.1c-1.8-1.6-3.7-2.4-6.2-2.4
		c-3.7,0-6.6,3.1-6.6,7.1v0.1c0,4.2,2.9,7.2,7,7.2c1.7,0,3.1-0.4,4.1-1.1v-3.1h-5.1v-5.2h11.9v11.6c-2.7,2.3-6.5,4-11.2,4
		C258.5,95.9,252.5,90.4,252.5,82.6z"/>
	<path class="st30" d="M310.4,93.2c-2.2,1.7-4.7,2.6-7.7,2.6c-5.3,0-9.2-2.8-9.2-7.5v-0.1c0-3.2,1.7-5.7,5.2-7.2
		c-1.2-1.7-1.7-3.3-1.7-5v-0.1c0-3.8,3.1-7,8.1-7c4.7,0,7.7,2.9,7.7,6.7v0.1c0,3.2-2,5.3-5.1,6.7l2.9,2.8c0.8-1.2,1.7-2.6,2.4-4.1
		l4.7,2.4c-1.1,2-2.2,3.8-3.4,5.5l3.5,3.4l-4.8,3.5L310.4,93.2z M306.7,89.5l-4.2-4.3c-1.3,0.8-1.8,1.8-1.8,2.8V88
		c0,1.5,1.3,2.6,3,2.6C304.7,90.6,305.7,90.1,306.7,89.5z M307.1,76.1L307.1,76.1c0-1.3-0.8-2.1-2-2.1c-1.2,0-2.1,0.9-2.1,2.3v0.1
		c0,1,0.4,1.8,1.3,3C306.2,78.5,307.1,77.5,307.1,76.1z"/>
	<path class="st30" d="M333.9,69.5H345c6.5,0,10.8,3.4,10.8,9.1v0.1c0,6.1-4.7,9.3-11.1,9.3h-3.5v7.4h-7.2V69.5z M344.5,82.4
		c2.5,0,4.1-1.3,4.1-3.4V79c0-2.2-1.6-3.4-4.1-3.4h-3.4v6.8H344.5z"/>
	<path class="st30" d="M360.3,69.5h12.2c4,0,6.7,1,8.4,2.8c1.5,1.5,2.3,3.5,2.3,6v0.1c0,4-2.1,6.6-5.3,7.9l6.2,9h-8.3l-5.2-7.8h-3.1
		v7.8h-7.2V69.5z M372.2,82c2.4,0,3.8-1.2,3.8-3.1v-0.1c0-2-1.5-3.1-3.9-3.1h-4.7V82H372.2z"/>
	<path class="st30" d="M387.4,82.6L387.4,82.6c0-7.5,6-13.5,14-13.5s13.9,6,13.9,13.4v0.1c0,7.4-6,13.5-14,13.5
		C393.3,95.9,387.4,90,387.4,82.6z M408,82.6L408,82.6c0-3.8-2.7-7.1-6.6-7.1c-3.9,0-6.5,3.2-6.5,6.9v0.1c0,3.7,2.7,7,6.6,7
		C405.3,89.5,408,86.3,408,82.6z"/>
	<path class="st30" d="M419.6,82.6L419.6,82.6c0-7.6,5.9-13.5,13.9-13.5c4.5,0,7.8,1.4,10.5,3.8l-4.2,5.1c-1.8-1.6-3.7-2.4-6.2-2.4
		c-3.7,0-6.6,3.1-6.6,7.1v0.1c0,4.2,2.9,7.2,7,7.2c1.7,0,3.1-0.4,4.1-1.1v-3.1H433v-5.2h11.9v11.6c-2.7,2.3-6.5,4-11.2,4
		C425.6,95.9,419.6,90.4,419.6,82.6z"/>
	<path class="st30" d="M450.4,69.5h12.2c4,0,6.7,1,8.4,2.8c1.5,1.5,2.3,3.5,2.3,6v0.1c0,4-2.1,6.6-5.3,7.9l6.2,9h-8.3l-5.2-7.8h-3.1
		v7.8h-7.2V69.5z M462.3,82c2.4,0,3.8-1.2,3.8-3.1v-0.1c0-2-1.5-3.1-3.9-3.1h-4.7V82H462.3z"/>
	<path class="st30" d="M486.9,69.4h6.9l11,26.1h-7.7l-1.9-4.6h-10l-1.8,4.6h-7.5L486.9,69.4z M493.2,85.2l-2.9-7.4l-2.9,7.4H493.2z"
		/>
	<path class="st30" d="M508.8,69.5h7.6l6.2,10l6.2-10h7.6v25.9h-7.1V80.6l-6.6,10.1h-0.1l-6.6-10.1v14.8h-7V69.5z"/>
	<path class="st30" d="M542.4,69.5h7.6l6.2,10l6.2-10h7.6v25.9h-7.1V80.6l-6.6,10.1h-0.1l-6.6-10.1v14.8h-7V69.5z"/>
	<path class="st30" d="M576,69.5h7.2v25.9H576V69.5z"/>
	<path class="st30" d="M589.5,69.5h6.7l10.6,13.7V69.5h7.1v25.9h-6.3l-11-14.2v14.2h-7.1V69.5z"/>
	<path class="st30" d="M619.1,82.6L619.1,82.6c0-7.6,5.9-13.5,13.9-13.5c4.5,0,7.8,1.4,10.5,3.8l-4.2,5.1c-1.8-1.6-3.7-2.4-6.2-2.4
		c-3.7,0-6.6,3.1-6.6,7.1v0.1c0,4.2,2.9,7.2,7,7.2c1.7,0,3.1-0.4,4.1-1.1v-3.1h-5.1v-5.2h11.9v11.6c-2.7,2.3-6.5,4-11.2,4
		C625.1,95.9,619.1,90.4,619.1,82.6z"/>
</g>
</svg>
