<?xml version="1.0" encoding="utf-8"?>
<!-- Generator: Adobe Illustrator 19.0.0, SVG Export Plug-In . SVG Version: 6.00 Build 0)  -->
<svg version="1.1" id="Layer_1" xmlns="http://www.w3.org/2000/svg" xmlns:xlink="http://www.w3.org/1999/xlink" x="0px" y="0px"
	 viewBox="-497 346.3 604.6 159.7" style="enable-background:new -497 346.3 604.6 159.7;" xml:space="preserve">
<style type="text/css">
	.st0{opacity:0.6;fill:url(#SVGID_1_);enable-background:new    ;}
	.st1{fill:none;stroke:#00AEEF;stroke-width:18.9435;stroke-miterlimit:10;}
	.st2{fill:#F7F7F7;}
	.st3{fill:#FFFFFF;}
</style>
<linearGradient id="SVGID_1_" gradientUnits="userSpaceOnUse" x1="-486.3333" y1="421.4833" x2="99.4666" y2="421.4833" gradientTransform="matrix(1 0 0 1 0 4.6)">
	<stop  offset="0" style="stop-color:#00B2ED"/>
	<stop  offset="0.9949" style="stop-color:#1D71B8"/>
</linearGradient>
<path class="st0" d="M99.5,405.9c0-27.8-22.5-50.3-50.3-50.3s-50.3,22.5-50.3,50.3c0,0.3,0,0.5,0,0.8h-440.3
	c-24.8,0-44.9,20.1-44.9,44.9s20.1,44.9,44.9,44.9H11.7c23.4,0,42.6-17.9,44.7-40.7C80.8,452.2,99.5,431.2,99.5,405.9z"/>
<path class="st1" d="M99.5,405.9c0-27.8-22.5-50.3-50.3-50.3s-50.3,22.5-50.3,50.3c0,0.3,0,0.5,0,0.8h-440.3
	c-24.8,0-44.9,20.1-44.9,44.9s20.1,44.9,44.9,44.9H11.7c23.4,0,42.6-17.9,44.7-40.7C80.8,452.2,99.5,431.2,99.5,405.9z"/>
<g>
	<path class="st2" d="M25.8,400.7c-0.4,0-0.9,0-1.7,0s-1.4,0-1.7,0c0,0.3,0,0.9,0.1,1.8c0,0.7,0,1.3,0,1.8c0,0.3-0.6,0.5-1.8,0.5
		c-1.1,0-1.7-0.1-1.7-0.3c0-0.5,0-1.1,0-1.9c0-1.1,0-1.7,0-1.9c-2,0.1-3.1,0.1-3.2,0.1c-0.1,0-0.2-0.1-0.2-0.4c0-0.1,0-0.5,0.1-1.3
		c0-0.5,0-0.9,0-1.4c0.1-0.1,0.2-0.2,0.3-0.2c0.4,0,0.9,0,1.5,0c0.8,0,1.3,0,1.5,0c0-0.7,0-1.4,0-2.2v-1.4c0-0.1,0.1-0.2,0.3-0.2
		c0.3,0,0.7,0,1.3,0s1,0,1.3,0c0.4,0,0.6,0.1,0.6,0.2c0,0.4,0,1,0,1.8s0,1.4,0,1.8c1.7,0,2.8,0,3.4,0c0.2,0,0.2,0.1,0.2,0.2
		s0,0.6-0.1,1.4c0,0.3,0,0.8-0.1,1.5C25.9,400.6,25.8,400.7,25.8,400.7z"/>
	<path class="st2" d="M38.2,401.2c0,3.5-2.2,5.2-6.5,5.2c-0.6,0-1.5-0.1-2.5-0.2c-1.4-0.2-2.1-0.4-2.1-0.6c0-0.1,0-0.4,0-1
		c0-0.3,0-0.8,0.1-1.3c0.1-0.7,0.2-1.1,0.4-1.1c0,0,0.1,0,0.2,0.1c0.9,0.5,2,0.7,3.2,0.7c1.7,0,2.6-0.6,2.6-1.7
		c0-0.6-0.3-1.1-0.9-1.4c-0.5-0.3-1.1-0.4-1.8-0.4c-0.3,0-0.7,0-1.3,0.1s-1,0.1-1.3,0.1s-0.4-0.1-0.4-0.4c0-0.8,0-1.9,0.1-3.4
		c0.1-1.5,0.1-2.7,0.1-3.4c0-0.1,0.1-0.3,0.2-0.5c0.1-0.2,0.2-0.3,0.4-0.3c0.2,0,1.3,0,3.3,0c2.3,0,3.8,0,4.6,0
		c0.2,0,0.3,0.1,0.3,0.3c0,0.4,0,1.1-0.1,1.8c-0.1,1-0.3,1.5-0.4,1.5h-0.1c-1.8-0.2-2.9-0.2-3.3-0.2c-0.9,0-1.3,0-1.4,0.1
		c-0.1,0.2-0.2,0.7-0.2,1.3c0,0.1,0,0.2,0.1,0.2c0.2,0,0.5,0,0.9-0.1c0.4,0,0.7-0.1,0.9-0.1c1.5,0,2.7,0.4,3.6,1.2
		C37.7,398.7,38.2,399.8,38.2,401.2z"/>
	<path class="st2" d="M53.3,399c0,2-0.7,3.7-2,5.2c-1.4,1.5-3,2.3-5,2.3s-3.7-0.8-5-2.3c-1.3-1.4-2-3.2-2-5.2s0.7-3.8,2-5.2
		c1.3-1.5,3-2.2,5-2.2s3.7,0.7,5,2.2C52.7,395.3,53.3,397,53.3,399z M49,399c0-0.8-0.2-1.5-0.7-2.1s-1.1-0.9-1.9-0.9
		c-0.8,0-1.5,0.3-1.9,0.9c-0.5,0.6-0.7,1.3-0.7,2.1c0,0.8,0.2,1.5,0.7,2.1s1.1,1,1.9,1c0.8,0,1.4-0.3,1.9-1
		C48.7,400.5,49,399.8,49,399z"/>
	<path class="st2" d="M65.2,405.8c0,0.2-0.1,0.3-0.4,0.3c-0.5,0.1-0.9,0.1-1.5,0.1c-0.5,0-1,0-1.4-0.1c-0.1,0-0.2-0.1-0.4-0.2
		c-0.4-0.5-1-1.4-1.7-2.4c-0.2,0.2-0.8,1-1.9,2.4c-0.1,0.1-0.2,0.2-0.4,0.3c-0.3,0.1-0.7,0.1-1.3,0.1c-1.2,0-1.9-0.1-1.9-0.4
		c0-0.2,0-0.6,0-1s0-0.8,0-1c0-0.1,0.1-0.3,0.2-0.4c0.6-0.6,1.5-1.6,2.7-2.9c-0.5-0.5-1.1-1-1.6-1.6c-0.9-0.9-1.3-1.4-1.3-1.5v-2.1
		c0-0.2,0.1-0.3,0.4-0.3c0.3,0,0.8,0,1.4,0s1.1,0,1.4,0c0.2,0,0.3,0.1,0.4,0.3c0.4,0.6,1,1.3,1.8,2.2c0.7-0.9,1.3-1.6,1.7-2.2
		c0.1-0.2,0.3-0.2,0.4-0.2c0.3,0,0.8,0,1.5,0s1.1,0,1.5,0c0.3,0,0.4,0.1,0.4,0.3v2.1c0,0.1-0.1,0.3-0.2,0.4
		c-0.6,0.6-1.5,1.5-2.6,2.7c0.6,0.6,1.5,1.6,2.6,2.8c0.1,0.1,0.2,0.3,0.2,0.4C65.2,403.9,65.2,405.8,65.2,405.8z"/>
	<path class="st2" d="M79.5,400.5c0,1.7-0.5,3.1-1.5,4.2s-2.3,1.7-4,1.7c-0.6,0-1.2-0.1-1.9-0.4s-1-0.4-0.9-0.4
		c-0.1,0-0.2,0.1-0.2,0.4c0,0.4,0,1,0.1,1.8s0.1,1.4,0.1,1.8c0,0.3-0.1,0.4-0.4,0.4h-2.4c-0.5,0-0.9,0-1-0.1
		c-0.2-0.1-0.4-0.2-0.4-0.4v-9c0-1.8-0.1-3.4-0.4-4.6c0-0.1,0-0.1,0-0.2s0-0.2,0.1-0.2c0.3-0.1,0.9-0.2,1.7-0.4
		c0.8-0.1,1.4-0.2,1.8-0.2c0.3,0,0.5,0.2,0.5,0.6s0.1,0.6,0.2,0.6c-0.1,0,0.3-0.2,1-0.6s1.4-0.6,2-0.6c1.7,0,3.1,0.6,4.1,1.7
		C79.1,397.4,79.5,398.8,79.5,400.5z M75.2,400.5c0-0.6-0.2-1.2-0.6-1.6c-0.4-0.5-0.9-0.7-1.5-0.7s-1.1,0.2-1.5,0.7
		c-0.3,0.4-0.5,1-0.5,1.6c0,0.7,0.2,1.2,0.5,1.7c0.4,0.5,0.9,0.7,1.5,0.7C74.5,402.8,75.2,402,75.2,400.5z"/>
</g>
<g>
	<path class="st3" d="M-298.1,452.7c0,3-0.4,5-1.1,6.1c-1.3,2-4.6,3-9.8,3c-2.4,0-4.2-0.2-5.5-0.5c-2-0.6-3.4-1.7-4-3.4
		c-0.3-0.8-0.5-2.3-0.5-4.3c0-0.5,0-1.2,0.1-2.1s0.1-1.7,0.1-2.1c0-1.4-0.1-3.4-0.2-6.1s-0.2-4.8-0.2-6.1c0-0.3,0.1-0.4,0.4-0.4
		c0.7,0,1.8,0,3.2,0.1s2.5,0.1,3.2,0.1c0.3,0,0.4,0.1,0.4,0.4c0,1.5,0,3.9-0.1,7s-0.1,5.4-0.1,7c0,1.8,0.2,3.1,0.6,3.7
		c0.5,0.9,1.6,1.3,3.2,1.3c2.4,0,3.6-1.2,3.6-3.5c0-1.7,0-4.2-0.1-7.6s-0.1-5.9-0.1-7.6c0-0.4,0.1-0.5,0.4-0.5c0.7,0,1.7,0,3.1-0.1
		s2.4-0.1,3.1-0.1c0.3,0,0.5,0.1,0.5,0.4c0,1.3-0.1,3.4-0.2,6.1s-0.2,4.8-0.2,6.1c0,0.4,0,0.9,0,1.7S-298.1,452.3-298.1,452.7z"/>
	<path class="st3" d="M-287.5,448.4c0,1.4,0,3.5,0.1,6.2s0.1,4.9,0.1,6.2c0,0.2-0.1,0.4-0.2,0.4c0,0-0.2,0-0.5,0.1
		c-0.8,0.1-1.8,0.1-3.1,0.1c-1.7,0-2.8,0-3.3-0.1c-0.3-0.1-0.5-0.3-0.5-0.5c0,0.2,0.1-0.8,0.2-3.1c0.2-4.7,0.3-7.9,0.3-9.4
		c0-1.3,0-3.1-0.1-5.6s-0.1-4.4-0.1-5.6c0-0.3,0.1-0.4,0.4-0.4c0.4,0,0.9,0,1.6,0.1s1.3,0.1,1.6,0.1s0.9,0,1.6-0.1s1.2-0.1,1.6-0.1
		c0.3,0,0.5,0.1,0.5,0.4c0,1.3-0.1,3.1-0.2,5.6S-287.5,447.1-287.5,448.4z"/>
	<path class="st3" d="M-264.2,450c0,0.3-0.2,0.4-0.5,0.4c-1.3,0-2.3,0-3-0.1c0,0.9,0.1,2.1,0.1,3.7c0,0.7,0.1,1.8,0.2,3.5
		c0.1,1.5,0.1,2.6,0.1,3.5c0,0.2-0.2,0.4-0.5,0.4c-0.4,0-1.4,0.1-3,0.1c-1.3,0-2.2,0-2.6-0.1s-0.6-0.3-0.6-0.7v-9.7
		c0-0.3-0.2-0.5-0.7-0.5c-0.1,0-0.2,0-0.4,0s-0.3,0-0.4,0c-0.3,0-0.5-0.1-0.5-0.3c-0.1-1-0.2-2.5-0.2-4.4c0-0.4,0.2-0.7,0.7-0.8
		c0.4,0,0.8-0.1,1.2-0.1c-0.1-0.9-0.1-1.7-0.1-2.2c0-2,0.4-3.5,1.2-4.4c1.6-1.8,4.1-2.7,7.6-2.7c0.2,0,0.4,0.1,0.4,0.2
		c0.1,0.5,0.2,1.3,0.4,2.3c0,0.1,0.1,0.4,0.2,1c0.1,0.4,0.2,0.8,0.2,1c0,0.3-0.4,0.5-1.2,0.5c-1,0.1-1.6,0.3-1.8,0.5
		c-0.4,0.4-0.6,1.2-0.6,2.5c0,0.4,0,0.8,0.1,1.1c0.3,0,0.8,0,1.5,0s1.2,0,1.6,0s0.5,0.1,0.5,0.4c0,0.6,0,1.4,0,2.5
		S-264.2,449.5-264.2,450z"/>
	<path class="st3" d="M-245.4,452.7c0,2.7-0.8,4.8-2.5,6.5s-3.8,2.5-6.4,2.5c-2.6,0-4.7-0.8-6.4-2.5s-2.5-3.8-2.5-6.3
		c0-2.7,0.8-4.9,2.4-6.6s3.8-2.5,6.5-2.5c2.6,0,4.8,0.8,6.4,2.5S-245.4,450-245.4,452.7z M-251.1,452.7c0-0.9-0.3-1.7-0.9-2.5
		s-1.3-1.1-2.2-1.1c-0.9,0-1.7,0.4-2.3,1.1c-0.6,0.7-0.8,1.5-0.8,2.4c0,0.9,0.3,1.8,0.8,2.4c0.6,0.7,1.4,1.1,2.3,1.1
		c0.9,0,1.7-0.4,2.3-1.1C-251.4,454.5-251.1,453.6-251.1,452.7z"/>
	<path class="st3" d="M-231.6,450.4c0,0.5-0.3,0.7-0.8,0.7c-0.2,0-0.5,0-1,0s-0.7,0-1,0c-1,0-1.6,0.2-2,0.5s-0.5,0.9-0.5,1.8
		c0,0.5,0,1.3,0,2.3s0,1.8,0,2.3c0,0.3,0,0.8,0.1,1.5s0.1,1.2,0.1,1.5c0,0.3-0.2,0.4-0.6,0.5c-0.6,0-1.4,0.1-2.6,0.1
		c-1.1,0-2,0-2.7-0.1c-0.4,0-0.6-0.2-0.6-0.6c0-0.9,0-2.3,0-4.2s0-3.3,0-4.2c0-2.8-0.3-5-0.8-6.8c0-0.1,0-0.2,0-0.3
		c0-0.2,0.1-0.3,0.3-0.4c0.6-0.1,1.6-0.2,2.8-0.4c1.9-0.4,2.8-0.5,2.9-0.5c0.2,0,0.3,0.4,0.4,1.1s0.2,1.1,0.3,1.1
		c-0.2,0,0.3-0.3,1.4-0.9s2.2-0.9,3.3-0.9c0.7,0,1,0.1,1,0.4c0,0.3,0,0.8-0.1,1.4c-0.1,0.7-0.1,1.1-0.1,1.4c0,0.3,0,0.8,0,1.4
		C-231.6,449.7-231.6,450.2-231.6,450.4z"/>
	<path class="st3" d="M-203,456.8c0,3.3-0.7,5.7-2.1,7.2c-1.5,1.5-3.9,2.2-7.2,2.2c-1,0-2.3-0.2-4-0.5c-2.2-0.4-3.3-0.9-3.3-1.4
		c0-0.2,0.3-1.4,0.8-3.4c0.1-0.3,0.2-0.5,0.4-0.5c0.1,0,0.1,0,0.2,0.1c1.8,0.9,3.5,1.3,5,1.3c0.8,0,1.7-0.2,2.5-0.6
		c1-0.5,1.5-1.1,1.5-1.9v-1.2c-1.2,1.1-2.7,1.7-4.6,1.7c-2.2,0-4-0.8-5.4-2.4c-1.4-1.5-2.1-3.4-2.1-5.6c0-2.2,0.7-4.1,2-5.6
		c1.4-1.5,3.2-2.3,5.4-2.3c1.8,0,3.1,0.6,4.1,1.9c0.2,0.3,0.3,0.4,0.4,0.4c0.1,0,0.2-0.2,0.2-0.6c0-0.9,0.1-1.4,0.3-1.4
		c0.2,0,1.2,0.1,3,0.3s2.8,0.3,2.9,0.3c0.2,0.1,0.3,0.2,0.3,0.5c0,0.8,0,2-0.1,3.6s-0.1,2.8-0.1,3.6c0,0.5,0,1.2,0,2.2
		S-203,456.3-203,456.8z M-209.1,451.9c0-0.9-0.3-1.6-0.9-2.2s-1.3-0.9-2.1-0.9s-1.6,0.3-2.1,1s-0.9,1.4-0.9,2.2s0.3,1.6,0.9,2.2
		s1.3,0.9,2.1,0.9c0.9,0,1.6-0.3,2.1-0.9S-209.1,452.8-209.1,451.9z"/>
	<path class="st3" d="M-182.3,452.6c0,0.9,0.1,2.2,0.2,4s0.2,3.1,0.2,4c0,0.5-0.2,0.7-0.6,0.8c-1.5,0.1-3.1,0.2-5,0.2
		c-0.2,0-0.4-0.3-0.4-1s-0.2-1-0.3-1c-0.1,0-0.2,0.1-0.4,0.3c-1.3,1.3-2.7,2-4.2,2c-2.3,0-4.2-0.9-5.7-2.7c-1.4-1.7-2.1-3.7-2.1-6
		c0-2.7,0.7-4.9,2.2-6.5c1.5-1.7,3.6-2.6,6.3-2.6c1.8,0,3.3,0.6,4.4,1.9c0,0.1,0.1,0.1,0.1,0.1c0.1,0,0.2-0.3,0.4-0.9
		s0.3-0.9,0.5-0.9c0.4,0,1.3,0.1,2.5,0.4c1.2,0.2,2,0.4,2.5,0.6c0.2,0.1,0.3,0.2,0.3,0.3c0,0,0,0.2-0.1,0.4
		C-182.1,447.9-182.3,450.2-182.3,452.6z M-188,452.7c0-1-0.3-1.8-0.9-2.5s-1.4-1-2.5-1s-1.8,0.3-2.4,1c-0.6,0.6-0.9,1.5-0.9,2.5
		c0,0.9,0.3,1.8,1,2.4c0.7,0.7,1.5,1,2.4,1c1,0,1.8-0.3,2.4-1S-188,453.7-188,452.7z"/>
	<path class="st3" d="M-150.7,460.7c0,0.4-0.2,0.6-0.5,0.7s-1.2,0.1-2.6,0.1c-1.4,0-2.3,0-2.7-0.1s-0.5-0.4-0.5-0.9
		c0-0.5,0-1.3,0.1-2.4s0.1-1.9,0.1-2.4c0-2.1,0-3.5-0.1-4.4c-0.1-1.4-0.7-2.1-2-2.1c-0.6,0-1.1,0.2-1.6,0.7s-0.8,1-0.9,1.5
		c0,0.5-0.1,1.9-0.1,4.3c0,0.6,0,1.4,0.1,2.5s0.1,2,0.1,2.5c0,0.4-0.2,0.6-0.5,0.6h-5.3c-0.3,0-0.5-0.2-0.5-0.7c0-0.6,0-1.4,0.1-2.5
		s0.1-1.9,0.1-2.5c0-0.4,0-1.1,0-2s0-1.5,0-2c0-1.7-0.6-2.5-1.9-2.5c-0.5,0-1.1,0.2-1.7,0.6c-0.7,0.4-1,0.9-1,1.4c0,1.1,0,2.7,0,4.8
		s0,3.7,0,4.8c0,0.3,0,0.5-0.1,0.5s-0.3,0.1-0.5,0.1c-0.5,0-1.4,0.1-2.5,0.1c-0.7,0-1.6,0-2.5-0.1c-0.3,0-0.4-0.1-0.5-0.1
		s-0.1-0.2-0.1-0.5c0-0.9,0-2.3,0-4.2s0-3.3,0-4.2c0-1.9-0.1-4.1-0.4-6.5c0-0.1,0-0.2,0-0.3c0-0.2,0.1-0.3,0.2-0.4
		c0.3-0.1,0.7-0.2,1.5-0.3c0.9-0.1,1.4-0.1,1.6-0.2c0.1,0,0.6-0.1,1.4-0.4c0.6-0.2,1-0.2,1.4-0.2c0.2,0,0.3,0.4,0.4,1.2
		s0.1,1.2,0.1,1.2c0.1,0,0.3-0.1,0.4-0.2c1.1-0.8,1.9-1.4,2.5-1.7c0.9-0.4,1.9-0.7,2.9-0.7c1.1,0,2,0.2,2.9,0.7
		c0.9,0.5,1.6,1.3,1.8,2.3c0.6-0.8,1.5-1.6,2.6-2.1s2.2-0.9,3.2-0.9c1.5,0,2.8,0.4,3.8,1.1c1.1,0.8,1.7,2,1.7,3.5
		c0,0.6,0,1.6-0.1,2.8s-0.1,2.2-0.1,2.8c0,0.7,0,1.8,0.1,3.3S-150.7,460-150.7,460.7z"/>
	<path class="st3" d="M-131.3,451.8c0,1.2-0.4,1.9-1.1,2c-0.1,0-1.3,0.2-3.6,0.4c-1.4,0.2-3.4,0.3-6.2,0.5c0.2,0.8,0.7,1.3,1.5,1.7
		c0.7,0.3,1.5,0.5,2.3,0.5c1,0,2.1-0.3,3.1-0.8c0.4-0.3,0.9-0.6,1.3-0.8c0.2,0.1,0.7,0.7,1.2,1.8s0.9,1.8,0.9,2.1
		c0,0.1-0.1,0.2-0.3,0.4c-1.4,1.5-3.7,2.3-6.7,2.3c-2.8,0-5-0.8-6.8-2.4c-1.8-1.7-2.6-3.9-2.6-6.6c0-2.7,0.8-4.9,2.4-6.6
		c1.6-1.8,3.8-2.7,6.4-2.7c2.3,0,4.2,0.8,5.7,2.5S-131.3,449.5-131.3,451.8z M-137.5,450.7c0-0.7-0.3-1.4-0.8-1.9s-1.1-0.8-1.8-0.8
		c-0.7,0-1.3,0.3-1.8,0.9c-0.4,0.6-0.7,1.2-0.7,2c0,0.3,0.2,0.5,0.5,0.5c0.9,0,2.2-0.1,4-0.4C-137.6,451-137.5,450.9-137.5,450.7z"
		/>
	<path class="st3" d="M-119.1,447.1c0,0.1-0.1,0.3-0.3,0.5c-0.3-0.1-0.7-0.1-1-0.1c-0.7,0-1.3,0.2-1.7,0.5c-0.6,0.4-0.8,0.8-0.8,1.5
		c0,0.4,0.3,0.9,0.9,1.6c0.9,0.9,1.5,1.6,1.7,1.9c0.6,0.9,0.9,1.8,0.9,2.9c0,0.6-0.1,1.2-0.4,1.9c-0.3,0.7-0.6,1.3-1,1.6
		c-0.9,0.8-1.9,1.4-3,1.9c-1.3,0.5-2.4,0.8-3.5,0.8c-0.2,0-0.8-0.6-1.6-1.9s-1.2-2-1.2-2.3c0-0.1,0.1-0.2,0.2-0.2
		c0.8-0.2,1.6-0.3,2.5-0.5c1-0.3,1.5-0.9,1.5-1.6c0-0.5-0.3-1.1-0.9-1.8c-1.1-1.2-1.6-1.8-1.7-1.9c-0.6-0.8-0.9-1.7-0.9-2.7
		c0-1.8,0.9-3.3,2.7-4.5c1.6-1.1,3.3-1.6,5.1-1.6c0.2,0,0.7,0.6,1.4,1.9S-119.1,446.9-119.1,447.1z"/>
</g>
</svg>
