<?xml version="1.0" encoding="utf-8"?>
<!-- Generator: Adobe Illustrator 16.0.4, SVG Export Plug-In . SVG Version: 6.00 Build 0)  -->
<!DOCTYPE svg PUBLIC "-//W3C//DTD SVG 1.1//EN" "http://www.w3.org/Graphics/SVG/1.1/DTD/svg11.dtd">
<svg version="1.1" id="Layer_1" xmlns="http://www.w3.org/2000/svg" xmlns:xlink="http://www.w3.org/1999/xlink" x="0px" y="0px"
	 width="604.6px" height="159.7px" viewBox="0 0 604.6 159.7" style="enable-background:new 0 0 604.6 159.7;" xml:space="preserve"
	>
<style type="text/css">
<![CDATA[
	.st0{fill:none;stroke:#009444;stroke-width:8.2985;stroke-miterlimit:10;}
	.st1{fill:none;stroke:#E1871E;stroke-width:4.1406;stroke-miterlimit:10;}
	.st2{fill:none;stroke:#00AEEF;stroke-width:17.3271;stroke-miterlimit:10;}
	.st3{fill:none;stroke:#00AEEF;stroke-width:7.8639;stroke-miterlimit:10;}
	.st4{fill:#E0E0E0;}
	.st5{fill:#E1871E;}
	.st6{opacity:0.6;clip-path:url(#SVGID_18_);fill:url(#SVGID_19_);}
	.st7{fill:none;stroke:#00AEEF;stroke-width:4.1406;stroke-miterlimit:10;}
	.st8{fill:#ED1C24;}
	.st9{fill:none;stroke:#414042;stroke-width:13.892;stroke-miterlimit:10;}
	.st10{fill:none;stroke:#FFFFFF;stroke-width:0.6732;stroke-miterlimit:10;}
	.st11{opacity:0.8;fill:#FFFFFF;}
	.st12{fill:none;stroke:#E1871E;stroke-width:8.2985;stroke-miterlimit:10;}
	.st13{clip-path:url(#SVGID_18_);fill:none;stroke:#00AEEF;stroke-width:24.9644;stroke-miterlimit:10;}
	.st14{opacity:0.6;fill:url(#SVGID_3_);}
	.st15{opacity:0.6;fill:url(#SVGID_4_);}
	.st16{opacity:0.6;fill:url(#SVGID_7_);}
	.st17{opacity:0.6;fill:url(#SVGID_8_);}
	.st18{fill:#231F20;}
	.st19{fill:#00AEEF;stroke:#00AEEF;stroke-width:1.5728;stroke-linejoin:round;stroke-miterlimit:10;}
	.st20{opacity:0.9;fill:url(#SVGID_15_);stroke:url(#SVGID_16_);stroke-miterlimit:10;}
	.st21{fill:none;stroke:#00AEEF;stroke-width:8.2985;stroke-miterlimit:10;}
	.st22{fill:#00AEEF;stroke:#00AEEF;stroke-width:1.6597;stroke-linejoin:round;stroke-miterlimit:10;}
	.st23{clip-path:url(#SVGID_2_);}
	.st24{fill:url(#SVGID_5_);}
	.st25{fill:url(#SVGID_6_);}
	.st26{fill:url(#SVGID_9_);}
	.st27{fill:#2BB673;}
	.st28{clip-path:url(#SVGID_21_);fill:none;stroke:#00AEEF;stroke-width:24.9644;stroke-miterlimit:10;}
	.st29{opacity:0.8;}
	.st30{fill:#FFFFFF;}
	.st31{opacity:0.6;clip-path:url(#SVGID_21_);fill:url(#SVGID_22_);}
	.st32{fill:none;stroke:#00AEEF;stroke-width:18.2529;stroke-miterlimit:10;}
	.st33{opacity:0.6;fill:url(#SVGID_11_);}
	.st34{opacity:0.6;fill:url(#SVGID_12_);}
	.st35{opacity:0.6;fill:url(#SVGID_23_);}
	.st36{opacity:0.6;fill:url(#SVGID_24_);}
	.st37{opacity:0.6;fill:url(#SVGID_25_);}
	.st38{opacity:0.6;fill:url(#SVGID_26_);}
	.st39{opacity:0.6;fill:url(#SVGID_27_);}
	.st40{opacity:0.6;fill:url(#SVGID_28_);}
	.st41{opacity:0.6;fill:url(#SVGID_29_);}
	.st42{opacity:0.6;fill:url(#SVGID_30_);}
	.st43{fill:none;stroke:#ED1C24;stroke-width:7.8639;stroke-miterlimit:10;}
	.st44{fill:none;stroke:#009444;stroke-width:7.8639;stroke-miterlimit:10;}
	.st45{opacity:0.8;fill:#414042;}
	.st46{fill:none;stroke:#ED1C24;stroke-width:4.1406;stroke-miterlimit:10;}
	.st47{fill:none;stroke:#009444;stroke-width:4.1406;stroke-miterlimit:10;}
	.st48{fill:url(#SVGID_10_);}
	.st49{fill:url(#SVGID_13_);}
	.st50{fill:url(#SVGID_14_);}
	.st51{fill:none;stroke:#00AEEF;stroke-width:18.9435;stroke-miterlimit:10;}
	.st52{fill:#00AEEF;stroke:#00AEEF;stroke-width:0.8281;stroke-linejoin:round;stroke-miterlimit:10;}
	.st53{fill:#A7A9AC;}
	.st54{fill:none;stroke:#FFFFFF;stroke-width:2.0197;stroke-miterlimit:10;}
	.st55{fill:#414042;}
	.st56{fill:none;stroke:#E1871E;stroke-width:7.8639;stroke-miterlimit:10;}
	.st57{fill:none;stroke:#FFFFFF;stroke-width:0.7395;stroke-miterlimit:10;}
	.st58{fill:none;stroke:#ED1C24;stroke-width:8.2985;stroke-miterlimit:10;}
]]>
</style>
<g>
	<linearGradient id="SVGID_2_" gradientUnits="userSpaceOnUse" x1="9.4717" y1="79.8506" x2="595.166" y2="79.8506">
		<stop  offset="0" style="stop-color:#00B2ED"/>
		<stop  offset="0.9949" style="stop-color:#1D71B8"/>
	</linearGradient>
	<path style="opacity:0.6;fill:url(#SVGID_2_);" d="M595.2,59.7c0-27.8-22.5-50.3-50.3-50.3c-27.8,0-50.3,22.5-50.3,50.3
		c0,0.3,0,0.5,0,0.8H54.3c-24.8,0-44.9,20.1-44.9,44.9c0,24.8,20.1,44.9,44.9,44.9h453.1c23.4,0,42.6-17.9,44.7-40.7
		C576.5,106,595.2,85,595.2,59.7z"/>
	<g>
		<path class="st30" d="M74.8,96.2H80l8.4,19.8h-5.8l-1.4-3.5h-7.6l-1.4,3.5h-5.7L74.8,96.2z M79.5,108.3l-2.2-5.6l-2.2,5.6H79.5z"
			/>
		<path class="st30" d="M91.1,100.8h5.3v2.1c1-1.3,2.4-2.5,4.5-2.5c3.2,0,5.2,2.1,5.2,5.6v9.9h-5.3v-8.2c0-1.7-0.9-2.6-2.1-2.6
			c-1.3,0-2.2,0.9-2.2,2.6v8.2h-5.3V100.8z"/>
		<path class="st30" d="M119.3,96.4h5.5V116h-5.5V96.4z"/>
		<path class="st30" d="M129.1,100.8h5.3v2.1c1-1.3,2.4-2.5,4.5-2.5c3.2,0,5.2,2.1,5.2,5.6v9.9h-5.3v-8.2c0-1.7-0.9-2.6-2.1-2.6
			c-1.3,0-2.2,0.9-2.2,2.6v8.2h-5.3V100.8z"/>
		<path class="st30" d="M149,111.3v-6.2h-1.8v-4.3h1.8V97h5.3v3.8h3.5v4.3h-3.5v5.1c0,1.1,0.5,1.5,1.5,1.5c0.7,0,1.4-0.2,2-0.5v4.2
			c-1,0.5-2.2,0.9-3.7,0.9C150.9,116.3,149,114.9,149,111.3z"/>
		<path class="st30" d="M161.3,100.8h5.3v3.1c0.9-2.1,2.3-3.4,4.8-3.3v5.6h-0.4c-2.8,0-4.3,1.6-4.3,5.1v4.7h-5.3V100.8z"/>
		<path class="st30" d="M173.5,108.5L173.5,108.5c0-4.4,3.5-8,8.4-8c4.8,0,8.4,3.6,8.4,7.9v0.1c0,4.3-3.5,7.9-8.4,7.9
			C177,116.4,173.5,112.8,173.5,108.5z M185.1,108.5L185.1,108.5c0-1.9-1.3-3.5-3.2-3.5c-1.9,0-3.2,1.5-3.2,3.4v0.1
			c0,1.9,1.3,3.4,3.2,3.4C183.8,111.9,185.1,110.3,185.1,108.5z"/>
		<path class="st30" d="M193,108.5L193,108.5c0-5,3.1-8,6.7-8c2.3,0,3.6,1,4.7,2.2v-7.2h5.3V116h-5.3v-2c-1,1.3-2.4,2.4-4.6,2.4
			C196.2,116.3,193,113.3,193,108.5z M204.5,108.4L204.5,108.4c0-2-1.4-3.5-3.1-3.5s-3.1,1.4-3.1,3.4v0.1c0,2,1.4,3.4,3.1,3.4
			S204.5,110.5,204.5,108.4z"/>
		<path class="st30" d="M213.6,110.8v-9.9h5.3v8.2c0,1.7,0.9,2.6,2.2,2.6c1.3,0,2.2-0.9,2.2-2.6v-8.2h5.3V116h-5.3v-2.1
			c-1,1.3-2.4,2.4-4.5,2.4C215.5,116.3,213.6,114.2,213.6,110.8z"/>
		<path class="st30" d="M232,108.5L232,108.5c0-4.3,3.3-8,8.1-8c3.1,0,5.2,1.3,6.5,3.4l-3.6,2.7c-0.7-1-1.5-1.6-2.8-1.6
			c-1.7,0-3,1.5-3,3.4v0.1c0,2,1.2,3.4,3,3.4c1.3,0,2.1-0.6,2.9-1.6l3.6,2.6c-1.4,2.1-3.4,3.5-6.8,3.5
			C235.3,116.4,232,112.8,232,108.5z"/>
		<path class="st30" d="M250.6,111.3v-6.2h-1.8v-4.3h1.8V97h5.3v3.8h3.5v4.3h-3.5v5.1c0,1.1,0.5,1.5,1.5,1.5c0.7,0,1.4-0.2,2-0.5
			v4.2c-1,0.5-2.2,0.9-3.7,0.9C252.5,116.3,250.6,114.9,250.6,111.3z"/>
		<path class="st30" d="M262.9,95.5h5.5v3.9h-5.5V95.5z M263,100.8h5.3V116H263V100.8z"/>
		<path class="st30" d="M271.8,108.5L271.8,108.5c0-4.4,3.5-8,8.4-8c4.8,0,8.4,3.6,8.4,7.9v0.1c0,4.3-3.5,7.9-8.4,7.9
			C275.3,116.4,271.8,112.8,271.8,108.5z M283.3,108.5L283.3,108.5c0-1.9-1.3-3.5-3.2-3.5c-1.9,0-3.2,1.5-3.2,3.4v0.1
			c0,1.9,1.3,3.4,3.2,3.4C282.1,111.9,283.3,110.3,283.3,108.5z"/>
		<path class="st30" d="M291.9,100.8h5.3v2.1c1-1.3,2.4-2.5,4.5-2.5c3.2,0,5.2,2.1,5.2,5.6v9.9h-5.3v-8.2c0-1.7-0.9-2.6-2.1-2.6
			c-1.3,0-2.2,0.9-2.2,2.6v8.2h-5.3V100.8z"/>
		<path class="st30" d="M319.4,104.9h9.2v4.7h-9.2V104.9z"/>
		<path class="st30" d="M340,100.8h5.2l2,7.6l2.3-7.7h4.4l2.4,7.7l2-7.7h5.1l-4.7,15.3h-4.6l-2.5-7.9l-2.5,7.9h-4.6L340,100.8z"/>
		<path class="st30" d="M366.4,95.5h5.3v7.4c1-1.3,2.4-2.4,4.5-2.4c3.2,0,5.2,2.1,5.2,5.6v9.9h-5.3v-8.2c0-1.7-0.9-2.6-2.1-2.6
			c-1.3,0-2.2,0.9-2.2,2.6v8.2h-5.3V95.5z"/>
		<path class="st30" d="M384.5,111.7L384.5,111.7c0-3.2,2.4-4.8,5.9-4.8c1.4,0,2.8,0.3,3.6,0.6v-0.3c0-1.6-1-2.5-3-2.5
			c-1.6,0-2.8,0.3-4.2,0.8l-1.1-3.8c1.7-0.7,3.5-1.2,6.1-1.2c2.7,0,4.6,0.6,5.8,1.9c1.1,1.1,1.6,2.7,1.6,4.8v8.7h-5.3v-1.6
			c-1,1.1-2.5,1.9-4.5,1.9C386.8,116.3,384.5,114.7,384.5,111.7z M394.2,110.5v-0.7c-0.5-0.2-1.3-0.4-2.1-0.4
			c-1.5,0-2.4,0.8-2.4,1.9v0.1c0,1,0.8,1.7,1.9,1.7C393.1,113,394.2,112,394.2,110.5z"/>
		<path class="st30" d="M404,111.3v-6.2h-1.8v-4.3h1.8V97h5.3v3.8h3.5v4.3h-3.5v5.1c0,1.1,0.5,1.5,1.5,1.5c0.7,0,1.4-0.2,2-0.5v4.2
			c-1,0.5-2.2,0.9-3.7,0.9C405.9,116.3,404,114.9,404,111.3z"/>
		<path class="st30" d="M425.2,95.5h5.5v3.9h-5.5V95.5z M425.3,100.8h5.3V116h-5.3V100.8z"/>
		<path class="st30" d="M433.5,114.1l2-3.2c1.7,1.2,3.6,1.7,5.2,1.7c0.9,0,1.3-0.3,1.3-0.8v-0.1c0-0.6-0.8-0.8-2.4-1.3
			c-3-0.8-5.4-1.8-5.4-4.9v-0.1c0-3.2,2.6-5,6.1-5c2.2,0,4.5,0.6,6.3,1.8l-1.8,3.4c-1.6-0.9-3.3-1.4-4.5-1.4c-0.8,0-1.2,0.3-1.2,0.7
			v0.1c0,0.6,0.9,0.9,2.5,1.3c3,0.8,5.4,1.9,5.4,4.8v0.1c0,3.3-2.5,5.1-6.2,5.1C438.2,116.3,435.6,115.6,433.5,114.1z"/>
		<path class="st30" d="M459.1,95.5h5.5v3.9h-5.5V95.5z M459.2,100.8h5.3V116h-5.3V100.8z"/>
		<path class="st30" d="M469.6,111.3v-6.2h-1.8v-4.3h1.8V97h5.3v3.8h3.5v4.3h-3.5v5.1c0,1.1,0.5,1.5,1.5,1.5c0.7,0,1.4-0.2,2-0.5
			v4.2c-1,0.5-2.2,0.9-3.7,0.9C471.5,116.3,469.6,114.9,469.6,111.3z"/>
		<path class="st30" d="M485.1,104.9l0.2-0.3c3.3-0.3,4.4-1,4.4-2.2v0c0-1-0.8-1.5-2.1-1.5c-1.3,0-2.8,0.7-4.1,1.9l-2.8-3.7
			c1.7-1.7,4-2.9,7.3-2.9c4.1,0,7,2.2,7,5.9v0.1c0,3.5-2.4,5-5.5,5.8l-0.3,1.8h-3.4L485.1,104.9z M484.6,111.2h5.5v4.8h-5.5V111.2z"
			/>
	</g>
	<g>
		<path class="st30" d="M517.1,55.5h-3.6v-3.4h3.6v-3.5h3.5v3.5h3.6v3.4h-3.6V59h-3.5V55.5z"/>
		<path class="st30" d="M529.5,50.3l-2.4,0.5l-0.8-3l4.2-1.2h2.9v14.3h-3.9V50.3z"/>
		<path class="st30" d="M536.4,53.9L536.4,53.9c0-4.1,2.6-7.4,6.6-7.4s6.5,3.3,6.5,7.3v0c0,4-2.5,7.4-6.6,7.4S536.4,57.9,536.4,53.9
			z M545.6,53.9L545.6,53.9c0-2.3-1.1-3.9-2.6-3.9s-2.6,1.6-2.6,3.9v0c0,2.3,1.1,3.9,2.6,3.9S545.6,56.1,545.6,53.9z"/>
		<path class="st30" d="M555,55.4l-3.6-5.4h4.2l1.6,2.7l1.6-2.7h4.1l-3.6,5.4l3.7,5.6h-4.1l-1.7-2.8l-1.7,2.8h-4.1L555,55.4z"/>
		<path class="st30" d="M564.9,50h3.8v1.5c0.8-0.9,1.7-1.7,3.3-1.7c2.6,0,4.9,2.2,4.9,5.7v0c0,3.6-2.2,5.7-4.8,5.7
			c-1.7,0-2.6-0.8-3.3-1.6v4.6h-3.8V50z M573.2,55.4L573.2,55.4c0-1.5-1-2.5-2.2-2.5c-1.2,0-2.2,1-2.2,2.5v0c0,1.5,1,2.5,2.2,2.5
			C572.2,57.9,573.2,56.9,573.2,55.4z"/>
	</g>
	<path class="st51" d="M595.2,59.7c0-27.8-22.5-50.3-50.3-50.3c-27.8,0-50.3,22.5-50.3,50.3c0,0.3,0,0.5,0,0.8H54.3
		c-24.8,0-44.9,20.1-44.9,44.9c0,24.8,20.1,44.9,44.9,44.9h453.1c23.4,0,42.6-17.9,44.7-40.7C576.5,106,595.2,85,595.2,59.7z"/>
</g>
</svg>
