<?xml version="1.0" encoding="utf-8"?>
<!-- Generator: Adobe Illustrator 16.0.4, SVG Export Plug-In . SVG Version: 6.00 Build 0)  -->
<!DOCTYPE svg PUBLIC "-//W3C//DTD SVG 1.1//EN" "http://www.w3.org/Graphics/SVG/1.1/DTD/svg11.dtd">
<svg version="1.1" id="Layer_1" xmlns="http://www.w3.org/2000/svg" xmlns:xlink="http://www.w3.org/1999/xlink" x="0px" y="0px"
	 width="188.3px" height="189.2px" viewBox="0 0 188.3 189.2" style="enable-background:new 0 0 188.3 189.2;" xml:space="preserve"
	>
<style type="text/css">
<![CDATA[
	.st0{fill:none;stroke:#009444;stroke-width:8.2985;stroke-miterlimit:10;}
	.st1{fill:none;stroke:#E1871E;stroke-width:4.1406;stroke-miterlimit:10;}
	.st2{fill:none;stroke:#00AEEF;stroke-width:17.3271;stroke-miterlimit:10;}
	.st3{fill:none;stroke:#00AEEF;stroke-width:7.8639;stroke-miterlimit:10;}
	.st4{fill:#E0E0E0;}
	.st5{fill:#E1871E;}
	.st6{opacity:0.6;clip-path:url(#SVGID_18_);fill:url(#SVGID_19_);}
	.st7{fill:none;stroke:#00AEEF;stroke-width:4.1406;stroke-miterlimit:10;}
	.st8{fill:#ED1C24;}
	.st9{fill:none;stroke:#414042;stroke-width:13.892;stroke-miterlimit:10;}
	.st10{fill:none;stroke:#FFFFFF;stroke-width:0.6732;stroke-miterlimit:10;}
	.st11{opacity:0.8;fill:#FFFFFF;}
	.st12{fill:none;stroke:#E1871E;stroke-width:8.2985;stroke-miterlimit:10;}
	.st13{clip-path:url(#SVGID_18_);fill:none;stroke:#00AEEF;stroke-width:24.9644;stroke-miterlimit:10;}
	.st14{opacity:0.6;fill:url(#SVGID_3_);}
	.st15{opacity:0.6;fill:url(#SVGID_4_);}
	.st16{opacity:0.6;fill:url(#SVGID_7_);}
	.st17{opacity:0.6;fill:url(#SVGID_8_);}
	.st18{fill:#231F20;}
	.st19{fill:#00AEEF;stroke:#00AEEF;stroke-width:1.5728;stroke-linejoin:round;stroke-miterlimit:10;}
	.st20{opacity:0.9;fill:url(#SVGID_15_);stroke:url(#SVGID_16_);stroke-miterlimit:10;}
	.st21{fill:none;stroke:#00AEEF;stroke-width:8.2985;stroke-miterlimit:10;}
	.st22{fill:#00AEEF;stroke:#00AEEF;stroke-width:1.6597;stroke-linejoin:round;stroke-miterlimit:10;}
	.st23{clip-path:url(#SVGID_2_);}
	.st24{fill:url(#SVGID_5_);}
	.st25{fill:url(#SVGID_6_);}
	.st26{fill:url(#SVGID_9_);}
	.st27{fill:#2BB673;}
	.st28{clip-path:url(#SVGID_21_);fill:none;stroke:#00AEEF;stroke-width:24.9644;stroke-miterlimit:10;}
	.st29{opacity:0.8;}
	.st30{fill:#FFFFFF;}
	.st31{opacity:0.6;clip-path:url(#SVGID_21_);fill:url(#SVGID_22_);}
	.st32{fill:none;stroke:#00AEEF;stroke-width:18.2529;stroke-miterlimit:10;}
	.st33{opacity:0.6;fill:url(#SVGID_11_);}
	.st34{opacity:0.6;fill:url(#SVGID_12_);}
	.st35{opacity:0.6;fill:url(#SVGID_23_);}
	.st36{opacity:0.6;fill:url(#SVGID_24_);}
	.st37{opacity:0.6;fill:url(#SVGID_25_);}
	.st38{opacity:0.6;fill:url(#SVGID_26_);}
	.st39{opacity:0.6;fill:url(#SVGID_27_);}
	.st40{opacity:0.6;fill:url(#SVGID_28_);}
	.st41{opacity:0.6;fill:url(#SVGID_29_);}
	.st42{opacity:0.6;fill:url(#SVGID_30_);}
	.st43{fill:none;stroke:#ED1C24;stroke-width:7.8639;stroke-miterlimit:10;}
	.st44{fill:none;stroke:#009444;stroke-width:7.8639;stroke-miterlimit:10;}
	.st45{opacity:0.8;fill:#414042;}
	.st46{fill:none;stroke:#ED1C24;stroke-width:4.1406;stroke-miterlimit:10;}
	.st47{fill:none;stroke:#009444;stroke-width:4.1406;stroke-miterlimit:10;}
	.st48{fill:url(#SVGID_10_);}
	.st49{fill:url(#SVGID_13_);}
	.st50{fill:url(#SVGID_14_);}
	.st51{fill:none;stroke:#00AEEF;stroke-width:18.9435;stroke-miterlimit:10;}
	.st52{fill:#00AEEF;stroke:#00AEEF;stroke-width:0.8281;stroke-linejoin:round;stroke-miterlimit:10;}
	.st53{fill:#A7A9AC;}
	.st54{fill:none;stroke:#FFFFFF;stroke-width:2.0197;stroke-miterlimit:10;}
	.st55{fill:#414042;}
	.st56{fill:none;stroke:#E1871E;stroke-width:7.8639;stroke-miterlimit:10;}
	.st57{fill:none;stroke:#FFFFFF;stroke-width:0.7395;stroke-miterlimit:10;}
	.st58{fill:none;stroke:#ED1C24;stroke-width:8.2985;stroke-miterlimit:10;}
]]>
</style>
<g>
	<g>
		<g>
			<linearGradient id="SVGID_2_" gradientUnits="userSpaceOnUse" x1="8.6626" y1="94.3184" x2="179.6372" y2="94.3184">
				<stop  offset="0" style="stop-color:#00B2ED"/>
				<stop  offset="0.9949" style="stop-color:#1D71B8"/>
			</linearGradient>
			<path style="opacity:0.6;fill:url(#SVGID_2_);" d="M179.6,38c0-16.3-13.2-29.6-29.6-29.6c-11.8,0-22.1,7-26.8,17
				c-2.2-0.3-4.5-0.5-6.8-0.5H56.1c-26.2,0-47.5,21.3-47.5,47.5v60.4c0,26.2,21.3,47.5,47.5,47.5h60.4c26.2,0,47.5-21.3,47.5-47.5
				V72.4c0-2.7-0.2-5.4-0.7-8C173,59.5,179.6,49.5,179.6,38z"/>
			<path class="st2" d="M179.6,38.2c0-16.3-13.2-29.6-29.6-29.6c-11.8,0-22.1,7-26.8,17c-2.2-0.3-4.5-0.5-6.8-0.5H56.1
				c-26.2,0-47.5,21.3-47.5,47.5V133c0,26.2,21.3,47.5,47.5,47.5h60.4c26.2,0,47.5-21.3,47.5-47.5V72.7c0-2.7-0.2-5.4-0.7-8
				C173,59.8,179.6,49.8,179.6,38.2z"/>
		</g>
		<g>
			<path class="st30" d="M137.9,33.3h-2.6v-2.5h2.6v-2.6h2.6v2.6h2.6v2.5h-2.6v2.6h-2.6V33.3z"/>
			<path class="st30" d="M144.9,35.9l1.7-2c0.9,0.7,1.7,1.1,2.6,1.1c1,0,1.5-0.5,1.5-1.2v0c0-0.8-0.6-1.2-1.5-1.2
				c-0.6,0-1.2,0.2-1.7,0.5l-1.7-1l0.3-5.3h7v2.4h-4.7l-0.1,1.6c0.5-0.2,1-0.4,1.7-0.4c1.9,0,3.6,1.1,3.6,3.3v0
				c0,2.3-1.8,3.8-4.3,3.8C147.3,37.6,146,36.9,144.9,35.9z"/>
			<path class="st30" d="M155.3,32.1L155.3,32.1c0-3,1.9-5.5,4.9-5.5c3,0,4.9,2.5,4.9,5.5v0c0,3-1.9,5.5-4.9,5.5
				C157.2,37.6,155.3,35.1,155.3,32.1z M162.1,32.1L162.1,32.1c0-1.7-0.8-2.9-2-2.9c-1.2,0-1.9,1.2-1.9,2.9v0c0,1.7,0.8,2.9,2,2.9
				C161.4,35,162.1,33.8,162.1,32.1z"/>
			<path class="st30" d="M147.8,43.2l-2.7-4h3.1l1.2,2l1.2-2h3l-2.7,4l2.7,4.1h-3.1l-1.3-2.1l-1.3,2.1h-3L147.8,43.2z"/>
			<path class="st30" d="M155.2,39.2h2.9v1.1c0.6-0.7,1.2-1.3,2.5-1.3c1.9,0,3.6,1.6,3.6,4.2v0c0,2.7-1.7,4.3-3.6,4.3
				c-1.2,0-2-0.6-2.5-1.2v3.4h-2.9V39.2z M161.3,43.2L161.3,43.2c0-1.1-0.7-1.9-1.7-1.9c-0.9,0-1.7,0.8-1.7,1.8v0
				c0,1.1,0.7,1.9,1.7,1.9C160.6,45.1,161.3,44.3,161.3,43.2z"/>
		</g>
	</g>
	<g>
		<path class="st30" d="M45.5,102L45.5,102c0-5.5,4.4-9.9,10.2-9.9s10.2,4.3,10.2,9.8v0.1c0,5.4-4.4,9.8-10.2,9.8
			C49.8,111.8,45.5,107.4,45.5,102z M60.5,102L60.5,102c0-2.8-2-5.2-4.9-5.2c-2.9,0-4.8,2.3-4.8,5.1v0.1c0,2.7,2,5.1,4.8,5.1
			C58.6,107.1,60.5,104.7,60.5,102z"/>
		<path class="st30" d="M70.3,106.9v-5.9h-1.7v-4.1h1.7v-3.7h5.1v3.7h3.4v4.1h-3.4v4.9c0,1,0.5,1.5,1.4,1.5c0.7,0,1.3-0.2,1.9-0.5v4
			c-0.9,0.5-2.1,0.8-3.6,0.8C72.1,111.7,70.3,110.4,70.3,106.9z"/>
		<path class="st30" d="M82.1,91.7h5.1v7.1c0.9-1.2,2.3-2.3,4.4-2.3c3.1,0,5,2.1,5,5.4v9.6h-5.1v-7.9c0-1.6-0.8-2.5-2.1-2.5
			c-1.2,0-2.2,0.9-2.2,2.5v7.9h-5.1V91.7z"/>
		<path class="st30" d="M99.7,104.2L99.7,104.2c0-4.3,3.1-7.7,7.4-7.7c5.1,0,7.4,3.7,7.4,8c0,0.3,0,0.7,0,1.1h-9.8
			c0.4,1.6,1.6,2.4,3.2,2.4c1.2,0,2.2-0.5,3.2-1.5l2.8,2.4c-1.4,1.8-3.4,3-6.3,3C103,111.8,99.7,108.7,99.7,104.2z M109.7,102.9
			c-0.2-1.6-1.1-2.6-2.5-2.6c-1.4,0-2.3,1.1-2.5,2.6H109.7z"/>
		<path class="st30" d="M117.8,96.8h5.1v2.9c0.8-2,2.2-3.3,4.6-3.2v5.4h-0.4c-2.7,0-4.2,1.5-4.2,4.9v4.5h-5.1V96.8z"/>
	</g>
</g>
</svg>
