<?xml version="1.0" encoding="utf-8"?>
<!-- Generator: Adobe Illustrator 19.0.0, SVG Export Plug-In . SVG Version: 6.00 Build 0)  -->
<svg version="1.1" id="Layer_1" xmlns="http://www.w3.org/2000/svg" xmlns:xlink="http://www.w3.org/1999/xlink" x="0px" y="0px"
	 viewBox="-497 346.3 604.6 159.7" style="enable-background:new -497 346.3 604.6 159.7;" xml:space="preserve">
<style type="text/css">
	.st0{opacity:0.6;fill:url(#SVGID_1_);enable-background:new    ;}
	.st1{fill:none;stroke:#00AEEF;stroke-width:18.9435;stroke-miterlimit:10;}
	.st2{fill:#F7F7F7;}
	.st3{fill:#FFFFFF;}
</style>
<linearGradient id="SVGID_1_" gradientUnits="userSpaceOnUse" x1="-486.3333" y1="421.4833" x2="99.4666" y2="421.4833" gradientTransform="matrix(1 0 0 1 0 4.6)">
	<stop  offset="0" style="stop-color:#00B2ED"/>
	<stop  offset="0.9949" style="stop-color:#1D71B8"/>
</linearGradient>
<path class="st0" d="M99.5,405.9c0-27.8-22.5-50.3-50.3-50.3s-50.3,22.5-50.3,50.3c0,0.3,0,0.5,0,0.8h-440.3
	c-24.8,0-44.9,20.1-44.9,44.9s20.1,44.9,44.9,44.9H11.7c23.4,0,42.6-17.9,44.7-40.7C80.8,452.2,99.5,431.2,99.5,405.9z"/>
<path class="st1" d="M99.5,405.9c0-27.8-22.5-50.3-50.3-50.3s-50.3,22.5-50.3,50.3c0,0.3,0,0.5,0,0.8h-440.3
	c-24.8,0-44.9,20.1-44.9,44.9s20.1,44.9,44.9,44.9H11.7c23.4,0,42.6-17.9,44.7-40.7C80.8,452.2,99.5,431.2,99.5,405.9z"/>
<g>
	<path class="st2" d="M25.8,400.7c-0.4,0-0.9,0-1.7,0s-1.4,0-1.7,0c0,0.3,0,0.9,0.1,1.8c0,0.7,0,1.3,0,1.8c0,0.3-0.6,0.5-1.8,0.5
		c-1.1,0-1.7-0.1-1.7-0.3c0-0.5,0-1.1,0-1.9c0-1.1,0-1.7,0-1.9c-2,0.1-3.1,0.1-3.2,0.1c-0.1,0-0.2-0.1-0.2-0.4c0-0.1,0-0.5,0.1-1.3
		c0-0.5,0-0.9,0-1.4c0.1-0.1,0.2-0.2,0.3-0.2c0.4,0,0.9,0,1.5,0c0.8,0,1.3,0,1.5,0c0-0.7,0-1.4,0-2.2v-1.4c0-0.1,0.1-0.2,0.3-0.2
		c0.3,0,0.7,0,1.3,0s1,0,1.3,0c0.4,0,0.6,0.1,0.6,0.2c0,0.4,0,1,0,1.8s0,1.4,0,1.8c1.7,0,2.8,0,3.4,0c0.2,0,0.2,0.1,0.2,0.2
		s0,0.6-0.1,1.4c0,0.3,0,0.8-0.1,1.5C25.9,400.6,25.8,400.7,25.8,400.7z"/>
	<path class="st2" d="M38.2,401.2c0,3.5-2.2,5.2-6.5,5.2c-0.6,0-1.5-0.1-2.5-0.2c-1.4-0.2-2.1-0.4-2.1-0.6c0-0.1,0-0.4,0-1
		c0-0.3,0-0.8,0.1-1.3c0.1-0.7,0.2-1.1,0.4-1.1c0,0,0.1,0,0.2,0.1c0.9,0.5,2,0.7,3.2,0.7c1.7,0,2.6-0.6,2.6-1.7
		c0-0.6-0.3-1.1-0.9-1.4c-0.5-0.3-1.1-0.4-1.8-0.4c-0.3,0-0.7,0-1.3,0.1s-1,0.1-1.3,0.1s-0.4-0.1-0.4-0.4c0-0.8,0-1.9,0.1-3.4
		c0.1-1.5,0.1-2.7,0.1-3.4c0-0.1,0.1-0.3,0.2-0.5c0.1-0.2,0.2-0.3,0.4-0.3c0.2,0,1.3,0,3.3,0c2.3,0,3.8,0,4.6,0
		c0.2,0,0.3,0.1,0.3,0.3c0,0.4,0,1.1-0.1,1.8c-0.1,1-0.3,1.5-0.4,1.5h-0.1c-1.8-0.2-2.9-0.2-3.3-0.2c-0.9,0-1.3,0-1.4,0.1
		c-0.1,0.2-0.2,0.7-0.2,1.3c0,0.1,0,0.2,0.1,0.2c0.2,0,0.5,0,0.9-0.1c0.4,0,0.7-0.1,0.9-0.1c1.5,0,2.7,0.4,3.6,1.2
		C37.7,398.7,38.2,399.8,38.2,401.2z"/>
	<path class="st2" d="M53.3,399c0,2-0.7,3.7-2,5.2c-1.4,1.5-3,2.3-5,2.3s-3.7-0.8-5-2.3c-1.3-1.4-2-3.2-2-5.2s0.7-3.8,2-5.2
		c1.3-1.5,3-2.2,5-2.2s3.7,0.7,5,2.2C52.7,395.3,53.3,397,53.3,399z M49,399c0-0.8-0.2-1.5-0.7-2.1s-1.1-0.9-1.9-0.9
		c-0.8,0-1.5,0.3-1.9,0.9c-0.5,0.6-0.7,1.3-0.7,2.1c0,0.8,0.2,1.5,0.7,2.1s1.1,1,1.9,1c0.8,0,1.4-0.3,1.9-1
		C48.7,400.5,49,399.8,49,399z"/>
	<path class="st2" d="M65.2,405.8c0,0.2-0.1,0.3-0.4,0.3c-0.5,0.1-0.9,0.1-1.5,0.1c-0.5,0-1,0-1.4-0.1c-0.1,0-0.2-0.1-0.4-0.2
		c-0.4-0.5-1-1.4-1.7-2.4c-0.2,0.2-0.8,1-1.9,2.4c-0.1,0.1-0.2,0.2-0.4,0.3c-0.3,0.1-0.7,0.1-1.3,0.1c-1.2,0-1.9-0.1-1.9-0.4
		c0-0.2,0-0.6,0-1s0-0.8,0-1c0-0.1,0.1-0.3,0.2-0.4c0.6-0.6,1.5-1.6,2.7-2.9c-0.5-0.5-1.1-1-1.6-1.6c-0.9-0.9-1.3-1.4-1.3-1.5v-2.1
		c0-0.2,0.1-0.3,0.4-0.3c0.3,0,0.8,0,1.4,0s1.1,0,1.4,0c0.2,0,0.3,0.1,0.4,0.3c0.4,0.6,1,1.3,1.8,2.2c0.7-0.9,1.3-1.6,1.7-2.2
		c0.1-0.2,0.3-0.2,0.4-0.2c0.3,0,0.8,0,1.5,0s1.1,0,1.5,0c0.3,0,0.4,0.1,0.4,0.3v2.1c0,0.1-0.1,0.3-0.2,0.4
		c-0.6,0.6-1.5,1.5-2.6,2.7c0.6,0.6,1.5,1.6,2.6,2.8c0.1,0.1,0.2,0.3,0.2,0.4C65.2,403.9,65.2,405.8,65.2,405.8z"/>
	<path class="st2" d="M79.5,400.5c0,1.7-0.5,3.1-1.5,4.2s-2.3,1.7-4,1.7c-0.6,0-1.2-0.1-1.9-0.4s-1-0.4-0.9-0.4
		c-0.1,0-0.2,0.1-0.2,0.4c0,0.4,0,1,0.1,1.8s0.1,1.4,0.1,1.8c0,0.3-0.1,0.4-0.4,0.4h-2.4c-0.5,0-0.9,0-1-0.1
		c-0.2-0.1-0.4-0.2-0.4-0.4v-9c0-1.8-0.1-3.4-0.4-4.6c0-0.1,0-0.1,0-0.2s0-0.2,0.1-0.2c0.3-0.1,0.9-0.2,1.7-0.4
		c0.8-0.1,1.4-0.2,1.8-0.2c0.3,0,0.5,0.2,0.5,0.6s0.1,0.6,0.2,0.6c-0.1,0,0.3-0.2,1-0.6s1.4-0.6,2-0.6c1.7,0,3.1,0.6,4.1,1.7
		C79.1,397.4,79.5,398.8,79.5,400.5z M75.2,400.5c0-0.6-0.2-1.2-0.6-1.6c-0.4-0.5-0.9-0.7-1.5-0.7s-1.1,0.2-1.5,0.7
		c-0.3,0.4-0.5,1-0.5,1.6c0,0.7,0.2,1.2,0.5,1.7c0.4,0.5,0.9,0.7,1.5,0.7C74.5,402.8,75.2,402,75.2,400.5z"/>
</g>
<g>
	<path class="st3" d="M-389,452.5c0,1.4,0,3.5,0.1,6.2s0.1,4.9,0.1,6.2c0,0.2-0.1,0.4-0.2,0.4c0,0-0.2,0-0.5,0.1
		c-0.8,0.1-1.8,0.1-3.1,0.1c-1.7,0-2.8,0-3.3-0.1c-0.3-0.1-0.5-0.3-0.5-0.5c0,0.2,0.1-0.8,0.2-3.1c0.2-4.7,0.3-7.9,0.3-9.4
		c0-1.3,0-3.1-0.1-5.6s-0.1-4.4-0.1-5.6c0-0.3,0.1-0.4,0.4-0.4c0.4,0,0.9,0,1.6,0.1s1.3,0.1,1.6,0.1s0.9,0,1.6-0.1s1.2-0.1,1.6-0.1
		c0.3,0,0.5,0.1,0.5,0.4c0,1.3-0.1,3.1-0.2,5.6S-389,451.2-389,452.5z"/>
	<path class="st3" d="M-368,465c0,0.3-0.2,0.5-0.5,0.5s-1.2,0.1-2.6,0.1c-1.5,0-2.4,0-2.7-0.1s-0.5-0.3-0.5-0.7c0-0.6,0-1.4,0.1-2.5
		s0.1-2,0.1-2.5c0-0.4,0-1.1,0-1.9s0-1.5,0-1.9c0-1.6-0.7-2.4-2.1-2.4c-0.5,0-1,0.2-1.6,0.6c-0.7,0.4-1,0.9-1,1.3v9.5
		c0,0.4-0.2,0.6-0.5,0.7c-0.4,0-1.2,0.1-2.5,0.1c-1.4,0-2.3,0-2.7-0.1c-0.4-0.1-0.5-0.3-0.5-0.6c0-0.9,0-2.3,0-4.1s0-3.2,0-4.1
		c0-2.9-0.2-5.2-0.7-6.9c0-0.1,0-0.2,0-0.3c0-0.2,0.1-0.3,0.3-0.4c0.7-0.1,1.7-0.2,3-0.4c1.9-0.4,2.9-0.5,3.1-0.5
		c0.1,0,0.2,0.4,0.3,1.2s0.2,1.2,0.3,1.2c-0.1,0,0.5-0.4,1.9-1.2s2.6-1.2,3.6-1.2c1.5,0,2.7,0.4,3.7,1.1c1.1,0.8,1.7,1.9,1.7,3.4
		v5.6c0,0.8,0,1.9,0,3.4S-368,464.2-368,465z"/>
	<path class="st3" d="M-346.5,440.5c0-0.3,0,0.1-0.1,1.2c-0.1,1.3-0.2,3-0.3,5c-0.1,2.3-0.1,4.9-0.1,7.8c0,4.8,0.1,8.3,0.4,10.3
		c0,0.2,0,0.4,0,0.4c0,0.1-0.1,0.2-0.3,0.2c-0.4,0.1-2,0.1-4.7,0.1c-0.6,0-1-0.1-1.1-0.4c0-0.4,0-0.9-0.1-1.3c0-0.1-0.1-0.2-0.1-0.3
		c-0.1,0-0.2,0.1-0.3,0.2c-1.3,1.2-2.8,1.9-4.7,1.9c-2.5,0-4.5-0.9-5.9-2.6c-1.4-1.7-2.1-3.7-2.1-6.3c0-2.6,0.7-4.7,2.1-6.3
		c1.5-1.8,3.5-2.6,6-2.6c1.8,0,3.1,0.6,4.1,1.7c0.2,0.2,0.3,0.3,0.4,0.3c0.1,0,0.2-0.2,0.2-0.5c0-0.9,0-2.3-0.1-4s-0.1-3.1-0.1-4
		c0-0.3,0.1-0.5,0.3-0.6c0.8,0,1.8-0.1,3.1-0.2c2.3-0.3,3.4-0.4,3.1-0.4C-346.6,440.1-346.5,440.2-346.5,440.5z M-353.1,456.7
		c0-0.9-0.3-1.7-1-2.4s-1.4-1-2.3-1c-1,0-1.7,0.3-2.3,1s-0.9,1.5-0.9,2.5c0,0.9,0.3,1.8,0.9,2.4c0.6,0.7,1.3,1.1,2.3,1.1
		s1.7-0.4,2.4-1.1S-353.1,457.6-353.1,456.7z"/>
	<path class="st3" d="M-319.3,444.2c0,1.2-0.1,2.9-0.2,5.2s-0.2,4-0.2,5.2c0,1.1,0,2.8,0.1,5.1s0.1,3.9,0.1,5c0,0.4-0.2,0.7-0.6,0.8
		c-0.6,0.2-1.9,0.2-3.8,0.2c-1.7,0-2.9,0-3.6-0.1c-0.3,0-0.5-0.2-0.6-0.6c0-0.5-0.1-0.9-0.1-1.4c-0.1-0.7-0.2-1.1-0.3-1.1
		c0.2,0-0.6,0.5-2.4,1.6s-3.4,1.6-4.9,1.6c-4.1,0-6.6-1.9-7.4-5.6c-0.3-1.7-0.5-4.3-0.5-7.5c0-3.6,0.3-6.4,0.9-8.4
		c0.2-0.6,0.5-1,1-1c0.7,0,1.8,0,3.3,0s2.6,0,3.3,0c0.5,0,0.7,0.2,0.7,0.6c0,0.1,0,0.3,0,0.5c-0.3,2.1-0.5,4.3-0.5,6.5
		c0,2.7,0.1,4.6,0.3,5.6c0.3,1.7,1.3,2.6,3.1,2.6c0.7,0,1.4-0.3,2.2-0.9s1.2-1.2,1.3-1.9c0-0.6,0-4.5,0-11.8c0-0.5,0-0.8,0.1-0.9
		c0.1-0.2,0.4-0.2,0.8-0.2c0.8,0,1.9,0,3.5,0s2.7,0,3.5,0c0.5,0,0.7,0.1,0.8,0.4C-319.3,443.7-319.3,443.9-319.3,444.2z"/>
	<path class="st3" d="M-301.7,446.5c0,0.2-0.1,0.4-0.4,0.6c-0.4-0.1-0.9-0.2-1.3-0.2c-0.9,0-1.7,0.2-2.3,0.6c-0.8,0.5-1.1,1.1-1.1,2
		c0,0.5,0.4,1.2,1.2,2.1c1.2,1.3,1.9,2.1,2.2,2.6c0.8,1.2,1.2,2.5,1.2,3.8c0,0.8-0.2,1.6-0.5,2.5c-0.4,1-0.8,1.7-1.4,2.2
		c-1.2,1-2.5,1.8-4.1,2.5c-1.7,0.7-3.2,1.1-4.6,1.1c-0.3,0-1-0.8-2.1-2.5s-1.6-2.7-1.6-3.1c0-0.1,0.1-0.2,0.3-0.3
		c1.1-0.2,2.2-0.4,3.3-0.6c1.4-0.4,2.1-1.2,2.1-2.2c0-0.7-0.4-1.5-1.2-2.4c-1.4-1.6-2.2-2.4-2.2-2.5c-0.8-1.1-1.2-2.3-1.2-3.6
		c0-2.3,1.2-4.3,3.6-6c2.1-1.5,4.4-2.2,6.8-2.2c0.3,0,0.9,0.8,1.9,2.5S-301.7,446.2-301.7,446.5z"/>
	<path class="st3" d="M-282.6,458.6c0,0.5-0.1,1.2-0.2,2.1s-0.2,1.7-0.2,2.1s0,0.7-0.1,0.9s-0.4,0.3-0.8,0.5c-2,1.1-4.3,1.7-6.7,1.7
		c-4.5,0-6.8-1.7-6.8-5.2c0-1,0-2.6,0.1-4.7s0.1-3.6,0.1-4.7c0-0.7-0.4-1-1.2-1c-0.1,0-0.2,0-0.3,0c-0.1,0-0.2,0-0.3,0
		c-0.6,0-0.9-0.2-0.9-0.6c0-0.3,0-0.6,0.1-1.1s0.1-0.9,0.1-1.1c0-0.3,0-0.8-0.1-1.5s-0.1-1.2-0.1-1.5c0-0.3,0.5-0.5,1.5-0.5
		c0.6,0,0.9-0.2,0.9-0.5c0.1-0.6,0.1-1.5,0.1-2.8c-0.1-2-0.1-3-0.1-2.9c0-1.8,0.2-2.7,0.5-2.7c0.4,0,1,0.1,1.8,0.3
		c0.9,0.2,1.5,0.3,1.9,0.4c0.8,0.1,2,0.3,3.6,0.4c0.4,0,0.6,0.2,0.6,0.4c0,0.6-0.1,1.6-0.2,2.8s-0.2,2.2-0.2,2.9
		c0,0.8,0.2,1.1,0.7,1.1c0.5,0,1.4,0,2.5-0.1s1.9-0.1,2.5-0.1c0.3,0,0.5,0.1,0.5,0.4c0,0.4,0,0.9-0.1,1.6s-0.1,1.3-0.1,1.6
		c0,0.4,0,0.9,0,1.6s0,1.3,0,1.6c0,0.3-0.2,0.5-0.7,0.5c-0.3,0-0.8,0-1.6,0s-1.3,0-1.6,0h-1.8c-0.2,0-0.4,0.3-0.4,1
		c0,0.4,0,0.9,0,1.7c0,0.8,0,1.3,0,1.7c0,1.3,0.1,2.2,0.4,2.7c0.4,0.7,1.3,1,2.5,1c0.4,0,0.9-0.1,1.7-0.3s1.2-0.3,1.5-0.3
		C-282.8,458.1-282.6,458.3-282.6,458.6z"/>
	<path class="st3" d="M-264.6,450.9c0,0.6-0.3,0.9-1,0.9c-0.3,0-0.7,0-1.3-0.1s-1-0.1-1.3-0.1c-1.3,0-2.2,0.2-2.6,0.6
		s-0.7,1.2-0.7,2.5c0,0.7,0,1.7,0,3.1s0,2.4,0,3.1c0,0.5,0,1.1,0.1,2s0.1,1.6,0.1,2c0,0.4-0.3,0.6-0.8,0.6c-0.8,0.1-1.9,0.1-3.4,0.1
		c-1.5,0-2.7,0-3.6-0.1c-0.5-0.1-0.8-0.3-0.8-0.8c0-1.3,0-3.1,0-5.6s0-4.4,0-5.6c0-3.7-0.3-6.7-1-9.1c0-0.1,0-0.3,0-0.4
		c0-0.2,0.1-0.4,0.4-0.5c0.9-0.1,2.1-0.3,3.8-0.5c2.5-0.5,3.7-0.7,3.8-0.7c0.3,0,0.5,0.5,0.5,1.5s0.2,1.5,0.4,1.5
		c-0.2,0,0.4-0.4,1.9-1.2s2.9-1.2,4.3-1.2c0.9,0,1.3,0.2,1.3,0.6c0,0.5,0,1.1-0.1,1.9c-0.1,0.9-0.1,1.5-0.2,1.9c0,0.5,0,1.1,0,1.8
		C-264.6,450-264.6,450.6-264.6,450.9z"/>
	<path class="st3" d="M-253.2,454.7c0,1.1,0,2.8,0.1,5.1s0.1,3.9,0.1,5.1c0,0.3-0.2,0.5-0.6,0.6c-0.5,0.1-1.7,0.1-3.6,0.1
		c-1.9,0-3.1,0-3.6-0.1c-0.3-0.1-0.6-0.2-0.6-0.3c0-0.1,0-0.3,0-0.7c0-1.1,0-2.7,0.1-4.9s0.1-3.8,0.1-4.9c0-4.4-0.2-8-0.5-10.6
		c0-0.3,0-0.4,0-0.5c0-0.3,0.2-0.5,0.6-0.5c0.4,0,1.1,0,2,0.1s1.6,0.1,2,0.1s1.1,0,2-0.1c0.9-0.1,1.6-0.1,2-0.1
		c0.4,0,0.6,0.2,0.6,0.5c0,0.1,0,0.2,0,0.4C-253,447.2-253.2,450.7-253.2,454.7z M-252.6,437.3c0,2.7-1.5,4.1-4.6,4.1
		c-1.3,0-2.4-0.3-3.3-1c-0.9-0.8-1.4-1.8-1.4-3c0-1.2,0.5-2.2,1.5-3c0.9-0.7,2-1.1,3.2-1.1c1.2,0,2.3,0.4,3.2,1.1
		C-253.1,435.1-252.6,436.1-252.6,437.3z"/>
	<path class="st3" d="M-225.1,453.8c0,1.2,0.1,3,0.2,5.4s0.2,4.2,0.2,5.3c0,0.6-0.3,1-0.8,1c-1.9,0.1-4.2,0.2-6.7,0.2
		c-0.3,0-0.5-0.4-0.6-1.3s-0.2-1.4-0.4-1.4c-0.1,0.1-0.3,0.2-0.5,0.4c-1.8,1.8-3.6,2.6-5.6,2.6c-3,0-5.6-1.2-7.6-3.6
		c-1.9-2.3-2.8-4.9-2.8-8.1c0-3.6,1-6.5,2.9-8.7c2-2.3,4.8-3.4,8.3-3.4c2.5,0,4.4,0.9,5.8,2.6c0.1,0.1,0.1,0.1,0.2,0.1
		c0.1,0,0.3-0.4,0.5-1.1s0.4-1.1,0.6-1.1c0.6,0,1.7,0.2,3.3,0.5c1.5,0.3,2.7,0.6,3.3,0.8c0.2,0.1,0.4,0.2,0.4,0.4
		c0,0.1,0,0.2-0.1,0.5C-224.9,447.6-225.1,450.6-225.1,453.8z M-232.7,453.9c0-1.3-0.4-2.4-1.3-3.3s-1.9-1.3-3.3-1.3
		s-2.4,0.4-3.3,1.3s-1.2,2-1.2,3.3c0,1.3,0.4,2.4,1.3,3.3s1.9,1.4,3.2,1.4c1.3,0,2.4-0.4,3.3-1.3S-232.7,455.2-232.7,453.9z"/>
	<path class="st3" d="M-211.9,451.4c0,4.3,0,7.5,0,9.8c0,0.4,0,1,0.1,1.9c0,0.8,0.1,1.4,0.1,1.9c0,0.3-0.2,0.5-0.6,0.6
		c-0.7,0.1-2,0.2-3.8,0.2c-1.9,0-3.1-0.1-3.6-0.2c-0.3-0.1-0.5-0.3-0.6-0.6c0,0,0-0.4,0-1c0-1.4,0-3.5,0-6.2s0-4.8,0-6.2
		c0-6.6,0-9.6,0-9c0-3.5-0.2-6.4-0.6-8.9c0-0.2,0-0.3,0-0.4c0-0.3,0.2-0.5,0.6-0.5h8.4c0.4,0,0.6,0.2,0.5,0.5l0,0.4
		C-211.7,440.2-211.9,446.2-211.9,451.4z"/>
	<path class="st3" d="M-167.5,465.2c0,0.1-0.2,0.2-0.5,0.2c-0.6,0.1-2.1,0.1-4.5,0.1c-2,0-3.4,0-4.2-0.1c-0.3,0-0.5-0.1-0.6-0.1
		c-0.1,0-0.2-0.2-0.3-0.5c-0.2-0.6-0.6-1.5-1-2.7c-0.6-1.6-1.6-3.9-2.9-6.9c-0.3-0.6-0.9-0.9-1.9-1c0.5,0-0.3,0-2.4,0
		c-0.2,0-0.4,0.4-0.4,1.2c0,1.1,0.1,2.6,0.3,4.8s0.3,3.7,0.3,4.8c0,0.3-0.1,0.4-0.2,0.5c-0.2,0-0.4,0-0.7,0
		c-0.9,0.1-2.4,0.1-4.3,0.1c-2.2,0-3.6,0-4-0.1s-0.7-0.3-0.7-0.7c0-1.7,0.1-4.3,0.2-7.8s0.2-6.1,0.2-7.8c0-6.6-0.1-11.8-0.4-15.5
		l0-0.3c0-0.3,0.2-0.4,0.7-0.5s2.9-0.2,7.2-0.3c2.9-0.1,5.2-0.1,6.9-0.1c3.6,0,6.5,0.8,8.7,2.4c2.5,1.8,3.8,4.4,3.8,7.9
		c0,2.3-0.3,4.1-1,5.5s-1.9,2.7-3.6,4c-0.4,0.3-0.5,0.5-0.5,0.7c0,0,1,1.9,2.9,5.9S-167.5,464.8-167.5,465.2z M-177.4,444.2
		c0-1.9-0.6-3.2-1.9-4c-1-0.6-2.5-0.8-4.5-0.8c-1.5,0-2.3,0.2-2.4,0.7c-0.1,0.5-0.1,2.1-0.1,4.6c0,0.4,0,0.9,0,1.6s0,1.2,0,1.6
		c0,0.1,0.3,0.2,0.8,0.2c1,0.1,2,0.2,3,0.2C-179.1,448.3-177.4,446.9-177.4,444.2z"/>
	<path class="st3" d="M-142.5,453.9c0,3.6-1.1,6.5-3.3,8.7s-5,3.3-8.6,3.3c-3.4,0-6.3-1.1-8.5-3.3s-3.3-5-3.3-8.4
		c0-3.6,1.1-6.6,3.2-8.8s5-3.4,8.6-3.4c3.5,0,6.4,1.1,8.6,3.3S-142.5,450.4-142.5,453.9z M-150.2,453.9c0-1.2-0.4-2.3-1.1-3.3
		s-1.8-1.4-3-1.4c-1.2,0-2.3,0.5-3,1.5c-0.8,0.9-1.1,2-1.1,3.2c0,1.3,0.4,2.4,1.1,3.3c0.8,1,1.8,1.5,3,1.5c1.2,0,2.2-0.5,3-1.5
		C-150.6,456.3-150.2,455.2-150.2,453.9z"/>
	<path class="st3" d="M-114.3,454c0,3.3-0.9,6-2.8,8.2c-2,2.3-4.6,3.5-7.8,3.5c-2.3,0-4.2-0.7-5.7-2c-0.1-0.1-0.2-0.1-0.3-0.1
		c-0.2,0-0.3,0.3-0.4,0.9s-0.3,0.9-0.5,1c-0.3,0.1-2.5,0.1-6.7,0.1c-1,0-1.5-0.2-1.5-0.5c0,0,0-0.2,0-0.4c0.3-2.5,0.5-7.2,0.5-14.2
		c0-6.7-0.2-12.5-0.7-17.4l0-0.3c0-0.3,0.2-0.4,0.7-0.4c0.3,0,1.7-0.1,4.1-0.4c1.7-0.2,3-0.2,4.1-0.2c0.3,0,0.4,0.3,0.4,0.8
		c0,0.6,0,1.4-0.1,2.4c-0.1,1.2-0.1,2-0.2,2.4c-0.1,1.5-0.1,3.7-0.1,6.3c0,0.5,0.1,0.7,0.4,0.7c0.1,0,0.2-0.1,0.4-0.2
		c1.4-1.5,3.2-2.3,5.5-2.3c3.4,0,6.1,1.2,8,3.5C-115.2,447.7-114.3,450.5-114.3,454z M-122.8,453.8c0-1.3-0.4-2.4-1.2-3.3
		s-1.8-1.3-3.1-1.3c-1.3,0-2.3,0.4-3.1,1.3s-1.1,2-1.1,3.3c0,1.4,0.4,2.5,1.1,3.3c0.8,0.9,1.8,1.3,3.2,1.3c1.3,0,2.4-0.5,3.2-1.4
		C-123.1,456.2-122.8,455.1-122.8,453.8z"/>
	<path class="st3" d="M-88.9,453.9c0,3.6-1.1,6.5-3.3,8.7s-5,3.3-8.6,3.3c-3.4,0-6.3-1.1-8.5-3.3s-3.3-5-3.3-8.4
		c0-3.6,1.1-6.6,3.2-8.8s5-3.4,8.6-3.4c3.5,0,6.4,1.1,8.6,3.3S-88.9,450.4-88.9,453.9z M-96.6,453.9c0-1.2-0.4-2.3-1.1-3.3
		s-1.8-1.4-3-1.4c-1.2,0-2.3,0.5-3,1.5c-0.8,0.9-1.1,2-1.1,3.2c0,1.3,0.4,2.4,1.1,3.3c0.8,1,1.8,1.5,3,1.5c1.2,0,2.2-0.5,3-1.5
		C-96.9,456.3-96.6,455.2-96.6,453.9z"/>
	<path class="st3" d="M-70.4,458.6c0,0.5-0.1,1.2-0.2,2.1s-0.2,1.7-0.2,2.1s0,0.7-0.1,0.9s-0.4,0.3-0.8,0.5c-2,1.1-4.3,1.7-6.7,1.7
		c-4.5,0-6.8-1.7-6.8-5.2c0-1,0-2.6,0.1-4.7s0.1-3.6,0.1-4.7c0-0.7-0.4-1-1.2-1c-0.1,0-0.2,0-0.3,0c-0.1,0-0.2,0-0.3,0
		c-0.6,0-0.9-0.2-0.9-0.6c0-0.3,0-0.6,0.1-1.1s0.1-0.9,0.1-1.1c0-0.3,0-0.8-0.1-1.5s-0.1-1.2-0.1-1.5c0-0.3,0.5-0.5,1.5-0.5
		c0.6,0,0.9-0.2,0.9-0.5c0.1-0.6,0.1-1.5,0.1-2.8c-0.1-2-0.1-3-0.1-2.9c0-1.8,0.2-2.7,0.5-2.7c0.4,0,1,0.1,1.8,0.3
		c0.9,0.2,1.5,0.3,1.9,0.4c0.8,0.1,2,0.3,3.6,0.4c0.4,0,0.6,0.2,0.6,0.4c0,0.6-0.1,1.6-0.2,2.8s-0.2,2.2-0.2,2.9
		c0,0.8,0.2,1.1,0.7,1.1c0.5,0,1.4,0,2.5-0.1s1.9-0.1,2.5-0.1c0.3,0,0.5,0.1,0.5,0.4c0,0.4,0,0.9-0.1,1.6s-0.1,1.3-0.1,1.6
		c0,0.4,0,0.9,0,1.6s0,1.3,0,1.6c0,0.3-0.2,0.5-0.7,0.5c-0.3,0-0.8,0-1.6,0s-1.3,0-1.6,0h-1.8c-0.2,0-0.4,0.3-0.4,1
		c0,0.4,0,0.9,0,1.7c0,0.8,0,1.3,0,1.7c0,1.3,0.1,2.2,0.4,2.7c0.4,0.7,1.3,1,2.5,1c0.4,0,0.9-0.1,1.7-0.3s1.2-0.3,1.5-0.3
		C-70.5,458.1-70.4,458.3-70.4,458.6z"/>
	<path class="st3" d="M-59.2,454.7c0,1.1,0,2.8,0.1,5.1s0.1,3.9,0.1,5.1c0,0.3-0.2,0.5-0.6,0.6c-0.5,0.1-1.7,0.1-3.6,0.1
		c-1.9,0-3.1,0-3.6-0.1c-0.3-0.1-0.6-0.2-0.6-0.3c0-0.1,0-0.3,0-0.7c0-1.1,0-2.7,0.1-4.9s0.1-3.8,0.1-4.9c0-4.4-0.2-8-0.5-10.6
		c0-0.3,0-0.4,0-0.5c0-0.3,0.2-0.5,0.6-0.5c0.4,0,1.1,0,2,0.1s1.6,0.1,2,0.1s1.1,0,2-0.1s1.6-0.1,2-0.1c0.4,0,0.6,0.2,0.6,0.5
		c0,0.1,0,0.2,0,0.4C-59,447.2-59.2,450.7-59.2,454.7z M-58.6,437.3c0,2.7-1.5,4.1-4.6,4.1c-1.3,0-2.4-0.3-3.3-1
		c-0.9-0.8-1.4-1.8-1.4-3c0-1.2,0.5-2.2,1.5-3c0.9-0.7,2-1.1,3.2-1.1c1.2,0,2.3,0.4,3.2,1.1C-59.1,435.1-58.6,436.1-58.6,437.3z"/>
	<path class="st3" d="M-39.2,450.1c0,0-0.5-0.1-1.4-0.4s-1.7-0.4-2.3-0.4c-1.4,0-2.5,0.4-3.3,1.3s-1.2,1.9-1.2,3.3
		c0,1.4,0.5,2.6,1.4,3.4s2.1,1.2,3.5,1.2c0.7,0,1.5-0.2,2.3-0.5s1.3-0.5,1.2-0.5c0.3,0,0.6,1,1,3c0.4,1.8,0.5,3,0.5,3.6
		s-1,1.1-2.9,1.5c-1.5,0.3-2.7,0.5-3.6,0.5c-3.4,0-6.3-1.2-8.5-3.5s-3.4-5.2-3.4-8.6c0-3.4,1.1-6.3,3.4-8.6s5.1-3.5,8.5-3.5
		c2.3,0,4.4,0.5,6.1,1.5c0.4,0.2,0.6,0.4,0.6,0.6s-0.2,1.1-0.7,2.8c-0.4,1.6-0.7,2.5-0.9,2.9S-39,450.1-39.2,450.1z"/>
	<path class="st3" d="M-21,446.5c0,0.2-0.1,0.4-0.4,0.6c-0.4-0.1-0.9-0.2-1.3-0.2c-0.9,0-1.7,0.2-2.3,0.6c-0.8,0.5-1.1,1.1-1.1,2
		c0,0.5,0.4,1.2,1.2,2.1c1.2,1.3,1.9,2.1,2.2,2.6c0.8,1.2,1.2,2.5,1.2,3.8c0,0.8-0.2,1.6-0.5,2.5c-0.4,1-0.8,1.7-1.4,2.2
		c-1.2,1-2.5,1.8-4.1,2.5c-1.7,0.7-3.2,1.1-4.6,1.1c-0.3,0-1-0.8-2.1-2.5s-1.6-2.7-1.6-3.1c0-0.1,0.1-0.2,0.3-0.3
		c1.1-0.2,2.2-0.4,3.3-0.6c1.4-0.4,2.1-1.2,2.1-2.2c0-0.7-0.4-1.5-1.2-2.4c-1.4-1.6-2.2-2.4-2.2-2.5c-0.8-1.1-1.2-2.3-1.2-3.6
		c0-2.3,1.2-4.3,3.6-6c2.1-1.5,4.4-2.2,6.8-2.2c0.3,0,0.9,0.8,1.9,2.5S-21,446.2-21,446.5z"/>
</g>
</svg>
