<?xml version="1.0" encoding="utf-8"?>
<!-- Generator: Adobe Illustrator 19.0.0, SVG Export Plug-In . SVG Version: 6.00 Build 0)  -->
<svg version="1.1" id="Layer_1" xmlns="http://www.w3.org/2000/svg" xmlns:xlink="http://www.w3.org/1999/xlink" x="0px" y="0px"
	 viewBox="-497 346.3 604.6 159.7" style="enable-background:new -497 346.3 604.6 159.7;" xml:space="preserve">
<style type="text/css">
	.st0{opacity:0.6;fill:url(#SVGID_1_);enable-background:new    ;}
	.st1{fill:none;stroke:#00AEEF;stroke-width:18.9435;stroke-miterlimit:10;}
	.st2{fill:#F7F7F7;}
	.st3{fill:#FFFFFF;}
</style>
<linearGradient id="SVGID_1_" gradientUnits="userSpaceOnUse" x1="-486.6" y1="421.15" x2="99.2" y2="421.15" gradientTransform="matrix(1 0 0 1 0 4.6)">
	<stop  offset="0" style="stop-color:#00B2ED"/>
	<stop  offset="0.9949" style="stop-color:#1D71B8"/>
</linearGradient>
<path class="st0" d="M99.2,405.6c0-27.8-22.5-50.3-50.3-50.3s-50.3,22.5-50.3,50.3c0,0.3,0,0.5,0,0.8h-440.3
	c-24.8,0-44.9,20.1-44.9,44.9s20.1,44.9,44.9,44.9H11.4c23.4,0,42.6-17.9,44.7-40.7C80.5,451.9,99.2,430.9,99.2,405.6z"/>
<path class="st1" d="M99.2,405.6c0-27.8-22.5-50.3-50.3-50.3s-50.3,22.5-50.3,50.3c0,0.3,0,0.5,0,0.8h-440.3
	c-24.8,0-44.9,20.1-44.9,44.9s20.1,44.9,44.9,44.9H11.4c23.4,0,42.6-17.9,44.7-40.7C80.5,451.9,99.2,430.9,99.2,405.6z"/>
<g>
	<path class="st2" d="M25.5,400.4c-0.4,0-0.9,0-1.7,0c-0.8,0-1.4,0-1.7,0c0,0.3,0,0.9,0.1,1.8c0,0.7,0,1.3,0,1.8
		c0,0.3-0.6,0.5-1.8,0.5c-1.1,0-1.7-0.1-1.7-0.3c0-0.5,0-1.1,0-1.9c0-1.1,0-1.7,0-1.9c-2,0.1-3.1,0.1-3.2,0.1
		c-0.1,0-0.2-0.1-0.2-0.4c0-0.1,0-0.5,0.1-1.3c0-0.5,0-0.9,0-1.4c0.1-0.1,0.2-0.2,0.3-0.2c0.4,0,0.9,0,1.5,0c0.8,0,1.3,0,1.5,0
		c0-0.7,0-1.4,0-2.2v-1.4c0-0.1,0.1-0.2,0.3-0.2c0.3,0,0.7,0,1.3,0s1,0,1.3,0c0.4,0,0.6,0.1,0.6,0.2c0,0.4,0,1,0,1.8s0,1.4,0,1.8
		c1.7,0,2.8,0,3.4,0c0.2,0,0.2,0.1,0.2,0.2s0,0.6-0.1,1.4c0,0.3,0,0.8-0.1,1.5C25.6,400.3,25.5,400.4,25.5,400.4z"/>
	<path class="st2" d="M37.9,400.9c0,3.5-2.2,5.2-6.5,5.2c-0.6,0-1.5-0.1-2.5-0.2c-1.4-0.2-2.1-0.4-2.1-0.6c0-0.1,0-0.4,0-1
		c0-0.3,0-0.8,0.1-1.3c0.1-0.7,0.2-1.1,0.4-1.1c0,0,0.1,0,0.2,0.1c0.9,0.5,2,0.7,3.2,0.7c1.7,0,2.6-0.6,2.6-1.7
		c0-0.6-0.3-1.1-0.9-1.4c-0.5-0.3-1.1-0.4-1.8-0.4c-0.3,0-0.7,0-1.3,0.1s-1,0.1-1.3,0.1s-0.4-0.1-0.4-0.4c0-0.8,0-1.9,0.1-3.4
		s0.1-2.7,0.1-3.4c0-0.1,0.1-0.3,0.2-0.5s0.2-0.3,0.4-0.3c0.2,0,1.3,0,3.3,0c2.3,0,3.8,0,4.6,0c0.2,0,0.3,0.1,0.3,0.3
		c0,0.4,0,1.1-0.1,1.8c-0.1,1-0.3,1.5-0.4,1.5H36c-1.8-0.2-2.9-0.2-3.3-0.2c-0.9,0-1.3,0-1.4,0.1c-0.1,0.2-0.2,0.7-0.2,1.3
		c0,0.1,0,0.2,0.1,0.2c0.2,0,0.5,0,0.9-0.1c0.4,0,0.7-0.1,0.9-0.1c1.5,0,2.7,0.4,3.6,1.2C37.4,398.4,37.9,399.5,37.9,400.9z"/>
	<path class="st2" d="M53,398.7c0,2-0.7,3.7-2,5.2c-1.4,1.5-3,2.3-5,2.3s-3.7-0.8-5-2.3c-1.3-1.4-2-3.2-2-5.2s0.7-3.8,2-5.2
		c1.3-1.5,3-2.2,5-2.2s3.7,0.7,5,2.2C52.4,395,53,396.7,53,398.7z M48.7,398.7c0-0.8-0.2-1.5-0.7-2.1s-1.1-0.9-1.9-0.9
		c-0.8,0-1.5,0.3-1.9,0.9c-0.5,0.6-0.7,1.3-0.7,2.1c0,0.8,0.2,1.5,0.7,2.1s1.1,1,1.9,1c0.8,0,1.4-0.3,1.9-1
		C48.4,400.2,48.7,399.5,48.7,398.7z"/>
	<path class="st2" d="M64.9,405.5c0,0.2-0.1,0.3-0.4,0.3c-0.5,0.1-0.9,0.1-1.5,0.1c-0.5,0-1,0-1.4-0.1c-0.1,0-0.2-0.1-0.4-0.2
		c-0.4-0.5-1-1.4-1.7-2.4c-0.2,0.2-0.8,1-1.9,2.4c-0.1,0.1-0.2,0.2-0.4,0.3c-0.3,0.1-0.7,0.1-1.3,0.1c-1.2,0-1.9-0.1-1.9-0.4
		c0-0.2,0-0.6,0-1s0-0.8,0-1c0-0.1,0.1-0.3,0.2-0.4c0.6-0.6,1.5-1.6,2.7-2.9c-0.5-0.5-1.1-1-1.6-1.6c-0.9-0.9-1.3-1.4-1.3-1.5v-2.1
		c0-0.2,0.1-0.3,0.4-0.3c0.3,0,0.8,0,1.4,0s1.1,0,1.4,0c0.2,0,0.3,0.1,0.4,0.3c0.4,0.6,1,1.3,1.8,2.2c0.7-0.9,1.3-1.6,1.7-2.2
		c0.1-0.2,0.3-0.2,0.4-0.2c0.3,0,0.8,0,1.5,0s1.1,0,1.5,0c0.3,0,0.4,0.1,0.4,0.3v2.1c0,0.1-0.1,0.3-0.2,0.4
		c-0.6,0.6-1.5,1.5-2.6,2.7c0.6,0.6,1.5,1.6,2.6,2.8c0.1,0.1,0.2,0.3,0.2,0.4C64.9,403.6,64.9,405.5,64.9,405.5z"/>
	<path class="st2" d="M79.2,400.2c0,1.7-0.5,3.1-1.5,4.2s-2.3,1.7-4,1.7c-0.6,0-1.2-0.1-1.9-0.4s-1-0.4-0.9-0.4
		c-0.1,0-0.2,0.1-0.2,0.4c0,0.4,0,1,0.1,1.8s0.1,1.4,0.1,1.8c0,0.3-0.1,0.4-0.4,0.4h-2.4c-0.5,0-0.9,0-1-0.1
		c-0.2-0.1-0.4-0.2-0.4-0.4v-9c0-1.8-0.1-3.4-0.4-4.6c0-0.1,0-0.1,0-0.2s0-0.2,0.1-0.2c0.3-0.1,0.9-0.2,1.7-0.4
		c0.8-0.1,1.4-0.2,1.8-0.2c0.3,0,0.5,0.2,0.5,0.6s0.1,0.6,0.2,0.6c-0.1,0,0.3-0.2,1-0.6s1.4-0.6,2-0.6c1.7,0,3.1,0.6,4.1,1.7
		C78.8,397.1,79.2,398.5,79.2,400.2z M74.9,400.2c0-0.6-0.2-1.2-0.6-1.6c-0.4-0.5-0.9-0.7-1.5-0.7s-1.1,0.2-1.5,0.7
		c-0.3,0.4-0.5,1-0.5,1.6c0,0.7,0.2,1.2,0.5,1.7c0.4,0.5,0.9,0.7,1.5,0.7C74.2,402.5,74.9,401.7,74.9,400.2z"/>
</g>
<g>
	<path class="st3" d="M-361.4,456.2c0,0.5-0.1,1.4-0.3,2.8c-0.2,1.5-0.4,2.3-0.6,2.6c-0.1,0.2-0.3,0.3-0.6,0.3c-0.1,0-0.3,0-0.5-0.1
		c-0.9-0.1-3.4-0.2-7.5-0.2c-0.9,0-2.2,0-4,0s-3.1,0-4,0c-0.4,0-0.6-0.2-0.6-0.5c0-1.3,0.1-3.3,0.2-5.9s0.2-4.6,0.2-5.9
		c0-1.3-0.1-3.8-0.2-7.5c0-0.9-0.1-2.3-0.2-4.2l0-0.2c0-0.3,0.1-0.4,0.4-0.4c0.9,0,2.2,0,3.9,0.1s3,0.1,3.9,0.1c0.9,0,2.1,0,3.9-0.1
		s3-0.1,3.9-0.1c0.6,0,1,0.2,1.1,0.7c0.1,0.3,0.1,1.1,0.3,2.5s0.2,2.2,0.2,2.5c0,0.2-0.1,0.4-0.4,0.4c-0.1,0-0.2,0-0.4,0
		c-3.1-0.3-5.9-0.4-8.4-0.4c-0.6,0-1,0.1-1.1,0.4c-0.1,0.1-0.1,0.6-0.1,1.4c0,0.8,0.1,1.3,0.4,1.6c0.2,0.2,0.6,0.3,1.1,0.3
		c0.1,0,0.3,0,0.7,0s0.6,0,0.8,0c1.5,0,3,0,4.5-0.1c0.1,0,0.5,0,1-0.1c0.4,0,0.7-0.1,0.9-0.1c0.3,0,0.4,0.1,0.4,0.4
		c0-0.2-0.1,0.7-0.3,2.7c-0.1,0.9-0.1,1.9-0.1,2.8c0,0.2-0.2,0.4-0.5,0.4l-1.6-0.2c-0.7-0.1-2.2-0.1-4.6-0.1h-1.9
		c-0.5,0-0.8,0.1-0.8,0.4c0,0.1,0,0.4,0,1.1c0,0.9,0.1,1.5,0.2,1.7c0.2,0.4,0.9,0.7,2.3,0.8c0,0,0.8,0,2.6,0c0.6,0,1.5-0.1,2.8-0.2
		s2.1-0.2,2.8-0.2C-361.5,455.6-361.4,455.8-361.4,456.2z"/>
	<path class="st3" d="M-352.8,451.1c0,3.2,0,5.7,0,7.4c0,0.3,0,0.7,0.1,1.4c0,0.6,0.1,1.1,0.1,1.4c0,0.2-0.1,0.4-0.4,0.4
		c-0.5,0.1-1.5,0.1-2.8,0.1c-1.4,0-2.3,0-2.7-0.1c-0.3-0.1-0.4-0.2-0.4-0.5c0,0,0-0.3,0-0.8c0-1,0-2.6,0-4.7s0-3.6,0-4.7
		c0-4.9,0-7.2,0-6.7c0-2.6-0.2-4.8-0.4-6.7c0-0.1,0-0.2,0-0.3c0-0.3,0.2-0.4,0.5-0.4h6.3c0.3,0,0.4,0.1,0.4,0.4l0,0.3
		C-352.6,442.7-352.8,447.2-352.8,451.1z"/>
	<path class="st3" d="M-333.5,452.1c0,1.2-0.4,1.9-1.1,2c-0.1,0-1.3,0.2-3.6,0.4c-1.4,0.2-3.4,0.3-6.2,0.5c0.2,0.8,0.7,1.3,1.5,1.7
		c0.7,0.3,1.5,0.5,2.3,0.5c1,0,2.1-0.3,3.1-0.8c0.4-0.3,0.9-0.6,1.3-0.8c0.2,0.1,0.7,0.7,1.2,1.8s0.9,1.8,0.9,2.1
		c0,0.1-0.1,0.2-0.3,0.4c-1.4,1.5-3.7,2.3-6.7,2.3c-2.8,0-5-0.8-6.8-2.4c-1.8-1.7-2.6-3.9-2.6-6.6c0-2.7,0.8-4.9,2.4-6.6
		c1.6-1.8,3.8-2.7,6.4-2.7c2.3,0,4.2,0.8,5.7,2.5S-333.5,449.9-333.5,452.1z M-339.6,451.1c0-0.7-0.3-1.4-0.8-1.9s-1.1-0.8-1.8-0.8
		c-0.7,0-1.3,0.3-1.8,0.9c-0.4,0.6-0.7,1.2-0.7,2c0,0.3,0.2,0.5,0.5,0.5c0.9,0,2.2-0.1,4-0.4C-339.8,451.3-339.6,451.2-339.6,451.1z
		"/>
	<path class="st3" d="M-319.9,450.1c0,0-0.4-0.1-1.1-0.3s-1.3-0.3-1.7-0.3c-1,0-1.9,0.3-2.5,0.9s-0.9,1.5-0.9,2.5
		c0,1.1,0.3,1.9,1,2.5s1.6,0.9,2.7,0.9c0.5,0,1.1-0.1,1.7-0.4s0.9-0.4,0.9-0.4c0.2,0,0.5,0.7,0.8,2.2c0.3,1.4,0.4,2.3,0.4,2.7
		s-0.7,0.8-2.2,1.1c-1.1,0.2-2,0.4-2.7,0.4c-2.6,0-4.7-0.9-6.4-2.6s-2.5-3.9-2.5-6.5c0-2.6,0.8-4.7,2.5-6.5s3.8-2.6,6.4-2.6
		c1.7,0,3.3,0.4,4.6,1.1c0.3,0.2,0.5,0.3,0.5,0.5s-0.2,0.8-0.5,2.1c-0.3,1.2-0.5,1.9-0.6,2.1S-319.8,450.1-319.9,450.1z"/>
	<path class="st3" d="M-304.8,456.5c0,0.4,0,0.9-0.1,1.6s-0.1,1.2-0.1,1.6s0,0.5-0.1,0.6s-0.3,0.2-0.6,0.4c-1.5,0.8-3.2,1.2-5,1.2
		c-3.4,0-5.1-1.3-5.1-3.9c0-0.8,0-1.9,0.1-3.5s0.1-2.7,0.1-3.5c0-0.5-0.3-0.8-0.9-0.8c0,0-0.1,0-0.2,0c-0.1,0-0.2,0-0.2,0
		c-0.4,0-0.7-0.2-0.7-0.5c0-0.2,0-0.5,0-0.9s0-0.7,0-0.9c0-0.2,0-0.6,0-1.1s0-0.9,0-1.1c0-0.2,0.4-0.4,1.1-0.4
		c0.4,0,0.7-0.1,0.7-0.4c0.1-0.4,0.1-1.1,0.1-2.1c0-1.5-0.1-2.2-0.1-2.2c0-1.4,0.1-2,0.4-2c0.3,0,0.8,0.1,1.4,0.2
		c0.7,0.2,1.1,0.2,1.4,0.3c0.6,0.1,1.5,0.2,2.7,0.3c0.3,0,0.4,0.1,0.4,0.3c0,0.5,0,1.2-0.1,2.1s-0.1,1.7-0.1,2.1
		c0,0.6,0.2,0.9,0.5,0.9c0.4,0,1,0,1.9-0.1s1.5-0.1,1.9-0.1c0.3,0,0.4,0.1,0.4,0.3c0,0.3,0,0.7-0.1,1.2s-0.1,0.9-0.1,1.2
		c0,0.3,0,0.7,0,1.2s0,0.9,0,1.2c0,0.2-0.2,0.4-0.5,0.4c-0.2,0-0.6,0-1.2,0s-0.9,0-1.2,0h-1.3c-0.2,0-0.3,0.3-0.3,0.8
		c0,0.3,0,0.7,0,1.2c0,0.6,0,1,0,1.2c0,1,0.1,1.7,0.3,2c0.3,0.5,0.9,0.8,1.9,0.8c0.3,0,0.7-0.1,1.3-0.2s0.9-0.2,1.2-0.2
		C-304.9,456.1-304.8,456.3-304.8,456.5z"/>
	<path class="st3" d="M-291.3,450.7c0,0.5-0.3,0.7-0.8,0.7c-0.2,0-0.5,0-1,0s-0.7,0-1,0c-1,0-1.6,0.2-2,0.5s-0.5,0.9-0.5,1.8
		c0,0.5,0,1.3,0,2.3s0,1.8,0,2.3c0,0.3,0,0.8,0.1,1.5s0.1,1.2,0.1,1.5c0,0.3-0.2,0.4-0.6,0.5c-0.6,0-1.4,0.1-2.6,0.1
		c-1.1,0-2,0-2.7-0.1c-0.4,0-0.6-0.2-0.6-0.6c0-0.9,0-2.3,0-4.2s0-3.3,0-4.2c0-2.8-0.3-5-0.8-6.8c0-0.1,0-0.2,0-0.3
		c0-0.2,0.1-0.3,0.3-0.4c0.6-0.1,1.6-0.2,2.8-0.4c1.9-0.4,2.8-0.5,2.9-0.5c0.2,0,0.3,0.4,0.4,1.1s0.2,1.1,0.3,1.1
		c-0.2,0,0.3-0.3,1.4-0.9s2.2-0.9,3.3-0.9c0.7,0,1,0.1,1,0.4c0,0.3,0,0.8-0.1,1.4c-0.1,0.7-0.1,1.1-0.1,1.4c0,0.3,0,0.8,0,1.4
		C-291.3,450-291.3,450.5-291.3,450.7z"/>
	<path class="st3" d="M-282.7,453.6c0,0.9,0,2.1,0.1,3.8s0.1,3,0.1,3.8c0,0.2-0.1,0.4-0.4,0.4c-0.4,0.1-1.3,0.1-2.7,0.1
		c-1.4,0-2.3,0-2.7-0.1c-0.3,0-0.4-0.1-0.5-0.2c0,0,0-0.2,0-0.5c0-0.8,0-2,0.1-3.6s0.1-2.8,0.1-3.7c0-3.3-0.1-6-0.4-7.9
		c0-0.2,0-0.3,0-0.4c0-0.2,0.2-0.4,0.5-0.4c0.3,0,0.8,0,1.5,0.1s1.2,0.1,1.5,0.1s0.8,0,1.5-0.1s1.2-0.1,1.5-0.1
		c0.3,0,0.4,0.1,0.4,0.4c0,0,0,0.2,0,0.3C-282.6,448-282.7,450.6-282.7,453.6z M-282.3,440.5c0,2-1.1,3.1-3.4,3.1
		c-1,0-1.8-0.3-2.4-0.8c-0.7-0.6-1.1-1.3-1.1-2.3c0-0.9,0.4-1.7,1.1-2.3c0.7-0.5,1.5-0.8,2.4-0.8c0.9,0,1.7,0.3,2.4,0.8
		C-282.6,438.9-282.3,439.6-282.3,440.5z"/>
	<path class="st3" d="M-267.7,450.1c0,0-0.4-0.1-1.1-0.3s-1.3-0.3-1.7-0.3c-1,0-1.9,0.3-2.5,0.9s-0.9,1.5-0.9,2.5
		c0,1.1,0.3,1.9,1,2.5s1.6,0.9,2.7,0.9c0.5,0,1.1-0.1,1.7-0.4s0.9-0.4,0.9-0.4c0.2,0,0.5,0.7,0.8,2.2c0.3,1.4,0.4,2.3,0.4,2.7
		s-0.7,0.8-2.2,1.1c-1.1,0.2-2,0.4-2.7,0.4c-2.6,0-4.7-0.9-6.4-2.6s-2.5-3.9-2.5-6.5c0-2.6,0.8-4.7,2.5-6.5s3.8-2.6,6.4-2.6
		c1.7,0,3.3,0.4,4.6,1.1c0.3,0.2,0.5,0.3,0.5,0.5s-0.2,0.8-0.5,2.1c-0.3,1.2-0.5,1.9-0.6,2.1S-267.6,450.1-267.7,450.1z"/>
	<path class="st3" d="M-257.8,453.6c0,0.9,0,2.1,0.1,3.8s0.1,3,0.1,3.8c0,0.2-0.1,0.4-0.4,0.4c-0.4,0.1-1.3,0.1-2.7,0.1
		c-1.4,0-2.3,0-2.7-0.1c-0.3,0-0.4-0.1-0.5-0.2c0,0,0-0.2,0-0.5c0-0.8,0-2,0.1-3.6s0.1-2.8,0.1-3.7c0-3.3-0.1-6-0.4-7.9
		c0-0.2,0-0.3,0-0.4c0-0.2,0.2-0.4,0.5-0.4c0.3,0,0.8,0,1.5,0.1s1.2,0.1,1.5,0.1s0.8,0,1.5-0.1s1.2-0.1,1.5-0.1
		c0.3,0,0.4,0.1,0.4,0.4c0,0,0,0.2,0,0.3C-257.7,448-257.8,450.6-257.8,453.6z M-257.4,440.5c0,2-1.1,3.1-3.4,3.1
		c-1,0-1.8-0.3-2.4-0.8c-0.7-0.6-1.1-1.3-1.1-2.3c0-0.9,0.4-1.7,1.1-2.3c0.7-0.5,1.5-0.8,2.4-0.8c0.9,0,1.7,0.3,2.4,0.8
		C-257.7,438.9-257.4,439.6-257.4,440.5z"/>
	<path class="st3" d="M-242.7,456.5c0,0.4,0,0.9-0.1,1.6s-0.1,1.2-0.1,1.6s0,0.5-0.1,0.6s-0.3,0.2-0.6,0.4c-1.5,0.8-3.2,1.2-5,1.2
		c-3.4,0-5.1-1.3-5.1-3.9c0-0.8,0-1.9,0.1-3.5s0.1-2.7,0.1-3.5c0-0.5-0.3-0.8-0.9-0.8c0,0-0.1,0-0.2,0c-0.1,0-0.2,0-0.2,0
		c-0.4,0-0.7-0.2-0.7-0.5c0-0.2,0-0.5,0-0.9s0-0.7,0-0.9c0-0.2,0-0.6,0-1.1s0-0.9,0-1.1c0-0.2,0.4-0.4,1.1-0.4
		c0.4,0,0.7-0.1,0.7-0.4c0.1-0.4,0.1-1.1,0.1-2.1c0-1.5-0.1-2.2-0.1-2.2c0-1.4,0.1-2,0.4-2c0.3,0,0.8,0.1,1.4,0.2
		c0.7,0.2,1.1,0.2,1.4,0.3c0.6,0.1,1.5,0.2,2.7,0.3c0.3,0,0.4,0.1,0.4,0.3c0,0.5,0,1.2-0.1,2.1s-0.1,1.7-0.1,2.1
		c0,0.6,0.2,0.9,0.5,0.9c0.4,0,1,0,1.9-0.1s1.5-0.1,1.9-0.1c0.3,0,0.4,0.1,0.4,0.3c0,0.3,0,0.7-0.1,1.2s-0.1,0.9-0.1,1.2
		c0,0.3,0,0.7,0,1.2s0,0.9,0,1.2c0,0.2-0.2,0.4-0.5,0.4c-0.2,0-0.6,0-1.2,0s-0.9,0-1.2,0h-1.3c-0.2,0-0.3,0.3-0.3,0.8
		c0,0.3,0,0.7,0,1.2c0,0.6,0,1,0,1.2c0,1,0.1,1.7,0.3,2c0.3,0.5,0.9,0.8,1.9,0.8c0.3,0,0.7-0.1,1.3-0.2s0.9-0.2,1.2-0.2
		C-242.8,456.1-242.7,456.3-242.7,456.5z"/>
	<path class="st3" d="M-223.6,449.1c0,2.3-0.1,3.7-0.2,4.1c-0.2,0.6-1.5,2.7-3.8,6.4c-0.4,0.6-1.3,1.9-2.9,4
		c-1.7,2.3-2.7,3.5-2.9,3.6c-0.3,0.2-2.1,0.3-5.4,0.3c-0.5,0-0.8-0.1-1-0.2c-0.2-0.5-0.3-1-0.6-1.7c-0.2-0.4-0.4-0.8-0.6-1.2
		c-0.3-0.6-0.4-1-0.4-1.2c0-0.2,0.1-0.3,0.3-0.3c3.3,0,4.9-0.7,4.9-2.2c0-0.1-0.8-1.3-2.4-3.5c-1.7-2.3-2.6-3.7-2.7-4.3
		c-0.1-0.3-0.1-1.6-0.1-3.6c0-0.4,0-1.1,0-1.9s0-1.5,0-1.9c0-0.3,0.2-0.5,0.6-0.5c0.6,0,1.5,0,2.7,0.1s2.1,0.1,2.7,0.1
		c0.2,0,0.4,0.2,0.4,0.5c0,0.3,0,0.8-0.1,1.5s-0.1,1.2-0.1,1.5c0,1.5,0,2.5,0.1,3c0,0.4,0.4,1.2,1.1,2.3c0.7,1.2,1.2,1.7,1.5,1.7
		c0.3,0,0.7-0.6,1.4-1.7c0.6-1.1,0.9-1.8,1-2.2c0.1-1,0.2-2.2,0.2-3.4c0-0.3,0-0.8-0.1-1.4s-0.1-1.1-0.1-1.5c0-0.2,0.1-0.3,0.4-0.3
		c0.6,0,1.5,0,2.7-0.1s2.1-0.1,2.7-0.1c0.3,0,0.5,0.2,0.6,0.5C-223.7,445.9-223.6,447.2-223.6,449.1z"/>
	<path class="st3" d="M-189.9,460.9c0,0.5-0.3,0.8-0.9,0.8c-0.4,0-0.9,0-1.7,0.1s-1.3,0.1-1.7,0.1c-1.4,0-3.1-1.1-5-3.3
		c-0.6,0.6-1.5,1.4-2.8,2.4c-1.3,0.9-2.9,1.3-4.7,1.3c-1.9,0-3.4-0.7-4.4-2c-1-1.2-1.5-2.8-1.5-4.7c0-2,0.6-3.6,1.8-4.9
		c0.7-0.7,2.1-1.8,4.3-3.2c-0.7-1.8-1.1-3.2-1.1-4.3c0-2,0.6-3.5,1.7-4.7s2.7-1.7,4.6-1.7c1.7,0,3,0.5,4,1.4c1,0.9,1.5,2.3,1.5,4
		c0,1.1-0.4,2.2-1.3,3.2c-0.4,0.4-0.8,0.9-1.5,1.3c-0.8,0.6-1.4,1-1.6,1.2c0.3,0.4,0.7,1,1.3,1.8c0.3,0.4,0.8,1,1.4,1.8
		c0.9-1.2,1.7-2,2.5-2.5c1-0.7,2.1-1,3.3-1c0.7,0,1.1,0,1.2,0.1c0.3,0.1,0.4,0.5,0.4,1.1c0,1.4-0.1,2.4-0.3,3.1
		c-0.1,0.3-0.4,0.5-0.9,0.6c-0.8,0.2-1.4,0.3-1.7,0.5c-0.7,0.3-1.4,0.9-1.9,1.8c0.7,1.2,1.9,1.8,3.7,1.8c0.8,0,1.3,0.2,1.3,0.5
		V460.9z M-201.4,455.4c-0.5-0.5-1.1-1.2-1.8-2c-1-1.4-1.5-2.1-1.6-2.1c-0.7,0.4-1.3,0.9-1.8,1.6c-0.5,0.8-0.8,1.5-0.8,2.2
		c0,0.8,0.2,1.4,0.7,1.9c0.4,0.5,1,0.8,1.8,0.8c0.7,0,1.4-0.2,2.1-0.7S-201.6,456-201.4,455.4z M-199.5,441.7c0-1.1-0.6-1.7-1.9-1.7
		c-0.6,0-1.2,0.2-1.6,0.6s-0.7,0.9-0.7,1.5c0,1,0.4,2,1.1,3C-200.5,443.9-199.5,442.8-199.5,441.7z"/>
	<path class="st3" d="M-157.3,461.5c0,0.1-0.1,0.1-0.4,0.2c-0.4,0.1-1.6,0.1-3.4,0.1c-1.5,0-2.6,0-3.1-0.1c-0.3,0-0.4-0.1-0.4-0.1
		c-0.1,0-0.2-0.2-0.2-0.4c-0.2-0.5-0.4-1.1-0.8-2c-0.5-1.2-1.2-2.9-2.1-5.2c-0.2-0.5-0.7-0.7-1.5-0.8c0.4,0-0.3,0-1.8,0
		c-0.2,0-0.3,0.3-0.3,0.9c0,0.8,0.1,2,0.2,3.6s0.2,2.8,0.2,3.6c0,0.2-0.1,0.3-0.2,0.4c-0.2,0-0.3,0-0.5,0c-0.7,0-1.8,0.1-3.2,0.1
		c-1.7,0-2.7,0-3-0.1s-0.5-0.3-0.5-0.5c0-1.3,0.1-3.2,0.2-5.8s0.2-4.6,0.2-5.9c0-5-0.1-8.8-0.3-11.6l0-0.2c0-0.2,0.2-0.3,0.6-0.4
		s2.2-0.1,5.4-0.2c2.2,0,3.9-0.1,5.2-0.1c2.7,0,4.9,0.6,6.5,1.8c1.9,1.4,2.9,3.3,2.9,5.9c0,1.7-0.2,3.1-0.7,4.1s-1.4,2-2.7,3
		c-0.3,0.2-0.4,0.4-0.4,0.5c0,0,0.7,1.5,2.1,4.4S-157.3,461.2-157.3,461.5z M-164.6,445.7c0-1.4-0.5-2.4-1.4-3
		c-0.7-0.4-1.9-0.6-3.4-0.6c-1.1,0-1.7,0.2-1.8,0.5c-0.1,0.4-0.1,1.5-0.1,3.4c0,0.3,0,0.7,0,1.2s0,0.9,0,1.2c0,0.1,0.2,0.1,0.6,0.2
		c0.7,0.1,1.5,0.2,2.3,0.2C-165.9,448.8-164.6,447.8-164.6,445.7z"/>
	<path class="st3" d="M-138.5,453c0,2.7-0.8,4.8-2.5,6.5s-3.8,2.5-6.4,2.5c-2.6,0-4.7-0.8-6.4-2.5s-2.5-3.8-2.5-6.3
		c0-2.7,0.8-4.9,2.4-6.6s3.8-2.5,6.5-2.5c2.6,0,4.8,0.8,6.4,2.5S-138.5,450.4-138.5,453z M-144.3,453c0-0.9-0.3-1.7-0.9-2.5
		s-1.3-1.1-2.2-1.1c-0.9,0-1.7,0.4-2.3,1.1c-0.6,0.7-0.8,1.5-0.8,2.4c0,0.9,0.3,1.8,0.8,2.4c0.6,0.7,1.4,1.1,2.3,1.1
		c0.9,0,1.7-0.4,2.3-1.1C-144.5,454.8-144.3,454-144.3,453z"/>
	<path class="st3" d="M-117.3,453.1c0,2.5-0.7,4.5-2.1,6.2c-1.5,1.8-3.5,2.6-5.9,2.6c-1.8,0-3.2-0.5-4.3-1.5
		c-0.1-0.1-0.2-0.1-0.2-0.1c-0.1,0-0.2,0.2-0.3,0.7s-0.2,0.7-0.4,0.7c-0.2,0.1-1.9,0.1-5,0.1c-0.7,0-1.1-0.1-1.1-0.4
		c0,0,0-0.1,0-0.3c0.2-1.9,0.4-5.4,0.4-10.7c0-5-0.2-9.4-0.5-13.1l0-0.2c0-0.2,0.2-0.3,0.5-0.3c0.3,0,1.3-0.1,3.1-0.3
		c1.3-0.1,2.3-0.2,3.1-0.2c0.2,0,0.3,0.2,0.3,0.6c0,0.5,0,1.1-0.1,1.8c-0.1,0.9-0.1,1.5-0.1,1.8c-0.1,1.2-0.1,2.7-0.1,4.7
		c0,0.4,0.1,0.5,0.3,0.5c0.1,0,0.2,0,0.3-0.1c1.1-1.1,2.4-1.7,4.1-1.7c2.6,0,4.6,0.9,6,2.6C-118,448.3-117.3,450.4-117.3,453.1z
		 M-123.7,452.9c0-1-0.3-1.8-0.9-2.5s-1.4-1-2.3-1c-1,0-1.8,0.3-2.3,1s-0.9,1.5-0.9,2.5c0,1,0.3,1.9,0.8,2.5c0.6,0.7,1.4,1,2.4,1
		c1,0,1.8-0.3,2.4-1C-123.9,454.7-123.7,453.9-123.7,452.9z"/>
	<path class="st3" d="M-98.3,453c0,2.7-0.8,4.8-2.5,6.5s-3.8,2.5-6.4,2.5c-2.6,0-4.7-0.8-6.4-2.5s-2.5-3.8-2.5-6.3
		c0-2.7,0.8-4.9,2.4-6.6s3.8-2.5,6.5-2.5c2.6,0,4.8,0.8,6.4,2.5S-98.3,450.4-98.3,453z M-104,453c0-0.9-0.3-1.7-0.9-2.5
		s-1.3-1.1-2.2-1.1c-0.9,0-1.7,0.4-2.3,1.1c-0.6,0.7-0.8,1.5-0.8,2.4c0,0.9,0.3,1.8,0.8,2.4c0.6,0.7,1.4,1.1,2.3,1.1
		c0.9,0,1.7-0.4,2.3-1.1C-104.3,454.8-104,454-104,453z"/>
	<path class="st3" d="M-84.4,456.5c0,0.4,0,0.9-0.1,1.6s-0.1,1.2-0.1,1.6s0,0.5-0.1,0.6s-0.3,0.2-0.6,0.4c-1.5,0.8-3.2,1.2-5,1.2
		c-3.4,0-5.1-1.3-5.1-3.9c0-0.8,0-1.9,0.1-3.5s0.1-2.7,0.1-3.5c0-0.5-0.3-0.8-0.9-0.8c0,0-0.1,0-0.2,0c-0.1,0-0.2,0-0.2,0
		c-0.4,0-0.7-0.2-0.7-0.5c0-0.2,0-0.5,0-0.9s0-0.7,0-0.9c0-0.2,0-0.6,0-1.1s0-0.9,0-1.1c0-0.2,0.4-0.4,1.1-0.4
		c0.4,0,0.7-0.1,0.7-0.4c0.1-0.4,0.1-1.1,0.1-2.1c0-1.5-0.1-2.2-0.1-2.2c0-1.4,0.1-2,0.4-2c0.3,0,0.8,0.1,1.4,0.2
		c0.7,0.2,1.1,0.2,1.4,0.3c0.6,0.1,1.5,0.2,2.7,0.3c0.3,0,0.4,0.1,0.4,0.3c0,0.5,0,1.2-0.1,2.1s-0.1,1.7-0.1,2.1
		c0,0.6,0.2,0.9,0.5,0.9c0.4,0,1,0,1.9-0.1s1.5-0.1,1.9-0.1c0.3,0,0.4,0.1,0.4,0.3c0,0.3,0,0.7-0.1,1.2s-0.1,0.9-0.1,1.2
		c0,0.3,0,0.7,0,1.2s0,0.9,0,1.2c0,0.2-0.2,0.4-0.5,0.4c-0.2,0-0.6,0-1.2,0s-0.9,0-1.2,0h-1.3c-0.2,0-0.3,0.3-0.3,0.8
		c0,0.3,0,0.7,0,1.2c0,0.6,0,1,0,1.2c0,1,0.1,1.7,0.3,2c0.3,0.5,0.9,0.8,1.9,0.8c0.3,0,0.7-0.1,1.3-0.2s0.9-0.2,1.2-0.2
		C-84.5,456.1-84.4,456.3-84.4,456.5z"/>
	<path class="st3" d="M-76,453.6c0,0.9,0,2.1,0.1,3.8s0.1,3,0.1,3.8c0,0.2-0.1,0.4-0.4,0.4c-0.4,0.1-1.3,0.1-2.7,0.1
		c-1.4,0-2.3,0-2.7-0.1c-0.3,0-0.4-0.1-0.5-0.2c0,0,0-0.2,0-0.5c0-0.8,0-2,0.1-3.6s0.1-2.8,0.1-3.7c0-3.3-0.1-6-0.4-7.9
		c0-0.2,0-0.3,0-0.4c0-0.2,0.2-0.4,0.5-0.4c0.3,0,0.8,0,1.5,0.1s1.2,0.1,1.5,0.1s0.8,0,1.5-0.1s1.2-0.1,1.5-0.1
		c0.3,0,0.4,0.1,0.4,0.4c0,0,0,0.2,0,0.3C-75.9,448-76,450.6-76,453.6z M-75.6,440.5c0,2-1.1,3.1-3.4,3.1c-1,0-1.8-0.3-2.4-0.8
		c-0.7-0.6-1.1-1.3-1.1-2.3c0-0.9,0.4-1.7,1.1-2.3c0.7-0.5,1.5-0.8,2.4-0.8c0.9,0,1.7,0.3,2.4,0.8
		C-75.9,438.9-75.6,439.6-75.6,440.5z"/>
	<path class="st3" d="M-61,450.1c0,0-0.4-0.1-1.1-0.3s-1.3-0.3-1.7-0.3c-1,0-1.9,0.3-2.5,0.9s-0.9,1.5-0.9,2.5c0,1.1,0.3,1.9,1,2.5
		s1.6,0.9,2.7,0.9c0.5,0,1.1-0.1,1.7-0.4s0.9-0.4,0.9-0.4c0.2,0,0.5,0.7,0.8,2.2c0.3,1.4,0.4,2.3,0.4,2.7s-0.7,0.8-2.2,1.1
		c-1.1,0.2-2,0.4-2.7,0.4c-2.6,0-4.7-0.9-6.4-2.6s-2.5-3.9-2.5-6.5c0-2.6,0.8-4.7,2.5-6.5s3.8-2.6,6.4-2.6c1.7,0,3.3,0.4,4.6,1.1
		c0.3,0.2,0.5,0.3,0.5,0.5s-0.2,0.8-0.5,2.1c-0.3,1.2-0.5,1.9-0.6,2.1S-60.9,450.1-61,450.1z"/>
	<path class="st3" d="M-47.4,447.5c0,0.1-0.1,0.3-0.3,0.5c-0.3-0.1-0.7-0.1-1-0.1c-0.7,0-1.3,0.2-1.7,0.5c-0.6,0.4-0.8,0.8-0.8,1.5
		c0,0.4,0.3,0.9,0.9,1.6c0.9,0.9,1.5,1.6,1.7,1.9c0.6,0.9,0.9,1.8,0.9,2.9c0,0.6-0.1,1.2-0.4,1.9c-0.3,0.7-0.6,1.3-1,1.6
		c-0.9,0.8-1.9,1.4-3,1.9c-1.3,0.5-2.4,0.8-3.5,0.8c-0.2,0-0.8-0.6-1.6-1.9s-1.2-2-1.2-2.3c0-0.1,0.1-0.2,0.2-0.2
		c0.8-0.2,1.6-0.3,2.5-0.5c1-0.3,1.5-0.9,1.5-1.6c0-0.5-0.3-1.1-0.9-1.8c-1.1-1.2-1.6-1.8-1.7-1.9c-0.6-0.8-0.9-1.7-0.9-2.7
		c0-1.8,0.9-3.3,2.7-4.5c1.6-1.1,3.3-1.6,5.1-1.6c0.2,0,0.7,0.6,1.4,1.9S-47.4,447.2-47.4,447.5z"/>
</g>
</svg>
